<svg xmlns="http://www.w3.org/2000/svg" viewBox="0 0 200 19" fill="currentColor"><path d="M154,2 L154,3 L154,18 L154,18 L154,18 L169,18 L170,18 L170,18 L170,15 L170,15 L159,15 L159,15 L159,12 L159,12 L169,12 L170,12 L170,12 L170,9 L169,8 L159,8 L159,8 L159,6 L159,6 L170,6 L170,6 L170,3 L170,2 Z"/><path d="M113,3 L113,3 L113,18 L113,18 L114,18 L117,18 L117,18 L118,18 L118,10 L118,10 L118,10 L119,11 L119,11 L120,12 L120,12 L121,12 L121,13 L122,13 L122,14 L122,14 L123,14 L123,14 L124,15 L124,16 L125,16 L125,16 L125,16 L126,16 L126,17 L127,18 L128,18 L128,18 L131,18 L131,18 L131,3 L131,2 L127,2 L127,3 L127,11 L127,11 L127,11 L126,11 L126,10 L126,10 L125,10 L125,9 L123,8 L121,6 L120,5 L120,5 L120,5 L119,5 L118,4 L118,4 L117,2 L114,2 Z"/><path d="M71,3 L71,18 L72,18 L72,18 L76,18 L76,18 L76,18 L76,17 L76,14 L77,13 L77,13 L78,13 L78,13 L79,13 L80,14 L80,14 L80,14 L80,14 L81,15 L81,15 L81,15 L81,15 L82,16 L82,16 L82,16 L82,17 L83,17 L83,17 L83,17 L83,18 L84,18 L84,18 L85,18 L85,18 L85,18 L90,18 L91,18 L91,18 L95,18 L95,18 L95,18 L96,17 L96,17 L96,16 L96,16 L97,16 L97,15 L97,15 L105,15 L105,16 L105,16 L106,16 L106,17 L106,17 L106,18 L107,18 L107,18 L107,18 L112,18 L112,18 L113,18 L112,18 L112,17 L112,17 L112,16 L111,16 L111,16 L111,16 L111,15 L110,15 L110,14 L110,14 L110,14 L110,13 L110,13 L109,12 L109,12 L109,12 L109,11 L108,11 L108,10 L108,10 L108,10 L107,9 L107,8 L106,8 L106,8 L106,7 L106,7 L106,7 L106,6 L105,6 L105,6 L105,5 L105,5 L104,4 L104,4 L104,3 L103,3 L103,3 L103,2 L99,2 L99,3 L99,3 L98,4 L98,4 L98,4 L98,5 L98,5 L97,6 L97,6 L96,7 L96,7 L96,8 L96,8 L96,8 L96,9 L95,9 L95,10 L95,10 L95,10 L94,12 L94,12 L94,13 L94,13 L93,13 L93,14 L93,14 L93,15 L92,15 L92,16 L92,16 L92,16 L91,17 L91,17 L91,17 L91,18 L90,17 L90,17 L88,16 L88,16 L88,15 L88,15 L88,15 L87,15 L85,12 L86,12 L86,12 L86,12 L87,12 L87,11 L88,10 L88,10 L88,10 L88,9 L89,8 L89,7 L89,6 L88,6 L88,6 L88,5 L88,5 L87,4 L86,3 L86,3 L85,3 L84,3 L84,3 L83,2 L72,2 Z"/><path d="M101,8 L101,8 L101,8 L101,8 L101,9 L102,9 L102,10 L102,10 L102,10 L103,11 L103,11 L99,11 L99,11 L99,11 L100,10 L100,10 L100,10 L100,9 L100,8 L100,8 Z"/><path d="M76,7 L77,6 L82,6 L82,7 L83,7 L83,7 L83,7 L83,8 L82,10 L77,10 L76,9 Z"/><path d="M54,3 L54,3 L54,3 L54,18 L54,18 L54,18 L58,18 L59,18 L59,14 L59,14 L59,14 L68,14 L69,13 L69,10 L68,10 L59,10 L59,9 L59,9 L59,7 L59,6 L69,6 L69,6 L69,3 L69,2 L54,2 Z"/><path d="M33,3 L33,18 L34,18 L38,18 L38,18 L38,18 L38,14 L38,14 L38,13 L41,13 L45,18 L46,18 L46,18 L47,18 L52,18 L52,18 L52,18 L52,18 L52,17 L51,17 L51,17 L51,17 L50,16 L50,16 L49,14 L48,14 L46,12 L47,12 L47,12 L48,12 L48,12 L48,12 L50,10 L50,10 L50,10 L50,9 L50,6 L50,5 L50,5 L48,4 L48,4 L48,3 L47,3 L47,3 L46,3 L45,2 L33,2 Z"/><path d="M38,6 L38,6 L43,6 L44,6 L44,7 L45,7 L45,8 L45,9 L44,10 L38,10 L38,9 L38,9 Z"/><path d="M24,2 L24,3 L24,17 L24,18 L24,18 L25,18 L29,18 L29,18 L29,3 L29,2 Z"/><path d="M1,18 L1,18 L1,18 L5,18 L5,18 L6,18 L6,18 L6,17 L6,16 L7,16 L7,15 L15,15 L16,16 L16,16 L16,16 L16,17 L16,17 L17,17 L17,18 L18,18 L22,18 L23,18 L23,18 L23,18 L23,17 L22,17 L22,16 L22,16 L22,16 L22,16 L22,15 L21,15 L21,14 L21,14 L21,14 L20,13 L20,13 L20,13 L20,12 L19,12 L19,12 L19,11 L19,11 L18,11 L18,10 L18,10 L18,10 L17,9 L17,9 L17,8 L17,8 L17,8 L17,7 L16,7 L16,7 L16,6 L16,6 L15,6 L15,5 L15,5 L15,5 L14,4 L14,4 L14,4 L14,3 L13,2 L9,2 L9,3 L9,3 L9,3 L8,4 L8,4 L8,4 L8,5 L7,6 L7,6 L7,7 L7,7 L6,8 L6,9 L5,9 L5,10 L5,10 L5,10 L4,11 L4,11 L4,12 L4,12 L3,13 L3,14 L3,14 L3,15 L2,15 L2,15 L2,16 L2,16 L2,16 L2,17 L1,17 L1,18 Z"/><path d="M11,7 L12,8 L12,8 L12,10 L12,10 L13,10 L13,11 L13,11 L9,11 L9,11 L9,11 L9,11 L10,10 L10,10 L10,9 L10,9 Z"/><path d="M133,7 L133,8 L133,8 L133,12 L133,13 L133,14 L134,14 L134,14 L134,15 L134,15 L135,15 L135,15 L135,16 L136,17 L136,17 L137,17 L137,17 L138,18 L138,18 L138,18 L139,18 L140,18 L140,18 L143,18 L143,19 L144,19 L145,18 L148,18 L148,18 L149,18 L150,18 L150,18 L151,17 L151,17 L152,17 L152,13 L152,13 L151,13 L150,13 L150,13 L150,14 L149,14 L149,14 L148,14 L147,14 L146,15 L142,15 L142,14 L141,14 L141,14 L140,14 L140,14 L140,13 L139,13 L139,12 L138,12 L138,11 L138,11 L138,9 L139,9 L139,8 L139,8 L140,7 L140,7 L140,7 L141,7 L141,7 L142,6 L143,6 L143,6 L147,6 L148,7 L148,7 L149,7 L150,7 L150,7 L151,7 L151,8 L151,8 L152,8 L152,4 L151,3 L150,3 L150,3 L149,3 L148,3 L148,2 L147,2 L146,2 L146,2 L146,2 L142,2 L141,2 L140,2 L140,3 L139,3 L138,3 L138,3 L136,4 L136,4 L136,5 L135,5 L134,6 L134,6 L134,6 L134,6 Z"/><path d="M199,1 L199,1 L198,1 L198,1 L197,1 L197,1 L196,1 L196,1 L195,1 L189,1 L188,1 L188,2 L188,2 L187,3 L187,3 L186,4 L186,4 L186,4 L186,5 L185,6 L185,6 L184,8 L184,8 L183,8 L183,9 L182,10 L182,10 L182,10 L182,11 L182,11 L182,11 L181,12 L181,12 L180,13 L179,14 L178,16 L178,16 L176,17 L176,17 L176,17 L174,17 L174,18 L174,18 L174,18 L185,18 L186,18 L186,18 L187,18 L187,18 L187,18 L188,17 L188,17 L190,16 L191,14 L191,14 L192,13 L192,12 L193,11 L193,11 L193,11 L193,10 L194,9 L194,9 L194,9 L195,8 L195,8 L196,7 L196,6 L196,6 L196,6 L197,5 L197,4 L198,4 L198,4 L198,3 L199,2 L199,2 L199,2 Z"/></svg>