<svg xmlns="http://www.w3.org/2000/svg" viewBox="0 0 176 60" fill="currentColor"><path d="M1,36 L1,37 L1,59 L1,59 L1,59 L12,59 L12,59 L13,59 L14,59 L15,59 L16,58 L16,58 L16,58 L17,58 L17,58 L19,56 L19,56 L19,56 L19,56 L19,55 L19,54 L20,54 L20,54 L20,51 L20,50 L20,50 L19,50 L19,49 L19,48 L19,48 L17,47 L17,47 L18,46 L18,46 L19,45 L19,45 L19,44 L19,44 L19,43 L19,42 L19,41 L18,40 L18,40 L18,39 L17,39 L17,39 L16,38 L16,37 L15,37 L14,37 L12,36 L1,36 Z"/><path d="M6,50 L6,50 L13,50 L13,50 L14,50 L14,51 L14,52 L14,53 L14,54 L13,54 L6,54 L6,54 Z"/><path d="M6,41 L6,41 L12,41 L13,42 L13,42 L14,42 L14,44 L13,44 L13,44 L12,45 L6,45 L6,45 Z"/><path d="M135,36 L135,37 L135,59 L135,59 L136,59 L152,59 L152,59 L152,56 L152,56 L152,56 L152,54 L152,54 L141,54 L140,53 L140,53 L140,53 L140,52 L140,51 L140,50 L141,50 L141,50 L150,50 L151,50 L151,50 L151,49 L151,46 L151,46 L150,45 L141,45 L140,45 L140,41 L141,41 L152,41 L152,41 L152,40 L152,40 L152,37 L152,36 L152,36 L151,36 L151,36 L149,36 L149,36 L144,36 L144,36 L143,36 L143,36 L143,36 L137,36 L137,36 L136,36 L136,36 Z"/><path d="M112,36 L112,36 L112,58 L112,58 L112,59 L112,59 L117,59 L117,59 L117,59 L117,52 L118,52 L121,52 L122,53 L122,54 L123,55 L123,55 L123,56 L123,56 L124,56 L124,57 L124,57 L124,58 L125,59 L126,59 L131,59 L132,59 L131,58 L130,56 L130,56 L129,55 L128,54 L128,54 L128,53 L127,52 L127,52 L127,52 L126,51 L126,50 L127,50 L128,49 L128,49 L129,49 L129,48 L129,47 L129,47 L130,46 L130,45 L130,45 L130,43 L130,43 L130,41 L129,41 L129,40 L129,40 L129,40 L129,39 L128,38 L128,38 L127,38 L126,37 L125,37 L125,37 L124,37 L123,36 L122,36 L122,36 L113,36 Z"/><path d="M117,41 L118,41 L122,41 L123,42 L123,42 L124,43 L124,43 L125,45 L124,46 L123,47 L122,47 L118,47 L117,47 Z"/><path d="M68,36 L68,37 L68,59 L68,59 L68,59 L83,59 L83,59 L83,54 L83,54 L74,54 L73,54 L73,36 L73,36 L72,36 L72,36 L72,36 L70,36 L70,36 Z"/><path d="M51,36 L50,36 L50,59 L51,59 L65,59 L65,59 L65,58 L65,55 L65,54 L65,54 L56,54 L56,54 L56,36 L56,36 L52,36 L52,36 Z"/><path d="M94,36 L94,36 L93,36 L92,37 L92,37 L91,37 L91,37 L90,38 L89,38 L89,38 L87,40 L86,41 L86,41 L86,42 L86,42 L86,42 L86,43 L85,43 L85,44 L85,44 L85,46 L84,46 L85,49 L85,50 L85,51 L85,51 L85,52 L86,53 L86,53 L86,54 L86,54 L87,55 L87,55 L88,56 L88,56 L89,57 L89,57 L91,58 L91,58 L91,58 L92,58 L92,59 L93,59 L94,59 L96,59 L97,59 L97,59 L99,59 L100,59 L100,59 L104,57 L105,55 L106,55 L106,55 L106,55 L106,54 L106,54 L106,54 L107,53 L107,53 L107,53 L107,52 L107,52 L108,51 L108,51 L108,50 L108,49 L108,48 L108,48 L108,46 L108,45 L108,44 L107,44 L107,43 L107,43 L107,42 L107,42 L106,42 L106,41 L106,41 L105,40 L104,39 L103,38 L103,38 L103,38 L102,37 L102,37 L102,37 L101,37 L100,37 L99,36 L99,36 L98,36 Z"/><path d="M95,41 L96,41 L96,41 L98,41 L98,42 L99,42 L100,42 L100,42 L102,44 L102,44 L102,45 L102,46 L103,46 L103,47 L103,47 L103,50 L102,50 L102,50 L102,51 L102,51 L102,52 L101,52 L100,53 L100,54 L100,54 L99,54 L98,54 L98,54 L97,54 L97,54 L95,54 L94,54 L94,54 L93,54 L93,54 L91,51 L91,51 L90,50 L90,50 L90,49 L90,46 L90,46 L90,46 L90,45 L90,45 L91,44 L91,44 L91,44 L91,44 L91,43 L92,43 L93,42 L93,42 L94,42 L94,42 Z"/><path d="M33,36 L33,36 L32,36 L31,36 L31,37 L30,37 L30,37 L29,37 L29,37 L28,38 L28,38 L28,38 L26,40 L26,40 L25,40 L25,41 L24,42 L24,42 L24,42 L24,43 L24,43 L24,44 L23,45 L23,46 L23,47 L23,49 L23,49 L23,50 L24,52 L24,52 L24,52 L24,52 L24,53 L24,54 L25,54 L25,54 L25,54 L25,55 L26,55 L26,56 L28,57 L28,57 L28,58 L29,58 L29,58 L30,58 L30,58 L31,59 L31,59 L32,59 L34,59 L34,59 L37,59 L38,59 L38,59 L39,59 L39,58 L40,58 L40,58 L41,58 L41,58 L42,57 L42,57 L44,55 L44,55 L45,54 L45,53 L45,53 L45,53 L46,52 L46,52 L46,51 L46,51 L47,49 L46,46 L46,45 L46,44 L45,43 L45,42 L45,42 L45,41 L45,41 L44,40 L44,40 L42,39 L42,39 L42,38 L41,37 L40,37 L40,37 L40,37 L39,37 L39,37 L38,36 L37,36 L37,36 L36,36 Z"/><path d="M33,41 L34,41 L34,41 L36,41 L37,42 L37,42 L38,42 L38,42 L40,44 L40,44 L41,45 L41,45 L41,46 L41,48 L41,48 L41,50 L41,50 L41,51 L40,51 L40,51 L39,53 L38,53 L38,54 L38,54 L38,54 L37,54 L36,54 L34,54 L34,54 L33,54 L33,54 L32,54 L32,54 L31,54 L31,53 L31,53 L31,53 L29,52 L29,51 L29,51 L29,51 L29,50 L29,50 L28,49 L28,46 L29,46 L29,45 L29,44 L29,44 L30,44 L30,43 L30,43 L31,43 L31,42 L31,42 L32,42 L32,42 L33,42 Z"/><path d="M148,28 L147,28 L146,28 L145,29 L144,30 L144,30 L144,30 L144,30 L142,32 L142,32 L142,32 L141,33 L141,34 L141,34 L141,34 L141,35 L143,35 L144,34 L144,34 L146,32 L146,32 L147,32 L147,31 L148,31 L148,30 L148,30 L149,30 L149,29 Z"/><path d="M166,6 L166,6 L166,6 L166,6 L165,7 L165,7 L165,7 L165,8 L164,9 L164,9 L164,10 L164,10 L163,10 L163,11 L162,12 L162,13 L162,13 L162,13 L161,14 L161,14 L161,14 L161,15 L162,15 L162,14 L162,14 L164,14 L164,13 L164,13 L166,12 L166,12 L166,12 L166,12 L167,12 L168,11 L169,10 L169,10 L170,10 L170,10 L170,9 Z"/><path d="M117,1 L118,1 L118,1 L119,2 L119,2 L120,2 L121,2 L121,2 L122,2 L122,3 L123,3 L124,3 L124,3 L125,4 L126,4 L127,4 L127,4 L128,5 L128,5 L128,5 L130,6 L131,7 L132,7 L132,7 L133,7 L133,8 L134,8 L134,8 L135,8 L136,9 L136,9 L136,10 L137,10 L138,10 L138,10 L138,11 L139,11 L139,11 L140,11 L140,12 L140,12 L142,13 L142,13 L144,14 L144,14 L145,15 L145,15 L146,16 L146,16 L147,17 L147,17 L147,17 L148,18 L149,18 L149,18 L151,21 L151,21 L152,22 L153,22 L153,22 L154,24 L155,25 L156,25 L156,25 L157,27 L158,28 L158,28 L159,29 L159,29 L159,29 L160,30 L160,30 L160,30 L160,30 L160,31 L161,32 L161,32 L162,33 L162,33 L162,33 L162,34 L163,34 L163,35 L164,36 L164,36 L164,36 L164,36 L165,37 L165,38 L166,38 L166,38 L166,39 L166,40 L167,41 L167,41 L168,41 L168,42 L168,42 L168,42 L169,44 L169,44 L170,46 L170,46 L170,47 L171,48 L171,48 L171,48 L171,49 L172,49 L172,50 L172,50 L172,51 L172,51 L172,52 L173,52 L173,53 L173,53 L173,54 L174,54 L174,55 L174,55 L174,56 L174,56 L174,57 L175,58 L175,58 L175,59 L175,58 L175,58 L175,57 L175,57 L175,55 L175,54 L175,52 L174,52 L174,51 L174,50 L174,49 L174,49 L173,48 L173,47 L173,46 L173,46 L173,45 L172,45 L172,44 L172,44 L172,43 L172,43 L171,42 L171,42 L171,42 L171,41 L171,40 L170,40 L170,39 L170,39 L170,39 L170,38 L169,38 L169,38 L169,37 L168,36 L168,36 L168,35 L167,34 L167,34 L167,34 L167,33 L166,32 L166,31 L165,31 L165,31 L165,30 L164,30 L164,29 L164,29 L164,29 L163,28 L163,28 L163,27 L163,27 L162,27 L162,27 L161,25 L161,25 L159,23 L158,22 L158,22 L156,20 L156,19 L155,19 L155,19 L155,19 L153,17 L153,17 L152,16 L151,15 L151,15 L150,15 L150,14 L149,13 L149,13 L148,13 L148,13 L148,13 L147,12 L146,12 L146,11 L145,11 L145,11 L145,11 L145,10 L144,10 L143,9 L142,9 L141,8 L141,8 L141,8 L140,8 L139,7 L139,7 L138,7 L138,7 L138,6 L137,6 L136,5 L135,5 L135,5 L134,5 L134,5 L134,5 L133,4 L132,4 L132,4 L131,4 L131,3 L130,3 L129,3 L129,3 L128,3 L128,2 L127,2 L126,2 L126,2 L125,2 L124,1 L123,1 L122,1 L121,1 L120,1 L120,1 L120,1 L118,1 Z"/></svg>