<svg xmlns="http://www.w3.org/2000/svg" viewBox="0 0 190 60" fill="currentColor"><path d="M59,38 L58,38 L58,38 L58,39 L57,40 L57,40 L57,42 L58,41 L58,41 L59,39 L59,38 Z"/><path d="M166,29 L166,52 L190,52 L190,48 L171,48 L171,48 L171,43 L171,42 L184,42 L184,38 L171,38 L171,38 L171,34 L171,34 L189,34 L189,33 L190,33 L190,30 L189,30 L189,29 Z"/><path d="M103,52 L108,52 L108,44 L108,44 L122,44 L123,43 L125,43 L125,43 L126,43 L126,42 L127,42 L127,42 L127,42 L127,42 L128,42 L128,41 L128,41 L128,41 L128,41 L129,40 L129,40 L129,39 L130,39 L130,34 L129,34 L129,33 L129,33 L128,32 L128,32 L128,32 L128,32 L128,31 L127,31 L127,30 L126,30 L126,30 L125,30 L125,30 L123,30 L122,29 L103,29 Z"/><path d="M108,34 L108,34 L123,34 L123,34 L124,34 L124,35 L124,35 L124,36 L125,36 L125,37 L124,38 L124,38 L124,38 L124,39 L123,39 L123,39 L108,39 L108,39 Z"/><path d="M72,29 L72,30 L71,30 L71,52 L93,52 L93,52 L95,52 L95,51 L96,51 L96,51 L97,51 L97,50 L97,50 L97,49 L98,49 L98,49 L98,49 L98,48 L99,48 L99,44 L98,44 L98,43 L98,43 L98,42 L97,42 L97,42 L97,42 L97,41 L96,41 L96,41 L96,41 L96,40 L96,40 L96,39 L97,39 L97,38 L97,38 L97,37 L98,37 L98,34 L97,34 L97,33 L97,33 L97,32 L96,32 L96,32 L96,32 L96,31 L95,31 L95,30 L94,30 L94,30 L94,30 L94,30 L91,30 L91,29 Z"/><path d="M76,43 L76,42 L92,42 L92,43 L93,43 L93,43 L93,43 L93,44 L94,44 L94,45 L94,45 L94,46 L94,46 L94,46 L93,46 L93,47 L93,47 L93,47 L92,47 L92,48 L76,48 L76,48 Z"/><path d="M76,34 L76,34 L92,34 L92,34 L93,34 L93,35 L93,35 L93,37 L93,37 L93,38 L92,38 L92,38 L91,38 L91,38 L76,38 L76,38 Z"/><path d="M134,35 L134,36 L133,36 L133,37 L133,37 L133,38 L132,38 L132,42 L133,43 L133,44 L133,45 L133,45 L134,46 L134,46 L134,46 L134,47 L135,47 L135,48 L135,48 L135,48 L136,48 L136,49 L136,49 L136,49 L137,49 L137,50 L138,50 L138,50 L138,50 L138,51 L139,51 L139,51 L140,51 L140,52 L141,52 L141,52 L143,52 L143,52 L146,52 L146,53 L150,53 L150,52 L152,52 L153,52 L154,52 L154,52 L155,52 L155,51 L156,51 L156,51 L157,51 L157,50 L158,50 L158,50 L158,50 L158,49 L159,49 L159,49 L159,49 L159,48 L160,48 L160,48 L160,48 L160,47 L161,47 L161,47 L160,47 L160,46 L160,46 L159,46 L159,46 L159,46 L158,46 L158,45 L157,45 L157,45 L157,45 L157,45 L156,45 L156,45 L156,46 L156,46 L155,46 L155,46 L154,46 L154,47 L154,47 L154,47 L153,47 L153,48 L151,48 L151,48 L145,48 L144,48 L143,48 L143,47 L142,47 L142,47 L141,47 L141,46 L140,46 L140,46 L140,46 L139,46 L139,45 L139,45 L138,45 L138,44 L138,44 L138,43 L138,42 L138,39 L138,39 L138,38 L138,37 L138,37 L139,36 L139,36 L139,36 L139,36 L140,36 L140,35 L140,35 L140,35 L141,35 L141,34 L142,34 L142,34 L144,34 L144,33 L145,33 L146,33 L150,33 L150,33 L152,33 L152,34 L153,34 L154,34 L154,34 L154,35 L155,35 L155,35 L155,35 L155,36 L156,36 L156,36 L157,36 L157,36 L157,36 L157,36 L159,36 L159,36 L159,36 L160,36 L160,35 L161,35 L161,34 L160,34 L160,34 L160,34 L160,33 L159,33 L159,33 L159,33 L159,32 L158,32 L158,32 L158,32 L158,32 L157,31 L157,31 L156,31 L156,30 L155,30 L155,30 L154,30 L154,30 L153,30 L153,29 L152,29 L151,29 L144,29 L144,29 L142,29 L142,30 L140,30 L140,30 L139,30 L139,30 L138,30 L138,31 L138,31 L138,32 L137,32 L137,32 L137,32 L137,32 L136,32 L136,33 L136,33 L136,33 L135,33 L135,34 L135,34 L135,34 L134,34 L134,35 Z"/><path d="M159,11 L159,23 L172,23 L172,21 L161,21 L161,21 L161,18 L161,18 L168,18 L168,16 L161,16 L161,16 L161,14 L161,14 L171,14 L171,13 L172,13 L172,11 L171,11 L171,11 Z"/><path d="M142,23 L145,23 L145,19 L145,19 L153,19 L153,18 L154,18 L154,18 L155,18 L155,18 L155,17 L155,17 L156,17 L156,16 L156,16 L156,14 L156,14 L156,12 L155,12 L155,12 L154,12 L154,11 L154,11 L153,11 L142,11 Z"/><path d="M145,14 L145,14 L153,14 L153,14 L154,14 L154,16 L153,16 L153,16 L152,16 L152,17 L145,17 L145,16 Z"/><path d="M125,11 L125,11 L124,11 L124,20 L125,20 L125,21 L125,21 L125,22 L126,22 L126,22 L127,22 L127,22 L128,22 L128,23 L129,23 L129,23 L134,23 L134,23 L136,23 L136,22 L137,22 L137,22 L137,22 L137,22 L138,22 L138,21 L138,21 L138,20 L139,20 L139,11 L138,11 L138,11 L136,11 L136,19 L136,19 L136,20 L135,20 L135,20 L135,20 L135,21 L129,21 L128,20 L128,20 L128,20 L128,19 L127,19 L127,11 Z"/><path d="M90,11 L90,23 L92,23 L92,22 L93,22 L93,19 L92,19 L92,19 L98,19 L98,19 L98,20 L99,20 L99,20 L99,20 L99,21 L100,21 L100,22 L100,22 L100,22 L101,22 L101,22 L101,22 L101,23 L104,23 L104,22 L103,22 L103,22 L103,22 L103,21 L102,21 L102,20 L102,20 L102,20 L102,20 L102,19 L101,19 L101,18 L102,18 L102,18 L102,18 L102,18 L103,17 L103,17 L103,17 L103,16 L104,16 L104,14 L103,14 L103,13 L103,13 L103,12 L102,12 L102,12 L102,12 L102,11 L101,11 L101,11 Z"/><path d="M93,14 L93,14 L100,14 L101,14 L101,14 L101,16 L101,16 L100,16 L100,16 L100,17 L93,17 L93,16 Z"/><path d="M110,11 L110,11 L110,11 L109,12 L109,12 L108,12 L108,12 L108,13 L108,13 L108,13 L107,13 L107,14 L107,14 L107,14 L106,15 L106,16 L106,16 L106,18 L106,18 L106,19 L107,19 L107,20 L107,20 L107,21 L108,21 L108,21 L108,21 L108,22 L108,22 L109,22 L109,22 L109,22 L110,22 L110,23 L112,23 L112,23 L116,23 L116,23 L117,23 L118,22 L118,22 L118,22 L119,22 L119,22 L120,22 L120,21 L120,21 L120,21 L121,21 L121,20 L121,20 L121,19 L122,19 L122,18 L122,18 L122,16 L122,16 L122,15 L121,14 L121,14 L121,14 L121,13 L120,13 L120,13 L120,13 L120,12 L119,12 L119,12 L118,12 L118,11 L118,11 L117,11 L116,11 L116,10 L112,10 L112,11 Z"/><path d="M108,16 L109,16 L109,15 L109,15 L109,15 L110,14 L110,14 L110,14 L110,14 L111,14 L112,13 L116,13 L116,14 L117,14 L118,14 L118,14 L118,14 L118,15 L118,16 L119,16 L119,19 L118,19 L118,19 L118,19 L118,20 L118,20 L117,20 L116,20 L116,21 L112,21 L111,20 L110,20 L110,20 L110,20 L110,19 L110,19 L109,19 L109,19 L109,18 L108,18 Z"/><path d="M73,12 L73,13 L73,13 L73,13 L72,13 L72,14 L72,14 L72,14 L71,15 L71,19 L72,19 L72,20 L72,20 L72,21 L72,21 L73,21 L73,21 L73,22 L73,22 L74,22 L74,22 L74,22 L75,22 L75,23 L77,23 L77,23 L81,23 L81,23 L82,23 L82,22 L84,22 L84,22 L84,22 L84,22 L85,22 L85,21 L85,21 L85,21 L86,21 L86,20 L86,20 L86,19 L86,19 L86,18 L87,17 L87,17 L87,17 L86,16 L78,16 L78,19 L83,19 L83,19 L83,19 L83,20 L82,20 L82,20 L82,20 L81,21 L76,21 L76,20 L75,20 L75,20 L75,20 L75,19 L74,19 L74,19 L74,19 L74,15 L74,15 L74,15 L75,14 L75,14 L75,14 L75,14 L76,14 L76,13 L78,13 L78,13 L80,13 L80,13 L81,13 L82,14 L82,14 L82,14 L83,14 L83,14 L84,14 L84,14 L85,14 L85,14 L86,14 L86,13 L85,13 L85,13 L85,13 L85,12 L84,12 L84,12 L83,12 L83,11 L83,11 L83,11 L81,11 L80,10 L77,10 L77,11 L75,11 L75,11 L74,11 L74,12 L74,12 L73,12 Z"/><path d="M32,1 L30,2 L28,2 L28,2 L27,2 L25,2 L25,3 L23,3 L22,3 L21,3 L19,5 L18,5 L17,5 L16,6 L15,6 L14,7 L14,7 L13,7 L10,10 L9,11 L8,12 L8,12 L7,13 L6,16 L6,16 L5,18 L4,20 L4,21 L3,22 L3,22 L3,23 L2,25 L2,25 L2,26 L2,26 L2,26 L2,28 L2,28 L2,29 L2,29 L2,30 L2,31 L1,31 L1,33 L2,34 L2,34 L2,34 L2,35 L2,36 L2,37 L3,37 L3,38 L4,39 L4,40 L4,41 L4,42 L5,42 L5,42 L5,43 L7,45 L7,45 L6,46 L7,46 L7,47 L8,47 L8,47 L8,47 L8,48 L8,48 L9,49 L11,51 L11,51 L12,52 L12,52 L12,53 L12,53 L13,53 L13,54 L15,54 L16,55 L16,55 L17,56 L18,56 L18,56 L19,56 L21,57 L22,57 L23,57 L24,57 L26,58 L26,58 L27,58 L30,58 L32,58 L33,58 L34,58 L35,58 L37,57 L38,57 L38,56 L40,56 L42,55 L43,55 L44,54 L45,54 L45,54 L46,53 L49,50 L50,49 L50,48 L51,48 L51,48 L52,47 L52,47 L52,46 L52,46 L53,45 L53,44 L54,43 L55,42 L56,40 L57,39 L57,38 L57,38 L58,37 L58,37 L58,38 L59,37 L59,36 L59,36 L60,35 L60,32 L60,32 L60,31 L59,29 L59,28 L59,27 L59,26 L57,25 L57,23 L56,21 L56,21 L54,19 L54,18 L54,17 L54,16 L53,16 L52,15 L52,14 L52,14 L50,12 L50,12 L49,11 L48,10 L48,9 L48,9 L47,9 L46,7 L45,6 L44,6 L44,6 L43,5 L42,5 L41,5 L41,4 L40,4 L38,4 L36,4 L35,3 L35,3 L35,3 L34,3 L33,2 L34,2 Z"/><path d="M22,43 L22,42 L23,42 L23,42 L25,42 L26,43 L26,43 L26,44 L25,44 L24,44 L23,43 Z"/><path d="M40,36 L40,37 L40,38 L40,38 L39,39 L39,40 L39,40 L39,41 L37,43 L37,43 L36,43 L36,43 L36,42 L38,41 L38,41 L38,40 L38,39 L39,38 L39,38 L39,37 L39,37 L40,36 Z"/><path d="M57,35 L57,35 L57,36 L56,37 L56,36 L56,36 L56,35 Z"/><path d="M56,31 L57,32 L57,33 L57,33 L56,34 L56,33 L56,32 Z"/><path d="M30,9 L30,8 L31,9 L30,9 Z"/><path d="M28,9 L29,8 L29,8 L29,9 L29,9 Z"/><path d="M31,8 L32,8 L32,8 L33,8 L35,8 L35,8 L35,8 L36,8 L38,8 L38,8 L39,9 L39,9 L40,9 L41,9 L41,9 L43,10 L43,10 L44,11 L47,15 L47,16 L48,17 L48,17 L50,19 L50,19 L51,20 L51,20 L52,22 L52,23 L52,23 L52,24 L52,25 L52,27 L52,27 L52,28 L52,29 L51,27 L51,27 L50,26 L50,26 L50,25 L50,24 L49,23 L48,22 L48,21 L47,20 L47,19 L46,18 L46,17 L46,17 L45,16 L45,16 L45,16 L44,15 L44,15 L43,15 L43,14 L42,14 L40,12 L39,11 L38,11 L37,10 L36,10 L35,10 L34,9 L33,9 L32,9 L32,9 L31,9 Z"/></svg>