<svg xmlns="http://www.w3.org/2000/svg" viewBox="0 0 200 54" fill="currentColor"><path d="M124,53 L124,53 L125,53 L132,53 L132,53 L132,52 L132,52 L132,50 L132,50 L132,50 L132,49 L144,49 L145,50 L145,50 L145,51 L145,51 L145,52 L145,52 L145,53 L145,53 L145,53 L152,53 L152,53 L152,53 L152,52 L152,51 L150,50 L150,49 L150,48 L150,48 L150,48 L150,47 L149,47 L149,46 L149,46 L149,45 L148,45 L148,44 L148,44 L148,44 L147,43 L147,42 L147,42 L147,42 L146,41 L146,40 L146,39 L145,38 L145,37 L145,37 L144,36 L144,36 L144,36 L144,35 L143,35 L143,34 L143,34 L143,33 L143,32 L135,32 L134,33 L134,34 L134,34 L134,35 L134,35 L134,36 L133,36 L133,37 L133,37 L133,37 L132,38 L132,38 L132,39 L132,39 L131,40 L131,40 L131,40 L131,41 L130,41 L130,42 L129,44 L129,44 L129,45 L129,45 L128,46 L128,46 L127,47 L127,48 L127,48 L127,49 L126,50 L126,51 L126,51 L126,51 L125,52 L125,52 L125,52 L125,53 Z"/><path d="M139,37 L139,37 L139,38 L140,38 L140,38 L140,39 L140,40 L140,40 L140,41 L141,41 L141,42 L141,42 L142,43 L142,44 L142,45 L142,45 L135,45 L135,45 L135,44 L135,44 L136,41 L136,41 L137,40 L137,40 L137,40 L137,39 L138,38 L138,37 Z"/><path d="M104,32 L104,33 L104,33 L104,33 L104,34 L105,34 L106,36 L106,36 L106,36 L106,50 L105,51 L105,52 L104,53 L104,53 L105,54 L106,54 L106,53 L123,53 L123,53 L123,53 L123,52 L123,52 L123,51 L123,51 L123,50 L124,49 L124,49 L124,48 L124,48 L123,48 L123,48 L122,48 L122,49 L121,49 L120,49 L119,49 L118,50 L112,50 L111,49 L111,35 L111,35 L112,34 L112,34 L113,33 L112,32 Z"/><path d="M52,33 L53,34 L54,34 L54,35 L54,36 L54,51 L54,51 L54,52 L52,53 L52,53 L53,53 L61,53 L61,53 L60,51 L60,51 L60,50 L60,46 L60,45 L63,45 L64,46 L64,46 L65,46 L65,46 L66,47 L66,47 L66,47 L66,47 L68,49 L68,49 L68,50 L68,50 L69,50 L69,51 L69,51 L69,52 L69,53 L69,53 L70,53 L70,54 L74,53 L74,54 L75,54 L75,53 L77,53 L78,53 L78,53 L77,52 L76,51 L76,51 L75,50 L74,48 L74,48 L74,48 L73,47 L73,46 L72,46 L71,45 L71,45 L71,44 L72,44 L72,44 L73,44 L74,43 L75,42 L75,41 L75,41 L76,40 L76,40 L76,38 L76,37 L76,37 L75,36 L75,36 L75,35 L74,34 L72,33 L72,33 L71,33 L68,33 L68,33 L65,33 L65,32 L53,32 Z"/><path d="M60,37 L60,37 L60,36 L68,37 L68,37 L69,37 L70,38 L70,39 L70,40 L70,40 L69,40 L68,41 L65,41 L64,42 L64,41 L63,41 L63,42 L62,41 L61,42 L60,41 L60,41 L60,40 Z"/><path d="M23,53 L23,53 L24,54 L24,54 L24,53 L30,53 L30,54 L31,53 L31,53 L30,51 L31,50 L31,49 L43,49 L43,50 L44,50 L44,50 L44,51 L44,51 L44,52 L44,52 L43,53 L44,53 L50,53 L50,54 L51,53 L51,52 L51,52 L50,52 L50,51 L50,51 L50,51 L50,50 L49,49 L49,48 L48,48 L48,48 L48,47 L48,47 L48,46 L48,46 L47,45 L47,45 L47,44 L47,44 L46,43 L46,42 L45,42 L45,41 L45,41 L45,40 L44,39 L44,39 L44,39 L44,38 L43,37 L43,36 L43,36 L43,36 L42,35 L42,35 L42,34 L42,33 L41,32 L34,32 L33,33 L33,34 L33,34 L33,35 L32,35 L32,35 L32,36 L32,36 L32,37 L32,37 L31,38 L31,38 L31,38 L31,39 L30,40 L29,42 L29,42 L29,42 L28,43 L28,43 L28,44 L28,44 L28,44 L28,45 L27,46 L27,46 L27,46 L26,48 L26,48 L26,48 L25,49 L25,49 L24,50 L24,51 L24,52 Z"/><path d="M37,37 L38,37 L38,37 L38,37 L38,38 L38,38 L39,39 L39,39 L39,40 L39,40 L39,41 L39,41 L40,42 L40,42 L40,44 L41,44 L41,44 L41,45 L41,45 L38,45 L38,45 L35,45 L35,45 L34,45 L34,45 L34,44 L34,44 L34,43 L34,43 L34,42 L35,42 L35,42 L35,41 L36,39 L36,39 L36,39 L36,38 L37,38 L37,37 L37,37 Z"/><path d="M4,36 L3,36 L2,37 L2,38 L2,38 L2,38 L2,38 L2,39 L1,40 L1,42 L1,45 L1,46 L1,47 L2,47 L2,48 L2,48 L2,49 L2,49 L2,49 L3,50 L3,50 L4,51 L4,51 L4,51 L4,51 L5,52 L5,52 L6,52 L6,52 L7,52 L7,53 L8,53 L9,53 L10,53 L11,54 L16,54 L16,54 L19,53 L19,53 L22,53 L22,53 L22,48 L22,48 L21,48 L20,48 L20,48 L20,48 L19,49 L18,49 L17,49 L17,49 L16,50 L15,50 L12,50 L12,49 L11,49 L10,49 L10,49 L9,48 L9,48 L8,47 L7,46 L7,46 L7,45 L7,44 L7,43 L7,43 L7,42 L7,41 L7,40 L7,40 L8,40 L8,39 L9,38 L9,38 L9,38 L10,37 L11,37 L12,37 L13,37 L13,36 L17,37 L18,37 L19,37 L19,38 L20,38 L20,38 L20,38 L21,38 L21,38 L21,38 L22,37 L22,37 L22,36 L22,36 L23,34 L23,33 L23,33 L22,33 L22,33 L20,33 L20,33 L19,33 L18,32 L16,32 L16,32 L11,32 L10,33 L9,33 L8,33 L8,33 L7,33 L7,34 L6,34 L6,34 L6,34 Z"/><path d="M192,33 L192,33 L190,33 L190,32 L188,32 L187,32 L181,32 L181,32 L180,32 L179,33 L178,33 L178,33 L177,33 L177,34 L177,34 L176,35 L176,35 L175,35 L175,35 L175,36 L174,36 L174,37 L174,38 L174,40 L174,40 L174,41 L175,42 L175,42 L175,42 L176,43 L177,43 L177,44 L177,44 L178,44 L178,44 L180,45 L181,45 L182,45 L183,45 L185,45 L186,45 L187,47 L187,48 L187,49 L186,49 L186,49 L185,50 L180,50 L179,49 L178,49 L178,49 L177,49 L176,48 L176,48 L174,48 L174,48 L174,48 L174,49 L174,50 L174,51 L174,51 L175,53 L175,53 L175,54 L176,54 L178,54 L178,54 L181,54 L181,54 L185,54 L185,54 L186,54 L187,53 L188,53 L188,53 L189,53 L189,52 L190,52 L190,52 L191,52 L191,52 L191,52 L192,51 L193,50 L193,49 L193,49 L193,48 L193,48 L193,45 L193,44 L193,44 L192,43 L191,42 L190,41 L189,41 L189,41 L188,41 L187,40 L186,40 L184,40 L182,40 L182,40 L180,39 L180,39 L180,38 L180,38 L180,37 L181,37 L181,37 L181,37 L182,36 L183,36 L184,36 L185,36 L186,37 L187,37 L188,37 L189,37 L190,38 L190,38 L190,38 L191,38 L192,37 L192,36 L192,35 L192,35 L192,34 L192,33 Z"/><path d="M171,33 L170,33 L169,33 L169,32 L168,32 L166,32 L161,32 L160,32 L159,32 L158,33 L157,33 L157,33 L156,34 L156,34 L156,34 L155,34 L155,34 L155,35 L155,35 L154,35 L154,35 L153,36 L153,37 L153,38 L153,38 L153,38 L153,40 L153,40 L153,41 L154,42 L154,42 L155,43 L155,43 L155,43 L156,43 L156,44 L157,44 L157,44 L158,44 L159,45 L160,45 L161,45 L163,45 L164,45 L166,45 L166,46 L167,48 L166,48 L166,49 L165,49 L165,50 L164,50 L159,50 L158,49 L158,49 L157,49 L156,49 L156,48 L155,48 L154,48 L154,48 L154,48 L153,48 L153,48 L153,49 L153,49 L153,50 L153,51 L154,52 L154,53 L154,53 L155,54 L156,53 L156,54 L157,54 L157,54 L160,54 L160,54 L165,54 L166,53 L167,53 L168,53 L168,52 L169,52 L170,52 L170,52 L172,50 L172,50 L172,50 L172,49 L172,49 L172,48 L172,45 L172,44 L171,43 L170,42 L170,42 L170,42 L169,41 L168,41 L167,41 L167,41 L166,40 L164,40 L163,40 L162,40 L161,40 L160,39 L159,39 L159,39 L159,38 L159,38 L159,37 L160,37 L160,37 L161,36 L162,36 L164,36 L165,37 L166,37 L168,37 L168,37 L169,38 L169,38 L170,38 L170,38 L170,38 L170,37 L171,37 L171,36 L171,35 L171,34 L171,34 L171,33 Z"/><path d="M79,37 L79,37 L78,38 L78,39 L78,39 L78,40 L78,40 L77,41 L77,46 L78,48 L78,48 L79,49 L79,49 L80,50 L80,50 L81,52 L83,52 L84,52 L84,53 L84,53 L85,53 L87,54 L87,54 L88,54 L88,54 L92,54 L93,54 L94,54 L94,53 L96,53 L96,53 L97,53 L98,52 L101,52 L101,52 L101,52 L102,52 L102,51 L101,51 L101,44 L102,43 L101,43 L102,43 L102,42 L102,41 L102,41 L101,41 L101,41 L100,41 L100,41 L97,41 L96,41 L92,41 L92,41 L91,41 L91,41 L90,41 L90,41 L89,42 L89,43 L89,44 L88,44 L88,45 L89,45 L89,45 L90,45 L91,45 L95,45 L96,45 L96,45 L96,46 L96,47 L96,47 L96,48 L94,49 L94,49 L93,50 L93,50 L88,50 L87,49 L87,49 L86,49 L86,49 L84,47 L84,47 L84,46 L84,46 L83,45 L83,42 L84,41 L84,41 L84,40 L84,39 L85,39 L85,39 L85,38 L86,38 L87,37 L87,37 L88,37 L89,37 L89,36 L93,36 L94,37 L95,37 L96,37 L96,37 L97,38 L98,38 L98,38 L99,38 L99,38 L99,37 L100,36 L100,35 L100,35 L100,34 L100,34 L100,33 L100,33 L97,33 L96,32 L95,32 L94,32 L89,32 L87,32 L86,32 L86,33 L85,33 L84,33 L84,33 L83,34 L83,34 L82,34 L82,34 L80,36 Z"/><path d="M196,27 L196,28 L195,28 L194,29 L194,30 L194,31 L195,33 L196,33 L197,33 L198,33 L198,32 L198,32 L199,32 L199,30 L199,30 L199,29 L199,29 L198,28 L197,28 L197,27 Z"/><path d="M198,32 L197,32 L196,32 L195,32 L196,32 L196,31 L197,31 L197,32 Z"/><path d="M198,29 L198,30 L198,31 L198,31 L198,31 L198,30 Z"/><path d="M195,29 L195,29 L195,32 L195,32 L195,31 L194,30 L194,30 Z"/><path d="M107,22 L107,22 L126,22 L126,22 L127,22 L130,21 L130,20 L130,20 L131,19 L132,19 L132,19 L132,19 L133,19 L133,18 L133,18 L134,18 L135,17 L135,17 L136,17 L136,17 L136,16 L136,16 L137,16 L138,15 L138,15 L138,15 L139,14 L140,14 L141,13 L141,13 L141,13 L142,13 L143,12 L143,12 L144,11 L145,11 L145,11 L145,11 L146,10 L146,10 L146,10 L147,9 L148,9 L148,9 L148,8 L149,8 L149,8 L150,8 L150,7 L150,7 L151,7 L151,7 L152,6 L153,6 L153,5 L153,5 L154,5 L154,5 L154,4 L155,4 L155,4 L155,4 L156,4 L156,3 L156,3 L157,3 L157,3 L157,3 L158,2 L158,2 L159,1 L159,1 L160,1 L160,1 L159,1 L127,1 L127,1 L126,1 L126,1 L107,1 L107,1 Z"/><path d="M35,22 L35,22 L35,22 L67,22 L67,22 L68,22 L68,22 L68,22 L68,22 L87,22 L87,22 L87,22 L88,22 L106,22 L107,22 L107,1 L106,1 L88,1 L88,1 L87,1 L87,1 L68,1 L68,1 L68,1 L67,1 L67,1 L66,1 L66,1 L66,2 L65,2 L65,2 L64,2 L64,2 L64,2 L64,3 L63,3 L63,3 L63,3 L62,4 L62,4 L61,4 L61,4 L60,5 L60,5 L60,6 L59,6 L59,6 L58,6 L58,6 L56,8 L56,8 L55,8 L54,9 L54,9 L54,9 L53,10 L52,10 L52,10 L52,10 L51,11 L50,11 L50,12 L50,12 L50,12 L49,12 L49,13 L48,13 L48,13 L48,13 L46,14 L46,14 L45,15 L44,15 L44,16 L44,16 L43,16 L42,17 L42,17 L42,17 L41,18 L41,18 L41,18 L40,18 L40,18 L40,18 L39,19 L39,19 L38,20 L38,20 L37,20 L37,20 L36,21 Z"/></svg>