<svg xmlns="http://www.w3.org/2000/svg" viewBox="0 0 200 57" fill="currentColor"><path d="M183,38 L183,38 L183,38 L183,38 L182,38 L182,39 L182,39 L182,41 L182,41 L182,42 L182,42 L183,42 L183,42 L183,42 L184,42 L184,43 L184,43 L184,44 L185,44 L185,44 L186,44 L186,44 L187,44 L187,45 L188,45 L188,45 L188,45 L188,46 L189,46 L189,46 L189,46 L190,46 L190,47 L189,48 L189,48 L189,48 L180,48 L180,49 L180,49 L180,50 L190,50 L190,50 L192,50 L192,49 L192,49 L192,49 L193,49 L193,48 L194,48 L194,45 L193,45 L193,45 L193,45 L193,44 L192,44 L192,44 L192,44 L192,44 L191,44 L191,43 L190,43 L190,43 L190,43 L189,42 L189,42 L189,42 L188,42 L188,41 L187,41 L187,41 L186,41 L186,40 L186,40 L186,40 L186,40 L187,40 L187,39 L188,40 L193,40 L193,39 L193,40 L193,39 L194,39 L194,38 L195,38 L195,37 L185,37 L185,38 Z"/><path d="M180,50 L180,50 L180,50 L180,50 Z"/><path d="M168,37 L168,37 L167,38 L167,38 L167,38 L167,39 L166,39 L166,41 L166,41 L166,44 L166,44 L166,45 L165,45 L165,47 L165,48 L165,50 L177,50 L177,49 L178,49 L178,48 L169,48 L168,48 L168,47 L169,47 L169,45 L169,45 L177,45 L177,44 L177,44 L177,43 L177,43 L177,42 L170,42 L170,42 L170,41 L170,41 L170,40 L170,39 L171,40 L178,40 L179,39 L179,39 L179,37 Z"/><path d="M145,38 L145,39 L145,39 L145,41 L144,41 L144,42 L145,41 L145,42 L144,42 L144,44 L144,44 L144,45 L144,45 L144,48 L143,48 L143,50 L146,50 L146,50 L146,50 L146,49 L147,49 L147,47 L147,47 L147,45 L148,45 L148,45 L148,45 L148,43 L148,42 L148,41 L148,41 L149,41 L149,41 L149,41 L149,42 L150,42 L150,42 L150,42 L150,43 L150,43 L150,44 L151,44 L151,44 L151,44 L151,44 L152,44 L152,45 L154,45 L154,44 L155,44 L155,44 L155,44 L155,44 L156,44 L156,43 L156,43 L156,42 L157,42 L157,42 L157,42 L157,42 L158,42 L158,41 L158,41 L158,41 L158,41 L159,41 L159,42 L158,43 L158,44 L158,44 L158,44 L158,46 L157,46 L157,49 L157,49 L157,50 L157,50 L157,50 L160,50 L160,50 L161,50 L161,48 L161,47 L161,46 L162,46 L162,44 L162,44 L162,41 L162,41 L162,42 L162,40 L163,40 L162,40 L162,40 L163,40 L163,38 L162,37 L162,37 L159,37 L159,37 L159,38 L159,38 L158,38 L158,38 L157,38 L157,39 L157,39 L157,39 L156,39 L156,40 L156,40 L156,40 L155,40 L155,40 L155,40 L155,41 L154,41 L154,41 L154,41 L154,42 L153,42 L153,42 L153,41 L152,41 L152,40 L152,40 L152,40 L152,40 L152,40 L151,40 L151,39 L151,39 L151,39 L150,39 L150,38 L150,38 L150,38 L149,37 L149,37 L146,37 L146,37 L146,38 L146,38 Z"/><path d="M130,38 L130,39 L129,39 L129,41 L129,41 L129,43 L128,43 L128,45 L128,45 L128,47 L127,48 L127,49 L127,49 L127,50 L127,50 L127,50 L140,50 L140,49 L140,49 L140,48 L131,48 L131,48 L131,47 L132,46 L132,45 L132,45 L139,45 L140,44 L140,44 L140,43 L140,43 L139,42 L133,42 L132,42 L132,40 L133,40 L133,40 L133,40 L141,40 L141,39 L142,39 L142,39 L142,39 L142,37 L130,37 L130,38 Z"/><path d="M128,37 L114,37 L114,38 L114,38 L114,38 L113,38 L113,39 L114,39 L114,40 L118,40 L118,40 L118,41 L118,41 L118,44 L117,44 L117,45 L117,45 L117,47 L117,48 L117,50 L120,50 L120,50 L120,50 L120,49 L120,49 L120,47 L121,47 L121,45 L121,45 L121,43 L122,42 L122,41 L122,41 L122,40 L122,40 L122,39 L122,39 L122,39 L123,40 L126,40 L127,39 L127,40 L127,39 L127,39 L127,39 L128,39 Z"/><path d="M99,38 L99,38 L98,38 L98,39 L98,39 L98,41 L98,41 L98,42 L99,42 L99,42 L100,42 L100,42 L100,43 L100,43 L101,43 L101,44 L102,44 L102,44 L102,44 L102,44 L103,44 L103,45 L104,45 L104,45 L105,45 L105,46 L105,46 L105,46 L106,46 L106,46 L106,46 L106,47 L106,47 L106,48 L105,48 L105,48 L96,48 L96,48 L96,48 L96,50 L106,50 L106,50 L108,50 L108,49 L109,49 L109,49 L110,49 L110,48 L110,48 L110,48 L110,47 L110,46 L110,46 L110,45 L110,45 L110,44 L109,44 L109,44 L108,44 L108,44 L108,44 L107,43 L106,43 L106,43 L106,43 L106,42 L105,42 L105,42 L104,42 L104,41 L103,41 L103,41 L102,41 L102,40 L102,40 L102,40 L102,40 L110,40 L110,39 L110,39 L110,39 L111,39 L111,37 L101,37 L101,38 L100,38 L100,38 Z"/><path d="M81,37 L81,37 L81,38 L81,38 L80,38 L80,40 L80,40 L80,45 L80,45 L80,45 L81,45 L81,46 L81,46 L81,46 L83,46 L83,46 L86,46 L86,46 L89,46 L89,46 L90,46 L90,46 L90,47 L89,48 L89,47 L89,49 L89,49 L89,50 L92,50 L92,50 L92,50 L92,49 L93,49 L93,47 L93,46 L93,44 L94,44 L94,43 L94,42 L94,40 L95,40 L95,38 L95,38 L95,38 L95,37 L92,37 L92,37 L91,38 L91,39 L91,39 L91,41 L91,41 L90,41 L90,43 L90,43 L90,43 L90,43 L90,43 L90,43 L90,44 L88,44 L88,44 L85,44 L85,44 L84,44 L84,44 L84,43 L84,43 L84,39 L84,39 L84,37 Z"/><path d="M65,38 L65,39 L65,39 L65,41 L65,41 L65,42 L66,42 L66,42 L66,42 L67,42 L67,43 L67,43 L68,43 L68,44 L69,44 L69,44 L69,44 L69,44 L70,44 L70,45 L71,45 L71,45 L72,45 L72,46 L72,46 L72,46 L73,46 L73,46 L73,47 L73,47 L73,48 L72,48 L72,48 L64,48 L64,48 L63,48 L63,50 L73,50 L73,50 L75,50 L75,49 L76,49 L76,49 L76,49 L77,48 L77,48 L77,48 L77,47 L77,46 L77,46 L77,45 L76,45 L76,44 L76,44 L76,44 L75,44 L75,44 L74,44 L74,43 L74,43 L73,43 L73,43 L73,42 L72,42 L72,42 L71,42 L71,41 L70,41 L70,41 L70,41 L70,40 L69,40 L69,40 L69,40 L76,40 L77,39 L77,39 L77,39 L78,39 L78,37 L68,37 L68,38 L67,38 L66,38 L66,38 L66,38 Z"/><path d="M32,30 L32,30 L32,30 L31,30 L31,30 L30,30 L30,29 L30,29 L30,29 L29,29 L29,28 L28,28 L27,28 L26,28 L26,28 L24,28 L23,27 L16,27 L16,28 L13,28 L13,28 L11,28 L11,28 L9,28 L9,29 L8,29 L8,29 L8,29 L8,30 L8,30 L8,31 L17,31 L17,31 L21,31 L21,32 L23,32 L24,32 L24,32 L24,33 L25,33 L25,33 L26,33 L26,33 L26,34 L26,37 L26,38 L26,38 L25,38 L25,39 L25,39 L25,40 L24,40 L24,40 L24,40 L24,40 L24,40 L24,41 L23,41 L23,41 L23,42 L22,42 L22,42 L22,43 L21,43 L21,43 L21,43 L21,44 L21,44 L20,44 L20,44 L20,44 L20,45 L19,45 L19,45 L18,45 L18,46 L18,46 L18,46 L18,46 L17,47 L17,47 L16,47 L16,47 L16,47 L15,48 L15,48 L14,48 L14,48 L14,48 L14,49 L14,49 L13,49 L13,49 L11,49 L11,50 L9,50 L9,50 L9,48 L10,48 L10,47 L10,47 L10,46 L10,46 L10,45 L11,45 L11,44 L11,44 L11,44 L12,44 L12,43 L12,42 L12,42 L13,42 L13,41 L13,41 L13,40 L14,40 L14,40 L14,40 L14,39 L14,39 L14,38 L15,38 L15,38 L15,37 L15,37 L16,36 L16,35 L16,35 L16,36 L16,34 L16,34 L16,34 L14,34 L14,34 L14,34 L14,35 L13,35 L13,35 L13,35 L13,36 L12,36 L12,36 L12,37 L12,37 L11,37 L11,38 L11,38 L11,38 L11,38 L11,38 L11,38 L11,38 L11,38 L11,39 L10,39 L10,40 L10,40 L10,40 L9,40 L9,41 L9,41 L9,41 L8,41 L8,42 L8,42 L8,43 L8,43 L8,44 L7,44 L7,44 L7,44 L7,45 L6,45 L6,45 L6,45 L6,46 L5,46 L5,46 L5,47 L5,47 L4,48 L4,48 L4,48 L4,49 L4,49 L4,50 L3,50 L3,51 L3,51 L3,51 L2,51 L2,52 L2,52 L2,53 L1,53 L1,54 L1,54 L1,55 L1,55 L1,56 L1,56 L1,56 L4,56 L4,56 L6,56 L6,56 L7,56 L7,55 L8,55 L8,55 L10,55 L10,54 L10,54 L11,54 L12,54 L12,54 L13,54 L13,53 L13,53 L14,53 L14,52 L15,52 L15,52 L16,52 L16,52 L16,52 L16,51 L17,51 L17,51 L18,51 L18,50 L18,50 L18,51 L18,50 L19,50 L19,50 L20,50 L20,50 L20,50 L20,50 L20,49 L21,49 L21,49 L22,49 L22,48 L22,48 L22,48 L23,48 L23,47 L23,47 L23,47 L24,47 L24,47 L24,46 L24,46 L25,46 L25,46 L26,46 L26,45 L26,45 L26,45 L26,45 L27,44 L27,44 L27,44 L27,44 L27,44 L28,44 L28,43 L28,43 L28,43 L29,42 L29,42 L29,42 L29,42 L30,42 L30,41 L30,41 L30,40 L30,40 L30,40 L31,40 L31,39 L31,39 L31,38 L32,38 L32,38 L32,37 L32,37 L33,36 L33,35 L33,35 L33,32 L33,32 L33,31 L32,31 Z"/><path d="M22,42 L23,42 L23,42 L22,42 Z"/><path d="M199,20 L186,20 L186,20 L185,20 L185,20 L185,21 L185,22 L189,22 L190,22 L190,23 L190,25 L189,25 L189,27 L189,27 L189,29 L188,29 L188,31 L188,31 L188,33 L191,33 L191,32 L192,32 L192,30 L192,30 L192,28 L192,28 L192,26 L193,26 L193,24 L193,24 L193,22 L193,22 L199,22 L199,22 L199,22 Z"/><path d="M175,20 L175,20 L175,20 L175,21 L174,21 L174,23 L174,24 L174,26 L173,26 L173,27 L173,28 L173,30 L173,30 L173,32 L172,32 L172,33 L184,33 L184,32 L184,32 L184,30 L176,30 L176,30 L176,29 L176,29 L177,29 L177,27 L177,27 L177,25 L178,25 L178,23 L178,23 L178,21 L178,21 L178,20 L178,20 L178,20 Z"/><path d="M156,21 L156,22 L155,22 L155,24 L155,24 L155,27 L154,27 L154,30 L155,30 L155,31 L155,31 L155,32 L156,32 L156,32 L157,32 L157,33 L159,33 L159,33 L162,33 L163,33 L165,33 L165,32 L166,32 L166,32 L167,32 L167,31 L168,31 L168,31 L168,31 L168,30 L168,30 L169,30 L169,30 L169,29 L170,29 L170,27 L170,27 L170,25 L170,25 L170,23 L171,23 L171,21 L171,21 L171,20 L171,20 L171,20 L168,20 L168,20 L167,20 L167,22 L167,22 L167,23 L166,24 L167,24 L166,24 L166,26 L166,26 L166,26 L166,26 L166,26 L166,26 L166,28 L166,28 L166,29 L165,29 L165,29 L165,29 L165,30 L164,30 L164,30 L163,30 L163,30 L160,30 L159,30 L159,30 L158,30 L158,30 L158,29 L158,29 L158,28 L158,27 L158,25 L158,25 L158,24 L159,23 L159,21 L159,21 L159,20 L159,20 L159,20 L156,20 L156,20 L156,20 L156,20 Z"/><path d="M137,23 L138,23 L138,23 L137,23 L137,24 L137,24 L137,25 L136,25 L136,27 L136,27 L136,29 L136,29 L136,31 L135,31 L135,32 L136,32 L136,33 L139,33 L139,32 L139,32 L139,29 L139,29 L147,29 L147,29 L147,31 L147,31 L146,31 L146,33 L150,33 L150,32 L150,32 L150,29 L151,29 L151,28 L151,27 L151,25 L152,25 L152,23 L151,23 L151,22 L151,22 L151,21 L150,21 L150,21 L149,21 L149,20 L148,20 L148,20 L142,20 L142,20 L142,20 L142,20 L141,20 L141,21 L140,21 L140,21 L139,21 L139,21 L139,21 L139,22 L138,22 L138,22 L138,22 L138,23 Z"/><path d="M140,24 L141,24 L141,24 L141,23 L141,23 L142,23 L142,23 L142,23 L142,22 L147,22 L147,23 L148,23 L148,23 L148,23 L148,24 L148,25 L148,25 L148,25 L148,27 L148,27 L147,27 L147,27 L147,27 L140,27 L140,27 L140,26 L140,26 Z"/><path d="M121,21 L121,21 L121,21 L121,22 L120,22 L120,24 L121,24 L121,24 L121,24 L121,25 L122,25 L122,25 L122,25 L123,26 L123,26 L123,26 L124,26 L124,27 L125,27 L125,27 L125,27 L125,27 L126,27 L126,28 L127,28 L127,28 L128,28 L128,29 L128,29 L128,30 L128,30 L127,30 L127,30 L119,30 L119,31 L119,31 L119,32 L118,32 L118,33 L130,33 L130,32 L131,32 L131,32 L132,32 L132,31 L132,31 L132,31 L132,31 L132,28 L132,28 L132,28 L132,28 L132,27 L131,27 L131,27 L130,27 L130,26 L130,26 L129,26 L129,26 L129,25 L128,25 L128,25 L127,25 L127,24 L126,24 L126,24 L126,24 L126,24 L125,24 L125,23 L125,22 L125,22 L132,22 L133,22 L133,22 L133,21 L133,21 L133,20 L133,20 L133,20 L133,20 L133,20 L133,20 L124,20 L124,20 L122,20 L122,21 Z"/><path d="M105,21 L105,21 L105,21 L105,21 L105,21 L105,21 L105,22 L104,22 L104,24 L104,23 L105,24 L105,24 L105,24 L105,25 L106,25 L106,25 L106,25 L106,26 L107,26 L107,26 L108,26 L108,27 L109,27 L109,27 L110,27 L110,27 L109,27 L110,27 L110,28 L111,28 L111,28 L112,28 L112,29 L112,29 L112,29 L113,29 L113,30 L112,30 L112,30 L111,30 L111,30 L103,30 L103,31 L103,31 L103,33 L114,33 L114,32 L115,32 L115,32 L116,32 L116,31 L116,31 L116,31 L116,31 L116,30 L117,30 L117,28 L117,28 L116,28 L116,28 L116,28 L116,28 L116,27 L115,27 L115,27 L115,27 L115,26 L114,26 L114,26 L113,26 L113,25 L112,25 L112,25 L111,25 L111,24 L110,24 L110,24 L110,24 L110,24 L109,24 L109,23 L109,23 L109,22 L109,22 L116,22 L116,22 L117,22 L117,21 L117,21 L117,20 L108,20 L108,20 L106,20 L106,21 Z"/><path d="M87,23 L87,23 L87,24 L87,25 L86,25 L86,26 L86,26 L86,26 L86,29 L86,29 L86,30 L85,30 L85,33 L89,33 L89,31 L89,31 L89,31 L89,31 L89,31 L89,29 L89,29 L97,29 L97,29 L97,30 L96,30 L96,33 L100,33 L100,32 L100,32 L100,31 L100,31 L100,29 L101,29 L101,27 L101,27 L101,24 L102,24 L102,24 L101,23 L101,22 L101,22 L101,21 L100,21 L100,21 L100,21 L100,21 L99,21 L99,20 L98,20 L98,20 L92,20 L92,20 L91,20 L91,21 L90,21 L90,21 L89,21 L89,21 L89,21 L89,22 L88,22 L88,22 L88,22 L88,23 Z"/><path d="M90,25 L90,25 L90,24 L91,24 L91,23 L91,23 L92,23 L92,23 L92,23 L92,23 L93,22 L97,22 L97,23 L97,23 L98,23 L98,23 L98,26 L98,26 L98,27 L97,27 L97,27 L90,27 L90,27 L90,25 L90,25 L90,25 L90,25 Z"/><path d="M68,20 L68,22 L69,22 L69,22 L79,22 L79,23 L79,23 L79,23 L80,23 L80,24 L80,24 L80,25 L80,25 L80,27 L79,27 L79,28 L79,28 L79,29 L78,29 L78,29 L78,29 L78,30 L77,30 L77,30 L76,30 L76,30 L71,30 L71,30 L71,28 L71,28 L71,26 L72,26 L72,24 L72,24 L72,24 L72,24 L72,24 L72,24 L72,23 L72,23 L71,23 L71,23 L71,23 L69,23 L69,24 L68,24 L68,25 L68,25 L68,27 L68,27 L67,27 L67,29 L67,29 L67,31 L67,31 L67,33 L77,33 L77,32 L79,32 L79,32 L80,32 L80,31 L80,31 L80,31 L81,31 L81,30 L82,30 L82,30 L82,30 L82,29 L83,29 L83,28 L83,28 L83,27 L83,27 L83,25 L84,25 L84,24 L83,24 L83,23 L83,23 L83,22 L83,22 L83,21 L82,21 L82,21 L82,21 L82,21 L80,21 L80,20 L79,20 L79,20 Z"/><path d="M58,21 L58,21 L58,21 L57,21 L57,21 L55,21 L55,20 L55,20 L56,20 L54,20 L54,20 L50,20 L50,19 L44,19 L45,19 L45,20 L42,20 L42,20 L40,20 L40,21 L39,21 L39,21 L39,21 L39,21 L38,21 L38,22 L38,22 L37,22 L37,22 L37,23 L37,23 L37,23 L36,24 L36,23 L36,23 L36,23 L36,24 L36,24 L36,26 L36,26 L36,26 L36,28 L37,28 L37,29 L37,29 L37,30 L37,30 L38,30 L38,30 L38,31 L38,31 L38,31 L39,31 L39,32 L39,32 L39,33 L40,33 L40,33 L40,33 L40,33 L40,34 L40,34 L41,34 L41,34 L41,35 L42,35 L42,36 L42,36 L42,36 L43,36 L43,36 L43,36 L43,37 L44,37 L44,38 L44,38 L44,38 L44,38 L44,39 L45,39 L45,39 L45,39 L45,40 L46,40 L46,40 L46,40 L46,41 L47,41 L47,42 L47,42 L47,42 L48,43 L48,45 L47,45 L47,45 L46,46 L45,46 L45,46 L43,46 L42,47 L33,47 L33,47 L29,47 L29,47 L28,48 L28,48 L28,48 L28,49 L29,49 L29,49 L30,49 L30,50 L32,50 L32,50 L36,50 L36,50 L47,50 L47,50 L49,50 L49,50 L50,50 L50,49 L51,49 L51,49 L52,49 L52,48 L52,48 L53,48 L53,48 L53,48 L54,47 L54,47 L54,47 L54,46 L54,46 L54,45 L55,45 L55,44 L54,44 L54,42 L54,42 L54,41 L54,41 L54,40 L53,40 L53,40 L53,40 L52,39 L52,39 L52,38 L52,38 L52,38 L51,38 L51,38 L51,37 L51,37 L51,37 L50,37 L50,36 L50,36 L50,36 L50,36 L50,35 L49,35 L49,35 L49,35 L49,34 L48,34 L48,34 L48,34 L48,33 L48,33 L47,33 L47,33 L47,32 L46,32 L46,32 L46,32 L46,31 L46,31 L46,31 L45,31 L45,30 L45,30 L45,30 L44,30 L44,29 L44,29 L44,28 L44,28 L43,28 L43,28 L43,28 L43,28 L43,27 L43,26 L42,26 L42,25 L43,25 L43,24 L43,24 L44,24 L45,24 L45,23 L49,23 L49,23 L57,23 L57,23 L58,23 Z"/><path d="M40,34 L41,34 L41,34 L41,34 Z"/><path d="M42,3 L41,3 L41,3 L40,3 L40,2 L40,2 L40,2 L38,2 L38,1 L37,1 L36,1 L34,1 L33,1 L29,1 L29,1 L26,1 L26,1 L23,1 L23,2 L21,2 L22,2 L22,2 L22,2 L21,2 L21,3 L20,3 L20,4 L21,4 L21,4 L30,4 L30,5 L33,5 L33,5 L34,5 L34,6 L35,6 L35,6 L36,6 L36,6 L36,6 L37,7 L37,8 L37,8 L37,8 L37,8 L37,10 L36,10 L36,10 L36,11 L36,11 L35,11 L35,12 L35,12 L35,13 L34,13 L34,13 L34,13 L34,14 L34,14 L34,14 L33,14 L33,14 L33,14 L33,15 L32,15 L32,15 L32,15 L32,16 L31,16 L31,16 L31,16 L31,17 L30,17 L30,17 L30,17 L30,17 L29,18 L29,18 L29,18 L29,18 L28,18 L28,19 L28,19 L28,19 L27,19 L27,20 L27,20 L27,20 L26,20 L26,21 L25,21 L25,21 L25,21 L25,21 L24,21 L24,22 L24,22 L24,22 L23,22 L23,23 L23,23 L23,23 L22,23 L22,23 L22,24 L22,24 L22,24 L22,24 L22,24 L22,24 L22,25 L24,25 L24,24 L25,24 L25,24 L26,24 L27,23 L27,23 L27,23 L28,23 L28,23 L29,23 L29,22 L30,22 L30,22 L30,22 L30,21 L31,21 L31,21 L32,21 L32,21 L32,20 L32,20 L33,20 L33,20 L33,20 L34,19 L34,19 L34,19 L35,19 L35,18 L35,18 L35,18 L36,18 L36,17 L36,17 L36,17 L37,17 L37,17 L37,16 L37,16 L38,16 L38,16 L38,16 L38,15 L39,15 L39,15 L39,15 L39,14 L40,14 L40,14 L40,14 L40,14 L40,14 L40,13 L41,13 L41,12 L41,12 L41,12 L42,12 L41,12 L41,11 L42,11 L42,11 L42,11 L42,10 L42,10 L42,9 L43,9 L43,5 L43,5 L42,4 L42,4 L42,4 L42,4 L42,4 L42,4 L42,4 Z"/></svg>