<svg xmlns="http://www.w3.org/2000/svg" viewBox="0 0 200 44" fill="currentColor"><path d="M2,8 L1,8 L1,9 L1,10 L2,10 L2,11 L2,11 L3,12 L4,13 L4,14 L4,14 L4,14 L4,14 L4,15 L5,16 L6,17 L7,18 L7,19 L7,19 L7,19 L8,21 L8,21 L8,22 L8,22 L7,23 L7,24 L6,24 L6,25 L5,26 L5,26 L5,26 L4,28 L4,28 L3,29 L3,30 L3,30 L3,30 L2,31 L2,31 L1,33 L1,33 L2,34 L10,34 L11,33 L11,33 L11,32 L11,32 L12,32 L12,31 L12,30 L12,30 L13,29 L13,29 L14,28 L14,27 L14,27 L15,25 L17,23 L17,22 L18,22 L18,21 L17,20 L17,19 L17,19 L16,18 L16,18 L16,18 L15,17 L15,16 L14,15 L14,14 L14,14 L14,14 L13,13 L13,12 L12,12 L12,10 L11,10 L11,10 L11,9 L10,8 Z"/><path d="M96,8 L96,9 L96,9 L96,10 L97,10 L97,11 L97,11 L97,11 L98,12 L98,13 L98,13 L98,14 L99,14 L99,14 L99,15 L100,16 L100,16 L100,17 L100,17 L101,18 L101,18 L101,19 L102,20 L102,20 L102,20 L101,23 L100,23 L100,24 L100,25 L99,25 L99,26 L99,26 L99,26 L98,28 L98,28 L98,28 L98,28 L97,29 L97,29 L97,30 L97,30 L96,30 L96,31 L96,31 L96,32 L96,32 L96,32 L95,33 L95,34 L95,34 L101,34 L101,34 L102,33 L102,33 L102,33 L103,31 L103,31 L103,30 L103,30 L103,30 L104,28 L104,28 L104,27 L105,27 L105,26 L105,26 L106,26 L106,26 L106,27 L106,27 L107,28 L107,28 L107,28 L107,29 L107,29 L107,30 L108,30 L108,31 L108,31 L108,32 L109,32 L109,33 L109,34 L110,34 L116,34 L116,33 L116,33 L116,32 L115,32 L115,32 L115,31 L114,30 L114,30 L114,29 L114,29 L113,29 L113,28 L113,28 L113,28 L113,27 L112,27 L112,26 L112,26 L112,26 L112,25 L111,25 L111,24 L110,23 L110,23 L110,22 L110,21 L109,20 L109,19 L110,18 L110,18 L110,18 L110,17 L111,16 L112,14 L112,14 L113,13 L113,13 L113,12 L113,12 L113,12 L114,12 L114,10 L114,10 L114,10 L115,9 L115,9 L114,8 L114,8 L109,8 L108,9 L108,9 L108,10 L108,10 L108,10 L108,11 L107,12 L107,12 L107,12 L107,13 L106,13 L106,15 L105,14 L105,14 L105,13 L105,13 L104,12 L104,12 L104,12 L104,11 L104,11 L104,10 L102,8 L102,8 L102,8 L97,8 L97,8 Z"/><path d="M169,8 L167,9 L167,9 L167,9 L166,9 L166,9 L165,10 L164,12 L164,13 L163,14 L163,14 L162,15 L162,16 L162,17 L162,18 L162,18 L162,24 L162,26 L162,27 L163,27 L163,28 L163,29 L163,29 L164,29 L164,30 L166,32 L167,33 L168,34 L169,34 L169,34 L170,34 L170,34 L173,34 L173,34 L176,34 L176,34 L177,34 L177,33 L178,33 L180,32 L180,32 L180,31 L181,31 L181,30 L182,30 L182,28 L182,28 L183,27 L183,26 L183,25 L183,24 L184,23 L184,19 L183,19 L183,18 L183,18 L183,17 L183,16 L183,15 L182,12 L181,12 L181,12 L181,11 L181,11 L179,10 L178,8 L177,8 L177,8 L176,8 L175,8 L174,8 L174,8 L171,8 L170,8 Z"/><path d="M172,12 L173,12 L175,13 L175,13 L176,14 L176,14 L176,15 L176,16 L177,17 L177,19 L177,20 L177,25 L177,26 L176,27 L176,27 L176,28 L175,29 L174,30 L172,30 L171,29 L169,28 L169,27 L169,27 L169,25 L168,24 L168,19 L169,18 L169,17 L169,17 L169,15 L169,15 L169,14 L170,14 L171,13 Z"/><path d="M155,9 L154,8 L153,8 L153,8 L150,8 L148,8 L147,8 L147,9 L146,9 L146,9 L145,9 L145,10 L144,10 L144,10 L144,10 L144,9 L143,8 L140,8 L139,9 L138,9 L138,28 L139,29 L139,33 L138,33 L138,41 L138,42 L138,42 L138,43 L139,43 L144,43 L145,43 L145,43 L145,42 L145,42 L145,33 L145,33 L145,33 L146,33 L147,34 L148,34 L148,34 L149,34 L149,34 L153,34 L154,34 L156,33 L157,31 L158,30 L158,29 L158,28 L158,28 L159,27 L159,26 L159,25 L159,24 L159,23 L159,23 L159,19 L159,19 L159,18 L159,17 L159,16 L158,14 L158,13 L158,12 L158,12 L158,11 L157,10 Z"/><path d="M148,13 L150,13 L151,13 L152,15 L152,17 L153,17 L153,25 L152,26 L152,27 L152,27 L152,28 L152,28 L150,29 L150,29 L147,29 L146,28 L146,28 L145,28 L145,28 L145,27 L145,15 L145,15 L146,14 L147,14 L147,13 L147,13 Z"/><path d="M123,8 L122,9 L121,9 L119,11 L119,12 L118,14 L118,14 L118,15 L118,15 L118,16 L118,17 L119,18 L119,20 L120,21 L122,22 L122,22 L122,22 L123,23 L124,23 L124,23 L126,24 L126,24 L128,24 L129,25 L129,26 L129,27 L129,28 L127,29 L125,29 L124,29 L123,29 L122,28 L121,28 L120,28 L119,27 L119,28 L118,28 L118,28 L118,30 L118,30 L117,31 L117,31 L117,31 L117,32 L118,32 L118,32 L120,33 L120,33 L121,34 L122,34 L122,34 L125,34 L125,34 L129,34 L130,34 L130,34 L131,33 L132,33 L132,33 L133,32 L134,31 L134,30 L135,30 L135,29 L135,28 L135,24 L135,24 L135,24 L134,22 L134,22 L134,21 L133,20 L132,19 L131,19 L131,19 L130,19 L130,18 L129,18 L128,18 L127,18 L127,18 L126,18 L126,17 L125,17 L124,16 L124,15 L124,15 L124,14 L125,13 L126,13 L127,13 L127,13 L129,13 L132,14 L132,14 L133,14 L133,13 L133,13 L133,12 L133,12 L134,11 L134,10 L134,10 L134,9 L134,9 L133,9 L132,8 L130,8 L130,8 L128,8 L128,8 L126,8 L125,8 L125,8 L124,8 Z"/><path d="M80,8 L79,8 L79,9 L78,9 L78,9 L78,9 L77,10 L77,10 L77,10 L76,11 L75,13 L74,14 L74,14 L74,15 L74,15 L74,17 L73,18 L73,24 L74,24 L74,25 L74,25 L74,26 L74,28 L74,28 L75,29 L75,29 L75,30 L76,31 L77,32 L78,33 L78,33 L78,33 L79,33 L79,33 L80,34 L80,34 L81,34 L82,34 L82,34 L88,34 L88,34 L88,34 L89,34 L90,33 L91,33 L91,33 L91,33 L92,32 L92,32 L93,32 L93,32 L93,31 L92,29 L92,29 L92,29 L92,28 L91,28 L91,28 L91,27 L90,27 L90,28 L89,28 L88,28 L88,29 L87,29 L87,29 L86,29 L85,29 L82,29 L82,28 L81,28 L81,28 L81,28 L81,27 L80,26 L80,26 L80,25 L80,25 L80,24 L80,24 L80,23 L80,23 L82,23 L82,23 L83,23 L83,23 L92,23 L92,23 L93,23 L94,23 L94,22 L94,22 L94,20 L94,19 L94,16 L94,16 L93,15 L93,14 L93,14 L92,11 L91,10 L91,10 L90,10 L90,9 L89,9 L89,9 L88,8 L88,8 L87,8 L86,8 L86,8 L86,8 L82,8 L82,8 L81,8 L81,8 Z"/><path d="M81,14 L82,13 L83,12 L83,13 L84,12 L84,12 L85,12 L85,13 L86,13 L86,13 L87,15 L87,15 L88,18 L87,18 L80,18 L80,18 L80,18 L80,16 L80,16 L80,15 L81,14 Z"/><path d="M65,8 L65,8 L63,8 L60,8 L60,8 L59,8 L58,8 L58,8 L58,9 L57,9 L55,11 L55,10 L55,9 L54,8 L51,8 L50,8 L50,8 L50,8 L50,9 L50,43 L50,43 L56,43 L56,43 L56,43 L56,42 L56,42 L56,42 L56,42 L56,35 L56,35 L56,34 L56,33 L56,32 L56,33 L57,33 L57,33 L57,33 L58,33 L58,34 L58,34 L59,34 L60,34 L62,34 L62,34 L64,34 L65,34 L66,34 L66,33 L66,33 L67,33 L67,33 L67,33 L67,32 L68,31 L68,31 L69,31 L69,30 L69,30 L69,29 L69,28 L70,28 L70,27 L70,26 L70,26 L70,26 L70,18 L70,18 L70,15 L70,15 L70,15 L70,14 L69,14 L69,13 L69,12 L69,12 L68,11 L68,11 L68,11 L68,10 L68,10 Z"/><path d="M59,13 L62,13 L62,13 L63,14 L63,14 L63,14 L63,14 L63,15 L64,18 L64,18 L64,23 L64,24 L63,27 L63,28 L62,29 L61,29 L58,29 L58,29 L58,29 L57,28 L57,28 L56,28 L56,27 L56,27 L56,27 L56,26 L56,26 L56,15 L57,14 L57,14 L57,14 L58,14 L58,13 L58,13 Z"/><path d="M32,8 L32,8 L31,9 L31,9 L30,9 L28,11 L28,11 L28,12 L27,13 L27,13 L27,14 L27,14 L26,15 L26,16 L26,17 L26,18 L26,24 L26,25 L26,26 L26,26 L26,27 L27,28 L27,28 L27,29 L27,29 L28,30 L28,31 L28,31 L30,32 L30,32 L31,33 L32,33 L32,34 L33,34 L34,34 L40,34 L40,34 L41,34 L41,34 L42,34 L42,33 L43,33 L43,33 L44,33 L44,32 L44,32 L45,32 L46,32 L46,31 L46,31 L45,30 L45,29 L44,28 L43,28 L43,27 L43,27 L42,28 L42,28 L41,28 L41,28 L40,29 L40,29 L40,29 L39,29 L37,29 L36,29 L36,29 L35,29 L34,29 L34,28 L33,27 L33,26 L32,26 L32,25 L32,25 L32,23 L33,23 L33,23 L33,23 L35,23 L35,23 L35,23 L35,23 L45,23 L45,23 L46,23 L46,22 L46,20 L46,20 L46,19 L46,19 L46,16 L46,15 L46,15 L46,14 L45,14 L45,13 L45,13 L45,12 L44,12 L44,11 L44,11 L43,10 L43,10 L43,10 L42,9 L42,9 L41,9 L41,8 L40,8 L40,8 L38,8 L38,8 L38,8 L35,8 L34,8 L34,8 L33,8 Z"/><path d="M33,14 L34,13 L35,12 L37,12 L38,13 L39,14 L39,14 L40,14 L40,16 L40,17 L40,18 L40,18 L33,18 L32,18 L32,16 L33,16 L33,15 L33,14 Z"/><path d="M193,1 L192,2 L190,2 L188,2 L188,2 L188,5 L188,5 L188,5 L188,8 L188,8 L187,8 L186,8 L185,9 L185,13 L186,13 L188,13 L188,14 L188,29 L188,32 L189,32 L191,34 L191,34 L192,34 L194,34 L194,34 L197,34 L198,34 L199,33 L199,32 L199,31 L199,30 L198,29 L198,29 L198,29 L196,30 L195,29 L194,29 L194,28 L194,28 L194,28 L194,14 L194,14 L194,14 L194,13 L195,13 L195,13 L196,13 L196,13 L196,13 L198,13 L198,13 L198,13 L198,13 L199,13 L199,9 L199,8 L199,8 L198,8 L198,8 L195,8 L194,8 L194,4 L194,4 L194,2 L194,1 Z"/></svg>