<svg xmlns="http://www.w3.org/2000/svg" viewBox="0 0 99 60" fill="currentColor"><path d="M36,47 L35,47 L35,47 L33,47 L32,47 L32,59 L32,59 L32,59 L33,59 L36,59 L36,59 L36,59 L36,47 Z"/><path d="M91,47 L91,47 L90,47 L90,47 L90,47 L89,48 L89,48 L88,49 L88,49 L88,49 L88,49 L88,50 L88,50 L88,50 L88,51 L87,52 L87,54 L87,54 L87,54 L88,55 L88,55 L88,56 L88,56 L88,56 L88,57 L88,57 L88,57 L90,59 L90,59 L91,59 L91,59 L91,59 L92,59 L92,59 L92,60 L95,60 L95,59 L96,59 L96,59 L96,59 L97,59 L98,59 L98,58 L98,57 L98,56 L98,56 L97,56 L97,56 L96,56 L96,56 L95,56 L95,57 L93,57 L93,56 L92,56 L92,56 L92,56 L92,56 L92,55 L91,55 L91,54 L92,54 L92,54 L93,54 L94,54 L94,54 L94,54 L95,54 L96,54 L97,54 L97,53 L98,53 L98,53 L98,52 L98,51 L98,51 L98,50 L98,50 L98,49 L97,49 L97,49 L97,48 L97,48 L96,48 L96,47 L95,47 L95,47 L94,47 L94,46 L93,46 L92,47 Z"/><path d="M92,49 L92,49 L92,49 L94,49 L94,49 L94,50 L94,50 L94,50 L95,50 L95,52 L94,52 L94,52 L93,52 L93,52 L92,52 L91,52 L91,52 L91,52 L91,50 L91,50 L91,50 L92,50 Z"/><path d="M84,46 L83,47 L82,47 L82,47 L82,47 L81,47 L81,47 L80,48 L80,48 L80,48 L80,48 L80,48 L80,48 L79,49 L79,49 L79,49 L79,49 L79,49 L79,50 L79,50 L78,51 L78,51 L78,51 L78,52 L78,52 L78,55 L78,55 L78,55 L78,56 L79,56 L79,57 L79,57 L79,57 L80,58 L80,58 L81,58 L81,59 L82,59 L82,59 L83,60 L85,60 L86,59 L86,59 L86,59 L87,59 L87,59 L87,58 L87,58 L87,57 L87,57 L86,56 L86,56 L86,56 L85,56 L85,57 L85,57 L84,56 L83,56 L83,56 L82,55 L82,55 L82,54 L82,54 L82,54 L82,52 L82,52 L82,51 L83,50 L83,50 L83,50 L84,50 L84,49 L84,49 L84,49 L85,49 L86,49 L86,49 L87,49 L87,48 L87,48 L87,47 L87,47 L87,47 L87,47 L86,47 L86,47 L85,47 L84,46 Z"/><path d="M67,47 L66,48 L66,58 L66,58 L66,58 L66,59 L67,59 L67,59 L70,59 L70,59 L70,59 L70,59 L70,49 L70,49 L71,49 L72,49 L72,49 L73,50 L73,50 L73,50 L73,59 L73,59 L76,59 L77,59 L77,59 L77,50 L77,50 L77,49 L77,49 L76,49 L76,48 L76,48 L76,48 L76,48 L76,48 L76,48 L75,47 L75,47 L74,47 L74,47 L74,47 L73,47 L72,46 L71,46 L70,47 L69,47 L69,47 L68,47 L68,47 L67,47 Z"/><path d="M56,47 L55,48 L55,48 L56,48 L56,49 L56,50 L57,50 L57,49 L58,49 L58,49 L58,49 L59,49 L59,49 L59,49 L60,49 L60,49 L60,49 L61,50 L61,50 L61,51 L61,51 L60,51 L60,51 L59,51 L58,51 L58,51 L57,52 L57,52 L56,52 L56,52 L56,52 L56,52 L56,52 L56,52 L55,53 L55,53 L54,54 L54,55 L54,57 L55,58 L56,59 L56,59 L56,59 L57,59 L57,59 L58,59 L58,59 L58,60 L60,60 L60,60 L60,60 L61,60 L61,59 L62,59 L62,59 L63,59 L63,59 L63,59 L64,59 L64,58 L65,58 L65,58 L65,50 L65,50 L64,50 L64,49 L64,49 L64,48 L64,48 L64,48 L63,47 L63,47 L62,47 L62,47 L61,47 L61,46 L60,46 L59,46 L58,47 L58,47 L57,47 L56,47 L56,47 Z"/><path d="M61,53 L61,53 L61,57 L61,57 L60,57 L59,57 L59,57 L59,57 L58,56 L58,54 L58,54 L59,53 L60,53 L60,53 Z"/><path d="M45,47 L45,47 L44,47 L44,47 L43,47 L43,46 L42,46 L41,47 L40,47 L40,47 L40,47 L40,47 L39,47 L38,48 L38,49 L38,49 L38,49 L38,50 L38,51 L38,52 L38,52 L38,52 L39,53 L39,53 L39,54 L40,54 L40,54 L40,54 L40,54 L41,54 L41,54 L41,55 L42,55 L42,55 L42,56 L42,56 L41,57 L40,57 L40,56 L39,56 L39,56 L38,56 L38,57 L38,57 L38,57 L38,58 L38,58 L38,58 L38,59 L38,59 L38,59 L39,59 L39,59 L40,60 L42,60 L42,59 L43,59 L43,59 L43,59 L44,59 L44,59 L44,59 L44,59 L45,58 L45,58 L46,57 L46,57 L46,56 L46,54 L46,54 L46,54 L44,52 L44,52 L43,52 L43,51 L43,51 L42,51 L42,50 L42,50 L42,49 L42,49 L42,49 L43,49 L44,49 L44,49 L44,49 L44,50 L45,50 L45,49 L45,49 L45,49 L46,48 L46,48 L46,47 Z"/><path d="M30,47 L29,47 L29,47 L28,47 L27,46 L26,46 L26,47 L25,47 L24,47 L24,47 L24,47 L24,47 L23,48 L23,48 L22,49 L22,49 L22,50 L22,51 L22,51 L22,52 L23,52 L23,52 L24,53 L24,53 L24,53 L24,54 L24,54 L25,54 L25,54 L25,54 L26,55 L27,55 L27,56 L26,56 L26,57 L24,57 L24,56 L24,56 L23,56 L23,56 L23,56 L22,57 L22,57 L22,58 L22,58 L22,58 L22,58 L22,59 L23,59 L23,59 L24,59 L24,59 L27,60 L27,59 L28,59 L28,59 L28,59 L28,59 L29,59 L30,58 L30,57 L30,57 L30,56 L31,56 L31,55 L30,54 L30,54 L30,54 L30,53 L30,53 L30,53 L29,52 L29,52 L28,52 L28,52 L26,51 L26,50 L26,50 L26,50 L26,49 L27,49 L28,49 L28,49 L29,49 L29,50 L29,49 L30,49 L30,48 L30,48 L30,48 L30,47 L30,47 Z"/><path d="M20,47 L20,47 L20,47 L19,47 L18,46 L17,46 L16,47 L16,47 L15,47 L15,47 L14,47 L14,48 L14,49 L13,49 L13,49 L13,50 L13,50 L13,50 L13,51 L13,51 L13,52 L14,52 L14,52 L14,53 L14,53 L15,53 L15,54 L15,54 L15,54 L16,54 L16,54 L16,54 L16,54 L17,54 L17,55 L17,55 L18,55 L18,56 L17,56 L17,56 L17,57 L15,57 L15,56 L15,56 L14,56 L14,56 L14,56 L14,57 L13,57 L13,57 L13,58 L13,58 L13,58 L13,59 L13,59 L14,59 L14,59 L14,59 L15,59 L18,60 L18,59 L18,59 L19,59 L19,59 L19,59 L20,59 L20,59 L21,57 L21,57 L21,57 L21,56 L21,56 L21,54 L21,54 L21,54 L21,53 L21,53 L21,53 L20,53 L20,52 L19,52 L19,52 L19,51 L18,51 L18,51 L18,51 L17,50 L17,50 L17,49 L18,49 L19,49 L19,49 L20,49 L20,49 L20,49 L20,49 L21,49 L21,48 L21,48 L21,47 Z"/><path d="M2,47 L2,48 L2,48 L2,48 L2,49 L3,50 L4,50 L4,50 L4,49 L4,49 L5,49 L5,49 L5,49 L5,49 L6,49 L7,49 L7,49 L7,49 L8,50 L8,50 L8,50 L8,51 L8,51 L8,51 L7,51 L7,51 L7,51 L6,51 L6,51 L5,51 L4,51 L4,52 L4,52 L4,52 L3,52 L3,52 L3,52 L3,52 L2,52 L2,53 L1,54 L1,55 L1,55 L1,56 L1,57 L2,58 L2,58 L3,58 L3,59 L4,59 L4,59 L5,59 L5,59 L5,59 L5,60 L8,60 L8,59 L8,60 L9,59 L9,59 L10,59 L10,59 L10,59 L11,59 L11,58 L11,58 L12,58 L12,51 L11,50 L11,50 L11,49 L11,48 L11,48 L11,48 L10,47 L9,47 L9,47 L8,47 L8,47 L7,46 L6,46 L5,47 L4,47 L4,47 L3,47 L3,47 Z"/><path d="M8,53 L8,53 L8,53 L8,54 L8,54 L8,56 L8,57 L8,57 L7,57 L6,57 L6,57 L5,56 L5,55 L5,55 L5,54 L5,54 L5,54 L6,53 L6,53 L7,53 Z"/><path d="M50,43 L50,43 L50,43 L49,44 L48,44 L48,44 L48,44 L48,44 L47,56 L48,56 L48,57 L48,58 L48,58 L48,58 L48,58 L49,59 L49,59 L50,59 L50,59 L50,59 L52,60 L53,59 L53,59 L53,59 L53,57 L53,57 L52,57 L51,56 L51,56 L51,50 L51,50 L51,50 L51,49 L53,49 L53,49 L53,49 L53,47 L53,47 L52,47 L52,47 L52,47 L51,46 L51,46 L51,46 L51,44 L51,44 L51,43 Z"/><path d="M33,42 L32,42 L32,43 L32,43 L32,44 L32,44 L33,45 L33,45 L33,45 L34,45 L35,45 L36,44 L36,44 L36,44 L36,43 L36,42 L35,42 L35,42 L35,42 L34,42 L33,42 Z"/><path d="M54,25 L54,25 L54,35 L54,35 L54,35 L54,36 L55,36 L55,36 L55,36 L55,36 L55,37 L55,37 L56,37 L56,38 L57,38 L57,38 L58,38 L59,38 L59,38 L61,38 L62,38 L63,38 L63,37 L64,37 L64,37 L64,37 L65,37 L65,36 L65,36 L65,25 L65,25 L61,25 L61,25 L61,26 L61,26 L61,34 L61,35 L61,35 L61,35 L60,35 L60,35 L59,35 L59,35 L59,35 L58,35 L58,34 L58,34 L58,25 L58,25 L54,25 Z"/><path d="M95,25 L94,25 L94,25 L93,25 L92,24 L90,24 L90,25 L89,25 L88,25 L88,25 L87,25 L87,25 L86,26 L86,42 L87,42 L90,42 L90,42 L90,42 L90,38 L91,38 L91,38 L91,38 L93,38 L94,38 L94,38 L95,37 L95,37 L95,37 L95,37 L96,37 L96,37 L96,36 L96,36 L97,36 L97,35 L97,35 L97,35 L97,35 L97,34 L98,33 L98,33 L98,32 L98,30 L98,30 L98,29 L97,28 L97,28 L97,28 L97,27 L97,27 L97,27 L96,27 L96,26 L96,26 L96,26 L95,26 Z"/><path d="M91,27 L92,27 L93,27 L93,27 L93,27 L93,28 L93,28 L94,28 L94,28 L94,29 L94,30 L94,30 L94,32 L94,32 L94,33 L94,34 L94,34 L93,34 L93,35 L93,35 L93,35 L92,35 L92,35 L92,35 L91,35 L91,35 L90,35 L90,27 Z"/><path d="M78,24 L78,25 L78,25 L77,25 L77,25 L76,25 L76,25 L75,26 L75,27 L75,27 L74,27 L74,28 L74,28 L74,28 L74,29 L74,29 L74,30 L74,30 L74,32 L74,32 L74,32 L74,32 L74,33 L74,34 L74,34 L74,35 L74,35 L75,36 L75,36 L75,36 L76,37 L76,37 L76,37 L77,37 L77,38 L78,38 L78,38 L79,38 L79,38 L81,38 L81,38 L82,38 L82,37 L82,37 L82,37 L83,37 L83,37 L83,36 L83,36 L84,36 L84,35 L84,35 L85,34 L85,34 L85,33 L85,32 L85,32 L85,29 L85,29 L85,29 L85,28 L84,28 L84,28 L84,27 L84,27 L83,26 L82,26 L82,25 L82,25 L82,25 L81,25 L81,25 L80,25 L80,24 Z"/><path d="M79,27 L80,27 L80,28 L81,28 L81,28 L81,29 L81,30 L81,30 L81,30 L81,33 L81,33 L81,34 L81,34 L80,35 L80,35 L80,35 L79,35 L79,35 L78,35 L78,35 L78,34 L78,34 L78,33 L78,33 L78,30 L78,29 L78,28 Z"/><path d="M73,24 L71,24 L71,25 L70,25 L70,25 L69,25 L68,26 L68,26 L68,26 L67,27 L67,27 L67,28 L67,28 L67,38 L67,38 L67,38 L68,38 L70,38 L71,38 L71,37 L71,37 L71,28 L71,28 L72,27 L73,27 L73,27 L74,27 L74,25 L74,25 Z"/><path d="M45,25 L43,26 L43,26 L43,27 L42,27 L42,27 L42,28 L42,28 L42,29 L42,29 L42,29 L42,30 L42,30 L42,31 L41,31 L41,32 L42,32 L42,34 L42,34 L42,34 L42,35 L42,35 L42,35 L43,36 L43,36 L43,36 L44,37 L44,37 L44,37 L44,37 L44,37 L45,37 L45,38 L46,38 L46,38 L49,38 L49,38 L50,38 L50,38 L51,38 L51,37 L52,37 L52,37 L52,37 L52,36 L52,35 L52,34 L51,34 L51,35 L51,35 L50,35 L49,35 L49,35 L48,35 L47,35 L46,34 L46,34 L46,34 L46,33 L46,32 L47,32 L48,32 L49,32 L49,32 L50,32 L51,32 L51,32 L52,32 L52,32 L53,31 L53,30 L52,29 L52,28 L52,28 L52,28 L52,27 L52,26 L50,25 L50,25 L50,25 L50,25 L49,25 L49,25 L48,24 L47,24 L46,25 L46,25 L45,25 Z"/><path d="M46,27 L46,27 L47,27 L48,27 L49,28 L49,28 L49,29 L49,30 L49,30 L48,30 L47,30 L47,30 L46,30 L46,30 L45,30 L45,30 L45,30 L46,28 Z"/><path d="M4,7 L4,7 L4,8 L4,8 L3,8 L3,8 L3,8 L3,9 L3,9 L3,9 L2,10 L2,10 L2,10 L2,11 L2,11 L2,12 L2,12 L2,12 L2,13 L1,13 L1,14 L1,14 L1,15 L1,16 L1,17 L0,18 L0,23 L0,23 L0,24 L1,25 L1,26 L1,26 L1,27 L1,28 L1,28 L2,29 L2,29 L2,30 L2,30 L2,30 L2,30 L2,31 L2,31 L3,32 L3,32 L3,32 L3,32 L3,32 L3,33 L4,33 L4,34 L5,35 L5,35 L7,37 L7,37 L7,37 L8,38 L8,38 L9,38 L9,38 L9,38 L10,39 L11,39 L11,39 L11,39 L12,40 L12,40 L12,40 L13,40 L14,40 L15,40 L15,40 L17,40 L18,41 L18,40 L19,40 L19,40 L21,40 L22,40 L23,40 L23,40 L24,40 L24,40 L25,40 L25,39 L25,39 L25,39 L26,39 L26,39 L26,38 L26,38 L26,38 L26,38 L24,38 L24,38 L20,38 L20,38 L18,38 L18,37 L17,37 L16,37 L16,37 L16,37 L16,37 L15,36 L15,36 L15,36 L14,36 L14,36 L14,36 L13,35 L13,35 L13,34 L12,34 L12,34 L12,33 L12,33 L12,32 L12,32 L12,32 L12,32 L12,30 L12,30 L12,29 L12,29 L12,28 L12,28 L12,28 L13,27 L13,26 L13,26 L13,26 L14,25 L14,25 L14,25 L14,25 L14,25 L14,24 L14,24 L14,24 L15,24 L16,23 L16,22 L16,22 L18,21 L18,21 L18,20 L19,20 L19,20 L20,19 L20,18 L21,17 L21,17 L22,17 L22,16 L22,16 L22,15 L22,15 L23,15 L23,14 L24,14 L24,13 L24,13 L24,13 L24,12 L24,12 L24,11 L24,9 L24,9 L24,8 L24,8 L24,8 L23,7 L22,6 L22,6 L22,6 L21,6 L21,6 L21,6 L20,6 L20,5 L19,5 L19,5 L18,5 L17,5 L14,5 L14,5 L11,6 L10,6 L9,6 L9,6 L8,6 L8,6 L7,6 L6,6 L6,7 L5,7 L5,7 L4,7 Z"/><path d="M12,2 L11,2 L11,3 L11,3 L11,3 L13,3 L13,3 L17,3 L17,4 L18,4 L19,4 L20,4 L20,4 L21,4 L21,4 L21,4 L22,5 L22,5 L22,5 L24,6 L25,7 L25,8 L25,8 L25,8 L25,9 L25,10 L25,10 L25,12 L25,12 L25,13 L25,13 L25,14 L24,14 L24,14 L24,15 L23,16 L23,16 L23,17 L22,17 L22,18 L21,18 L20,19 L18,21 L18,22 L18,22 L17,23 L16,23 L16,24 L16,24 L15,25 L15,25 L15,25 L15,26 L14,26 L14,26 L14,27 L14,27 L14,27 L13,28 L13,29 L13,29 L13,29 L13,30 L12,30 L12,32 L13,33 L14,34 L14,34 L14,34 L14,35 L15,35 L16,35 L16,35 L17,36 L17,36 L17,36 L18,36 L18,36 L19,36 L19,36 L23,36 L23,36 L24,36 L25,36 L27,36 L27,35 L28,35 L28,35 L29,35 L30,35 L30,35 L31,35 L32,34 L32,34 L32,34 L33,34 L33,34 L34,33 L34,33 L34,32 L34,32 L35,31 L35,31 L35,29 L35,28 L36,28 L36,28 L36,27 L36,26 L36,26 L36,25 L36,24 L36,21 L36,21 L36,17 L36,17 L36,16 L36,16 L36,15 L36,14 L36,14 L36,13 L36,13 L35,12 L35,12 L35,11 L35,11 L35,10 L34,9 L34,9 L34,8 L34,8 L33,8 L33,7 L32,6 L32,6 L30,4 L30,4 L30,4 L29,4 L29,4 L29,3 L29,3 L28,3 L28,3 L28,3 L28,3 L27,2 L27,2 L27,2 L26,2 L26,2 L26,2 L25,2 L25,1 L24,1 L24,1 L23,1 L22,1 L21,1 L20,1 L20,0 L16,0 L16,1 L15,1 L15,1 L14,1 L14,1 L13,1 L13,1 L12,1 L12,2 Z"/></svg>