<svg xmlns="http://www.w3.org/2000/svg" viewBox="0 0 200 39" fill="currentColor"><path d="M170,6 L169,6 L170,7 L170,7 L170,7 L172,7 L172,7 L173,8 L173,9 L173,9 L173,34 L173,35 L173,36 L172,36 L172,37 L170,37 L170,37 L170,38 L170,38 L171,38 L171,38 L183,38 L183,38 L185,38 L185,38 L186,38 L187,38 L188,38 L188,37 L190,37 L190,37 L190,37 L191,36 L191,36 L191,36 L192,36 L192,36 L192,36 L193,35 L193,35 L194,34 L194,34 L195,34 L195,34 L195,33 L196,33 L196,32 L196,32 L196,32 L197,31 L197,31 L197,31 L197,30 L197,30 L197,30 L198,29 L198,28 L198,28 L198,28 L198,28 L199,27 L199,26 L199,26 L199,24 L199,24 L199,19 L199,19 L199,17 L199,17 L199,16 L198,15 L198,15 L198,14 L198,14 L196,12 L194,9 L193,8 L192,8 L192,8 L191,7 L191,7 L190,7 L190,7 L189,6 L188,6 L187,6 L186,6 L184,6 L170,6 Z"/><path d="M184,8 L184,8 L186,8 L186,9 L187,9 L187,9 L188,9 L188,10 L188,10 L189,10 L189,10 L190,10 L190,10 L191,11 L191,11 L191,12 L191,12 L191,12 L192,12 L192,12 L192,13 L192,13 L193,13 L193,14 L193,14 L193,14 L194,14 L194,15 L194,16 L194,16 L194,16 L194,18 L195,18 L195,19 L195,20 L195,20 L195,21 L195,21 L195,24 L195,24 L195,25 L195,25 L195,26 L195,27 L194,27 L194,28 L194,29 L194,29 L194,30 L194,30 L193,31 L193,31 L193,31 L193,32 L192,32 L192,32 L191,33 L191,33 L190,34 L190,34 L190,34 L190,34 L189,35 L189,35 L188,35 L188,35 L188,35 L186,36 L186,36 L184,36 L183,36 L179,36 L179,36 L178,36 L177,36 L177,36 L177,23 L177,23 L177,20 L177,20 L177,17 L177,17 L178,8 L178,8 L180,8 L180,8 L181,8 L181,8 L182,8 Z"/><path d="M133,6 L133,6 L133,7 L134,7 L135,7 L136,8 L136,8 L136,9 L136,11 L136,11 L136,31 L136,31 L136,34 L136,34 L136,36 L135,37 L134,37 L134,37 L134,37 L134,38 L134,38 L135,38 L135,38 L143,38 L144,38 L144,37 L144,37 L144,37 L143,37 L142,37 L141,36 L141,35 L141,35 L141,32 L140,32 L140,25 L141,25 L147,25 L148,26 L149,27 L149,28 L150,28 L150,28 L150,29 L150,29 L151,29 L151,30 L152,30 L152,31 L152,32 L153,32 L153,32 L154,33 L154,34 L155,34 L155,34 L155,35 L157,36 L157,36 L157,37 L157,37 L158,37 L158,37 L158,38 L159,38 L160,38 L160,38 L160,38 L165,38 L166,38 L166,37 L166,37 L165,37 L165,37 L164,37 L163,37 L163,36 L162,36 L161,35 L161,35 L161,35 L159,34 L159,33 L158,33 L157,31 L156,30 L156,30 L156,29 L156,29 L155,29 L155,28 L155,28 L155,28 L154,27 L154,27 L153,26 L153,26 L153,26 L153,25 L151,24 L151,24 L151,24 L151,23 L151,23 L153,21 L153,21 L154,20 L154,19 L155,19 L155,18 L155,18 L155,17 L156,17 L156,16 L156,15 L156,13 L156,13 L156,12 L156,11 L155,11 L155,10 L154,9 L154,9 L153,8 L153,8 L152,7 L152,7 L151,6 L150,6 L150,6 L149,6 L148,6 L147,6 L147,6 L147,6 L147,6 L133,6 Z"/><path d="M141,8 L142,7 L144,7 L145,8 L146,8 L146,8 L147,8 L147,9 L148,9 L149,10 L149,10 L150,10 L150,11 L150,11 L150,12 L151,12 L151,12 L151,13 L151,13 L152,14 L152,18 L151,18 L151,19 L151,20 L151,20 L150,20 L150,21 L150,22 L149,22 L149,22 L149,22 L148,22 L148,23 L145,23 L145,23 L144,23 L143,23 L142,23 L142,22 L141,22 L141,22 L140,9 L141,9 L141,8 Z"/><path d="M72,6 L71,7 L71,8 L71,10 L71,11 L71,13 L71,13 L72,13 L72,13 L72,12 L72,12 L72,12 L72,11 L73,11 L73,10 L73,10 L73,10 L74,10 L74,9 L74,9 L75,9 L76,9 L76,8 L77,8 L77,8 L81,8 L81,8 L84,8 L84,8 L90,8 L90,8 L90,8 L90,9 L90,10 L89,10 L89,11 L88,11 L88,11 L88,12 L88,12 L87,13 L87,13 L86,14 L86,14 L86,14 L86,15 L86,15 L86,15 L85,16 L85,16 L85,16 L85,16 L84,17 L84,17 L84,17 L84,18 L83,19 L82,19 L82,19 L82,20 L82,20 L81,21 L81,21 L81,21 L80,21 L80,22 L80,22 L80,22 L80,23 L80,23 L79,23 L78,24 L78,24 L78,25 L78,25 L78,25 L78,26 L77,26 L77,26 L77,26 L76,28 L76,28 L75,28 L75,29 L75,29 L74,30 L74,30 L74,31 L73,31 L73,31 L73,31 L73,32 L73,32 L72,33 L72,33 L72,33 L72,33 L71,34 L71,34 L71,34 L70,35 L70,36 L70,36 L70,36 L69,37 L69,38 L70,38 L71,38 L71,38 L93,38 L94,38 L94,36 L94,36 L94,33 L95,33 L95,32 L94,31 L94,31 L94,31 L94,32 L93,32 L93,32 L93,33 L93,33 L93,33 L92,34 L92,35 L91,35 L91,35 L90,35 L90,35 L85,36 L84,36 L76,36 L76,36 L76,35 L76,35 L76,35 L76,34 L76,34 L77,34 L77,33 L77,33 L77,33 L78,32 L78,32 L78,32 L79,31 L79,31 L79,30 L80,30 L80,29 L80,29 L81,28 L82,27 L82,26 L82,26 L83,25 L83,24 L84,24 L84,24 L84,24 L84,23 L85,23 L85,22 L85,22 L85,22 L86,21 L86,20 L86,20 L86,20 L87,20 L87,19 L87,19 L87,19 L88,18 L88,18 L88,18 L88,17 L88,17 L88,17 L89,16 L89,16 L90,15 L90,14 L91,14 L91,14 L91,13 L91,12 L92,12 L92,12 L92,12 L92,11 L93,11 L93,11 L93,10 L93,10 L94,10 L94,9 L94,8 L94,8 L95,8 L95,7 L95,7 L95,7 L95,6 L95,6 L94,6 L72,6 Z"/><path d="M113,5 L113,6 L113,6 L113,6 L112,7 L112,7 L112,8 L112,8 L112,8 L112,9 L111,10 L111,10 L111,11 L111,11 L110,12 L110,12 L110,13 L110,13 L110,14 L109,14 L109,15 L109,16 L109,16 L109,16 L108,17 L108,18 L108,18 L108,19 L107,19 L107,20 L107,20 L107,21 L106,22 L106,22 L106,22 L106,23 L106,24 L106,24 L105,24 L105,25 L105,26 L105,26 L104,27 L104,27 L104,28 L104,28 L104,29 L104,29 L103,30 L103,30 L103,31 L103,32 L102,32 L102,32 L102,33 L102,33 L101,34 L101,35 L101,36 L101,36 L100,36 L100,36 L100,37 L98,37 L97,37 L97,38 L98,38 L98,38 L98,38 L106,38 L106,38 L107,38 L106,37 L105,37 L105,36 L105,35 L106,34 L106,33 L106,33 L106,32 L106,31 L106,31 L107,30 L107,29 L107,29 L107,28 L108,28 L108,27 L108,27 L108,26 L108,25 L108,25 L112,25 L112,25 L114,25 L114,26 L117,26 L117,26 L118,26 L118,26 L118,27 L119,27 L119,28 L119,28 L119,29 L119,29 L119,30 L120,30 L120,31 L120,31 L120,32 L121,32 L121,33 L121,33 L121,34 L121,34 L121,35 L121,36 L122,36 L122,36 L122,38 L122,38 L123,38 L130,38 L130,38 L130,37 L129,37 L129,37 L128,36 L128,36 L127,35 L127,35 L127,35 L127,34 L126,34 L126,34 L126,33 L126,33 L125,32 L125,32 L125,32 L125,31 L124,31 L124,30 L124,30 L124,29 L124,29 L124,28 L123,28 L123,27 L123,27 L123,27 L122,26 L122,25 L122,25 L122,24 L122,24 L122,24 L121,23 L121,22 L121,22 L121,22 L120,21 L120,20 L120,20 L120,19 L120,19 L120,19 L119,18 L119,17 L119,17 L119,17 L118,16 L118,16 L118,15 L118,14 L118,14 L118,14 L117,13 L117,12 L117,12 L117,12 L116,11 L116,10 L116,10 L116,9 L116,9 L116,9 L115,8 L115,8 L115,7 L114,6 L114,6 L114,6 L114,6 L114,5 Z"/><path d="M113,12 L113,12 L113,12 L114,13 L114,14 L114,14 L114,15 L114,15 L114,16 L115,17 L115,17 L115,18 L115,18 L116,19 L116,20 L116,20 L116,21 L116,21 L116,22 L117,22 L117,23 L116,23 L115,23 L113,23 L112,23 L110,23 L109,22 L110,22 L110,21 L110,20 L110,19 L110,19 L110,18 L111,17 L111,17 L111,16 L111,16 L112,15 L112,14 L112,14 L112,14 L112,13 L112,13 L112,13 Z"/><path d="M49,5 L48,6 L48,6 L48,7 L48,7 L47,8 L47,8 L47,9 L47,9 L46,10 L46,10 L46,10 L46,11 L46,12 L46,12 L45,13 L45,13 L45,14 L45,15 L45,15 L44,16 L44,16 L44,17 L44,17 L44,17 L43,18 L43,19 L43,19 L43,20 L42,20 L42,21 L42,21 L42,22 L42,22 L42,23 L41,23 L41,24 L41,24 L41,25 L40,26 L40,26 L40,26 L40,27 L40,28 L39,28 L39,29 L39,29 L39,30 L39,30 L38,31 L38,31 L38,32 L38,32 L38,33 L38,33 L37,34 L37,34 L37,34 L36,35 L36,36 L35,36 L35,37 L34,37 L33,37 L33,37 L32,38 L33,38 L34,38 L34,38 L42,38 L42,38 L42,38 L42,37 L41,37 L41,37 L41,37 L40,36 L40,34 L40,34 L41,34 L41,33 L41,32 L41,32 L42,31 L42,30 L42,30 L42,29 L42,29 L43,28 L43,28 L43,27 L43,27 L43,26 L44,25 L49,25 L49,26 L53,26 L54,26 L54,27 L54,27 L54,28 L54,28 L54,29 L55,29 L55,30 L55,30 L55,31 L56,31 L56,32 L56,32 L56,33 L56,33 L56,34 L57,35 L57,36 L57,36 L57,38 L58,38 L58,38 L65,38 L65,38 L66,38 L66,38 L66,37 L65,37 L63,37 L63,36 L63,36 L62,36 L62,35 L62,35 L62,34 L62,34 L62,34 L61,34 L61,33 L61,32 L61,32 L60,32 L60,31 L60,31 L60,30 L60,30 L60,29 L59,29 L59,28 L59,28 L59,27 L58,27 L58,26 L58,26 L58,25 L58,25 L57,24 L57,24 L57,23 L57,23 L56,22 L56,22 L56,21 L56,21 L56,20 L55,20 L55,19 L55,19 L55,18 L55,18 L54,17 L54,17 L54,16 L54,16 L54,15 L53,15 L53,14 L53,14 L53,13 L52,13 L52,12 L52,12 L52,12 L52,11 L52,10 L51,10 L51,10 L51,9 L51,9 L50,8 L50,8 L50,8 L50,7 L50,7 L50,6 L50,6 L49,5 Z"/><path d="M48,12 L49,12 L49,12 L49,13 L49,14 L49,14 L50,15 L50,16 L50,16 L50,16 L50,17 L50,17 L51,18 L51,18 L51,19 L51,20 L51,20 L52,21 L52,21 L52,22 L52,22 L52,22 L52,23 L51,23 L51,23 L49,23 L48,23 L45,23 L45,23 L45,22 L45,22 L45,21 L46,20 L46,19 L46,19 L46,18 L46,18 L46,17 L47,16 L47,16 L47,15 L47,14 L48,14 L48,13 L48,13 L48,12 Z"/><path d="M1,1 L1,1 L1,2 L1,2 L1,2 L2,2 L3,2 L3,2 L3,3 L4,4 L4,5 L4,5 L4,28 L4,29 L4,30 L4,31 L3,36 L3,37 L2,37 L1,37 L1,37 L1,38 L1,38 L2,38 L4,38 L4,38 L29,38 L29,38 L29,38 L29,36 L30,36 L30,34 L30,34 L30,33 L30,32 L30,31 L29,31 L29,32 L29,32 L28,33 L28,33 L28,34 L27,35 L27,35 L26,35 L26,35 L25,35 L23,36 L23,36 L16,36 L15,36 L12,35 L11,35 L10,35 L9,34 L9,34 L9,30 L9,30 L9,27 L9,26 L9,6 L9,6 L9,3 L10,2 L10,2 L10,2 L11,2 L11,1 L11,1 L1,1 Z"/></svg>