<svg xmlns="http://www.w3.org/2000/svg" viewBox="0 0 60 60" fill="currentColor"><path d="M0,0 L0,1 L0,59 L0,60 L0,60 L59,60 L59,60 L60,60 L60,53 L60,53 L60,53 L60,52 L60,52 L60,52 L60,52 L60,52 L60,52 L60,38 L60,38 L60,38 L60,18 L60,18 L60,18 L60,18 L60,18 L60,17 L60,17 L60,17 L60,17 L60,17 L60,17 L60,16 L60,16 L60,15 L60,4 L60,4 L60,3 L60,2 L60,2 L60,2 L60,2 L60,2 L60,1 L60,1 L60,1 L60,1 L59,0 L59,0 Z"/><path d="M33,44 L34,44 L35,44 L35,44 L35,50 L35,50 L35,50 L38,50 L38,50 L38,52 L38,52 L35,52 L35,52 L34,52 L34,52 L34,52 L34,51 L34,51 L34,51 L34,50 L34,50 L33,50 L33,50 L33,44 L33,44 Z"/><path d="M30,44 L31,44 L31,44 L31,52 L31,52 L31,52 L30,52 L30,52 L30,44 Z"/><path d="M48,44 L49,44 L49,44 L49,44 L53,44 L54,44 L54,44 L54,44 L54,45 L54,45 L55,45 L55,45 L55,45 L55,46 L55,46 L55,46 L55,46 L55,47 L55,48 L55,48 L54,48 L54,48 L54,48 L54,49 L53,49 L53,49 L54,50 L54,50 L54,50 L54,50 L54,50 L54,50 L54,51 L55,51 L55,51 L55,51 L55,52 L55,52 L55,52 L54,52 L53,52 L53,52 L53,51 L53,51 L53,51 L52,50 L52,50 L52,50 L52,50 L52,50 L51,49 L51,49 L51,48 L52,48 L52,48 L52,48 L52,48 L52,48 L53,48 L53,48 L53,47 L53,47 L53,47 L53,46 L53,46 L53,46 L53,46 L53,46 L53,46 L52,45 L52,45 L52,45 L52,45 L52,45 L50,45 L50,45 L50,46 L50,52 L50,52 L48,52 L48,52 L48,44 Z"/><path d="M24,44 L26,44 L26,44 L26,44 L26,44 L27,44 L27,44 L28,44 L28,44 L28,44 L28,44 L28,45 L28,45 L28,45 L28,46 L27,46 L27,46 L27,46 L27,46 L26,45 L26,45 L26,45 L26,45 L25,45 L25,45 L24,45 L24,46 L24,46 L24,46 L24,47 L25,47 L25,47 L25,47 L26,47 L26,47 L26,47 L26,47 L27,48 L27,48 L27,48 L27,48 L27,48 L28,48 L28,49 L28,49 L28,49 L28,50 L28,50 L28,51 L28,51 L27,52 L27,52 L27,52 L27,52 L26,52 L26,52 L26,52 L26,52 L25,52 L24,52 L24,52 L24,52 L23,52 L23,52 L23,52 L22,51 L22,51 L22,51 L22,51 L22,51 L22,51 L22,51 L22,50 L22,50 L22,50 L22,50 L23,50 L23,50 L24,50 L24,50 L24,50 L25,50 L25,50 L26,50 L26,50 L26,50 L26,50 L26,50 L26,50 L26,49 L26,49 L26,49 L26,49 L26,49 L26,49 L25,49 L25,49 L25,48 L25,48 L24,48 L24,48 L24,48 L24,48 L24,48 L23,48 L23,48 L22,47 L22,47 L22,45 L22,45 L22,45 L22,45 L22,45 L23,44 L23,44 L23,44 L24,44 Z"/><path d="M17,44 L18,44 L18,44 L19,44 L19,44 L19,44 L20,44 L20,44 L20,44 L20,44 L20,44 L20,45 L20,45 L20,46 L20,46 L19,46 L19,45 L19,45 L18,45 L18,45 L18,45 L18,45 L17,45 L17,45 L17,45 L16,45 L16,46 L16,46 L16,46 L17,46 L17,47 L17,47 L18,47 L18,47 L18,47 L19,47 L19,47 L19,48 L19,48 L19,48 L20,48 L20,48 L20,48 L20,49 L21,49 L21,49 L21,50 L21,50 L21,50 L20,50 L20,51 L20,51 L20,51 L20,51 L20,52 L19,52 L19,52 L19,52 L18,52 L18,52 L18,52 L17,52 L17,52 L16,52 L16,52 L16,52 L16,52 L16,52 L15,52 L14,51 L14,51 L14,50 L14,50 L15,50 L15,50 L15,50 L16,50 L16,50 L16,50 L16,50 L16,50 L17,50 L17,50 L17,50 L18,50 L19,50 L19,50 L19,50 L19,50 L19,50 L19,49 L19,49 L18,49 L18,49 L18,49 L18,49 L17,48 L17,48 L17,48 L16,48 L16,48 L16,48 L16,48 L16,48 L15,47 L15,47 L15,47 L14,46 L15,45 L15,45 L15,45 L15,45 L15,45 L15,44 L16,44 L16,44 L16,44 L17,44 Z"/><path d="M42,44 L42,44 L42,44 L44,44 L44,44 L44,44 L44,44 L44,44 L45,44 L45,44 L46,45 L46,45 L46,45 L46,45 L46,46 L46,46 L46,46 L46,46 L47,46 L47,47 L47,47 L47,49 L47,49 L47,49 L46,50 L46,50 L46,50 L45,51 L44,52 L44,52 L44,52 L44,52 L43,52 L43,52 L42,52 L41,52 L41,52 L41,52 L40,52 L40,51 L40,51 L40,51 L40,51 L39,51 L39,50 L39,50 L39,50 L39,50 L39,50 L38,49 L38,48 L38,48 L38,47 L38,47 L38,46 L39,46 L39,46 L39,46 L39,45 L40,44 L40,44 L40,44 L41,44 L41,44 L41,44 Z"/><path d="M41,45 L41,46 L41,46 L40,46 L40,46 L40,46 L40,47 L40,48 L40,48 L40,48 L40,49 L41,50 L41,50 L41,50 L41,50 L41,50 L41,50 L41,50 L42,50 L42,50 L43,50 L44,50 L44,50 L44,50 L44,50 L44,50 L44,50 L45,50 L45,49 L45,49 L45,49 L45,49 L45,48 L45,48 L45,48 L45,47 L45,47 L45,47 L45,47 L45,46 L44,46 L44,46 L44,46 L44,45 L43,45 L42,45 L42,45 Z"/><path d="M8,44 L9,44 L9,44 L9,44 L10,44 L10,44 L11,44 L11,44 L11,44 L12,44 L12,44 L12,44 L12,44 L12,45 L12,45 L12,45 L12,45 L13,46 L13,46 L13,46 L13,47 L13,47 L13,48 L13,48 L7,48 L7,48 L7,48 L7,48 L7,49 L7,49 L7,49 L7,49 L7,50 L7,50 L7,50 L7,50 L8,50 L8,50 L8,50 L10,50 L10,50 L11,50 L11,50 L11,50 L12,50 L12,50 L12,50 L12,50 L12,50 L13,50 L13,50 L13,51 L12,51 L12,52 L11,52 L11,52 L11,52 L11,52 L10,52 L10,52 L10,52 L8,52 L8,52 L8,52 L8,52 L7,52 L7,52 L7,52 L6,51 L6,50 L5,50 L5,50 L5,49 L5,49 L5,49 L5,48 L5,48 L5,48 L5,47 L5,47 L5,47 L5,47 L5,46 L5,46 L5,46 L5,46 L5,46 L6,46 L6,45 L6,45 L6,45 L6,45 L6,45 L6,45 L7,44 L7,44 L8,44 L8,44 L8,44 Z"/><path d="M11,47 L11,46 L11,46 L11,46 L11,46 L10,45 L10,45 L10,45 L10,45 L9,45 L9,45 L9,45 L9,45 L8,45 L8,46 L7,46 L7,46 L7,47 L7,47 L7,47 L7,47 L7,47 L7,47 L8,47 L8,47 L10,47 L10,47 L10,47 L10,47 L11,47 L11,47 L11,47 L11,47 L11,47 Z"/><path d="M8,22 L8,21 L8,21 L9,21 L9,21 L9,21 L9,21 L9,21 L9,20 L9,20 L9,20 L9,20 L9,20 L10,20 L10,20 L10,20 L10,19 L10,19 L10,19 L10,19 L10,18 L11,18 L11,18 L11,18 L11,17 L13,15 L14,15 L14,15 L14,15 L14,14 L14,14 L15,14 L15,14 L15,14 L16,13 L16,13 L16,13 L16,13 L16,13 L16,13 L17,13 L17,12 L18,12 L18,12 L18,12 L18,12 L18,12 L19,12 L19,12 L19,12 L19,11 L20,11 L20,11 L20,11 L20,11 L20,11 L21,11 L21,11 L21,10 L21,10 L22,10 L22,10 L22,10 L23,10 L23,10 L23,10 L24,10 L25,10 L25,9 L25,9 L26,9 L27,9 L27,9 L28,9 L28,9 L28,9 L29,9 L31,9 L31,9 L32,9 L32,9 L33,9 L33,9 L33,9 L33,9 L34,9 L34,9 L35,9 L35,10 L36,10 L36,10 L36,10 L36,10 L37,10 L37,10 L37,10 L38,10 L38,10 L38,10 L39,10 L39,10 L39,10 L39,11 L40,11 L40,11 L40,11 L40,11 L41,11 L41,12 L41,12 L41,12 L41,12 L42,12 L42,12 L42,12 L42,12 L42,12 L42,12 L42,12 L43,12 L43,12 L43,13 L44,13 L44,13 L44,13 L44,13 L44,14 L44,14 L44,14 L45,14 L45,14 L45,14 L46,14 L46,15 L47,16 L47,16 L48,17 L48,17 L49,17 L49,17 L49,18 L50,19 L50,19 L50,19 L50,20 L50,20 L51,20 L51,20 L51,21 L51,21 L51,21 L51,21 L52,22 L52,22 L52,22 L51,22 L51,22 L51,23 L51,23 L51,23 L51,23 L51,23 L51,23 L51,24 L51,24 L50,24 L50,24 L50,24 L50,25 L49,25 L49,26 L49,26 L49,26 L48,26 L48,27 L48,27 L48,28 L47,28 L47,28 L47,28 L46,28 L46,29 L46,29 L46,29 L46,29 L45,29 L45,30 L45,30 L45,30 L44,30 L44,30 L44,31 L43,31 L43,31 L43,31 L42,31 L42,31 L42,32 L42,32 L41,32 L41,32 L41,32 L41,32 L41,32 L40,32 L40,32 L40,33 L40,33 L40,33 L40,33 L39,33 L39,33 L39,33 L38,34 L38,34 L37,34 L37,34 L37,34 L37,34 L36,34 L36,34 L35,34 L35,34 L34,34 L34,34 L34,34 L33,35 L33,35 L33,35 L33,35 L31,35 L31,35 L29,35 L29,35 L28,35 L28,35 L27,35 L27,35 L26,34 L26,34 L26,34 L25,34 L25,34 L24,34 L24,34 L24,34 L23,34 L23,34 L23,34 L22,34 L22,34 L22,34 L22,33 L21,33 L21,33 L21,33 L21,33 L21,33 L20,33 L20,33 L20,33 L19,32 L19,32 L19,32 L19,32 L18,32 L18,32 L18,32 L18,31 L17,31 L17,31 L17,31 L16,30 L16,30 L16,30 L15,30 L15,30 L15,30 L15,30 L14,29 L14,29 L14,28 L14,28 L13,28 L13,28 L13,28 L12,27 L10,25 L10,25 L10,25 L10,25 L10,24 L10,24 L10,24 L10,24 L10,24 L9,24 L9,24 L9,24 L9,23 L9,23 L9,23 L9,23 L9,23 L8,22 L8,22 Z"/><path d="M30,12 L30,12 L30,12 L29,12 L29,12 L28,12 L28,12 L28,12 L28,12 L28,12 L28,12 L27,12 L27,12 L27,12 L26,12 L26,12 L26,12 L26,13 L26,13 L25,13 L25,13 L25,13 L25,13 L24,13 L24,13 L24,14 L24,14 L24,14 L23,14 L23,14 L23,14 L23,15 L22,15 L22,15 L22,15 L22,16 L22,16 L22,16 L22,16 L21,16 L21,17 L21,17 L21,18 L20,18 L20,19 L20,19 L20,19 L20,20 L20,20 L20,21 L20,21 L20,23 L20,23 L20,24 L20,24 L20,25 L20,25 L20,26 L21,26 L21,26 L21,26 L21,26 L21,27 L21,27 L21,27 L21,27 L22,28 L22,28 L22,28 L22,28 L22,28 L22,29 L22,29 L23,29 L23,29 L23,29 L24,30 L24,30 L24,30 L24,30 L25,30 L25,30 L25,31 L25,31 L25,31 L26,31 L26,31 L26,31 L26,31 L26,31 L27,31 L27,32 L27,32 L28,32 L28,32 L28,32 L29,32 L29,32 L29,32 L29,32 L30,32 L31,32 L31,32 L32,32 L32,32 L33,32 L33,32 L34,31 L34,31 L34,31 L35,31 L35,31 L35,30 L35,30 L36,30 L36,30 L36,30 L36,30 L37,30 L37,29 L38,28 L38,28 L38,28 L38,28 L38,28 L38,28 L38,27 L39,27 L39,27 L39,27 L39,26 L39,26 L39,26 L40,25 L40,25 L40,25 L40,24 L40,24 L40,24 L40,23 L40,23 L40,23 L36,23 L36,23 L36,24 L36,24 L36,24 L36,24 L36,24 L35,25 L35,25 L35,26 L35,26 L34,26 L34,26 L34,27 L34,27 L34,27 L33,27 L33,27 L33,27 L32,28 L32,28 L32,28 L32,28 L31,28 L30,28 L30,28 L29,28 L29,28 L28,28 L28,28 L28,28 L28,28 L28,28 L27,27 L27,27 L27,27 L26,27 L26,26 L26,26 L25,26 L25,26 L25,25 L25,25 L24,25 L24,24 L24,24 L24,24 L24,24 L24,23 L24,23 L24,22 L24,22 L24,21 L24,21 L24,21 L24,20 L24,20 L24,20 L24,20 L24,19 L24,19 L24,19 L24,19 L25,18 L25,18 L25,18 L25,18 L26,17 L26,17 L26,17 L26,17 L27,17 L27,16 L27,16 L27,16 L27,16 L28,16 L28,16 L28,16 L28,16 L28,16 L29,16 L29,16 L32,16 L32,16 L32,16 L32,16 L32,16 L33,16 L32,17 L32,17 L32,17 L31,18 L31,18 L30,19 L30,19 L28,21 L28,21 L28,21 L28,22 L28,22 L28,22 L28,22 L28,23 L29,24 L29,24 L30,24 L30,24 L30,24 L31,24 L32,22 L32,22 L32,22 L33,22 L33,21 L34,21 L34,21 L34,20 L34,20 L34,20 L36,19 L36,19 L36,18 L38,17 L38,17 L38,16 L38,16 L38,16 L38,15 L38,15 L37,14 L37,14 L36,14 L36,14 L36,14 L36,13 L35,13 L35,13 L35,13 L35,13 L35,13 L35,13 L34,13 L34,13 L34,13 L34,12 L34,12 L33,12 L33,12 L33,12 L33,12 L32,12 L32,12 L32,12 L32,12 L31,12 Z"/></svg>