<svg xmlns="http://www.w3.org/2000/svg" viewBox="0 0 177 60" fill="currentColor"><path d="M63,31 L63,31 L63,32 L63,33 L63,33 L63,34 L64,34 L64,35 L64,35 L64,36 L65,36 L65,36 L65,37 L66,38 L68,40 L68,40 L69,41 L69,41 L69,41 L70,41 L70,41 L70,41 L70,42 L71,42 L71,42 L72,42 L72,43 L72,43 L73,43 L73,43 L74,43 L74,43 L75,44 L76,44 L76,44 L78,44 L78,45 L80,45 L81,45 L82,45 L82,45 L85,45 L87,46 L87,47 L88,47 L88,47 L88,48 L88,48 L88,48 L88,49 L88,49 L88,50 L88,50 L88,50 L87,51 L87,52 L87,53 L87,57 L87,57 L87,58 L88,59 L88,59 L89,59 L90,59 L90,59 L91,58 L91,58 L91,58 L91,56 L91,56 L92,56 L92,54 L91,54 L91,53 L91,53 L91,52 L91,51 L91,50 L90,50 L90,50 L90,49 L90,48 L91,46 L92,46 L92,46 L92,46 L92,46 L93,45 L93,45 L94,45 L94,45 L98,45 L98,45 L100,45 L100,44 L102,44 L102,44 L103,44 L104,43 L105,43 L105,43 L106,43 L106,43 L106,43 L107,42 L107,42 L107,42 L108,42 L108,41 L108,41 L110,41 L110,40 L111,40 L111,39 L111,39 L111,39 L111,39 L112,39 L112,38 L113,38 L113,36 L113,36 L114,36 L114,36 L114,35 L114,35 L115,34 L115,34 L115,34 L115,33 L115,32 L115,31 L115,30 L115,30 L114,31 L114,31 L113,31 L113,31 L112,32 L112,32 L111,32 L111,32 L110,32 L110,32 L109,33 L109,33 L108,33 L108,33 L108,34 L107,34 L107,34 L106,34 L106,34 L106,34 L105,35 L105,35 L104,35 L104,35 L104,36 L104,36 L103,36 L103,36 L102,37 L101,37 L101,37 L101,37 L100,38 L100,38 L100,38 L99,38 L99,38 L99,38 L98,39 L98,39 L97,40 L97,40 L97,40 L96,40 L96,40 L95,41 L95,41 L95,41 L95,42 L94,42 L94,42 L93,43 L93,43 L92,43 L91,43 L91,43 L92,43 L92,43 L92,43 L92,42 L93,42 L93,42 L93,42 L94,41 L94,41 L94,41 L94,40 L95,40 L95,39 L96,39 L96,38 L96,38 L96,38 L96,37 L96,37 L96,36 L96,36 L96,35 L96,34 L96,34 L96,34 L95,33 L95,33 L94,32 L94,32 L94,32 L93,32 L93,31 L92,31 L92,31 L88,31 L87,31 L87,31 L86,31 L86,31 L86,31 L85,32 L84,32 L84,32 L84,32 L82,34 L82,34 L82,35 L82,38 L82,38 L82,38 L83,39 L83,39 L83,40 L83,40 L85,42 L85,42 L86,42 L86,42 L86,43 L86,43 L87,43 L86,44 L85,43 L85,43 L85,43 L85,42 L85,42 L84,42 L83,41 L83,41 L82,40 L81,40 L81,39 L80,39 L80,39 L80,39 L79,38 L79,38 L77,37 L76,37 L76,36 L76,36 L76,36 L75,36 L75,36 L74,36 L74,35 L74,35 L73,35 L73,35 L72,34 L72,34 L72,34 L71,34 L71,34 L70,34 L70,33 L70,33 L69,33 L69,33 L68,32 L68,32 L68,32 L67,32 L67,32 L66,32 L65,31 L65,31 L65,31 L64,31 L63,30 L63,30 Z"/><path d="M89,50 L90,50 L90,51 L90,51 L90,52 L90,52 L90,54 L91,55 L90,57 L90,58 L89,58 L88,58 L88,58 L88,57 L88,57 L88,54 L88,53 L88,52 L88,51 L88,51 L89,50 Z"/><path d="M87,45 L88,45 L88,44 L89,44 L90,44 L91,45 L91,45 L90,46 L90,46 L90,47 L89,47 L88,46 L88,46 L88,46 L88,46 L88,46 L88,45 L87,45 Z"/><path d="M114,32 L114,33 L113,34 L113,34 L113,34 L113,35 L112,35 L112,36 L112,36 L112,36 L112,37 L111,37 L111,37 L110,39 L108,40 L108,40 L108,40 L108,40 L108,40 L107,40 L107,41 L106,41 L106,41 L106,41 L105,42 L105,42 L104,42 L104,42 L103,42 L102,42 L102,43 L101,43 L100,43 L98,43 L97,44 L94,44 L94,44 L95,43 L96,42 L96,42 L97,41 L98,41 L98,41 L98,41 L99,40 L99,40 L100,39 L100,39 L100,39 L101,38 L102,38 L102,38 L102,38 L103,38 L103,37 L103,37 L104,37 L104,37 L104,37 L105,37 L106,36 L106,36 L107,35 L107,35 L107,35 L108,35 L108,35 L109,34 L109,34 L110,34 L110,34 L110,34 L111,33 L111,33 L112,33 L112,33 L113,33 L113,33 L114,32 Z"/><path d="M64,32 L65,32 L66,33 L66,33 L66,33 L67,33 L67,33 L69,34 L69,34 L70,35 L70,35 L70,35 L70,35 L71,35 L72,35 L72,36 L72,36 L73,36 L73,36 L74,37 L74,37 L75,37 L75,37 L75,37 L76,38 L76,38 L77,38 L78,39 L79,40 L80,40 L80,40 L80,41 L80,41 L80,41 L81,41 L81,41 L81,41 L82,42 L82,42 L84,43 L84,44 L84,44 L80,44 L80,43 L79,43 L78,43 L78,43 L77,43 L76,42 L75,42 L74,42 L74,42 L74,42 L73,42 L73,41 L72,41 L72,41 L72,41 L71,40 L71,40 L70,40 L70,40 L69,39 L69,39 L68,39 L68,38 L68,38 L68,38 L66,36 L66,36 L65,35 L65,34 L65,34 L65,33 L64,33 Z"/><path d="M87,32 L88,32 L88,32 L92,32 L92,32 L93,33 L94,33 L95,34 L95,35 L95,36 L95,37 L95,37 L95,38 L94,38 L94,39 L93,40 L92,40 L92,41 L91,41 L91,42 L91,42 L91,42 L90,42 L90,42 L89,42 L88,42 L88,42 L88,42 L88,42 L87,42 L87,41 L86,41 L86,41 L86,41 L86,40 L85,40 L85,40 L84,39 L84,39 L84,38 L84,38 L83,38 L83,35 L84,35 L84,34 L84,34 L84,33 L85,33 L85,33 L86,32 Z"/><path d="M86,33 L85,34 L85,34 L85,34 L85,34 L85,34 L84,35 L84,35 L84,36 L84,36 L84,37 L84,38 L85,38 L85,38 L85,39 L85,39 L86,39 L86,39 L86,40 L87,40 L87,41 L88,41 L88,41 L88,41 L90,41 L90,41 L91,41 L91,41 L91,41 L93,39 L94,38 L94,37 L94,37 L94,35 L94,35 L94,34 L93,34 L92,33 L90,33 L89,33 L89,34 L89,33 L88,33 L88,33 L86,33 L86,33 Z"/><path d="M85,35 L86,35 L86,35 L86,34 L88,34 L88,34 L89,35 L90,34 L90,34 L92,34 L93,35 L93,35 L93,36 L93,38 L92,38 L92,38 L92,38 L92,39 L90,40 L90,40 L90,40 L88,40 L88,40 L88,40 L88,40 L87,40 L86,38 L86,37 L85,37 Z"/><path d="M89,37 L88,38 L88,38 L89,39 L89,39 L89,39 L90,39 L90,39 L90,38 L90,37 Z"/><path d="M90,36 L90,36 L90,37 L92,37 L92,36 L92,36 L92,36 L92,35 L92,35 L91,35 L90,35 Z"/><path d="M86,36 L86,36 L86,37 L88,37 L88,36 L88,35 L88,35 L87,35 Z"/><path d="M140,1 L140,1 L139,1 L138,1 L138,1 L138,2 L138,15 L137,16 L137,15 L136,15 L136,14 L136,14 L136,14 L135,14 L134,12 L133,12 L132,11 L132,11 L132,11 L132,11 L130,9 L129,8 L129,8 L128,8 L128,8 L128,7 L127,7 L127,6 L127,6 L126,6 L125,4 L124,4 L123,2 L122,2 L122,2 L122,2 L122,1 L121,1 L120,1 L119,1 L119,19 L120,19 L121,19 L122,19 L122,5 L122,5 L122,5 L123,6 L123,6 L125,8 L125,8 L125,8 L126,9 L126,9 L127,9 L127,10 L127,10 L128,10 L128,11 L129,12 L130,12 L131,13 L131,13 L132,14 L132,14 L133,15 L134,16 L135,17 L135,17 L135,17 L136,17 L138,19 L138,19 L140,19 L140,19 L140,2 Z"/><path d="M101,1 L100,1 L100,18 L100,18 L100,19 L101,19 L102,19 L103,19 L103,19 L103,2 L102,1 L102,1 L102,1 Z"/><path d="M67,1 L67,2 L67,19 L67,19 L69,19 L69,19 L69,19 L69,13 L69,13 L77,13 L77,13 L78,13 L78,14 L78,14 L80,15 L80,16 L81,17 L81,17 L83,19 L84,19 L84,19 L86,19 L86,19 L86,17 L86,17 L85,17 L84,17 L84,17 L83,16 L83,16 L82,15 L82,15 L82,14 L82,14 L81,13 L80,12 L80,12 L81,11 L81,11 L82,10 L83,9 L83,8 L83,8 L83,6 L83,6 L83,5 L82,4 L82,4 L82,3 L82,3 L81,3 L81,2 L80,2 L80,2 L79,2 L79,1 L78,1 L76,1 L68,1 Z"/><path d="M69,4 L69,4 L77,4 L78,4 L78,4 L79,4 L79,4 L79,4 L80,5 L80,5 L80,6 L80,6 L81,7 L81,8 L80,8 L80,9 L80,9 L80,9 L79,10 L79,10 L78,10 L77,10 L77,11 L76,11 L76,11 L70,11 L69,10 Z"/><path d="M34,1 L34,2 L34,19 L34,19 L34,19 L37,19 L37,20 L37,19 L50,19 L51,19 L51,18 L51,17 L51,17 L37,17 L36,17 L36,12 L37,12 L49,12 L49,11 L49,9 L49,9 L49,9 L37,9 L36,9 L36,4 L37,4 L50,4 L50,3 L50,3 L50,2 L50,1 L49,1 L49,1 L48,1 L37,1 L37,1 L35,1 L35,1 Z"/><path d="M1,2 L1,19 L1,19 L2,20 L2,19 L3,19 L3,19 L3,12 L3,12 L9,12 L9,12 L10,12 L10,12 L11,12 L11,12 L11,12 L12,13 L12,14 L13,14 L13,14 L13,15 L13,15 L14,15 L14,15 L14,16 L14,16 L16,18 L16,18 L17,19 L17,19 L17,19 L18,19 L18,19 L20,19 L20,19 L20,19 L20,17 L20,17 L19,17 L18,17 L18,17 L18,16 L17,16 L17,16 L16,15 L16,14 L16,14 L16,14 L15,14 L15,13 L15,13 L15,13 L14,12 L14,12 L14,12 L14,12 L13,11 L12,10 L11,10 L12,10 L13,8 L14,7 L14,7 L14,6 L15,5 L15,5 L16,4 L16,4 L16,4 L16,3 L17,3 L17,3 L17,2 L18,2 L18,1 L17,1 L17,1 L17,1 L16,1 L15,1 L14,2 L14,3 L14,3 L14,3 L14,3 L14,4 L13,4 L13,4 L13,4 L13,5 L12,5 L12,5 L12,6 L12,6 L11,6 L11,7 L10,8 L10,8 L9,8 L9,9 L9,9 L8,9 L8,9 L7,9 L7,9 L7,9 L3,9 L3,9 L3,2 L3,1 L2,1 L2,1 L1,1 Z"/><path d="M155,6 L155,7 L155,7 L155,8 L154,9 L154,11 L155,12 L155,14 L155,14 L155,14 L156,15 L156,15 L156,15 L156,16 L157,16 L157,16 L157,16 L157,17 L157,17 L158,17 L158,17 L158,18 L159,18 L160,18 L160,19 L161,19 L161,19 L163,19 L163,20 L165,20 L166,20 L168,20 L169,20 L171,20 L172,19 L173,19 L173,19 L174,19 L175,18 L175,18 L176,18 L176,18 L176,10 L176,10 L168,10 L167,10 L167,10 L167,10 L166,11 L166,12 L166,12 L167,12 L174,12 L174,13 L174,16 L173,17 L172,17 L172,17 L171,17 L171,18 L169,18 L169,18 L164,18 L163,17 L163,17 L162,17 L161,17 L161,16 L161,16 L160,16 L160,16 L159,15 L159,15 L158,14 L158,14 L158,14 L158,14 L158,13 L157,13 L157,12 L157,11 L157,11 L157,10 L157,9 L157,9 L157,8 L158,8 L158,7 L158,7 L158,6 L159,6 L159,5 L160,5 L160,4 L161,4 L161,4 L161,4 L162,4 L162,4 L163,3 L168,3 L168,3 L171,3 L171,4 L172,4 L173,4 L173,4 L174,4 L174,4 L174,5 L175,5 L175,5 L175,3 L175,2 L174,2 L174,2 L174,2 L174,2 L173,1 L172,1 L171,1 L170,1 L169,1 L164,1 L164,1 L162,1 L162,1 L161,1 L160,2 L160,2 L160,2 L159,2 L158,3 L158,3 L158,3 L158,4 L157,4 L157,4 L156,5 L156,5 L156,5 Z"/></svg>