<svg xmlns="http://www.w3.org/2000/svg" viewBox="0 0 60 60" fill="currentColor"><path d="M2,2 L2,2 L1,2 L1,3 L1,3 L1,4 L0,4 L0,4 L0,4 L0,5 L0,55 L0,56 L0,56 L0,56 L1,57 L1,57 L1,57 L1,57 L1,57 L1,58 L1,58 L1,58 L1,58 L1,58 L2,58 L2,58 L2,58 L2,58 L2,59 L2,59 L2,59 L2,59 L3,59 L3,59 L3,59 L3,59 L3,59 L3,59 L4,60 L4,60 L4,60 L5,60 L5,60 L6,60 L6,60 L7,60 L7,60 L55,60 L55,60 L56,60 L56,60 L56,60 L57,59 L57,59 L57,59 L57,59 L58,59 L58,59 L58,58 L58,58 L59,58 L59,58 L59,58 L59,57 L59,57 L59,57 L59,56 L60,56 L60,56 L60,56 L60,56 L60,55 L60,55 L60,5 L60,5 L60,4 L60,4 L60,4 L60,4 L60,4 L59,3 L59,3 L59,3 L59,3 L59,3 L59,2 L59,2 L58,2 L58,2 L58,2 L58,2 L58,1 L58,1 L57,1 L57,1 L57,1 L57,1 L56,1 L56,0 L56,0 L56,0 L55,0 L5,0 L4,0 L4,0 L4,0 L3,1 L3,1 L3,1 L3,1 L3,1 L2,1 L2,1 L2,1 L2,1 Z"/></svg>