<svg xmlns="http://www.w3.org/2000/svg" viewBox="0 0 200 41" fill="currentColor"><path d="M154,23 L154,24 L154,24 L154,24 L153,25 L153,26 L153,26 L153,26 L152,27 L152,27 L152,28 L152,28 L152,28 L151,29 L151,30 L151,30 L151,30 L150,31 L150,32 L150,32 L150,32 L150,33 L149,34 L149,34 L149,34 L148,35 L148,35 L148,36 L148,36 L148,37 L147,37 L147,38 L146,39 L147,40 L147,40 L150,40 L150,39 L151,38 L151,38 L151,37 L151,37 L152,37 L152,36 L152,36 L160,36 L161,37 L161,37 L161,37 L161,38 L162,38 L162,39 L163,40 L165,40 L166,40 L166,38 L165,38 L165,38 L165,37 L165,36 L164,36 L164,36 L164,35 L164,35 L163,34 L163,33 L163,33 L163,33 L162,32 L162,32 L162,31 L162,31 L162,30 L161,30 L161,30 L161,29 L160,28 L160,27 L160,26 L160,26 L159,25 L159,25 L159,25 L158,24 L158,24 L158,23 L158,23 L158,23 L155,23 Z"/><path d="M156,28 L156,27 L157,29 L158,30 L158,30 L158,30 L158,31 L158,32 L158,32 L159,32 L159,32 L154,32 L154,32 L154,32 L154,31 L154,31 L154,30 L155,30 L155,30 L155,29 L155,28 L156,28 Z"/><path d="M130,23 L129,24 L129,38 L129,38 L129,39 L130,40 L130,40 L132,40 L133,39 L133,39 L133,34 L133,34 L137,34 L137,34 L137,34 L138,35 L138,35 L139,36 L139,36 L139,36 L139,37 L140,37 L140,37 L140,38 L140,38 L141,38 L141,38 L142,40 L142,40 L145,40 L146,40 L146,39 L146,39 L142,34 L142,34 L142,33 L143,33 L143,33 L144,33 L144,32 L144,32 L145,31 L145,31 L145,31 L146,30 L146,30 L146,29 L146,28 L146,27 L146,27 L145,26 L145,26 L145,25 L143,24 L143,24 L142,23 L141,23 L141,23 Z"/><path d="M133,26 L133,26 L140,26 L142,27 L142,28 L142,29 L141,30 L140,30 L133,30 L133,30 Z"/><path d="M183,23 L183,39 L184,40 L199,40 L199,40 L199,39 L199,37 L199,36 L187,36 L187,36 L187,33 L187,33 L196,33 L196,33 L196,32 L196,30 L196,30 L195,29 L194,29 L194,29 L187,29 L187,29 L187,26 L187,26 L188,26 L188,26 L198,26 L199,26 L199,25 L199,24 L198,23 L198,23 L185,23 L185,23 L184,23 Z"/><path d="M168,23 L167,24 L168,24 L167,24 L167,38 L168,38 L167,39 L168,40 L181,40 L182,39 L182,37 L182,36 L181,36 L171,36 L171,36 L171,24 L171,23 L170,23 L170,23 L168,23 Z"/><path d="M126,23 L125,23 L111,23 L111,24 L111,39 L111,40 L111,40 L126,40 L126,40 L127,39 L127,37 L126,36 L115,36 L114,36 L114,33 L115,33 L123,33 L123,32 L124,32 L124,30 L123,29 L115,29 L114,29 L114,26 L115,26 L126,26 L126,26 L126,24 Z"/><path d="M91,23 L90,24 L90,39 L91,40 L93,40 L94,39 L94,31 L94,31 L94,29 L94,29 L94,28 L96,30 L96,30 L98,32 L98,33 L98,33 L98,33 L98,33 L98,34 L99,34 L100,36 L101,37 L101,37 L102,37 L102,38 L103,39 L104,40 L106,40 L107,39 L107,23 L107,23 L104,23 L104,23 L104,24 L104,32 L104,32 L104,34 L103,34 L103,34 L102,33 L102,33 L102,32 L101,32 L101,32 L101,31 L101,31 L100,30 L99,29 L99,29 L99,29 L99,28 L98,28 L98,28 L97,27 L97,27 L97,26 L95,25 L95,25 L95,24 L95,24 L94,24 L94,23 L94,23 L93,23 L91,23 L91,23 Z"/><path d="M72,24 L72,24 L72,24 L72,39 L72,39 L73,40 L87,40 L88,40 L88,39 L88,37 L88,36 L87,36 L76,36 L76,36 L76,33 L76,33 L84,33 L85,32 L85,30 L84,29 L76,29 L76,29 L76,29 L76,26 L76,26 L87,26 L87,26 L87,24 L87,23 L87,23 L87,23 L86,23 L78,23 L78,23 L74,23 L74,23 L73,23 L72,23 Z"/><path d="M60,22 L60,22 L59,22 L59,23 L57,23 L57,23 L56,23 L55,24 L55,24 L55,24 L55,24 L54,25 L54,25 L52,26 L52,26 L52,27 L52,27 L52,28 L52,28 L51,28 L51,33 L51,33 L51,34 L52,34 L52,35 L52,36 L52,36 L52,36 L53,37 L54,38 L54,38 L54,38 L55,38 L55,39 L56,39 L56,39 L57,39 L57,40 L58,40 L59,40 L62,40 L63,40 L63,40 L64,40 L65,39 L66,39 L66,39 L67,39 L67,38 L68,38 L69,38 L69,37 L69,32 L69,31 L68,31 L66,31 L65,31 L65,32 L65,36 L64,36 L63,36 L62,37 L60,37 L59,36 L58,36 L58,36 L57,36 L55,34 L55,33 L55,32 L55,30 L55,30 L55,29 L55,29 L56,28 L56,28 L56,28 L56,28 L57,27 L57,27 L58,26 L59,26 L60,26 L62,26 L62,26 L64,26 L64,27 L65,27 L65,27 L66,27 L66,28 L67,28 L67,27 L67,27 L68,27 L68,26 L68,26 L68,25 L68,24 L67,24 L67,24 L66,24 L66,23 L65,23 L64,23 L63,23 L63,22 Z"/><path d="M155,2 L155,2 L155,18 L155,18 L156,18 L171,18 L171,18 L171,18 L171,16 L170,15 L170,15 L159,15 L159,15 L159,11 L159,11 L168,11 L168,11 L168,11 L168,9 L168,8 L167,8 L167,8 L159,8 L159,8 L159,5 L159,5 L170,5 L170,4 L170,2 L170,2 L170,2 L156,2 Z"/><path d="M136,2 L136,4 L137,5 L143,5 L143,5 L143,18 L144,18 L146,18 L147,18 L147,5 L147,5 L153,5 L153,4 L154,4 L154,2 L153,2 L153,2 L137,2 Z"/><path d="M120,2 L120,2 L120,18 L120,18 L120,18 L135,18 L136,18 L136,17 L136,16 L135,15 L124,15 L124,15 L124,15 L123,15 L123,12 L124,11 L132,11 L132,11 L132,8 L132,8 L124,8 L123,8 L123,5 L124,5 L135,5 L135,4 L135,4 L135,2 L135,2 L134,2 L120,2 Z"/><path d="M113,2 L112,2 L112,2 L112,18 L112,18 L113,18 L116,18 L116,18 L116,18 L116,2 L116,2 L116,2 Z"/><path d="M55,2 L53,3 L52,5 L52,7 L52,9 L54,10 L54,10 L55,10 L56,10 L56,11 L58,11 L58,11 L60,11 L61,12 L61,12 L63,12 L63,12 L64,12 L64,13 L64,13 L64,14 L64,14 L63,15 L63,15 L62,15 L62,15 L62,15 L61,15 L58,15 L58,15 L57,15 L56,15 L56,14 L55,14 L54,14 L54,14 L53,14 L53,13 L52,14 L52,14 L52,15 L51,16 L52,17 L52,17 L53,17 L54,17 L54,18 L55,18 L56,18 L57,18 L58,18 L62,18 L62,18 L64,18 L64,18 L65,18 L65,17 L66,17 L66,17 L68,16 L68,14 L68,12 L68,11 L68,11 L67,10 L66,10 L66,9 L66,9 L65,9 L64,9 L64,8 L62,8 L62,8 L60,8 L59,7 L59,7 L59,7 L57,7 L57,7 L56,7 L56,6 L56,5 L56,5 L61,4 L61,5 L63,5 L63,5 L64,5 L64,5 L64,6 L66,6 L66,5 L66,5 L67,4 L67,3 L66,3 L66,3 L66,2 L65,2 L64,2 L64,2 L62,1 L61,1 L60,1 L60,1 L60,1 L58,1 L58,1 L57,1 L55,2 Z"/><path d="M96,2 L96,3 L96,3 L95,3 L95,3 L94,4 L94,5 L93,5 L93,6 L92,6 L92,8 L92,8 L92,11 L92,12 L92,13 L93,13 L93,14 L93,14 L93,15 L94,15 L94,15 L94,16 L95,16 L95,16 L95,16 L95,17 L96,17 L96,17 L97,17 L97,18 L98,18 L98,18 L99,18 L100,18 L100,18 L101,19 L103,19 L104,18 L106,18 L106,18 L107,18 L107,17 L108,17 L109,16 L109,15 L109,15 L109,14 L108,14 L108,14 L108,13 L107,14 L107,14 L107,14 L106,14 L106,14 L105,15 L104,15 L104,15 L101,15 L100,15 L100,15 L99,15 L98,14 L98,14 L98,14 L98,14 L97,13 L97,13 L96,12 L96,12 L96,12 L96,11 L96,8 L96,8 L96,8 L96,7 L97,7 L97,6 L97,6 L98,5 L98,5 L99,5 L100,5 L102,4 L102,4 L105,5 L105,5 L106,5 L107,6 L108,6 L108,5 L108,5 L109,5 L109,4 L109,4 L109,3 L108,3 L108,3 L108,2 L107,2 L106,2 L106,2 L105,1 L104,1 L103,1 L100,1 L100,1 L98,1 L98,2 L97,2 L97,2 Z"/><path d="M76,2 L75,2 L75,2 L74,3 L74,3 L73,3 L72,5 L71,6 L71,7 L70,8 L70,12 L71,12 L71,13 L72,14 L72,15 L72,15 L72,15 L74,17 L75,17 L75,18 L76,18 L76,18 L78,18 L78,18 L78,19 L82,19 L82,18 L84,18 L84,18 L85,18 L85,17 L85,17 L86,17 L88,15 L88,14 L89,14 L89,13 L89,13 L89,12 L90,12 L90,8 L89,7 L89,7 L89,6 L89,6 L88,5 L88,5 L88,5 L88,4 L87,4 L86,3 L86,3 L85,2 L85,2 L84,2 L84,2 L83,1 L82,1 L82,1 L78,1 L78,1 L77,1 L76,2 Z"/><path d="M77,5 L78,5 L80,4 L81,4 L82,5 L83,5 L83,5 L84,6 L85,7 L86,8 L86,12 L85,12 L85,13 L85,13 L85,13 L83,15 L82,15 L82,15 L82,15 L78,15 L78,15 L77,15 L77,14 L76,14 L75,13 L75,12 L74,12 L74,11 L74,11 L74,9 L74,8 L74,8 L75,7 L75,7 L75,6 L75,6 L77,5 Z"/><path d="M1,1 L1,2 L1,20 L1,20 L1,21 L1,40 L1,40 L1,40 L40,40 L40,40 L40,40 L40,3 L40,3 L40,2 L40,2 L40,1 Z"/><path d="M8,20 L8,20 L33,20 L33,20 L33,21 L33,21 L9,21 L8,21 Z"/></svg>