<svg xmlns="http://www.w3.org/2000/svg" viewBox="0 0 116 60" fill="currentColor"><path d="M4,4 L3,4 L3,4 L3,9 L3,9 L3,12 L3,12 L3,16 L3,16 L3,20 L3,20 L3,23 L3,23 L3,27 L3,27 L3,30 L3,30 L3,34 L3,34 L3,38 L3,38 L3,56 L3,56 L3,56 L3,57 L4,58 L4,58 L5,58 L6,59 L6,59 L6,59 L6,59 L8,59 L8,59 L9,59 L9,59 L15,59 L15,59 L18,59 L18,59 L22,59 L22,59 L107,59 L107,59 L111,59 L111,59 L112,59 L112,58 L112,58 L113,58 L113,57 L113,57 L113,57 L113,56 L113,56 L113,5 L114,5 L114,5 L113,4 L113,4 L113,4 L113,3 L112,2 L111,2 L110,2 L7,2 L6,2 L5,2 L5,2 L5,2 L4,3 L4,3 L4,3 L4,3 Z"/><path d="M18,50 L18,49 L19,49 L20,49 L20,49 L21,49 L21,49 L21,50 L21,50 L21,50 L21,50 L19,50 L18,50 Z"/><path d="M18,49 L18,49 L17,49 L17,50 L17,50 L18,50 L18,50 L17,50 L17,50 L17,50 L17,50 L17,49 L17,49 L17,49 Z"/><path d="M17,48 L17,48 L18,48 L18,48 L18,48 L18,48 L21,48 L21,48 L21,48 L21,48 L20,48 L20,49 L19,49 L19,48 L18,48 L18,49 L18,49 L18,49 L18,49 L17,48 Z"/><path d="M19,44 L20,44 L20,44 L20,44 L20,45 L20,45 L20,45 L20,46 L20,46 L20,46 L21,46 L21,46 L21,45 L21,45 L20,45 L20,44 L21,44 L21,44 L21,44 L21,45 L21,46 L21,47 L20,47 L20,47 L20,47 L20,47 L19,47 L18,46 L18,46 L18,45 L19,44 Z"/><path d="M19,45 L19,45 L19,45 L19,46 L19,46 L19,46 L20,46 L20,45 L19,45 Z"/><path d="M19,43 L19,43 L20,43 L20,43 L19,43 Z"/><path d="M21,43 L21,43 L21,43 L21,43 Z"/><path d="M21,42 L21,42 L21,42 L20,42 L20,41 L21,41 L21,41 L21,42 Z"/><path d="M19,42 L19,41 L19,41 L20,41 L20,42 L20,42 L19,42 L19,42 L19,42 L19,42 Z"/><path d="M13,41 L13,41 L14,41 L14,41 L14,41 Z"/><path d="M20,41 L20,40 L20,40 L20,41 L20,41 L20,41 Z"/><path d="M13,40 L13,40 L14,40 L14,40 L14,40 L13,40 Z"/><path d="M20,39 L20,39 L20,39 L20,39 L20,39 Z"/><path d="M47,36 L49,36 L49,36 L50,36 L50,36 L50,37 L50,38 L50,38 L50,38 L50,38 L50,38 L50,50 L50,50 L50,50 L50,50 L50,50 L50,51 L46,51 L46,51 L46,50 L46,50 L46,50 L46,50 L46,37 L46,37 L46,36 L46,36 Z"/><path d="M96,36 L99,36 L99,36 L100,36 L100,36 L101,36 L101,36 L101,36 L102,36 L102,36 L102,37 L102,37 L102,39 L102,39 L102,40 L102,39 L102,39 L101,39 L101,39 L101,39 L100,39 L99,38 L98,38 L98,38 L96,38 L96,38 L95,39 L95,39 L95,40 L95,40 L95,41 L95,41 L96,41 L96,41 L97,42 L97,42 L98,42 L99,42 L99,42 L100,42 L100,42 L100,42 L101,43 L101,43 L101,43 L102,43 L102,44 L102,44 L103,44 L103,44 L103,45 L103,45 L103,47 L103,47 L103,48 L103,48 L103,48 L102,49 L102,49 L102,49 L101,50 L101,50 L100,50 L100,50 L98,51 L96,51 L96,51 L94,51 L94,51 L93,51 L93,50 L93,50 L92,50 L92,50 L91,50 L91,48 L91,48 L91,48 L91,47 L91,47 L92,47 L92,47 L93,47 L93,48 L93,48 L94,48 L94,48 L95,48 L97,48 L97,48 L97,48 L98,48 L99,48 L99,48 L99,47 L100,47 L100,47 L100,46 L99,46 L99,45 L98,45 L98,45 L98,45 L97,45 L96,45 L95,44 L95,44 L94,44 L93,44 L92,43 L92,43 L92,42 L92,42 L91,42 L91,41 L91,41 L91,40 L91,40 L91,39 L91,39 L92,38 L92,37 L93,37 L94,36 L95,36 L95,36 L96,36 L96,36 L96,36 Z"/><path d="M80,36 L81,36 L81,36 L82,36 L82,36 L83,36 L84,36 L85,36 L85,36 L86,36 L87,37 L87,37 L87,38 L88,38 L88,38 L88,39 L88,39 L88,39 L88,40 L88,40 L88,40 L88,41 L89,42 L89,42 L89,42 L89,44 L89,44 L88,44 L80,44 L80,44 L79,44 L79,44 L79,44 L79,45 L79,45 L79,45 L79,45 L79,45 L79,46 L79,46 L79,47 L80,47 L80,47 L80,48 L81,48 L81,48 L82,48 L82,48 L84,48 L85,48 L85,48 L86,48 L86,48 L86,47 L87,47 L87,47 L88,47 L88,47 L88,47 L88,49 L88,49 L88,50 L87,50 L87,50 L87,50 L86,50 L86,50 L86,50 L85,51 L84,51 L84,51 L81,51 L81,51 L80,51 L79,50 L79,50 L79,50 L78,50 L77,50 L77,49 L77,49 L76,49 L76,48 L76,48 L76,47 L75,47 L75,46 L75,46 L75,45 L75,45 L75,44 L75,43 L75,43 L75,42 L75,42 L75,41 L75,41 L75,41 L76,40 L76,40 L76,39 L76,38 L78,37 L78,37 L78,37 L78,37 L78,36 L79,36 L80,36 Z"/><path d="M79,41 L79,42 L79,42 L85,42 L85,42 L85,42 L85,41 L85,40 L84,39 L84,39 L83,38 L82,38 L82,38 L82,38 L81,38 L80,39 L80,39 L79,40 L79,41 L79,41 L79,41 Z"/><path d="M74,36 L74,38 L74,39 L74,39 L73,39 L73,39 L71,39 L71,39 L70,39 L70,40 L70,40 L69,40 L69,40 L69,41 L69,41 L69,41 L69,49 L69,49 L69,50 L68,51 L66,51 L65,51 L65,50 L65,41 L65,40 L65,40 L65,39 L65,39 L65,39 L65,38 L65,38 L65,36 L65,36 L65,36 L66,36 L67,36 L67,36 L68,36 L68,36 L68,36 L68,36 L68,36 L68,37 L68,37 L68,38 L69,38 L69,38 L70,37 L71,36 L72,36 L72,36 L73,36 L73,36 L74,36 Z"/><path d="M17,35 L17,35 L18,35 L18,35 L18,37 L18,37 L18,37 L19,37 L19,36 L19,36 L20,36 L20,36 L20,37 L20,37 L20,37 L20,37 L20,37 L21,37 L21,38 L21,38 L21,38 L21,38 L20,38 L20,38 L20,38 L20,38 L19,38 L19,38 L19,38 L17,38 L17,38 L17,38 L17,38 L17,36 L17,35 Z"/><path d="M55,32 L57,31 L58,32 L58,32 L58,35 L58,36 L58,36 L58,36 L61,36 L61,36 L62,36 L62,36 L62,38 L62,38 L62,38 L60,38 L60,39 L58,39 L58,39 L58,39 L58,40 L58,40 L58,42 L58,43 L58,43 L58,46 L58,47 L58,47 L58,48 L59,48 L61,48 L61,48 L61,48 L62,48 L62,48 L62,48 L63,48 L63,50 L63,50 L63,50 L62,51 L62,51 L60,51 L60,51 L60,51 L58,51 L58,51 L58,51 L58,51 L57,51 L57,50 L56,50 L55,49 L55,49 L54,47 L54,47 L54,46 L54,46 L54,46 L54,45 L54,45 L54,39 L54,39 L53,39 L53,38 L52,38 L52,38 L52,36 L52,36 L54,36 L54,36 L55,36 L55,36 L55,36 L55,34 L55,34 L55,32 L55,32 L55,32 Z"/><path d="M36,32 L38,31 L38,32 L39,32 L39,32 L39,36 L39,36 L40,36 L43,36 L43,36 L43,36 L43,38 L43,39 L39,39 L39,39 L39,39 L39,46 L39,47 L40,48 L40,48 L40,48 L41,48 L42,48 L42,48 L43,48 L43,48 L44,48 L44,48 L44,48 L44,50 L43,50 L43,51 L42,51 L42,51 L41,51 L41,51 L39,51 L39,51 L38,51 L38,50 L37,50 L37,50 L37,50 L37,50 L36,50 L36,49 L36,48 L36,48 L36,47 L36,47 L36,44 L36,44 L36,44 L36,43 L36,43 L36,43 L36,39 L36,39 L36,39 L35,38 L35,39 L35,38 L33,39 L33,38 L33,38 L33,36 L34,36 L35,36 L35,36 L36,36 L36,34 L36,33 L36,32 L36,32 L36,32 Z"/><path d="M19,30 L19,30 L19,30 L20,30 L21,30 L21,30 L21,31 L21,31 L21,32 L21,32 L21,32 L21,32 L20,32 L20,32 L20,32 L20,32 L19,31 L20,31 L19,30 L19,30 L19,31 L19,31 L19,32 L19,33 L19,34 L20,34 L21,34 L21,34 L21,35 L21,35 L19,35 L18,35 L18,34 L18,34 L18,34 L18,34 L18,33 L18,33 L19,32 L18,32 L18,32 L18,32 L18,30 L18,30 L18,30 Z"/><path d="M20,30 L20,31 L20,31 L20,32 L21,32 L21,31 L21,31 L21,31 Z"/><path d="M24,27 L24,27 L24,27 L25,27 L24,28 L24,28 Z"/><path d="M24,27 L24,27 L24,28 L23,28 L23,27 L23,27 L23,27 Z"/><path d="M18,26 L19,26 L19,26 L21,26 L21,26 L21,26 L21,27 L19,27 L19,27 L19,28 L19,28 L19,28 L21,28 L21,28 L21,29 L21,29 L21,29 L20,29 L19,29 L19,29 L19,29 L19,29 L18,29 L18,28 L18,28 L18,27 Z"/><path d="M20,22 L21,23 L21,23 L21,23 L21,24 L21,24 L21,24 L21,25 L21,25 L20,25 L20,26 L20,26 L19,25 L19,25 L18,25 L18,24 L18,23 L18,23 L19,22 L19,22 L19,22 L19,23 L19,23 L19,23 L19,23 L19,24 L19,24 L19,24 L19,25 L20,25 L20,24 L21,24 L21,24 L20,23 L20,22 L20,22 Z"/><path d="M24,22 L24,22 L24,22 L24,22 L24,22 Z"/><path d="M20,19 L20,19 L20,19 L20,19 L20,20 L20,20 L20,20 L20,20 L20,20 L19,20 L19,20 L19,20 L19,21 L19,21 L19,21 L19,21 L19,21 L20,21 L20,21 L20,21 L20,21 L20,21 L21,21 L21,20 L21,20 L21,20 L21,20 L20,20 L20,19 L21,19 L21,19 L21,20 L21,21 L21,21 L21,22 L20,22 L19,22 L19,22 L19,22 L18,21 L18,21 L18,20 L18,20 L19,19 Z"/><path d="M17,10 L18,10 L19,9 L19,9 L20,9 L21,9 L21,10 L23,10 L24,10 L24,10 L25,10 L25,11 L25,16 L25,16 L25,16 L24,17 L23,17 L19,17 L19,17 L18,17 L18,17 L17,16 L17,15 L17,15 L17,11 L17,11 L17,11 Z"/><path d="M18,16 L18,16 L19,16 L19,16 L19,16 L20,15 L20,15 L20,15 L21,14 L21,15 L21,15 L22,16 L22,17 L23,17 L23,17 L24,16 L23,16 L23,16 L23,15 L22,15 L22,14 L22,14 L21,14 L21,14 L20,14 L20,14 L20,14 L20,14 L20,14 L20,15 L19,15 L19,16 Z"/><path d="M23,12 L23,12 L22,12 L22,12 L21,12 L21,12 L21,12 L22,11 L22,11 L22,11 L21,10 L20,10 L20,11 L20,12 L20,12 L21,12 L20,12 L20,12 L19,13 L18,13 L18,14 L19,14 L20,13 L22,13 L22,13 L22,13 L23,12 L23,12 Z"/></svg>