<svg xmlns="http://www.w3.org/2000/svg" viewBox="0 0 200 45" fill="currentColor"><path d="M128,38 L128,45 L131,45 L131,44 L131,44 L131,44 L131,44 L131,44 L129,44 L129,44 L129,42 L129,42 L131,42 L130,42 L131,41 L131,41 L131,41 L129,41 L129,41 L129,39 L129,39 L131,39 L131,39 L131,39 L131,38 Z"/><path d="M119,39 L119,44 L119,44 L119,45 L120,45 L120,42 L120,42 L120,42 L121,43 L121,43 L121,43 L121,44 L122,44 L122,44 L122,44 L122,44 L122,45 L122,44 L122,45 L123,45 L123,44 L123,44 L123,44 L123,44 L122,44 L122,43 L122,43 L122,42 L121,42 L121,42 L122,42 L122,41 L122,41 L122,41 L123,41 L123,39 L122,39 L122,39 L122,39 L122,38 L119,38 L119,39 Z"/><path d="M120,39 L120,39 L121,39 L121,40 L122,40 L122,40 L121,40 L121,41 L120,41 L120,41 Z"/><path d="M109,38 L109,43 L109,43 L109,43 L109,44 L110,44 L110,45 L113,45 L113,44 L113,44 L113,44 L114,44 L114,38 L113,38 L113,44 L113,44 L110,44 L110,44 L110,43 L110,42 L110,38 Z"/><path d="M100,38 L100,39 L102,39 L102,39 L102,45 L103,45 L103,39 L103,39 L104,39 L104,38 Z"/><path d="M91,38 L91,43 L91,43 L91,44 L92,44 L92,45 L95,45 L95,44 L96,44 L96,38 L95,38 L95,44 L94,44 L92,44 L92,44 L92,43 L92,43 L92,43 L92,38 Z"/><path d="M81,38 L81,39 L80,39 L80,39 L80,39 L80,40 L79,40 L79,43 L80,43 L80,44 L80,44 L80,44 L81,44 L81,45 L84,45 L84,44 L85,44 L85,44 L85,44 L85,43 L86,43 L86,42 L86,42 L86,41 L86,41 L86,39 L85,39 L85,39 L84,39 L84,38 Z"/><path d="M85,39 L86,39 L86,40 L85,40 Z"/><path d="M81,39 L81,39 L84,39 L84,40 L85,40 L85,43 L84,43 L84,44 L81,44 L81,44 L81,44 L81,43 L81,43 L81,43 L81,43 L80,42 L80,40 L81,40 Z"/><path d="M70,38 L70,39 L70,39 L70,39 L70,39 L69,40 L70,40 L69,40 L69,40 L69,42 L70,43 L70,44 L70,44 L70,44 L70,44 L70,45 L74,45 L74,44 L74,44 L74,43 L74,43 L74,43 L74,44 L71,44 L71,43 L70,43 L70,43 L70,42 L70,40 L70,40 L70,40 L71,40 L71,39 L74,39 L74,39 L74,39 L74,38 Z"/><path d="M198,14 L196,14 L196,15 L196,15 L196,15 L195,16 L195,16 L195,16 L195,16 L194,17 L194,17 L194,17 L194,14 L193,14 L193,15 L192,15 L192,16 L191,16 L190,16 L189,16 L190,16 L190,17 L189,17 L189,17 L191,17 L191,17 L191,25 L191,26 L189,26 L189,27 L189,27 L189,27 L189,27 L196,27 L196,26 L196,26 L196,26 L196,26 L196,26 L196,26 L194,26 L194,25 L194,25 L194,19 L194,19 L194,18 L195,18 L195,18 L195,17 L195,17 L196,17 L196,16 L197,16 L197,17 L197,17 L198,17 L198,18 L198,18 L198,18 L198,18 L199,17 L199,17 L199,17 L199,16 L199,16 L199,15 L198,15 Z"/><path d="M170,14 L169,14 L169,15 L168,15 L168,15 L168,16 L167,16 L167,16 L165,16 L165,16 L165,17 L165,17 L167,17 L167,17 L167,25 L167,26 L165,26 L165,26 L165,26 L165,27 L172,27 L172,26 L172,26 L172,26 L170,26 L170,26 L170,15 L170,15 Z"/><path d="M109,17 L109,17 L110,17 L109,17 L110,17 L110,17 L111,17 L112,17 L112,26 L111,26 L109,26 L109,27 L116,27 L116,26 L115,26 L115,26 L115,18 L115,18 L115,18 L116,17 L116,17 L119,17 L119,17 L119,18 L119,26 L119,26 L118,26 L118,27 L124,27 L124,26 L123,26 L123,26 L123,18 L122,18 L122,17 L122,17 L122,16 L121,16 L121,16 L121,16 L121,15 L120,15 L120,15 L120,14 L118,14 L118,15 L118,15 L116,15 L116,15 L116,16 L116,16 L116,16 L116,16 L115,17 L115,16 L115,15 L115,16 L114,15 L114,14 L114,14 L114,15 L112,15 L113,15 L112,16 L112,16 L111,16 L110,16 L110,16 Z"/><path d="M97,16 L97,16 L96,16 L96,17 L96,17 L96,19 L96,19 L96,19 L98,19 L98,19 L98,19 L98,16 L99,16 L100,16 L100,15 L101,15 L101,16 L101,16 L102,16 L103,16 L103,19 L102,19 L102,19 L103,19 L102,19 L101,19 L101,20 L100,20 L100,20 L98,20 L98,21 L97,21 L97,21 L96,22 L96,22 L96,22 L96,26 L96,26 L96,26 L97,26 L97,27 L98,27 L98,27 L100,27 L100,27 L101,27 L101,26 L102,26 L102,26 L102,26 L102,25 L103,25 L103,25 L103,26 L104,26 L103,27 L103,26 L103,27 L104,27 L104,27 L104,27 L104,27 L104,27 L106,27 L106,27 L107,27 L107,26 L107,26 L107,26 L108,26 L108,25 L108,25 L108,25 L108,24 L108,24 L107,25 L107,25 L107,25 L106,25 L106,25 L106,25 L105,24 L105,17 L105,16 L105,16 L104,16 L104,16 L104,16 L104,15 L103,15 L103,14 L99,14 L98,15 L98,15 L98,16 Z"/><path d="M103,20 L103,20 L103,21 L103,24 L102,24 L102,24 L102,25 L99,25 L99,24 L98,24 L98,24 L98,24 L98,23 L98,23 L98,22 L99,22 L99,22 L100,22 L100,21 L101,21 L101,21 L102,21 L102,20 Z"/><path d="M91,14 L90,14 L90,15 L89,15 L89,16 L88,16 L88,16 L88,16 L88,16 L87,16 L87,17 L86,17 L86,17 L86,17 L86,17 L87,17 L87,17 L88,17 L88,17 L88,26 L88,26 L86,26 L86,26 L86,26 L86,27 L86,27 L86,27 L93,27 L93,26 L91,26 L91,26 L91,15 L91,15 Z"/><path d="M59,14 L58,14 L58,15 L58,15 L58,16 L57,16 L56,16 L55,16 L55,17 L54,17 L54,17 L55,17 L55,17 L55,17 L55,17 L56,17 L57,17 L57,25 L56,26 L55,26 L55,27 L62,27 L61,26 L60,26 L59,26 L59,15 L59,15 L59,15 Z"/><path d="M52,14 L50,14 L50,15 L49,15 L49,15 L49,16 L49,16 L48,16 L48,17 L48,17 L48,17 L48,15 L47,15 L47,14 L47,14 L46,15 L46,15 L46,16 L44,16 L44,16 L44,16 L43,16 L43,17 L42,17 L42,17 L42,17 L43,17 L43,17 L44,17 L44,17 L44,18 L44,17 L45,18 L45,25 L44,25 L44,26 L43,26 L43,27 L50,27 L50,26 L48,26 L48,26 L48,18 L48,18 L48,18 L49,18 L49,18 L49,17 L49,17 L50,17 L50,16 L50,16 L50,17 L51,17 L51,17 L51,18 L51,18 L52,18 L52,18 L52,17 L53,17 L53,16 L53,17 L53,17 L53,16 L52,16 L52,15 L52,15 L51,15 L52,14 L52,15 Z"/><path d="M176,15 L176,15 L176,16 L176,16 L175,16 L175,17 L175,17 L175,17 L174,18 L174,18 L174,18 L174,23 L174,23 L174,24 L174,24 L175,24 L175,25 L175,25 L175,25 L176,25 L176,26 L176,26 L176,26 L177,26 L177,27 L183,27 L183,26 L183,26 L184,26 L184,26 L184,26 L185,25 L185,25 L185,25 L185,25 L186,25 L186,24 L186,24 L186,24 L186,24 L186,23 L187,23 L187,18 L186,18 L186,17 L186,18 L186,17 L186,17 L186,17 L186,17 L186,17 L186,17 L186,17 L186,17 L186,16 L185,16 L185,16 L185,16 L184,15 L184,15 L183,14 L183,14 L182,14 L179,14 L178,14 L177,14 L177,15 Z"/><path d="M180,15 L180,15 L181,15 L182,15 L182,16 L182,16 L182,16 L183,16 L183,17 L183,18 L184,18 L184,20 L184,20 L184,21 L184,22 L184,22 L184,24 L183,24 L183,25 L183,25 L182,25 L182,25 L182,26 L180,26 L180,25 L179,25 L178,25 L178,25 L178,24 L178,24 L178,24 L178,24 L178,23 L177,23 L177,22 L177,21 L177,18 L177,18 L177,18 L177,17 L178,17 L178,16 L178,16 L178,16 L178,16 L179,15 L180,15 Z"/><path d="M73,15 L71,15 L71,14 L70,14 L69,14 L69,14 L68,14 L68,14 L68,14 L66,14 L66,15 L66,15 L66,15 L66,16 L66,16 L65,16 L65,16 L65,16 L65,16 L64,17 L64,20 L65,20 L65,20 L65,20 L66,21 L66,21 L66,21 L67,21 L67,22 L69,22 L69,22 L69,22 L70,22 L70,23 L70,23 L70,23 L71,23 L71,25 L70,25 L70,26 L67,26 L67,25 L66,25 L66,25 L66,24 L66,24 L66,24 L65,24 L65,22 L65,22 L65,22 L64,22 L64,26 L65,26 L64,27 L65,27 L65,26 L66,26 L66,27 L71,27 L71,26 L72,26 L72,26 L73,26 L73,25 L73,25 L73,24 L74,24 L74,22 L74,23 L74,23 L73,22 L73,22 L73,21 L73,21 L72,21 L72,20 L71,20 L71,20 L70,20 L70,19 L69,19 L69,19 L69,19 L67,19 L67,18 L66,18 L66,18 L66,17 L67,16 L67,16 L67,16 L67,15 L70,15 L70,16 L71,16 L71,16 L71,17 L71,17 L72,18 L72,19 L73,19 Z"/><path d="M79,10 L79,12 L79,13 L79,13 L78,13 L79,13 L79,13 L78,14 L78,14 L77,14 L77,14 L77,14 L75,14 L75,15 L77,15 L77,16 L77,25 L78,25 L78,26 L78,26 L78,27 L82,27 L82,27 L82,26 L82,26 L83,26 L83,26 L83,26 L83,25 L84,25 L84,25 L84,25 L84,25 L84,24 L83,24 L83,24 L83,24 L83,25 L81,25 L81,24 L80,24 L80,16 L80,15 L83,15 L83,15 L83,15 L83,14 L81,14 L81,14 L81,14 L83,14 L81,14 L80,14 L80,14 L80,10 Z"/><path d="M75,14 L75,15 L75,15 L75,15 L75,15 Z"/><path d="M168,7 L168,7 L167,7 L167,8 L167,8 L167,10 L167,10 L167,10 L169,10 L169,10 L170,10 L170,10 L170,9 L170,8 L170,8 L170,7 L169,7 L169,7 Z"/><path d="M89,7 L89,7 L88,7 L88,8 L88,8 L88,9 L88,10 L88,10 L91,10 L91,10 L91,10 L91,8 L91,8 L91,7 L90,7 L90,7 L90,7 Z"/><path d="M57,7 L58,7 L58,7 L57,7 L57,8 L56,8 L56,10 L56,10 L56,9 L57,10 L57,10 L59,10 L59,10 L59,10 L59,8 L59,8 L59,7 L58,7 L58,7 L58,7 Z"/><path d="M25,3 L25,4 L27,4 L27,4 L27,26 L27,26 L25,26 L25,27 L32,27 L32,26 L31,26 L31,25 L30,25 L30,18 L31,18 L31,17 L32,17 L32,17 L33,17 L32,17 L33,16 L34,16 L35,17 L35,17 L35,17 L35,18 L35,18 L36,18 L36,26 L36,26 L34,26 L34,27 L41,27 L41,26 L39,26 L39,26 L39,18 L38,17 L38,17 L38,17 L38,16 L38,16 L37,16 L37,15 L36,15 L36,14 L33,14 L33,15 L32,15 L32,15 L32,16 L31,16 L31,16 L31,16 L31,17 L30,16 L30,2 L28,2 L29,2 L28,2 L27,2 L27,3 Z"/><path d="M135,1 L135,2 L136,2 L136,2 L139,2 L139,2 L139,25 L139,25 L139,26 L134,26 L134,27 L154,27 L154,26 L155,26 L155,26 L156,26 L156,26 L156,26 L156,25 L158,25 L157,25 L158,25 L158,25 L158,24 L159,24 L159,24 L159,24 L159,23 L160,23 L160,23 L160,23 L160,22 L161,22 L161,22 L161,22 L161,21 L162,21 L162,20 L162,20 L162,19 L163,19 L163,17 L163,17 L163,17 L163,11 L163,12 L163,11 L163,9 L162,9 L162,8 L162,8 L162,8 L162,8 L162,7 L161,7 L161,6 L161,6 L161,6 L160,6 L160,5 L160,5 L160,5 L159,5 L159,4 L159,4 L159,4 L158,4 L158,3 L158,3 L157,3 L156,3 L156,2 L156,2 L155,2 L155,2 L154,2 L153,1 L150,1 L150,1 L136,1 L136,1 Z"/><path d="M139,3 L140,3 L140,24 L139,24 L139,24 L139,3 Z"/><path d="M144,2 L150,2 L150,2 L150,2 L152,2 L152,3 L152,3 L152,3 L153,3 L153,4 L154,4 L154,4 L154,4 L154,4 L155,4 L155,5 L155,5 L155,5 L156,6 L156,6 L156,6 L156,6 L156,7 L157,7 L157,8 L158,8 L158,9 L158,9 L158,11 L158,10 L158,10 L158,17 L158,18 L158,19 L158,19 L158,20 L157,20 L157,21 L156,22 L156,22 L156,22 L156,22 L156,22 L156,22 L156,22 L156,22 L156,23 L155,23 L155,23 L155,23 L155,24 L154,24 L154,24 L154,24 L153,25 L152,25 L152,25 L146,25 L148,25 L149,26 L148,26 L145,26 L144,25 L144,25 L144,2 Z"/><path d="M8,2 L8,2 L7,2 L7,3 L6,3 L6,3 L6,3 L6,4 L5,4 L5,4 L5,4 L5,4 L4,5 L4,5 L4,5 L4,6 L3,6 L3,6 L3,6 L3,7 L2,7 L2,8 L2,8 L2,9 L1,9 L1,9 L1,11 L1,11 L1,17 L1,17 L1,19 L2,19 L2,20 L2,20 L2,21 L3,21 L3,22 L3,22 L3,23 L4,23 L4,23 L4,23 L5,23 L5,24 L5,24 L6,24 L5,25 L6,25 L6,25 L7,25 L7,26 L8,26 L8,26 L9,26 L9,27 L12,27 L12,27 L12,27 L16,27 L16,27 L16,27 L16,27 L16,27 L16,27 L18,27 L18,27 L18,26 L19,26 L19,26 L20,26 L20,25 L21,25 L21,25 L22,25 L22,24 L22,24 L22,24 L23,24 L23,23 L23,23 L23,23 L24,23 L24,22 L23,22 L24,22 L24,22 L22,22 L23,22 L22,22 L22,22 L22,23 L22,23 L21,23 L21,23 L21,23 L21,23 L21,23 L21,23 L20,23 L20,24 L20,24 L20,24 L19,24 L18,24 L18,25 L16,25 L16,25 L16,25 L14,25 L13,25 L14,25 L14,25 L12,25 L12,24 L10,24 L10,24 L10,24 L9,23 L9,23 L9,23 L9,23 L8,22 L8,22 L8,22 L8,22 L8,21 L7,21 L7,20 L7,20 L7,19 L6,19 L6,18 L6,18 L6,18 L6,17 L6,10 L6,10 L6,10 L6,10 L6,9 L7,8 L7,8 L7,8 L7,7 L8,6 L8,6 L8,6 L8,5 L8,5 L8,6 L8,6 L8,6 L9,5 L9,5 L9,5 L9,5 L9,5 L8,5 L9,4 L9,4 L10,4 L10,4 L11,4 L11,3 L12,3 L12,3 L12,2 L17,2 L18,3 L18,3 L18,4 L19,4 L20,4 L20,4 L20,4 L20,5 L20,6 L21,5 L21,6 L21,6 L22,6 L22,7 L22,7 L22,8 L22,8 L22,9 L22,9 L23,9 L23,9 L23,9 L23,1 L23,1 L23,1 L22,1 L22,2 L22,2 L22,2 L22,2 L22,3 L21,3 L21,2 L21,2 L20,2 L20,2 L18,2 L18,1 L17,1 L16,1 L11,1 L11,1 L9,1 L9,1 L9,2 Z"/></svg>