<svg xmlns="http://www.w3.org/2000/svg" viewBox="0 0 177 60" fill="currentColor"><path d="M144,30 L144,37 L144,37 L164,37 L164,37 L165,37 L165,37 L166,37 L166,37 L166,36 L167,36 L167,36 L168,36 L168,36 L168,35 L168,35 L168,35 L169,34 L169,34 L169,34 L169,34 L169,33 L169,33 L170,32 L170,32 L170,28 L170,28 L169,28 L169,28 L169,27 L169,27 L169,26 L169,26 L167,25 L167,25 L167,24 L166,24 L166,24 L165,24 L165,24 L164,24 L164,23 L151,23 L151,24 L150,24 L150,24 L149,24 L149,24 L148,24 L147,25 L147,25 L147,25 L146,25 L146,26 L146,26 L146,26 L146,26 L146,26 L145,27 L145,28 L144,28 L144,28 L144,29 L144,29 Z"/><path d="M148,32 L148,32 L148,31 L149,31 L149,30 L149,30 L149,30 L150,29 L150,29 L150,29 L150,29 L151,28 L151,28 L164,28 L164,28 L164,29 L164,29 L165,29 L165,29 L165,30 L165,31 L165,31 L165,32 L164,32 L164,32 L163,32 L149,32 Z"/><path d="M88,24 L88,24 L86,24 L86,24 L85,24 L85,24 L85,25 L84,25 L84,25 L84,25 L83,26 L83,26 L83,26 L82,26 L82,26 L81,27 L81,27 L81,28 L80,28 L80,28 L79,29 L79,30 L78,30 L78,30 L78,30 L78,31 L78,31 L78,32 L77,32 L77,32 L77,33 L77,34 L76,34 L76,35 L76,35 L76,37 L76,38 L76,41 L76,41 L76,42 L77,42 L77,43 L77,44 L77,44 L77,44 L78,45 L78,45 L78,46 L78,46 L78,46 L78,46 L79,47 L79,47 L79,47 L79,48 L81,50 L82,50 L82,50 L82,50 L83,51 L83,51 L83,51 L84,51 L84,51 L85,52 L85,52 L86,52 L86,52 L86,52 L87,53 L88,53 L89,53 L89,53 L92,53 L94,53 L95,53 L95,52 L96,52 L96,52 L97,52 L97,52 L98,51 L98,51 L98,51 L99,51 L99,50 L100,50 L100,50 L101,49 L102,48 L102,48 L103,47 L103,47 L103,46 L103,46 L104,45 L104,44 L105,44 L105,44 L105,43 L105,43 L105,42 L105,41 L106,40 L106,40 L106,40 L106,36 L106,36 L106,36 L105,36 L105,34 L105,34 L105,33 L105,33 L105,32 L104,32 L104,31 L104,31 L104,31 L103,30 L103,30 L103,30 L103,30 L102,29 L102,28 L101,27 L100,27 L100,26 L99,26 L99,26 L99,26 L98,25 L98,25 L98,25 L97,25 L97,25 L97,25 L96,24 L96,24 L95,24 L94,24 L93,24 L92,24 L92,23 Z"/><path d="M89,28 L92,28 L93,28 L94,29 L94,29 L95,29 L95,29 L96,29 L96,30 L96,30 L97,30 L97,30 L99,32 L99,32 L99,32 L99,33 L99,33 L100,34 L100,34 L100,34 L100,34 L100,35 L101,36 L101,37 L101,37 L101,38 L101,38 L101,39 L101,40 L101,41 L100,41 L100,42 L100,42 L100,43 L99,44 L99,44 L99,44 L99,44 L97,46 L97,46 L96,46 L96,46 L96,47 L96,47 L96,47 L95,47 L94,47 L94,48 L93,48 L92,48 L92,48 L90,48 L90,48 L88,48 L88,48 L87,47 L87,47 L86,47 L86,47 L86,47 L86,46 L85,46 L85,46 L85,46 L84,45 L83,44 L83,44 L83,44 L82,44 L82,43 L82,43 L82,42 L82,42 L82,42 L81,41 L81,41 L81,40 L81,39 L81,37 L81,36 L81,35 L82,35 L82,34 L82,34 L82,34 L82,33 L82,33 L83,32 L83,32 L84,31 L84,31 L84,30 L86,30 L86,29 L86,29 L87,29 L88,29 L88,29 L89,28 Z"/><path d="M41,24 L40,24 L40,24 L39,24 L39,24 L38,24 L38,25 L37,25 L37,25 L36,25 L36,25 L36,25 L35,26 L35,26 L35,26 L33,27 L33,27 L32,28 L32,29 L32,29 L32,29 L32,29 L31,30 L31,30 L31,30 L31,30 L30,31 L30,31 L30,32 L30,32 L30,32 L30,33 L29,34 L29,34 L29,35 L29,36 L28,37 L28,40 L29,40 L29,41 L29,41 L29,42 L29,42 L29,43 L29,43 L30,43 L30,44 L30,44 L30,45 L30,45 L30,45 L31,46 L31,46 L31,46 L31,47 L32,47 L32,47 L32,47 L32,48 L32,48 L32,48 L32,48 L33,48 L33,49 L34,49 L34,50 L34,50 L34,50 L34,50 L35,50 L35,50 L36,51 L36,51 L36,51 L37,52 L37,52 L38,52 L38,52 L39,52 L39,53 L41,53 L42,53 L45,53 L46,53 L47,53 L48,52 L48,52 L49,52 L49,52 L50,52 L50,51 L50,51 L51,51 L51,51 L51,51 L52,50 L52,50 L52,50 L52,50 L53,49 L53,49 L54,48 L54,48 L56,47 L56,46 L56,46 L56,46 L57,45 L57,44 L57,44 L57,43 L58,43 L58,42 L58,42 L58,41 L58,40 L58,39 L58,39 L58,39 L58,38 L58,37 L58,37 L58,35 L58,34 L58,34 L57,33 L57,32 L57,32 L57,32 L56,31 L56,31 L56,30 L56,30 L55,29 L55,29 L55,29 L55,29 L54,28 L54,27 L53,27 L53,27 L52,26 L52,26 L51,26 L51,25 L51,25 L50,25 L50,25 L50,25 L49,25 L49,24 L48,24 L48,24 L46,24 L46,24 L44,24 L44,23 Z"/><path d="M42,28 L45,28 L45,28 L46,29 L46,29 L47,29 L48,29 L48,29 L49,30 L49,30 L49,30 L50,31 L51,32 L51,32 L51,32 L51,32 L52,33 L52,33 L52,33 L52,34 L52,34 L52,35 L53,35 L53,36 L53,36 L53,40 L53,40 L53,41 L52,42 L52,42 L52,43 L52,43 L52,43 L52,44 L51,44 L51,44 L51,44 L51,45 L50,46 L50,46 L50,46 L49,46 L49,46 L49,46 L48,47 L48,47 L48,47 L47,47 L47,47 L46,48 L46,48 L45,48 L44,48 L43,48 L43,48 L42,48 L41,48 L41,48 L40,48 L39,47 L39,47 L39,47 L38,47 L38,46 L38,46 L38,46 L37,46 L37,46 L36,45 L36,45 L36,45 L36,44 L36,44 L35,44 L35,44 L35,43 L34,42 L34,42 L34,42 L34,41 L34,40 L34,40 L34,39 L34,36 L34,36 L34,35 L35,34 L35,33 L35,33 L35,32 L36,32 L36,31 L37,31 L37,30 L38,30 L38,30 L38,30 L39,29 L39,29 L40,29 L40,29 L41,29 L42,28 Z"/><path d="M7,30 L7,31 L7,31 L7,59 L7,59 L11,59 L12,59 L12,31 L12,30 L12,30 L12,30 L13,29 L13,29 L14,29 L14,28 L14,28 L24,28 L25,28 L24,29 L24,30 L24,30 L24,30 L24,31 L24,31 L23,32 L23,32 L23,33 L23,35 L22,35 L22,41 L23,42 L23,43 L23,44 L23,44 L24,45 L24,46 L24,46 L24,47 L24,47 L24,48 L25,48 L25,48 L25,48 L25,49 L25,49 L25,49 L26,50 L26,50 L26,51 L26,51 L26,51 L27,51 L27,51 L27,52 L27,52 L29,54 L30,55 L31,55 L31,55 L31,55 L31,56 L32,56 L32,56 L32,56 L32,56 L33,56 L33,57 L34,57 L34,57 L34,57 L35,58 L35,58 L36,58 L36,58 L36,58 L37,58 L38,59 L39,59 L39,59 L40,59 L41,59 L42,59 L45,59 L45,59 L47,59 L48,59 L48,59 L49,59 L49,58 L50,58 L51,58 L51,58 L52,58 L52,58 L52,57 L53,57 L54,56 L54,56 L55,56 L55,56 L55,56 L56,56 L56,55 L57,55 L57,54 L58,54 L58,54 L58,54 L60,52 L60,52 L60,51 L60,51 L61,51 L61,50 L61,50 L61,49 L62,49 L62,49 L62,48 L62,48 L62,47 L63,47 L63,46 L63,46 L63,45 L64,45 L64,44 L64,44 L64,43 L64,42 L64,42 L64,40 L65,39 L65,37 L64,36 L64,34 L64,34 L64,33 L64,32 L64,32 L64,31 L63,31 L63,30 L63,30 L63,30 L62,29 L62,29 L62,28 L62,28 L72,28 L72,28 L72,28 L72,29 L72,29 L72,30 L71,30 L71,30 L71,31 L71,32 L70,32 L70,33 L70,33 L70,35 L70,36 L70,36 L70,40 L70,40 L70,41 L70,41 L70,43 L70,43 L70,44 L71,45 L71,45 L71,46 L71,46 L72,47 L72,47 L72,47 L72,48 L72,48 L72,49 L73,49 L73,49 L73,50 L73,50 L73,50 L74,51 L74,51 L74,51 L75,52 L75,52 L76,53 L76,54 L76,54 L77,54 L78,55 L78,55 L78,55 L78,55 L78,55 L79,56 L79,56 L79,56 L80,56 L80,56 L81,57 L81,57 L81,57 L82,57 L82,58 L82,58 L83,58 L84,58 L84,58 L85,58 L85,59 L86,59 L87,59 L87,59 L89,59 L90,59 L92,59 L93,59 L95,59 L95,59 L96,59 L97,58 L98,58 L98,58 L99,58 L99,58 L100,58 L100,57 L101,57 L101,57 L101,57 L101,56 L102,56 L102,56 L103,56 L103,56 L103,56 L103,55 L103,55 L104,55 L104,54 L104,54 L105,54 L105,54 L105,54 L105,54 L107,52 L107,52 L107,52 L107,52 L108,51 L108,50 L109,50 L109,49 L109,49 L109,49 L110,48 L110,48 L110,48 L110,47 L110,47 L110,46 L111,46 L111,46 L111,45 L111,44 L111,44 L111,43 L112,42 L112,41 L112,40 L112,40 L112,40 L112,36 L112,36 L112,34 L111,34 L111,32 L111,32 L111,31 L111,31 L111,30 L110,30 L110,30 L110,29 L110,29 L110,28 L110,28 L110,28 L118,28 L118,29 L118,46 L118,46 L118,47 L118,47 L118,48 L118,49 L119,49 L119,49 L119,50 L119,50 L119,51 L120,51 L120,52 L120,52 L120,52 L120,52 L120,53 L121,53 L121,53 L121,54 L121,54 L122,54 L122,55 L124,56 L124,56 L124,56 L124,56 L124,57 L125,57 L125,57 L125,57 L126,58 L126,58 L126,58 L127,58 L127,58 L128,58 L128,59 L129,59 L130,59 L131,59 L132,59 L174,59 L175,59 L175,55 L175,54 L131,54 L130,54 L130,54 L129,54 L129,54 L128,53 L128,53 L128,53 L128,53 L127,52 L127,52 L126,52 L126,52 L126,51 L126,51 L125,51 L125,51 L125,50 L125,50 L124,50 L124,49 L124,49 L124,49 L124,48 L124,48 L123,47 L123,47 L123,46 L123,24 L122,23 L99,23 L99,24 L99,24 L99,24 L99,24 L100,24 L100,25 L100,25 L101,25 L101,25 L101,26 L102,26 L103,28 L103,28 L104,28 L104,28 L104,28 L104,28 L104,29 L104,29 L105,30 L105,30 L105,30 L105,30 L106,31 L106,31 L106,32 L106,32 L106,32 L106,33 L107,34 L107,35 L107,35 L107,36 L107,36 L107,41 L107,42 L107,43 L106,43 L106,44 L106,44 L106,45 L106,45 L106,45 L105,46 L105,46 L105,46 L105,47 L104,47 L104,47 L104,48 L104,48 L103,49 L103,49 L103,49 L103,49 L102,50 L102,50 L102,50 L101,51 L101,51 L101,51 L100,51 L100,51 L100,52 L99,52 L99,52 L98,52 L98,53 L98,53 L97,53 L97,53 L96,54 L96,54 L95,54 L94,54 L93,54 L88,54 L88,54 L86,54 L86,54 L86,54 L85,53 L84,53 L84,53 L84,53 L84,53 L82,52 L82,52 L81,51 L81,51 L80,51 L80,50 L79,49 L79,49 L78,48 L78,48 L78,48 L77,47 L77,47 L77,47 L77,47 L77,46 L77,46 L76,46 L76,45 L76,45 L76,44 L76,44 L76,43 L75,43 L75,42 L75,41 L75,40 L74,39 L74,37 L75,36 L75,35 L75,34 L75,33 L76,33 L76,32 L76,32 L76,32 L76,31 L76,31 L77,30 L77,30 L77,29 L77,29 L78,29 L78,28 L78,28 L79,27 L81,26 L81,25 L82,25 L83,24 L83,24 L83,24 L83,23 L51,23 L51,24 L51,24 L51,24 L52,24 L52,24 L52,24 L53,25 L53,25 L55,27 L55,27 L55,27 L56,28 L57,29 L57,29 L57,29 L57,30 L58,30 L58,30 L58,31 L58,31 L58,32 L58,32 L59,33 L59,33 L59,34 L59,34 L59,35 L60,36 L60,41 L59,41 L59,42 L59,42 L59,43 L59,43 L58,44 L58,44 L58,45 L58,45 L58,46 L58,46 L58,46 L58,47 L57,47 L57,47 L56,48 L56,49 L55,49 L55,50 L55,50 L55,50 L54,51 L53,52 L52,52 L52,52 L52,52 L51,53 L50,53 L50,53 L49,53 L49,54 L48,54 L48,54 L47,54 L46,54 L41,54 L40,54 L39,54 L39,54 L38,54 L38,53 L37,53 L36,53 L36,53 L36,52 L36,52 L35,52 L35,52 L34,52 L34,52 L33,51 L33,51 L33,51 L31,49 L31,48 L30,48 L30,47 L29,47 L29,46 L29,46 L29,45 L29,45 L28,45 L28,44 L28,44 L28,43 L28,42 L28,42 L28,41 L27,40 L27,36 L27,36 L28,34 L28,34 L28,33 L28,33 L28,32 L28,32 L29,31 L29,31 L29,30 L29,30 L29,30 L30,29 L30,29 L30,28 L30,28 L31,27 L31,27 L32,27 L32,26 L32,26 L33,26 L33,26 L33,26 L34,25 L34,25 L35,24 L35,24 L35,24 L36,24 L36,24 L36,24 L35,23 L15,23 L15,24 L13,24 L13,24 L12,24 L12,24 L11,24 L11,25 L11,25 L10,25 L10,25 L9,26 L9,27 L8,27 L8,28 L7,28 L7,29 L7,29 L7,30 Z"/><path d="M125,1 L124,1 L124,45 L124,45 L124,46 L124,46 L125,46 L125,47 L125,47 L125,48 L125,48 L126,49 L126,49 L126,50 L127,51 L128,51 L128,51 L128,51 L129,52 L129,52 L129,52 L130,52 L130,53 L131,53 L132,53 L146,53 L146,53 L146,52 L146,52 L146,52 L146,52 L145,52 L145,51 L145,51 L145,51 L145,51 L144,51 L144,50 L144,50 L144,50 L144,49 L143,49 L143,49 L143,48 L143,48 L142,47 L142,46 L142,45 L142,31 L142,31 L142,29 L143,29 L143,28 L143,28 L143,27 L144,27 L144,26 L144,26 L144,26 L144,26 L144,26 L146,24 L146,24 L146,24 L146,24 L147,23 L147,23 L148,23 L148,22 L149,22 L150,22 L151,22 L151,22 L164,22 L164,22 L165,22 L166,22 L166,22 L167,23 L167,23 L167,23 L168,23 L168,24 L168,24 L169,25 L169,25 L170,26 L170,26 L170,27 L171,27 L171,28 L171,29 L171,30 L171,30 L171,31 L171,31 L171,33 L171,33 L171,33 L171,34 L170,34 L170,34 L170,35 L170,36 L169,36 L169,36 L168,37 L168,37 L168,37 L168,38 L167,38 L167,38 L166,38 L166,38 L166,38 L165,39 L164,39 L163,39 L144,39 L144,39 L144,46 L144,47 L144,47 L144,48 L144,48 L144,48 L145,49 L145,49 L145,49 L145,50 L146,51 L147,51 L147,51 L147,51 L148,52 L148,52 L148,52 L149,52 L149,53 L150,53 L151,53 L175,53 L175,53 L175,48 L174,48 L152,48 L152,48 L151,48 L150,48 L150,48 L149,47 L149,46 L149,46 L149,46 L148,45 L148,44 L149,44 L164,44 L165,44 L166,43 L167,43 L167,43 L168,43 L168,43 L168,43 L169,42 L169,42 L170,42 L170,42 L170,42 L171,41 L171,41 L173,40 L174,37 L174,37 L175,37 L175,36 L175,36 L175,36 L175,35 L176,35 L176,34 L176,34 L176,32 L176,32 L176,31 L176,29 L176,29 L176,29 L176,27 L176,27 L176,26 L176,26 L175,25 L175,25 L175,24 L175,24 L174,24 L174,23 L174,23 L174,23 L174,23 L174,22 L173,21 L172,20 L171,20 L171,20 L171,19 L170,19 L170,19 L170,19 L169,19 L169,18 L169,18 L168,18 L168,18 L167,18 L166,17 L166,17 L165,17 L164,17 L164,17 L151,17 L151,17 L150,17 L149,17 L148,17 L148,18 L147,18 L147,18 L146,18 L146,18 L145,18 L145,19 L144,19 L144,19 L144,19 L143,20 L143,20 L143,20 L142,20 L141,22 L141,22 L140,23 L140,23 L140,24 L140,24 L139,24 L139,25 L139,25 L139,25 L138,26 L138,26 L138,27 L138,27 L138,28 L138,29 L137,29 L137,29 L137,47 L138,48 L137,48 L132,48 L132,48 L132,48 L132,48 L131,48 L130,47 L130,46 L130,46 L129,46 L129,45 L129,45 L129,1 L129,1 Z"/><path d="M123,1 L123,1 L118,1 L118,1 L118,17 L118,17 L15,17 L15,17 L13,17 L12,17 L12,17 L11,18 L10,18 L10,18 L9,18 L9,18 L9,18 L8,19 L8,19 L8,19 L7,19 L6,20 L6,20 L6,20 L6,20 L6,21 L5,21 L4,22 L4,22 L3,23 L3,23 L3,24 L3,24 L2,24 L2,24 L2,25 L2,25 L2,26 L2,26 L1,26 L1,27 L1,27 L1,28 L0,29 L0,59 L1,59 L5,59 L5,59 L5,30 L6,30 L6,29 L6,28 L6,28 L6,27 L6,27 L7,27 L7,26 L7,26 L7,26 L8,25 L8,25 L8,24 L9,24 L9,24 L9,24 L10,23 L11,23 L11,23 L11,23 L12,22 L12,22 L13,22 L14,22 L15,22 L122,22 L123,22 Z"/></svg>