<svg xmlns="http://www.w3.org/2000/svg" viewBox="0 0 82 60" fill="currentColor"><path d="M82,43 L81,43 L81,43 L80,43 L80,44 L80,44 L80,44 L80,44 L80,45 L80,45 L80,46 L80,46 L80,46 L80,47 L80,47 L80,48 L80,48 L80,48 L80,48 L80,48 L79,49 L79,49 L79,49 L79,49 L79,47 L79,47 L79,47 L79,47 L79,46 L79,46 L78,45 L78,45 L78,45 L78,44 L78,44 L78,44 L78,44 L77,43 L77,43 L77,43 L76,43 L76,43 L76,43 L76,44 L75,44 L75,44 L75,44 L75,44 L75,44 L75,45 L75,45 L75,45 L75,45 L74,46 L74,46 L74,46 L74,47 L75,47 L75,47 L75,47 L75,46 L75,46 L75,46 L75,46 L75,45 L75,45 L76,45 L76,45 L76,45 L76,45 L76,45 L77,46 L77,46 L77,46 L77,47 L77,47 L77,48 L77,48 L77,50 L77,50 L77,51 L77,52 L77,52 L76,52 L76,53 L76,53 L75,54 L75,54 L75,54 L74,54 L74,54 L74,54 L74,54 L74,54 L73,53 L73,53 L73,53 L72,53 L72,54 L72,54 L72,54 L72,55 L72,55 L72,55 L73,55 L74,55 L74,55 L74,55 L74,55 L75,54 L75,54 L75,54 L76,54 L76,54 L77,53 L78,53 L78,52 L78,52 L78,52 L79,52 L79,51 L79,51 L79,51 L79,51 L79,50 L79,50 L79,50 L80,50 L80,50 L80,50 L80,49 L80,49 L80,49 L80,49 L80,49 L80,48 L80,48 L81,48 L81,47 L81,47 L81,46 L81,46 L82,46 L82,45 L82,45 L82,44 L82,44 Z"/><path d="M52,43 L51,43 L51,43 L51,43 L50,43 L49,43 L49,44 L49,44 L48,44 L48,45 L47,45 L47,46 L47,46 L47,46 L47,46 L47,46 L47,46 L47,46 L46,47 L46,47 L46,47 L46,48 L46,48 L46,49 L46,50 L46,50 L47,51 L47,51 L47,51 L47,51 L48,51 L48,51 L48,51 L49,51 L49,51 L50,50 L50,50 L50,50 L50,50 L51,50 L51,49 L51,49 L51,49 L51,49 L51,48 L51,48 L50,49 L50,49 L50,49 L49,50 L49,50 L48,50 L48,49 L48,49 L48,49 L48,48 L48,48 L48,47 L48,47 L49,47 L50,47 L50,47 L50,47 L51,46 L51,46 L51,46 L51,46 L51,46 L52,46 L52,45 L52,45 L52,45 L52,45 L52,44 Z"/><path d="M51,44 L51,44 L51,44 L51,45 L51,45 L51,45 L50,45 L50,46 L50,46 L50,46 L49,46 L49,46 L49,46 L49,46 L48,46 L48,46 L48,46 L48,46 L49,46 L49,46 L50,44 L50,44 L50,44 L50,44 L51,44 L51,44 Z"/><path d="M52,50 L52,51 L52,51 L53,51 L53,51 L53,51 L54,51 L54,51 L54,50 L54,50 L54,50 L54,50 L56,49 L56,49 L56,49 L56,50 L56,50 L56,50 L55,50 L56,51 L56,51 L56,51 L57,51 L57,51 L57,51 L57,51 L58,50 L58,50 L58,50 L60,48 L60,48 L60,48 L60,48 L60,48 L60,47 L61,47 L61,47 L61,47 L62,46 L62,46 L61,47 L61,47 L61,48 L61,48 L61,48 L61,48 L61,48 L61,49 L60,49 L60,49 L60,49 L60,50 L60,50 L60,50 L60,50 L60,51 L60,51 L61,51 L61,51 L62,51 L62,51 L62,51 L62,50 L62,50 L63,50 L64,49 L64,49 L64,49 L64,49 L64,48 L64,49 L64,49 L64,49 L64,50 L64,50 L64,50 L64,50 L64,51 L64,51 L65,51 L65,51 L66,51 L66,51 L66,51 L66,50 L66,50 L67,50 L68,49 L68,49 L68,48 L68,48 L68,48 L67,49 L66,49 L66,49 L66,49 L66,49 L67,48 L67,48 L67,48 L67,48 L67,47 L67,47 L67,46 L68,46 L68,46 L68,46 L68,45 L68,45 L68,45 L68,45 L68,44 L68,44 L68,44 L68,44 L68,43 L67,43 L67,44 L67,44 L66,44 L66,45 L66,46 L66,46 L66,46 L66,46 L65,46 L65,46 L65,47 L65,47 L65,47 L64,48 L64,48 L64,48 L64,48 L63,49 L63,49 L63,49 L63,49 L62,49 L62,49 L62,49 L63,49 L63,48 L63,48 L63,48 L63,48 L63,48 L63,48 L63,47 L63,47 L63,46 L64,46 L64,46 L64,46 L64,46 L64,46 L64,45 L64,44 L64,44 L64,44 L64,43 L63,43 L63,44 L62,44 L62,44 L62,45 L61,45 L61,45 L61,46 L61,46 L61,46 L60,46 L60,46 L60,47 L60,47 L60,47 L59,48 L59,48 L59,48 L59,48 L59,48 L59,48 L58,48 L58,49 L58,49 L58,48 L58,48 L58,48 L59,47 L59,47 L59,47 L59,47 L59,46 L59,46 L59,46 L59,45 L59,45 L59,45 L60,45 L60,44 L60,44 L60,44 L60,43 L60,43 L60,43 L59,43 L58,43 L58,43 L58,43 L58,43 L57,43 L57,43 L57,43 L56,44 L56,44 L56,44 L56,44 L56,44 L56,44 L55,44 L55,45 L53,46 L53,47 L53,47 L53,47 L53,47 L53,47 L53,48 L52,48 L52,48 L52,48 L52,49 L52,49 Z"/><path d="M58,44 L58,44 L58,45 L58,45 L57,45 L57,45 L57,46 L57,46 L57,47 L56,47 L56,48 L56,48 L56,48 L55,49 L55,49 L55,49 L54,49 L54,49 L54,49 L54,48 L54,48 L54,48 L54,47 L54,47 L55,46 L56,45 L56,44 L56,44 L57,44 L57,44 L57,44 Z"/><path d="M73,42 L72,42 L72,42 L72,42 L72,42 L71,43 L71,43 L71,43 L70,43 L70,44 L70,44 L70,44 L71,44 L71,44 L71,45 L71,45 L70,45 L70,46 L70,46 L70,46 L70,46 L70,47 L70,47 L70,47 L70,48 L70,48 L70,48 L69,48 L69,49 L69,49 L69,49 L69,50 L69,50 L69,50 L69,51 L69,51 L69,51 L69,51 L70,51 L70,51 L70,51 L70,51 L71,51 L71,50 L71,50 L71,50 L71,50 L72,50 L72,50 L72,50 L72,50 L73,48 L73,48 L74,48 L74,48 L74,47 L73,48 L72,49 L72,49 L71,49 L71,49 L71,49 L71,49 L71,48 L71,48 L72,48 L72,48 L72,47 L72,47 L72,47 L72,46 L72,46 L72,46 L72,46 L72,45 L72,45 L73,44 L73,44 L74,44 L75,44 L75,44 L75,44 L75,44 L75,44 L75,43 L74,43 L74,43 L73,43 L73,43 L73,43 L73,43 L73,42 L74,42 L74,42 L74,42 Z"/><path d="M46,41 L45,41 L45,41 L44,40 L44,40 L44,40 L44,40 L43,40 L43,40 L40,40 L40,40 L39,40 L39,40 L39,41 L39,41 L40,41 L40,41 L40,41 L40,41 L40,42 L40,42 L40,42 L40,42 L40,43 L39,43 L39,43 L39,44 L39,44 L39,44 L39,44 L39,45 L39,45 L39,45 L38,45 L38,46 L38,46 L38,46 L38,47 L38,47 L37,48 L37,48 L37,48 L37,48 L37,48 L37,49 L37,49 L37,49 L37,49 L36,50 L36,50 L35,50 L35,51 L35,51 L35,51 L40,51 L40,51 L41,51 L41,51 L42,51 L42,50 L43,50 L43,50 L43,50 L43,50 L44,50 L44,50 L44,49 L44,49 L45,48 L45,47 L45,47 L44,46 L44,46 L44,46 L44,46 L43,45 L44,45 L44,45 L44,45 L44,45 L45,44 L46,44 L46,44 L46,44 L46,43 L46,42 L46,42 L46,42 Z"/><path d="M43,46 L43,47 L43,47 L43,48 L42,49 L42,49 L42,50 L42,50 L41,50 L41,50 L41,50 L39,50 L39,50 L39,50 L39,50 L39,49 L39,49 L39,49 L39,49 L39,48 L39,48 L39,48 L40,48 L40,47 L40,47 L40,47 L40,47 L40,46 L40,46 L40,46 L42,46 L42,46 L42,46 L42,46 L42,46 Z"/><path d="M43,41 L44,42 L44,42 L44,42 L44,42 L44,43 L43,44 L43,44 L43,45 L42,45 L42,45 L42,45 L42,45 L42,45 L41,45 L41,45 L41,45 L41,44 L41,44 L41,44 L41,44 L41,44 L41,43 L41,43 L42,42 L42,42 L42,41 L42,41 L42,41 L43,41 Z"/><path d="M31,40 L31,40 L31,41 L30,41 L30,42 L30,42 L30,42 L30,42 L30,43 L30,43 L30,43 L30,43 L30,44 L29,44 L29,44 L29,44 L29,45 L29,45 L29,45 L29,45 L29,46 L28,46 L28,46 L28,46 L28,47 L28,47 L28,47 L28,48 L28,48 L28,48 L28,48 L27,48 L27,49 L27,49 L27,49 L27,50 L27,50 L27,50 L27,50 L26,51 L26,51 L26,51 L26,52 L26,52 L26,52 L26,53 L26,53 L25,53 L25,53 L25,54 L25,54 L25,54 L25,55 L25,55 L25,55 L24,55 L24,56 L24,56 L24,56 L24,56 L24,57 L23,57 L23,58 L23,58 L23,58 L23,58 L23,59 L23,59 L23,60 L23,60 L23,60 L23,60 L24,59 L24,59 L24,59 L24,59 L24,58 L24,58 L24,58 L24,58 L24,57 L24,57 L24,57 L25,56 L25,56 L25,56 L25,56 L25,56 L25,55 L25,55 L26,55 L26,54 L26,54 L26,54 L26,54 L26,53 L26,53 L27,52 L27,52 L27,52 L27,52 L27,51 L27,51 L27,51 L27,50 L28,50 L28,50 L28,50 L28,49 L28,49 L28,49 L28,49 L28,48 L28,48 L28,48 L29,48 L29,48 L29,47 L29,47 L29,46 L29,46 L30,46 L30,45 L30,45 L30,45 L30,45 L30,44 L30,44 L30,44 L31,43 L31,43 L31,42 L31,42 L31,42 L31,42 L31,42 L31,41 L32,41 L32,40 L32,40 Z"/><path d="M46,18 L46,18 L46,18 L47,19 L48,19 L48,19 L48,20 L48,20 L48,30 L48,30 L48,31 L48,31 L47,31 L47,31 L46,31 L46,32 L47,32 L52,32 L52,32 L52,31 L52,31 L51,31 L51,31 L50,30 L50,30 L50,30 L50,26 L50,25 L51,25 L57,25 L57,26 L57,30 L57,30 L57,30 L57,31 L57,31 L57,31 L56,31 L56,31 L56,32 L56,32 L61,32 L62,32 L62,32 L62,32 L62,31 L61,31 L60,31 L60,31 L60,31 L60,31 L60,30 L60,30 L60,20 L60,19 L60,19 L60,19 L61,19 L61,19 L62,18 L62,18 L62,18 L62,18 L61,18 L56,18 L56,18 L56,18 L56,18 L56,18 L56,19 L57,19 L57,19 L57,19 L57,19 L57,20 L57,20 L57,24 L57,24 L57,24 L57,24 L57,24 L51,24 L50,24 L50,20 L50,20 L50,19 L51,19 L51,19 L51,19 L52,19 L52,19 L52,18 L52,18 L52,18 L47,18 Z"/><path d="M27,18 L27,18 L27,18 L27,19 L28,19 L28,19 L29,19 L29,19 L29,21 L29,21 L29,30 L29,30 L29,30 L29,31 L28,31 L28,31 L28,31 L28,31 L27,31 L27,31 L27,32 L27,32 L27,32 L31,32 L32,32 L32,32 L32,31 L31,31 L30,31 L30,31 L30,31 L30,31 L30,31 L30,30 L30,21 L30,21 L30,21 L30,22 L30,22 L30,22 L30,22 L30,22 L30,22 L31,23 L31,23 L31,24 L31,24 L31,24 L31,24 L32,24 L32,25 L32,25 L32,25 L32,25 L32,26 L32,26 L32,26 L32,27 L33,27 L33,27 L33,28 L33,28 L33,28 L33,28 L33,28 L33,29 L34,29 L34,29 L34,30 L34,30 L34,30 L34,30 L34,31 L34,31 L34,31 L35,31 L35,32 L35,32 L36,32 L36,32 L36,32 L36,31 L36,30 L36,30 L36,30 L36,30 L37,30 L37,29 L37,29 L37,29 L37,28 L37,28 L37,28 L38,27 L38,27 L38,27 L38,26 L38,26 L38,26 L38,26 L38,26 L38,25 L39,25 L39,24 L39,24 L39,24 L39,24 L40,23 L40,23 L40,23 L40,23 L40,23 L40,22 L40,22 L40,22 L40,22 L40,21 L40,21 L40,30 L40,30 L40,30 L40,31 L40,31 L40,31 L40,31 L39,31 L39,31 L39,32 L39,32 L39,32 L44,32 L45,32 L45,32 L45,31 L44,31 L44,31 L44,31 L43,31 L43,31 L43,30 L43,20 L43,20 L43,19 L43,19 L43,19 L44,19 L45,18 L45,18 L45,18 L44,18 L41,18 L41,18 L41,18 L41,18 L41,18 L41,19 L40,19 L40,19 L40,19 L40,20 L40,20 L40,20 L40,20 L40,20 L40,21 L40,21 L39,22 L39,22 L39,22 L39,23 L39,23 L39,23 L38,23 L38,23 L38,25 L38,25 L37,25 L37,26 L37,26 L37,26 L37,26 L37,27 L37,27 L37,27 L37,27 L37,27 L36,27 L36,28 L36,28 L36,28 L36,28 L36,28 L36,28 L36,28 L35,27 L35,27 L35,27 L35,26 L35,26 L35,26 L34,26 L34,25 L34,25 L34,24 L34,24 L34,24 L34,24 L34,24 L34,24 L34,23 L33,23 L33,22 L33,22 L33,22 L33,22 L33,22 L33,22 L32,21 L32,21 L32,21 L32,20 L32,20 L32,20 L32,20 L31,19 L31,19 L31,19 L31,18 L31,18 L31,18 L30,18 L27,18 Z"/><path d="M11,18 L11,18 L11,18 L11,19 L12,19 L12,19 L12,19 L12,20 L13,20 L13,20 L13,20 L13,21 L13,21 L13,21 L13,21 L13,22 L14,22 L14,22 L14,22 L14,23 L14,23 L14,23 L14,23 L14,24 L14,24 L14,24 L15,24 L15,25 L15,25 L15,25 L15,25 L15,26 L16,26 L16,26 L16,27 L16,27 L16,27 L16,27 L16,28 L16,28 L16,28 L16,28 L16,29 L17,29 L17,30 L17,30 L17,30 L17,30 L17,31 L18,31 L18,31 L18,31 L18,32 L18,32 L18,32 L18,32 L19,32 L19,32 L19,31 L19,31 L19,31 L19,30 L20,30 L20,30 L20,30 L20,30 L20,29 L20,29 L20,29 L20,28 L20,28 L20,28 L21,28 L21,27 L21,27 L21,27 L21,26 L21,26 L21,26 L21,26 L22,25 L22,25 L22,25 L22,25 L22,24 L22,24 L22,24 L22,24 L22,23 L22,23 L22,23 L23,23 L23,22 L23,22 L23,22 L23,22 L23,21 L23,21 L23,21 L24,20 L24,20 L24,20 L24,20 L24,19 L25,19 L25,18 L25,18 L26,18 L25,18 L25,18 L25,18 L22,18 L21,18 L21,18 L21,18 L22,18 L22,19 L23,19 L23,20 L23,20 L22,20 L22,21 L22,21 L22,21 L22,21 L22,22 L22,22 L22,22 L22,22 L22,23 L21,23 L21,23 L21,24 L21,24 L21,24 L21,24 L21,25 L21,25 L20,25 L20,26 L20,26 L20,26 L20,26 L20,27 L20,27 L20,27 L20,28 L20,28 L19,28 L19,28 L19,28 L19,28 L19,28 L18,28 L18,27 L18,27 L18,27 L18,27 L18,26 L18,26 L18,26 L17,25 L17,25 L17,25 L17,24 L17,24 L17,24 L17,24 L17,23 L17,23 L16,23 L16,23 L16,22 L16,22 L16,22 L16,22 L16,21 L16,21 L16,21 L15,20 L15,20 L15,20 L15,20 L15,19 L16,19 L16,18 L16,18 L16,18 L16,18 L11,18 Z"/><path d="M0,18 L0,18 L0,18 L0,19 L1,19 L2,19 L2,20 L2,30 L2,30 L2,30 L2,30 L2,31 L2,31 L2,31 L1,31 L0,31 L0,31 L0,32 L0,32 L11,32 L11,32 L11,32 L11,31 L11,31 L11,31 L12,30 L12,30 L12,30 L12,29 L12,29 L12,28 L12,28 L12,28 L12,28 L12,28 L12,28 L12,28 L12,28 L12,29 L11,29 L11,29 L11,29 L11,30 L10,30 L10,30 L10,31 L10,31 L9,31 L9,31 L8,31 L8,31 L5,31 L5,31 L5,31 L4,31 L4,30 L4,30 L4,20 L4,20 L4,19 L5,19 L5,19 L6,19 L6,18 L6,19 L6,18 L7,18 L6,18 Z"/><path d="M49,0 L49,0 L48,1 L48,1 L48,1 L48,2 L48,2 L48,3 L48,3 L48,3 L47,3 L47,4 L47,4 L47,4 L47,4 L47,5 L47,5 L47,5 L46,6 L46,6 L46,7 L46,7 L46,7 L46,7 L46,8 L46,8 L45,8 L45,8 L45,9 L45,9 L45,9 L45,10 L45,10 L45,10 L45,10 L45,10 L46,9 L46,9 L46,8 L46,8 L46,8 L46,7 L47,7 L47,7 L47,7 L47,6 L47,6 L47,6 L47,6 L47,5 L48,5 L48,5 L48,4 L48,4 L48,4 L48,4 L48,4 L48,3 L48,3 L48,3 L48,3 L49,2 L49,2 L49,2 L49,1 L49,1 L49,1 L49,1 L49,0 Z"/></svg>