<svg xmlns="http://www.w3.org/2000/svg" viewBox="0 0 200 47" fill="currentColor"><path d="M51,22 L51,22 L52,23 L52,24 L52,24 L52,25 L52,25 L52,26 L53,27 L53,28 L53,28 L53,28 L54,29 L54,30 L54,30 L54,31 L54,32 L54,32 L55,33 L55,34 L55,34 L55,35 L56,35 L56,36 L56,37 L57,37 L57,37 L59,37 L59,37 L60,37 L60,36 L60,35 L60,35 L60,34 L61,33 L61,32 L62,32 L62,31 L62,30 L62,29 L62,29 L63,28 L63,28 L63,27 L64,28 L64,29 L64,29 L64,30 L64,31 L64,32 L65,32 L65,33 L65,33 L65,34 L66,34 L66,35 L66,36 L66,36 L67,37 L67,37 L67,37 L70,37 L70,37 L70,36 L71,35 L71,34 L71,34 L71,34 L71,33 L72,32 L72,32 L72,31 L72,30 L73,29 L73,29 L73,28 L73,27 L74,26 L74,26 L74,25 L74,24 L75,24 L75,23 L75,22 L75,22 L75,21 L72,21 L71,22 L71,22 L71,22 L71,23 L70,24 L70,25 L70,25 L70,26 L69,27 L69,27 L69,28 L69,28 L69,29 L69,30 L68,30 L68,31 L68,30 L68,30 L68,29 L67,29 L67,28 L67,28 L67,27 L67,26 L66,26 L66,25 L66,25 L66,24 L66,23 L65,23 L65,22 L65,22 L65,21 L62,21 L61,22 L61,22 L61,23 L61,24 L60,24 L60,25 L60,25 L60,26 L60,27 L60,27 L59,28 L59,29 L59,29 L59,30 L58,31 L58,30 L58,30 L58,30 L58,29 L57,28 L57,27 L57,27 L57,26 L56,25 L56,25 L56,24 L56,23 L55,23 L55,22 L55,21 L51,21 Z"/><path d="M186,22 L186,23 L186,23 L186,24 L187,24 L187,25 L187,25 L188,25 L188,25 L189,25 L190,25 L191,24 L192,24 L193,25 L194,25 L194,25 L194,25 L195,26 L195,27 L196,27 L196,28 L195,28 L195,28 L194,27 L189,27 L189,27 L188,28 L188,28 L187,28 L187,28 L186,29 L185,31 L185,33 L185,34 L186,35 L186,36 L187,36 L188,36 L189,37 L191,37 L192,37 L193,37 L193,36 L194,36 L194,36 L194,36 L195,36 L195,36 L195,35 L196,35 L196,36 L196,37 L199,37 L199,36 L199,26 L199,26 L199,25 L199,24 L198,24 L197,22 L196,22 L196,22 L195,21 L194,21 L194,21 L193,21 L193,21 L192,21 L192,21 L191,21 L190,21 L188,21 L188,22 L187,22 Z"/><path d="M189,32 L189,32 L189,31 L191,30 L194,30 L194,30 L195,30 L196,30 L196,32 L195,32 L195,32 L194,33 L194,33 L193,34 L192,34 L192,34 L190,34 L190,33 L189,33 Z"/><path d="M158,22 L158,36 L159,37 L159,37 L162,37 L163,36 L163,36 L163,27 L163,26 L163,26 L164,25 L164,25 L164,25 L165,24 L166,24 L167,25 L167,25 L168,25 L168,26 L168,26 L169,27 L169,27 L169,36 L169,37 L169,37 L172,37 L173,36 L173,35 L173,35 L173,34 L173,28 L173,27 L173,26 L173,26 L173,26 L174,25 L176,24 L176,24 L177,25 L178,25 L179,26 L179,27 L179,27 L179,36 L180,37 L180,37 L183,37 L183,36 L183,36 L183,36 L183,33 L183,33 L183,27 L183,27 L183,26 L183,25 L183,24 L182,24 L182,23 L182,23 L182,23 L181,22 L180,22 L180,21 L179,21 L179,21 L176,21 L175,21 L174,22 L173,22 L172,23 L172,23 L172,23 L170,22 L170,21 L169,21 L169,21 L166,21 L165,21 L165,21 L164,22 L164,22 L164,22 L163,22 L163,23 L163,23 L163,22 L162,21 L159,21 Z"/><path d="M143,22 L143,22 L143,23 L143,24 L143,25 L144,25 L144,25 L145,25 L145,25 L147,25 L147,24 L149,24 L149,25 L150,25 L151,26 L152,26 L152,26 L152,26 L152,27 L152,28 L152,28 L151,27 L146,27 L145,28 L144,28 L144,28 L143,28 L142,29 L142,29 L142,30 L142,30 L141,31 L141,31 L141,31 L141,34 L142,34 L142,34 L142,35 L142,35 L143,36 L144,36 L144,36 L144,36 L145,37 L146,37 L146,37 L148,37 L149,37 L149,37 L150,36 L150,36 L151,36 L151,36 L152,35 L152,35 L152,36 L152,37 L154,37 L154,37 L154,37 L156,37 L156,37 L156,36 L156,26 L156,26 L156,25 L156,25 L155,24 L155,24 L154,22 L153,22 L152,22 L152,21 L151,21 L150,21 L148,21 L148,21 L147,21 L147,21 L145,21 L144,22 Z"/><path d="M145,32 L145,32 L146,31 L146,31 L146,30 L147,30 L147,30 L150,30 L151,30 L152,30 L152,30 L152,32 L152,32 L151,33 L150,33 L150,34 L149,34 L149,34 L147,34 L146,33 Z"/><path d="M140,21 L139,21 L139,21 L138,22 L137,22 L137,22 L136,22 L136,23 L136,23 L135,24 L135,24 L135,23 L135,22 L135,21 L135,21 L131,21 L131,22 L131,22 L131,22 L131,23 L131,36 L131,36 L132,37 L135,37 L135,37 L135,36 L135,36 L135,32 L135,32 L135,31 L135,31 L135,30 L135,30 L135,29 L136,29 L136,28 L136,28 L136,27 L138,26 L138,26 L139,25 L140,25 L141,25 L141,24 L141,21 Z"/><path d="M117,21 L116,22 L116,22 L116,22 L114,23 L114,24 L114,24 L114,24 L113,24 L113,25 L112,26 L112,26 L112,27 L112,27 L112,28 L112,30 L112,31 L112,31 L112,32 L112,32 L113,33 L113,33 L115,36 L116,36 L116,36 L116,36 L117,36 L117,36 L118,37 L120,37 L120,37 L121,37 L123,37 L123,37 L124,36 L124,36 L124,36 L125,36 L125,36 L126,36 L128,34 L128,33 L128,33 L128,32 L129,32 L129,31 L129,30 L129,30 L129,29 L129,28 L129,27 L129,26 L128,26 L128,25 L128,25 L128,24 L126,22 L126,22 L126,22 L125,22 L125,22 L124,22 L124,21 L123,21 L122,21 L119,21 L119,21 Z"/><path d="M119,24 L122,24 L122,25 L123,25 L123,25 L123,25 L124,26 L124,26 L125,27 L125,27 L125,27 L125,28 L125,29 L125,31 L125,31 L125,31 L124,32 L123,33 L122,33 L119,34 L119,33 L118,33 L118,33 L117,32 L116,31 L116,29 L116,28 L116,28 L116,27 L117,27 L117,26 L117,26 L117,26 L118,26 L118,25 L119,25 Z"/><path d="M80,21 L79,22 L78,23 L78,23 L78,23 L78,24 L77,25 L77,25 L76,25 L76,26 L76,26 L76,29 L76,30 L76,31 L76,32 L76,33 L77,33 L77,33 L78,35 L79,36 L79,36 L79,36 L80,36 L80,36 L81,36 L81,37 L82,37 L83,37 L84,37 L85,37 L87,37 L87,36 L88,36 L89,36 L89,36 L89,35 L90,35 L90,34 L90,34 L90,34 L90,34 L89,33 L89,32 L88,32 L88,33 L87,33 L87,33 L85,34 L83,34 L82,33 L81,33 L80,32 L80,31 L80,31 L80,30 L87,30 L87,31 L87,30 L88,30 L88,31 L88,30 L90,30 L90,31 L91,30 L91,30 L91,27 L91,26 L90,26 L90,24 L90,24 L90,24 L88,22 L88,22 L88,22 L87,22 L87,21 L86,21 L85,21 L85,21 L82,21 L81,21 Z"/><path d="M80,27 L80,27 L80,26 L81,25 L82,25 L82,24 L83,24 L83,24 L84,24 L85,24 L87,26 L87,26 L87,27 L87,27 L87,28 L86,28 L86,28 L85,28 L85,28 L80,28 Z"/><path d="M94,16 L94,16 L94,36 L94,37 L97,37 L98,36 L98,35 L98,35 L99,36 L99,36 L99,36 L100,36 L100,36 L101,37 L104,37 L105,37 L106,36 L106,36 L107,36 L107,36 L108,36 L109,34 L110,33 L110,32 L110,32 L110,30 L110,30 L110,30 L110,28 L110,28 L110,28 L110,26 L109,24 L107,22 L106,21 L105,21 L104,21 L102,21 L100,21 L100,21 L99,22 L99,22 L98,22 L98,23 L98,23 L98,23 L98,17 L98,17 L98,17 L98,16 L98,16 L98,16 Z"/><path d="M101,24 L103,24 L104,24 L105,26 L105,26 L105,26 L106,27 L106,27 L106,28 L106,30 L106,31 L106,31 L106,32 L105,32 L104,33 L103,33 L103,34 L100,33 L99,33 L98,32 L98,31 L98,31 L98,30 L98,29 L98,29 L98,28 L98,27 L98,27 L98,26 L99,25 L100,25 Z"/><path d="M20,1 L20,1 L20,1 L19,1 L18,1 L17,2 L16,2 L16,2 L15,2 L15,2 L14,3 L14,3 L13,3 L12,4 L11,4 L11,4 L11,4 L10,5 L10,5 L8,6 L8,7 L6,9 L5,10 L5,10 L4,11 L4,11 L4,11 L4,12 L4,12 L4,13 L3,13 L3,13 L3,14 L3,14 L2,15 L2,15 L2,16 L2,17 L1,17 L1,18 L1,18 L1,20 L1,20 L1,22 L1,22 L1,22 L1,26 L1,26 L1,28 L1,29 L2,30 L2,30 L2,31 L2,32 L2,32 L3,33 L3,33 L4,34 L4,35 L4,35 L4,36 L4,36 L4,36 L6,38 L6,38 L6,39 L8,40 L8,40 L10,42 L10,42 L13,44 L14,44 L14,44 L15,44 L15,45 L15,45 L16,45 L17,45 L17,46 L19,46 L20,46 L23,46 L23,46 L27,46 L28,46 L29,46 L30,45 L31,45 L31,45 L32,45 L32,44 L33,44 L33,44 L34,44 L34,44 L35,44 L35,43 L35,43 L36,43 L36,43 L36,42 L37,42 L37,42 L37,42 L38,42 L38,41 L38,41 L40,40 L40,39 L41,38 L42,37 L42,37 L42,37 L42,36 L42,36 L42,36 L43,36 L43,35 L43,35 L43,34 L44,34 L44,34 L44,33 L44,33 L45,32 L45,30 L45,30 L46,30 L46,29 L46,28 L46,28 L46,27 L46,25 L46,24 L46,20 L46,20 L46,19 L46,18 L46,17 L45,17 L45,16 L45,15 L45,14 L44,13 L44,13 L44,13 L43,12 L43,12 L42,11 L42,10 L42,10 L42,10 L41,9 L41,9 L41,8 L38,5 L36,4 L36,4 L35,4 L34,3 L34,3 L33,3 L33,3 L33,3 L32,2 L32,2 L31,2 L31,2 L30,2 L29,1 L28,1 L27,1 Z"/><path d="M8,22 L8,22 L8,22 L10,22 L10,22 L12,22 L13,22 L14,23 L14,24 L14,24 L14,25 L14,26 L14,26 L15,27 L15,28 L15,28 L15,29 L16,29 L16,31 L16,32 L17,32 L18,31 L18,30 L18,30 L18,29 L19,28 L19,28 L19,27 L19,27 L20,26 L20,26 L20,25 L20,25 L20,24 L20,23 L21,22 L22,22 L22,22 L22,22 L25,22 L26,22 L26,23 L26,23 L27,24 L27,25 L27,25 L27,26 L28,26 L28,27 L28,28 L28,28 L28,28 L29,29 L29,30 L29,31 L29,31 L29,31 L30,32 L30,32 L31,32 L31,31 L31,31 L31,30 L32,30 L32,28 L32,28 L32,27 L33,26 L33,26 L33,25 L33,25 L33,24 L33,23 L34,22 L35,22 L36,22 L37,22 L38,22 L39,22 L39,23 L39,24 L39,24 L38,25 L38,25 L38,26 L38,26 L37,27 L37,28 L37,28 L37,29 L37,29 L36,30 L36,31 L36,31 L36,32 L35,33 L35,33 L35,34 L35,34 L34,34 L34,35 L34,36 L34,36 L34,36 L33,36 L33,36 L33,36 L31,36 L31,36 L30,36 L28,36 L27,36 L27,36 L27,36 L26,35 L26,35 L26,34 L26,34 L25,33 L25,33 L25,32 L25,31 L25,30 L24,30 L24,29 L23,29 L23,29 L23,30 L22,31 L22,31 L22,32 L22,33 L22,33 L22,34 L21,34 L21,35 L21,35 L21,36 L20,36 L19,36 L15,36 L15,36 L14,36 L14,36 L13,36 L12,35 L12,34 L12,34 L12,33 L12,32 L11,31 L11,31 L11,30 L11,30 L10,29 L10,29 L10,28 L10,28 L10,28 L10,27 L9,26 L9,26 L9,25 L9,25 L8,24 L8,24 L8,23 Z"/></svg>