<svg xmlns="http://www.w3.org/2000/svg" viewBox="0 0 200 49" fill="currentColor"><path d="M178,16 L178,17 L178,32 L178,32 L186,32 L187,32 L187,31 L186,30 L180,30 L180,30 L180,25 L181,25 L185,25 L185,25 L185,23 L185,23 L180,23 L180,23 L180,18 L180,18 L186,18 L186,18 L186,17 L186,16 L185,16 L185,16 L185,16 Z"/><path d="M147,16 L147,17 L147,20 L147,20 L147,22 L147,22 L147,32 L147,32 L149,32 L149,32 L149,25 L150,25 L150,26 L151,26 L151,27 L152,28 L152,28 L152,29 L152,29 L153,29 L153,29 L153,30 L153,30 L154,31 L154,31 L154,32 L154,32 L155,32 L157,32 L157,32 L157,31 L156,31 L156,30 L155,30 L155,29 L155,29 L155,28 L154,28 L154,28 L154,27 L154,27 L154,27 L153,26 L153,25 L153,25 L154,25 L154,25 L154,25 L156,23 L156,23 L156,22 L156,20 L156,19 L156,18 L155,17 L154,17 L154,17 L153,17 L152,16 Z"/><path d="M150,18 L152,18 L152,19 L153,19 L154,19 L154,20 L154,22 L154,23 L153,23 L152,24 L150,24 L149,24 L149,18 Z"/><path d="M135,17 L135,32 L135,32 L144,32 L144,32 L144,31 L144,30 L138,30 L137,30 L137,26 L138,25 L141,25 L141,25 L142,25 L143,25 L143,24 L142,23 L142,23 L142,23 L141,23 L138,23 L137,23 L137,19 L138,18 L144,18 L144,18 L144,17 L143,16 L136,16 Z"/><path d="M103,16 L103,17 L103,32 L103,32 L105,32 L105,32 L105,26 L105,25 L105,25 L106,26 L106,26 L106,26 L106,26 L108,28 L108,28 L108,28 L108,29 L108,29 L109,30 L109,30 L110,31 L110,32 L110,32 L112,32 L113,32 L113,32 L112,31 L112,30 L111,30 L111,30 L111,29 L111,29 L110,29 L109,26 L108,25 L108,25 L109,25 L110,25 L110,25 L110,24 L111,24 L111,24 L111,24 L111,23 L112,23 L112,20 L112,20 L112,19 L111,19 L111,18 L110,17 L110,17 L110,17 L108,17 L108,16 Z"/><path d="M105,18 L108,18 L108,19 L109,19 L109,19 L109,20 L110,20 L110,22 L110,22 L109,23 L109,23 L108,24 L105,24 L105,23 L105,19 Z"/><path d="M91,17 L91,32 L91,32 L100,32 L100,32 L100,31 L100,30 L94,30 L94,30 L94,25 L94,25 L95,25 L98,25 L99,25 L99,23 L99,23 L94,23 L94,23 L94,19 L94,18 L100,18 L100,17 L99,16 L92,16 Z"/><path d="M56,17 L56,32 L56,32 L65,32 L65,32 L65,30 L59,30 L58,30 L58,25 L59,25 L63,25 L63,25 L64,25 L64,23 L63,23 L63,23 L60,23 L60,23 L60,23 L59,23 L59,23 L59,23 L58,23 L58,19 L59,18 L64,18 L65,17 L65,17 L64,16 L57,16 Z"/><path d="M192,16 L191,17 L191,17 L190,17 L190,17 L190,18 L189,18 L189,19 L189,19 L189,22 L189,22 L189,23 L189,23 L190,24 L190,24 L191,24 L192,24 L192,25 L193,25 L194,25 L194,25 L196,26 L196,27 L197,27 L197,28 L196,29 L195,30 L195,30 L194,31 L192,31 L192,30 L191,30 L190,30 L190,30 L190,29 L189,29 L189,30 L188,30 L188,31 L190,32 L190,32 L190,32 L192,32 L193,33 L194,32 L196,32 L196,32 L197,32 L197,31 L197,31 L199,30 L199,28 L199,28 L199,27 L199,27 L199,26 L198,25 L197,24 L197,24 L197,24 L196,24 L196,23 L195,23 L194,23 L194,23 L193,22 L192,22 L192,22 L191,21 L191,20 L191,20 L192,19 L192,19 L192,18 L193,18 L193,18 L195,18 L196,18 L196,18 L196,19 L198,19 L198,18 L199,18 L198,17 L198,17 L197,17 L196,16 Z"/><path d="M161,16 L160,17 L160,20 L160,22 L160,26 L160,27 L160,27 L160,27 L160,32 L160,32 L161,32 L162,32 L162,28 L162,27 L162,23 L162,22 L162,21 L163,20 L163,20 L163,21 L163,22 L163,23 L164,24 L164,24 L164,25 L164,27 L164,27 L165,28 L165,29 L165,30 L166,31 L166,32 L166,32 L168,32 L168,32 L168,31 L168,30 L168,29 L169,28 L169,27 L169,27 L169,26 L170,25 L170,24 L170,23 L170,23 L171,22 L171,21 L171,21 L172,21 L172,22 L172,22 L172,26 L172,26 L172,27 L172,28 L172,32 L172,32 L174,32 L174,32 L175,31 L174,29 L174,26 L174,26 L174,25 L174,24 L174,19 L173,18 L173,17 L173,16 L172,16 L172,16 L171,16 L170,17 L170,17 L170,18 L169,19 L169,20 L169,21 L169,22 L168,22 L168,23 L168,24 L168,25 L168,26 L167,27 L167,27 L167,28 L167,27 L167,27 L166,26 L166,25 L166,24 L166,23 L165,23 L165,22 L165,21 L165,20 L164,19 L164,18 L164,18 L164,17 L163,16 L161,16 Z"/><path d="M121,16 L121,17 L121,32 L121,32 L122,32 L123,32 L123,25 L123,25 L128,25 L129,25 L129,32 L129,32 L131,32 L131,32 L131,17 L131,16 L130,16 L130,16 L129,16 L129,17 L129,17 L129,22 L128,23 L123,23 L123,23 L123,17 L122,16 L122,16 Z"/><path d="M82,16 L81,17 L81,32 L82,32 L89,32 L89,32 L89,31 L89,30 L84,30 L84,30 L84,17 L83,16 Z"/><path d="M68,16 L67,17 L67,29 L68,29 L68,30 L69,32 L70,32 L70,32 L71,32 L72,32 L74,32 L74,32 L75,32 L76,32 L76,32 L78,30 L78,29 L78,28 L78,27 L78,27 L78,17 L78,17 L77,16 L76,16 L76,17 L76,29 L74,30 L72,30 L71,30 L70,29 L70,29 L70,17 L70,16 L69,16 Z"/><path d="M1,1 L1,1 L1,47 L1,48 L47,48 L47,47 L47,1 L47,1 L1,1 Z"/><path d="M36,14 L38,14 L38,15 L38,34 L37,34 L37,34 L36,34 L36,15 Z"/><path d="M24,14 L24,14 L25,15 L25,23 L25,23 L26,24 L26,23 L27,23 L27,24 L27,23 L30,23 L30,24 L31,23 L31,24 L32,23 L32,24 L33,24 L33,23 L34,24 L34,25 L34,25 L25,25 L25,25 L25,34 L24,34 L24,34 L23,34 L23,25 L23,25 L14,25 L14,25 L14,24 L14,24 L22,24 L22,23 L23,23 L23,23 L23,15 Z"/><path d="M10,14 L21,14 L21,15 L21,16 L21,16 L12,16 L12,16 L12,33 L12,33 L21,33 L21,33 L21,34 L21,34 L21,34 L11,34 L10,34 L10,15 Z"/></svg>