<svg xmlns="http://www.w3.org/2000/svg" viewBox="0 0 197 60" fill="currentColor"><path d="M148,16 L147,17 L147,17 L146,17 L145,17 L145,18 L144,18 L144,18 L144,18 L143,19 L142,19 L142,19 L142,19 L140,20 L140,21 L140,21 L140,22 L140,22 L139,22 L139,23 L138,23 L138,24 L138,24 L138,25 L138,25 L137,25 L137,26 L137,27 L136,28 L136,28 L136,29 L136,30 L135,31 L132,31 L131,31 L131,33 L131,35 L130,36 L130,37 L130,38 L130,38 L130,38 L131,38 L131,38 L134,38 L134,39 L134,38 L135,38 L136,39 L136,40 L136,40 L136,42 L136,42 L137,43 L137,43 L137,44 L138,44 L138,45 L139,47 L140,48 L141,48 L142,49 L142,50 L143,50 L143,50 L144,50 L144,50 L144,51 L145,51 L145,51 L146,52 L146,52 L147,52 L148,52 L148,52 L148,53 L150,53 L151,53 L156,53 L156,53 L157,53 L158,53 L159,53 L160,52 L161,52 L161,52 L162,52 L163,51 L163,50 L164,50 L164,50 L164,50 L164,48 L165,47 L165,45 L165,44 L165,43 L165,43 L165,43 L163,44 L163,44 L161,45 L160,45 L160,45 L159,45 L158,46 L156,46 L156,46 L156,46 L156,46 L153,46 L152,46 L151,46 L150,45 L149,45 L149,45 L148,44 L148,44 L148,44 L146,43 L146,42 L146,42 L145,42 L145,41 L145,41 L145,41 L145,40 L144,39 L144,39 L144,38 L164,38 L164,39 L164,38 L166,38 L167,38 L167,36 L167,36 L167,35 L167,34 L167,34 L168,32 L168,31 L168,30 L168,29 L169,28 L169,27 L168,27 L168,26 L168,25 L168,24 L167,24 L167,23 L166,22 L166,22 L166,22 L166,22 L164,20 L164,20 L164,19 L163,19 L163,19 L163,19 L162,18 L162,18 L162,18 L161,18 L160,17 L160,17 L159,17 L158,17 L158,16 L156,16 L156,16 L155,16 L151,16 L150,16 L150,16 L149,16 Z"/><path d="M144,30 L144,30 L144,29 L145,29 L145,28 L145,28 L145,27 L146,27 L146,27 L146,26 L146,26 L148,24 L148,24 L149,24 L150,24 L150,23 L151,23 L152,23 L153,23 L154,23 L154,23 L155,23 L156,23 L156,24 L157,24 L157,24 L158,24 L158,25 L159,25 L159,26 L159,26 L160,27 L160,27 L161,29 L161,29 L161,29 L161,30 L161,31 L144,31 L144,31 Z"/><path d="M104,17 L103,17 L103,17 L102,17 L101,16 L100,16 L99,16 L97,15 L97,15 L96,15 L96,15 L92,15 L91,15 L89,16 L89,16 L89,16 L88,16 L88,16 L87,17 L87,17 L84,18 L84,19 L84,19 L83,20 L82,21 L82,22 L82,22 L82,23 L81,24 L81,29 L82,29 L82,30 L83,32 L84,33 L84,33 L84,34 L85,34 L85,34 L86,34 L86,34 L87,35 L87,35 L88,35 L89,36 L90,36 L90,36 L91,36 L92,36 L93,37 L93,37 L94,37 L95,38 L95,38 L97,39 L98,40 L98,40 L98,41 L98,42 L98,42 L98,43 L96,45 L96,45 L95,45 L94,45 L93,46 L89,46 L89,46 L88,46 L87,45 L86,45 L85,45 L84,45 L83,44 L83,44 L82,44 L82,44 L81,43 L80,43 L80,44 L80,44 L80,45 L80,46 L79,47 L79,48 L79,49 L79,50 L80,51 L81,52 L82,52 L82,52 L83,52 L84,52 L85,53 L86,53 L87,53 L88,53 L94,53 L96,53 L97,53 L98,52 L99,52 L99,52 L99,52 L100,51 L100,51 L101,50 L101,50 L102,50 L102,50 L102,50 L102,50 L104,48 L104,48 L105,47 L105,46 L105,46 L105,45 L106,44 L106,42 L106,42 L106,39 L105,38 L105,37 L105,37 L104,35 L102,33 L101,33 L101,32 L100,32 L100,32 L99,32 L98,31 L98,31 L98,31 L97,31 L96,30 L95,30 L95,30 L93,30 L93,29 L92,29 L91,29 L91,29 L91,29 L90,28 L89,27 L89,25 L90,25 L90,24 L90,24 L91,24 L91,23 L91,23 L92,23 L92,23 L93,23 L94,22 L97,23 L98,23 L99,23 L100,24 L101,24 L101,24 L102,24 L103,24 L104,24 L104,24 L104,23 L104,23 L104,21 L105,20 L105,19 L105,19 L105,18 Z"/><path d="M177,6 L177,7 L177,8 L177,8 L177,17 L176,17 L172,17 L172,17 L172,18 L171,18 L171,20 L171,20 L171,22 L170,23 L170,24 L171,25 L173,25 L173,25 L176,25 L176,25 L176,25 L177,25 L177,27 L177,27 L177,45 L177,46 L177,46 L177,46 L177,47 L178,48 L178,49 L179,50 L181,52 L182,52 L182,52 L183,52 L184,53 L185,53 L186,53 L186,53 L186,53 L192,53 L194,53 L195,53 L195,52 L195,51 L195,50 L196,49 L196,47 L196,47 L196,46 L196,45 L196,45 L195,45 L194,45 L192,45 L191,46 L188,45 L188,45 L187,44 L186,43 L186,43 L186,42 L186,42 L186,25 L186,25 L186,25 L195,25 L196,25 L196,24 L196,17 L195,17 L186,17 L186,17 L186,8 L186,8 L186,7 L186,6 Z"/><path d="M114,6 L113,7 L113,17 L113,17 L109,17 L108,17 L108,18 L108,19 L107,20 L107,20 L107,21 L107,22 L107,23 L107,24 L107,25 L113,25 L113,25 L113,45 L113,46 L114,46 L114,47 L114,48 L114,48 L114,48 L114,49 L115,49 L117,51 L118,52 L118,52 L119,52 L119,52 L120,53 L121,53 L122,53 L122,53 L126,53 L126,53 L126,51 L126,50 L127,49 L127,49 L127,47 L127,46 L127,46 L127,45 L124,45 L124,45 L124,45 L124,45 L123,44 L123,44 L123,44 L123,43 L122,43 L122,25 L122,25 L131,25 L132,24 L132,23 L133,21 L133,20 L133,19 L133,17 L133,17 L132,17 L122,17 L122,16 L122,15 L122,15 L122,12 L122,12 L122,7 L122,7 L122,6 Z"/><path d="M71,2 L70,1 L69,1 L69,1 L68,1 L34,1 L33,1 L32,1 L32,1 L32,2 L30,3 L30,3 L30,3 L28,5 L28,6 L28,6 L28,8 L28,8 L28,10 L27,11 L27,12 L26,14 L26,15 L26,16 L26,17 L26,18 L25,18 L14,18 L13,18 L12,18 L12,18 L12,19 L11,19 L11,19 L10,19 L10,20 L9,20 L9,20 L8,21 L8,21 L8,22 L8,22 L7,22 L7,22 L7,23 L7,24 L6,24 L6,26 L6,27 L6,28 L6,29 L6,30 L5,32 L5,33 L4,35 L4,36 L4,36 L4,38 L4,38 L4,40 L3,41 L3,42 L2,44 L2,46 L2,46 L2,47 L2,48 L2,50 L1,51 L1,52 L1,53 L1,56 L1,56 L1,57 L2,58 L4,59 L38,59 L40,59 L40,58 L41,58 L43,56 L43,56 L43,55 L43,55 L44,54 L44,53 L45,52 L45,51 L45,50 L45,50 L45,48 L46,47 L46,46 L46,45 L46,45 L46,43 L46,43 L46,42 L47,42 L60,42 L60,41 L61,41 L62,41 L62,40 L64,40 L64,38 L66,36 L66,35 L66,33 L66,32 L67,31 L67,30 L67,29 L67,29 L67,27 L68,27 L68,25 L68,25 L68,24 L68,23 L69,22 L69,20 L69,20 L69,20 L69,18 L70,17 L70,16 L70,15 L70,13 L70,12 L71,11 L71,10 L71,8 L72,7 L72,3 L71,3 Z"/></svg>