<svg xmlns="http://www.w3.org/2000/svg" viewBox="0 0 60 60" fill="currentColor"><path d="M32,0 L28,0 L28,0 L28,0 L28,0 L27,0 L26,1 L26,1 L25,1 L25,1 L24,1 L24,1 L24,1 L24,1 L24,1 L23,1 L23,1 L23,1 L23,1 L22,1 L22,1 L22,2 L22,2 L21,2 L21,2 L20,2 L20,2 L20,2 L20,2 L20,2 L20,2 L19,2 L19,2 L19,2 L19,3 L18,3 L18,3 L18,3 L18,3 L18,3 L18,3 L18,3 L17,3 L17,3 L17,3 L17,4 L16,4 L16,4 L16,4 L16,4 L16,4 L16,4 L15,4 L15,4 L15,5 L14,5 L14,5 L14,5 L14,5 L13,6 L13,6 L13,6 L12,6 L12,7 L11,7 L10,8 L10,8 L8,10 L8,10 L8,11 L8,11 L8,11 L7,11 L7,11 L7,11 L6,12 L6,12 L6,12 L6,12 L6,13 L6,13 L6,13 L6,13 L5,14 L5,14 L5,14 L5,14 L4,15 L4,15 L4,15 L4,16 L4,16 L4,16 L4,16 L4,17 L4,17 L4,17 L3,17 L3,17 L3,17 L3,17 L3,18 L3,18 L2,19 L2,19 L2,19 L2,20 L2,20 L2,20 L2,20 L2,20 L2,20 L2,21 L2,21 L2,21 L2,21 L2,22 L1,22 L1,22 L1,23 L1,23 L1,23 L1,24 L1,24 L1,24 L1,24 L1,25 L1,25 L1,25 L1,26 L1,26 L0,28 L0,28 L0,32 L0,32 L1,33 L1,34 L1,34 L1,34 L1,35 L1,35 L1,35 L1,36 L1,36 L1,36 L1,36 L1,36 L1,36 L1,37 L1,37 L1,37 L1,38 L2,38 L2,38 L2,38 L2,39 L2,39 L2,39 L2,39 L2,40 L2,40 L2,40 L2,40 L2,40 L2,41 L2,41 L2,41 L3,41 L3,41 L3,42 L3,42 L3,42 L3,42 L3,42 L3,42 L3,42 L3,43 L3,43 L4,43 L4,43 L4,43 L4,44 L4,44 L4,44 L4,44 L4,44 L4,44 L4,45 L4,45 L4,45 L5,46 L5,46 L5,46 L6,47 L6,47 L6,47 L6,47 L6,48 L6,48 L6,48 L7,48 L7,48 L8,50 L10,52 L11,53 L11,53 L11,53 L11,53 L12,53 L12,53 L12,54 L13,54 L13,54 L14,55 L14,55 L14,55 L14,55 L14,55 L14,55 L15,55 L15,55 L15,55 L15,56 L15,56 L16,56 L16,56 L16,56 L16,56 L16,56 L16,56 L16,56 L16,56 L17,56 L17,56 L17,57 L17,57 L17,57 L17,57 L18,57 L18,57 L18,57 L18,57 L18,57 L18,57 L19,57 L19,57 L19,58 L19,58 L20,58 L20,58 L20,58 L20,58 L20,58 L21,58 L21,58 L21,58 L21,58 L22,58 L22,59 L23,59 L23,59 L24,59 L24,59 L24,59 L24,59 L25,59 L25,59 L26,59 L26,59 L26,59 L26,59 L27,59 L28,60 L28,60 L28,60 L30,60 L30,60 L32,60 L33,59 L34,59 L34,59 L35,59 L35,59 L36,59 L36,59 L36,59 L37,59 L37,59 L37,59 L38,59 L38,58 L38,58 L38,58 L39,58 L39,58 L39,58 L39,58 L40,58 L40,58 L40,58 L41,58 L41,58 L42,57 L42,57 L42,57 L42,57 L43,57 L43,57 L43,57 L43,57 L43,56 L43,56 L44,56 L44,56 L44,56 L44,56 L45,56 L45,56 L45,55 L46,55 L46,55 L46,55 L46,55 L46,55 L47,54 L48,54 L48,54 L48,54 L48,53 L48,53 L49,53 L49,53 L50,52 L50,52 L52,50 L52,49 L53,49 L53,49 L53,49 L53,49 L53,49 L53,48 L54,48 L54,48 L54,48 L54,47 L54,47 L54,47 L54,47 L55,46 L55,46 L55,46 L55,46 L55,46 L55,45 L56,45 L56,45 L56,45 L56,44 L56,44 L56,44 L56,44 L56,44 L56,44 L56,44 L56,44 L56,44 L56,43 L56,43 L57,43 L57,43 L57,43 L57,42 L57,42 L57,42 L57,42 L57,42 L57,41 L57,41 L58,41 L58,41 L58,41 L58,40 L58,40 L58,40 L58,40 L58,40 L58,40 L58,39 L58,39 L58,39 L58,39 L58,38 L59,38 L59,38 L59,37 L59,37 L59,37 L59,37 L59,36 L59,36 L59,36 L59,35 L59,35 L59,34 L60,34 L60,33 L60,32 L60,32 L60,32 L60,28 L60,27 L59,26 L59,26 L59,25 L59,25 L59,24 L59,24 L59,24 L59,23 L59,23 L59,23 L59,22 L59,22 L59,22 L58,22 L58,21 L58,21 L58,21 L58,21 L58,20 L58,20 L58,20 L58,20 L58,19 L58,19 L58,19 L57,19 L57,18 L57,18 L57,18 L57,18 L57,18 L57,18 L57,18 L57,17 L57,17 L56,17 L56,17 L56,16 L56,16 L56,16 L56,15 L56,15 L56,15 L55,15 L55,14 L55,14 L54,13 L54,13 L54,13 L54,13 L54,13 L54,13 L54,13 L54,12 L54,12 L54,12 L53,12 L53,11 L53,11 L53,11 L53,11 L52,11 L52,10 L51,9 L51,9 L50,9 L50,8 L50,8 L50,8 L49,8 L49,7 L48,7 L48,6 L48,6 L47,6 L47,6 L47,6 L47,6 L46,5 L46,5 L46,5 L46,5 L46,5 L46,5 L45,5 L45,5 L45,4 L45,4 L45,4 L45,4 L44,4 L44,4 L44,4 L44,4 L43,3 L43,3 L43,3 L43,3 L43,3 L42,3 L42,3 L42,3 L42,3 L42,3 L42,3 L42,3 L41,3 L41,2 L41,2 L41,2 L41,2 L40,2 L40,2 L40,2 L40,2 L40,2 L39,2 L39,2 L39,2 L39,2 L38,2 L38,2 L38,1 L38,1 L37,1 L37,1 L37,1 L36,1 L36,1 L36,1 L35,1 L35,1 L35,1 L34,1 L34,1 L33,0 L32,0 Z"/><path d="M28,22 L28,22 L28,22 L28,22 L28,22 L29,22 L29,22 L29,22 L29,22 L30,22 L30,22 L30,22 L30,22 L30,22 L30,22 L30,22 L31,23 L31,23 L31,23 L31,23 L31,23 L31,24 L31,24 L31,24 L31,24 L31,24 L31,25 L31,25 L31,25 L31,25 L31,25 L31,26 L31,26 L31,26 L30,26 L30,26 L30,26 L30,26 L30,26 L30,27 L30,27 L30,27 L29,27 L29,27 L29,27 L29,27 L29,27 L30,27 L30,28 L30,28 L30,28 L30,28 L30,28 L30,28 L30,28 L30,28 L30,29 L31,29 L31,29 L31,29 L31,29 L31,29 L31,29 L31,30 L31,30 L31,30 L31,30 L32,30 L32,30 L32,31 L32,31 L32,31 L32,30 L32,30 L32,30 L32,30 L32,30 L33,30 L33,30 L33,30 L33,30 L33,30 L33,30 L33,29 L33,29 L33,29 L33,29 L33,29 L33,28 L33,28 L33,28 L33,27 L33,27 L33,27 L33,27 L32,27 L32,27 L33,27 L36,27 L36,27 L36,27 L36,27 L36,27 L36,27 L35,28 L35,28 L35,28 L35,28 L35,28 L35,28 L35,28 L34,28 L34,29 L34,29 L34,29 L34,29 L34,29 L34,29 L34,29 L34,29 L34,30 L34,30 L34,30 L34,30 L34,30 L33,30 L33,30 L33,30 L33,31 L33,31 L33,31 L33,31 L33,31 L33,32 L33,32 L33,32 L34,33 L34,33 L34,33 L34,33 L34,33 L34,33 L34,33 L35,33 L35,33 L35,33 L35,33 L36,33 L36,33 L36,32 L36,32 L36,32 L36,32 L36,32 L36,32 L37,32 L37,32 L37,32 L36,32 L36,33 L36,33 L36,33 L36,33 L36,33 L36,33 L36,34 L36,34 L36,34 L36,34 L35,34 L35,34 L35,34 L35,34 L34,34 L34,34 L34,34 L33,34 L33,34 L33,34 L33,34 L33,34 L32,34 L32,34 L32,34 L32,34 L32,34 L32,33 L31,33 L31,33 L31,33 L31,33 L31,33 L31,33 L31,33 L30,33 L30,33 L30,33 L30,34 L30,34 L30,34 L30,34 L29,34 L29,34 L29,34 L29,34 L29,34 L29,34 L28,34 L28,34 L27,34 L27,34 L27,34 L26,34 L26,34 L26,34 L26,34 L26,34 L26,34 L26,34 L25,34 L25,34 L25,33 L25,33 L25,33 L25,33 L25,33 L25,33 L24,33 L24,32 L24,32 L24,32 L24,32 L24,31 L24,31 L24,30 L24,30 L24,30 L24,30 L24,30 L25,30 L25,29 L25,29 L25,29 L25,29 L25,29 L26,28 L26,28 L26,28 L26,28 L26,28 L26,28 L26,28 L26,28 L26,28 L27,28 L27,28 L27,27 L27,27 L27,27 L27,27 L27,27 L27,27 L26,26 L26,26 L26,26 L26,26 L26,26 L26,26 L26,26 L26,25 L26,25 L26,24 L26,24 L26,23 L26,23 L26,23 L26,23 L26,23 L27,23 L27,22 L27,22 L27,22 L27,22 L28,22 Z"/><path d="M27,28 L27,28 L27,28 L27,29 L26,29 L26,29 L26,29 L26,29 L26,29 L26,29 L26,30 L26,31 L26,31 L26,31 L26,31 L26,32 L26,32 L26,32 L27,32 L27,32 L27,32 L27,32 L27,32 L27,32 L27,32 L27,32 L27,33 L27,33 L28,33 L28,33 L28,33 L28,33 L28,33 L29,33 L30,33 L30,33 L30,33 L30,33 L30,33 L30,33 L30,32 L31,32 L31,32 L30,32 L30,32 L30,32 L30,32 L30,31 L30,31 L30,31 L30,31 L30,31 L29,30 L29,30 L29,30 L29,30 L29,30 L29,30 L29,30 L29,30 L28,29 L28,29 L28,29 L28,29 L28,29 L28,28 L28,28 L28,28 L27,28 Z"/><path d="M29,22 L29,22 L29,23 L28,23 L28,23 L28,23 L28,23 L28,23 L28,23 L28,24 L28,24 L28,24 L28,24 L28,25 L28,25 L28,25 L28,25 L28,25 L28,26 L28,26 L28,26 L28,26 L28,26 L28,26 L29,26 L29,26 L29,26 L29,26 L29,26 L29,26 L29,26 L30,26 L30,26 L30,25 L30,25 L30,25 L30,25 L30,25 L30,25 L30,25 L30,24 L30,24 L30,24 L30,23 L30,23 L30,23 L30,23 L30,23 L30,23 L29,23 Z"/><path d="M39,20 L45,20 L45,20 L46,20 L46,20 L46,20 L46,20 L47,20 L47,20 L47,20 L47,21 L48,21 L48,21 L48,21 L48,21 L48,21 L48,21 L48,21 L48,21 L48,21 L48,21 L49,22 L49,22 L49,22 L49,22 L49,22 L49,22 L49,22 L49,22 L49,23 L49,23 L50,23 L50,23 L50,24 L50,24 L50,24 L50,25 L50,25 L50,26 L50,26 L50,26 L49,26 L49,26 L49,26 L49,27 L49,27 L49,27 L49,27 L49,28 L50,28 L50,28 L50,29 L50,29 L50,29 L50,29 L50,29 L50,29 L50,30 L51,30 L51,30 L51,30 L51,32 L51,32 L51,32 L50,33 L50,33 L50,33 L50,33 L50,33 L50,33 L50,34 L50,34 L50,34 L50,34 L49,35 L49,35 L49,35 L49,35 L49,35 L48,35 L48,35 L48,35 L48,35 L48,35 L48,36 L47,36 L47,36 L47,36 L47,36 L39,36 L39,36 L39,20 Z"/><path d="M42,30 L42,32 L42,33 L47,33 L47,32 L47,32 L47,32 L47,32 L47,32 L48,32 L48,32 L48,32 L48,31 L48,31 L48,31 L48,31 L48,30 L48,30 L47,30 L47,30 L47,30 L46,29 L46,29 L46,29 L46,29 L42,29 L42,29 Z"/><path d="M42,23 L42,26 L42,26 L42,26 L45,26 L46,26 L46,26 L46,26 L46,26 L46,26 L46,26 L46,26 L46,25 L46,25 L47,25 L47,25 L47,24 L46,24 L46,24 L46,24 L46,24 L46,23 L46,23 L46,23 L45,23 L45,23 L42,23 Z"/><path d="M10,20 L16,20 L16,20 L16,20 L17,20 L17,20 L17,20 L18,20 L18,20 L18,20 L18,20 L18,20 L18,21 L18,21 L19,21 L19,21 L20,22 L20,22 L20,22 L20,22 L20,22 L20,22 L20,23 L20,23 L20,23 L20,23 L21,23 L21,23 L21,24 L21,24 L21,25 L21,26 L21,26 L20,26 L20,26 L20,26 L20,27 L20,27 L20,27 L20,27 L20,27 L20,27 L20,27 L20,28 L20,28 L20,28 L20,28 L20,28 L21,28 L21,28 L21,28 L21,28 L21,29 L21,29 L21,29 L22,29 L22,29 L22,29 L22,30 L22,30 L22,30 L22,30 L22,30 L22,31 L22,31 L22,31 L22,31 L22,32 L22,32 L22,32 L22,33 L22,33 L22,33 L21,33 L21,33 L21,33 L21,34 L21,34 L21,34 L21,34 L21,34 L20,35 L20,35 L20,35 L20,35 L20,35 L20,35 L20,35 L20,35 L19,35 L19,35 L19,35 L19,35 L19,36 L18,36 L18,36 L18,36 L17,36 L17,36 L10,36 L10,36 L10,20 Z"/><path d="M13,29 L13,32 L13,32 L13,33 L18,33 L18,32 L18,32 L18,32 L18,32 L19,32 L19,32 L19,32 L19,31 L19,31 L19,31 L19,30 L19,30 L19,30 L18,30 L18,30 L18,30 L18,30 L18,30 L18,29 L17,29 L14,29 Z"/><path d="M13,23 L13,23 L13,23 L13,24 L13,26 L14,26 L16,26 L17,26 L17,26 L17,26 L17,26 L17,26 L18,25 L18,25 L18,25 L18,24 L18,24 L18,24 L18,24 L18,24 L17,24 L17,24 L17,23 L17,23 L17,23 L17,23 L17,23 L16,23 L16,23 L14,23 Z"/></svg>