<svg xmlns="http://www.w3.org/2000/svg" viewBox="0 0 200 45" fill="currentColor"><path d="M161,11 L161,12 L162,12 L162,13 L162,13 L162,14 L162,27 L162,28 L162,29 L162,29 L162,31 L162,31 L162,34 L162,34 L162,35 L162,36 L162,36 L164,36 L164,35 L164,17 L165,17 L166,18 L166,19 L166,19 L167,19 L167,19 L167,19 L167,20 L167,20 L167,20 L169,22 L169,22 L169,22 L169,22 L170,23 L170,23 L171,24 L171,25 L172,25 L172,26 L172,26 L172,26 L173,27 L173,27 L173,27 L173,27 L174,28 L174,28 L175,29 L175,30 L175,30 L175,30 L176,31 L178,32 L178,33 L178,33 L178,33 L179,34 L179,34 L180,35 L180,36 L180,36 L181,37 L182,37 L182,38 L182,37 L182,36 L182,34 L183,26 L183,26 L183,25 L183,25 L183,20 L183,20 L183,18 L183,18 L183,13 L184,13 L185,13 L185,13 L186,13 L186,13 L186,13 L187,13 L188,13 L188,13 L188,35 L188,36 L190,36 L190,36 L192,36 L192,36 L192,34 L192,34 L192,33 L192,33 L192,30 L192,30 L192,24 L192,24 L192,21 L192,20 L193,13 L193,13 L194,13 L194,13 L196,13 L196,13 L199,13 L199,13 L199,12 L199,11 L198,11 L198,11 L181,11 L180,11 L180,13 L180,13 L180,13 L180,30 L180,31 L179,30 L179,29 L178,28 L178,28 L178,28 L178,27 L177,27 L177,27 L177,26 L176,26 L176,25 L176,25 L176,24 L175,24 L175,23 L174,22 L173,21 L172,20 L171,19 L171,18 L171,18 L170,18 L170,17 L170,17 L169,16 L169,16 L168,14 L168,14 L168,14 L167,14 L167,13 L167,13 L167,13 L166,12 L166,12 L166,11 L164,11 L164,11 L162,11 L162,11 Z"/><path d="M111,11 L110,11 L110,15 L110,15 L110,18 L110,18 L110,22 L111,22 L110,22 L110,23 L111,23 L111,28 L111,30 L111,31 L111,32 L111,33 L112,33 L112,34 L113,34 L113,34 L113,35 L114,35 L114,35 L114,36 L115,36 L115,36 L116,36 L117,37 L119,37 L120,37 L120,36 L121,36 L122,36 L122,36 L122,35 L122,35 L123,35 L123,35 L123,34 L124,34 L124,33 L124,33 L125,32 L125,32 L125,31 L125,29 L126,28 L126,24 L126,23 L126,18 L126,18 L126,17 L126,17 L126,14 L127,12 L127,11 L126,11 L126,11 L126,11 L125,11 L125,11 L124,11 L124,11 L124,11 L124,18 L124,18 L124,20 L124,20 L123,31 L123,31 L123,32 L122,32 L122,32 L121,34 L120,34 L120,34 L118,34 L118,34 L117,34 L116,34 L115,33 L114,31 L114,31 L114,30 L114,29 L114,11 L113,11 Z"/><path d="M42,11 L42,11 L42,12 L42,12 L42,14 L42,14 L42,23 L42,23 L42,28 L42,28 L42,31 L43,31 L43,33 L42,33 L43,34 L43,35 L43,35 L45,35 L46,36 L46,35 L46,35 L46,35 L46,11 L46,11 L46,11 Z"/><path d="M130,11 L129,12 L130,12 L130,25 L129,25 L129,27 L129,28 L129,30 L129,30 L129,34 L129,35 L129,35 L129,35 L130,36 L130,36 L132,36 L133,35 L133,35 L133,29 L133,28 L133,25 L133,25 L133,25 L133,25 L133,20 L134,18 L134,15 L134,15 L134,12 L134,12 L137,12 L137,13 L138,13 L138,13 L139,13 L140,14 L140,15 L140,15 L140,16 L141,16 L141,16 L141,17 L141,19 L141,20 L141,20 L140,21 L139,22 L138,22 L138,23 L138,23 L137,23 L137,23 L136,24 L136,24 L135,24 L135,24 L134,25 L134,25 L136,27 L137,28 L142,32 L142,33 L144,34 L144,35 L147,38 L147,38 L148,38 L148,38 L148,39 L149,39 L149,39 L150,39 L150,40 L150,40 L152,40 L152,40 L152,40 L152,40 L149,36 L149,36 L149,36 L160,36 L160,36 L160,35 L161,35 L161,34 L161,33 L160,33 L160,33 L159,33 L159,34 L157,34 L156,34 L156,34 L151,34 L151,34 L151,25 L151,25 L159,25 L159,24 L159,23 L159,22 L151,22 L151,22 L151,13 L151,13 L152,13 L153,13 L155,13 L156,13 L158,14 L159,14 L159,14 L160,13 L159,11 L159,11 L158,11 L158,11 L156,11 L156,11 L151,11 L151,11 L151,11 L150,11 L150,11 L148,11 L148,11 L148,11 L147,11 L147,11 L147,11 L146,12 L147,12 L147,13 L147,14 L147,16 L147,16 L147,34 L147,34 L146,33 L145,32 L145,32 L144,30 L143,30 L143,30 L143,29 L143,29 L142,28 L141,27 L141,27 L141,27 L140,26 L139,25 L139,24 L139,24 L139,24 L142,23 L142,22 L142,22 L143,21 L143,21 L144,20 L144,20 L144,20 L144,19 L144,19 L145,18 L145,18 L145,17 L145,16 L145,15 L144,15 L144,14 L144,14 L144,14 L142,12 L142,12 L142,12 L141,12 L140,11 L140,11 L139,11 L138,11 L137,11 L137,10 L133,10 L133,11 L132,11 L132,11 L130,11 Z"/><path d="M103,10 L102,10 L102,10 L102,11 L101,11 L101,11 L101,12 L101,12 L101,13 L100,13 L100,14 L100,14 L99,15 L99,15 L99,16 L99,16 L99,16 L98,17 L98,17 L98,18 L98,18 L98,18 L97,19 L97,20 L96,21 L96,22 L96,22 L95,23 L95,23 L95,24 L94,24 L94,25 L94,25 L94,26 L94,26 L94,26 L93,27 L93,27 L93,28 L93,28 L92,28 L92,28 L92,29 L92,30 L92,30 L92,30 L91,31 L91,32 L90,32 L90,33 L90,33 L90,33 L89,34 L89,34 L89,34 L89,35 L89,36 L90,36 L90,36 L90,36 L91,36 L91,36 L92,35 L92,35 L92,34 L92,34 L93,34 L93,33 L93,33 L93,32 L94,32 L94,31 L94,31 L94,30 L95,30 L95,30 L95,29 L95,29 L96,28 L96,27 L96,27 L96,26 L97,26 L97,25 L97,25 L103,25 L103,25 L103,26 L104,27 L104,27 L104,28 L104,29 L104,29 L104,30 L105,31 L105,31 L105,32 L105,33 L106,34 L106,34 L106,35 L108,35 L108,36 L109,35 L109,34 L109,33 L108,32 L108,32 L108,31 L108,30 L108,29 L107,29 L107,28 L107,27 L107,26 L106,24 L106,24 L106,23 L106,22 L106,22 L106,20 L105,20 L105,19 L105,19 L105,18 L105,17 L104,16 L104,15 L104,15 L104,14 L104,13 L104,12 L103,11 L103,10 Z"/><path d="M100,17 L101,18 L101,18 L101,19 L101,19 L101,20 L101,20 L102,21 L102,22 L102,22 L102,22 L102,22 L98,22 L98,22 L98,22 L98,22 L99,21 L99,21 L99,20 L99,20 L100,20 L100,19 L100,18 L100,18 L100,18 L100,17 Z"/><path d="M94,2 L94,2 L90,2 L89,2 L89,3 L89,4 L89,6 L89,6 L89,7 L88,8 L88,9 L88,10 L88,10 L88,11 L69,11 L68,11 L68,30 L68,30 L68,30 L67,29 L67,29 L67,29 L66,28 L66,28 L66,28 L66,27 L66,27 L65,26 L64,25 L64,24 L63,24 L63,23 L62,23 L62,23 L62,22 L62,22 L62,22 L62,22 L61,21 L61,20 L60,20 L58,18 L58,17 L58,17 L57,16 L56,15 L55,14 L55,13 L55,13 L55,12 L54,12 L54,11 L53,11 L53,11 L49,11 L49,11 L49,12 L49,12 L49,13 L50,13 L50,13 L50,14 L50,17 L50,17 L50,19 L50,20 L50,22 L50,22 L50,29 L50,29 L50,30 L49,30 L49,34 L49,35 L49,35 L50,35 L50,36 L50,36 L52,36 L52,35 L52,17 L52,16 L56,21 L56,21 L57,22 L58,23 L58,24 L59,24 L59,25 L60,25 L60,26 L60,26 L61,27 L61,27 L61,28 L62,28 L62,29 L65,32 L66,33 L67,34 L67,35 L68,35 L68,35 L68,36 L68,36 L69,36 L69,37 L69,37 L70,37 L70,37 L70,36 L70,36 L70,33 L70,33 L70,29 L71,29 L71,22 L71,22 L71,18 L71,18 L71,13 L72,13 L72,13 L76,13 L76,13 L76,35 L76,36 L79,36 L79,36 L79,35 L79,30 L79,29 L79,26 L80,26 L80,25 L80,25 L80,13 L80,13 L81,13 L81,13 L85,13 L86,13 L87,14 L87,14 L87,14 L87,15 L86,16 L86,16 L86,18 L86,18 L86,19 L85,20 L85,20 L85,22 L85,22 L85,24 L84,24 L84,25 L84,26 L84,27 L84,28 L84,29 L83,30 L83,31 L83,31 L83,31 L83,32 L83,32 L83,33 L82,34 L82,35 L82,36 L82,37 L82,37 L82,39 L81,39 L81,40 L81,42 L81,42 L80,43 L80,43 L81,44 L81,44 L82,44 L82,44 L82,44 L83,44 L84,44 L100,44 L100,44 L102,44 L102,44 L102,44 L103,43 L103,43 L103,42 L104,41 L104,41 L104,41 L104,40 L103,40 L102,41 L100,41 L99,41 L97,41 L97,41 L95,41 L95,42 L92,42 L92,42 L89,42 L89,42 L85,42 L85,42 L85,40 L85,40 L85,40 L85,39 L85,38 L85,38 L86,37 L86,35 L86,34 L87,33 L87,32 L87,31 L87,30 L88,30 L88,28 L88,28 L88,27 L88,26 L88,25 L89,25 L89,23 L89,22 L89,21 L90,21 L90,20 L90,19 L90,19 L90,18 L90,16 L91,16 L91,15 L91,14 L91,13 L92,12 L92,11 L92,10 L92,9 L92,9 L92,8 L93,7 L93,6 L93,5 L93,4 L94,3 Z"/><path d="M22,1 L22,1 L21,1 L20,1 L19,1 L17,1 L17,1 L16,1 L16,1 L14,1 L14,1 L13,2 L13,2 L12,2 L12,2 L11,2 L11,3 L11,3 L10,3 L10,4 L8,5 L8,6 L8,6 L7,6 L7,6 L7,7 L7,7 L6,8 L6,8 L6,9 L6,10 L6,11 L6,12 L6,13 L6,14 L6,15 L6,16 L8,18 L8,18 L9,18 L9,19 L11,21 L11,21 L11,22 L12,22 L13,23 L13,24 L13,24 L14,24 L15,26 L16,27 L17,28 L17,28 L17,28 L17,28 L18,29 L18,29 L19,30 L19,31 L20,31 L20,32 L20,32 L20,33 L20,34 L20,35 L20,35 L20,37 L20,37 L20,38 L20,38 L19,40 L18,41 L17,42 L16,42 L16,42 L15,42 L15,42 L14,43 L14,43 L14,43 L10,43 L10,42 L10,42 L8,42 L8,41 L7,41 L7,41 L6,41 L6,40 L5,40 L5,39 L3,38 L3,37 L2,36 L1,37 L1,38 L1,38 L1,40 L2,41 L3,42 L3,42 L3,42 L4,42 L5,43 L5,43 L6,43 L6,43 L6,44 L7,44 L8,44 L9,44 L9,44 L10,44 L10,45 L15,44 L15,44 L16,44 L17,44 L17,44 L18,43 L18,43 L19,43 L19,42 L19,42 L19,42 L20,42 L21,41 L21,41 L21,41 L22,40 L22,39 L22,39 L22,39 L23,38 L23,38 L23,38 L23,37 L23,37 L23,37 L24,36 L24,36 L24,35 L24,35 L26,33 L26,32 L26,32 L26,31 L26,31 L26,30 L27,30 L27,30 L27,30 L27,29 L28,28 L28,28 L28,27 L28,26 L29,26 L29,25 L29,25 L30,25 L30,25 L31,25 L35,25 L35,26 L35,27 L36,27 L36,29 L36,29 L36,30 L36,30 L37,31 L37,31 L37,32 L37,32 L37,34 L38,34 L38,35 L38,35 L41,35 L41,35 L41,33 L41,33 L41,32 L40,31 L40,30 L40,30 L40,29 L40,28 L40,27 L40,27 L39,27 L39,25 L39,25 L39,24 L38,23 L38,22 L38,22 L38,21 L38,20 L38,19 L37,19 L37,17 L37,17 L37,16 L36,15 L36,14 L36,13 L36,12 L35,12 L35,11 L35,10 L34,11 L34,11 L34,12 L34,12 L33,12 L33,14 L32,14 L32,14 L32,15 L32,15 L32,16 L32,16 L31,16 L31,17 L31,17 L31,18 L30,18 L30,18 L29,20 L29,21 L29,21 L29,21 L28,22 L28,22 L28,22 L28,23 L27,23 L27,24 L27,24 L27,24 L27,25 L26,25 L26,26 L26,26 L26,26 L26,27 L25,27 L25,28 L24,29 L24,30 L24,30 L23,30 L23,30 L23,30 L23,29 L23,29 L23,29 L22,29 L22,28 L21,27 L21,27 L21,26 L20,26 L19,25 L19,24 L19,24 L19,24 L18,22 L18,22 L17,22 L17,22 L16,21 L16,21 L16,20 L16,20 L15,18 L14,18 L14,17 L12,16 L12,15 L12,15 L12,15 L12,14 L11,14 L11,14 L11,13 L11,13 L11,13 L10,12 L10,12 L10,11 L10,8 L10,8 L10,7 L10,7 L11,7 L11,6 L11,6 L12,5 L12,5 L12,4 L14,4 L14,3 L14,3 L15,3 L16,3 L16,2 L20,2 L20,3 L21,3 L22,3 L22,3 L22,4 L23,4 L23,4 L23,4 L24,5 L25,6 L27,7 L27,8 L27,8 L27,8 L28,7 L28,6 L28,5 L28,5 L28,4 L27,3 L26,3 L25,2 L25,2 L24,2 L24,2 L23,1 L23,1 Z"/><path d="M33,18 L33,18 L33,19 L34,20 L34,20 L34,22 L34,22 L34,22 L30,22 L30,22 L30,22 L31,22 L31,21 L31,21 L32,19 L32,19 L32,19 L32,18 Z"/></svg>