<svg xmlns="http://www.w3.org/2000/svg" viewBox="0 0 157 60" fill="currentColor"><path d="M153,49 L153,50 L152,50 L152,50 L152,50 L152,50 L152,50 L152,51 L151,51 L151,51 L151,51 L151,54 L151,54 L151,54 L151,54 L152,54 L152,54 L152,55 L152,55 L152,55 L153,55 L153,55 L154,55 L154,56 L154,56 L154,56 L155,56 L155,57 L155,57 L155,57 L155,57 L155,58 L154,58 L154,58 L154,58 L153,58 L153,58 L153,58 L152,58 L152,58 L151,58 L151,59 L152,59 L152,60 L155,60 L155,59 L156,59 L156,59 L156,59 L156,58 L156,58 L156,58 L157,58 L157,56 L156,56 L156,55 L156,55 L156,55 L156,55 L156,54 L155,54 L155,54 L154,54 L154,54 L154,54 L154,53 L153,53 L153,53 L153,53 L153,53 L153,51 L153,51 L153,51 L155,51 L156,51 L156,51 L156,50 L156,50 L155,49 Z"/><path d="M144,50 L144,50 L144,50 L144,50 L144,50 L144,51 L143,51 L143,51 L143,51 L143,52 L142,52 L142,53 L142,53 L142,56 L142,56 L142,57 L143,57 L143,58 L143,58 L143,58 L144,58 L144,59 L144,59 L144,59 L144,59 L144,59 L145,59 L145,60 L148,60 L148,59 L149,59 L149,58 L148,58 L148,58 L147,58 L147,58 L146,58 L146,58 L145,58 L145,58 L145,58 L145,57 L144,57 L144,57 L144,57 L144,55 L144,55 L150,55 L150,53 L149,53 L149,52 L149,52 L149,51 L149,51 L149,51 L148,51 L148,50 L148,50 L148,50 L147,50 L147,49 L145,49 L145,50 Z"/><path d="M144,52 L144,52 L144,52 L145,52 L145,51 L145,51 L145,51 L147,51 L147,51 L148,51 L148,52 L148,52 L148,54 L148,54 L144,54 L144,54 Z"/><path d="M121,50 L121,52 L121,52 L121,52 L122,52 L122,51 L122,51 L122,51 L124,51 L124,51 L125,51 L125,52 L125,52 L125,53 L125,53 L123,53 L122,54 L122,54 L122,54 L121,54 L121,54 L121,54 L120,55 L120,55 L120,55 L120,55 L120,56 L120,56 L120,58 L120,58 L120,58 L120,58 L120,59 L121,59 L121,59 L121,59 L121,60 L124,60 L124,59 L124,59 L124,59 L125,59 L125,59 L125,59 L125,59 L126,59 L126,60 L127,60 L127,52 L127,52 L127,51 L126,51 L126,51 L126,51 L126,50 L126,50 L126,50 L126,50 L125,50 L124,50 L124,49 L122,49 L122,50 L121,50 L121,50 Z"/><path d="M125,55 L125,55 L125,57 L125,57 L125,58 L125,58 L124,58 L124,58 L124,58 L124,58 L123,58 L122,58 L122,58 L122,58 L122,58 L122,56 L122,56 L122,55 L122,55 L122,55 L123,55 L123,55 L123,55 Z"/><path d="M110,49 L110,50 L110,50 L109,50 L109,50 L108,50 L108,51 L108,51 L108,51 L108,51 L108,51 L107,51 L107,52 L107,52 L107,57 L107,57 L107,58 L108,58 L108,58 L108,58 L108,59 L108,59 L108,59 L109,59 L109,59 L110,59 L110,60 L112,60 L112,59 L114,59 L114,59 L114,59 L114,58 L114,58 L114,58 L113,58 L113,58 L112,58 L112,58 L111,58 L110,58 L110,58 L110,58 L110,58 L110,57 L109,57 L109,57 L109,57 L109,55 L109,55 L114,55 L114,52 L114,52 L114,51 L114,51 L114,51 L113,51 L113,50 L113,50 L113,50 L112,50 L112,50 L112,50 L112,49 Z"/><path d="M109,51 L110,51 L110,51 L111,51 L112,51 L112,51 L112,52 L112,52 L112,53 L112,53 L112,54 L112,54 L109,54 L109,54 L109,52 L109,52 Z"/><path d="M98,49 L98,51 L99,51 L99,52 L99,52 L99,53 L99,53 L99,54 L100,54 L100,55 L100,55 L100,56 L100,56 L100,57 L101,57 L101,59 L101,59 L101,60 L103,60 L103,59 L104,59 L104,58 L104,58 L104,57 L104,57 L104,56 L104,56 L104,54 L105,54 L105,53 L105,53 L105,52 L106,52 L106,51 L106,51 L106,50 L106,50 L106,49 L104,49 L104,50 L104,50 L104,51 L104,51 L104,52 L103,53 L103,54 L103,54 L103,55 L103,55 L103,56 L102,56 L102,57 L102,57 L102,57 L102,56 L102,56 L102,55 L101,55 L101,53 L101,53 L101,52 L100,52 L100,51 L100,51 L100,50 L100,50 L100,49 Z"/><path d="M90,49 L90,50 L90,50 L90,57 L90,57 L90,58 L90,58 L90,59 L91,59 L91,59 L91,59 L91,59 L91,59 L91,60 L94,60 L94,59 L94,59 L94,59 L95,59 L95,59 L95,59 L95,60 L97,60 L97,50 L95,50 L95,57 L95,57 L95,58 L94,58 L94,58 L92,58 L92,58 L92,58 L92,57 L92,57 L92,49 Z"/><path d="M83,49 L83,50 L82,50 L82,50 L82,50 L82,50 L81,50 L81,51 L81,51 L81,51 L81,51 L81,52 L80,52 L80,52 L80,53 L80,56 L80,56 L80,57 L81,57 L81,58 L81,58 L81,58 L81,58 L81,59 L82,59 L82,59 L82,59 L82,59 L82,59 L83,60 L86,60 L86,59 L86,59 L86,59 L86,59 L87,59 L87,59 L87,58 L87,58 L87,58 L88,58 L88,57 L88,57 L88,55 L88,55 L88,54 L88,54 L88,52 L88,52 L88,51 L87,51 L87,51 L87,51 L87,50 L87,50 L86,50 L86,50 L86,50 L85,50 L85,49 Z"/><path d="M83,51 L85,51 L85,51 L85,51 L85,52 L86,52 L86,52 L86,52 L86,54 L86,54 L86,56 L86,56 L86,57 L86,57 L86,58 L85,58 L85,58 L84,58 L84,58 L84,58 L84,58 L83,58 L83,58 L83,58 L82,57 L82,57 L82,56 L82,56 L82,53 L82,52 L82,52 L82,52 L82,51 L83,51 Z"/><path d="M71,49 L71,60 L73,60 L73,52 L73,52 L73,52 L74,52 L74,51 L74,51 L74,51 L76,51 L76,51 L76,51 L76,52 L76,52 L76,60 L78,60 L78,51 L78,51 L78,51 L78,51 L78,50 L77,50 L77,50 L76,50 L76,49 L74,49 L74,50 L74,50 L74,50 L73,50 L73,50 L73,50 L73,50 L73,50 L73,50 L73,49 Z"/><path d="M64,50 L64,50 L64,50 L64,50 L63,50 L63,51 L63,51 L63,51 L63,51 L63,52 L62,52 L62,53 L62,53 L62,56 L62,56 L62,57 L63,57 L63,58 L63,58 L63,58 L63,58 L63,59 L64,59 L64,59 L64,59 L64,59 L65,59 L65,60 L68,60 L68,59 L69,59 L69,58 L68,58 L68,58 L67,58 L67,58 L66,58 L66,58 L65,58 L65,58 L65,58 L65,57 L64,57 L64,56 L64,56 L64,55 L64,55 L70,55 L70,53 L69,53 L69,52 L69,52 L69,51 L69,51 L69,50 L68,50 L68,50 L68,50 L68,50 L67,50 L67,49 L65,49 L65,50 Z"/><path d="M64,52 L65,52 L65,51 L65,51 L65,51 L67,51 L67,51 L67,51 L67,52 L68,52 L68,54 L68,54 L64,54 L64,54 L64,53 L64,52 Z"/><path d="M61,49 L60,49 L60,50 L59,50 L59,50 L59,50 L59,50 L59,50 L59,50 L58,50 L58,49 L57,49 L57,60 L59,60 L59,53 L59,53 L59,52 L59,52 L59,52 L60,52 L60,51 L61,51 Z"/><path d="M138,45 L138,60 L140,60 L140,45 Z"/><path d="M129,45 L129,60 L131,60 L131,59 L131,59 L131,59 L131,59 L132,59 L132,59 L132,59 L132,60 L134,60 L134,59 L135,59 L135,59 L136,59 L136,59 L136,59 L136,58 L136,58 L136,57 L136,57 L136,56 L137,56 L137,53 L136,53 L136,52 L136,52 L136,51 L136,51 L136,51 L136,51 L136,50 L135,50 L135,50 L134,50 L134,49 L132,49 L132,50 L132,50 L132,50 L131,50 L131,50 L131,50 L131,50 L131,45 Z"/><path d="M132,51 L134,51 L134,51 L134,51 L134,52 L134,52 L134,52 L135,53 L135,56 L134,56 L134,57 L134,57 L134,58 L134,58 L134,58 L132,58 L132,58 L132,58 L131,57 L131,57 L131,56 L131,56 L131,53 L131,52 L131,52 L131,52 L132,51 L132,51 Z"/><path d="M116,45 L116,60 L118,60 L118,45 Z"/><path d="M23,32 L22,32 L22,32 L21,32 L21,32 L20,32 L20,32 L19,32 L19,33 L19,33 L19,33 L19,33 L19,34 L18,34 L18,34 L18,34 L18,35 L18,35 L18,35 L18,35 L17,35 L17,35 L17,36 L17,36 L17,36 L16,36 L16,36 L16,36 L16,37 L16,37 L16,37 L15,37 L15,37 L14,37 L14,38 L13,38 L13,38 L12,38 L11,38 L10,38 L9,38 L8,38 L8,38 L8,38 L7,37 L7,37 L7,37 L6,37 L6,38 L7,38 L7,39 L7,39 L7,41 L8,41 L8,43 L8,43 L8,44 L8,44 L8,44 L8,44 L9,44 L9,45 L9,45 L9,45 L10,45 L10,45 L10,45 L10,45 L10,46 L13,46 L13,46 L13,46 L13,46 L17,46 L17,46 L18,46 L18,46 L18,46 L18,45 L19,45 L19,45 L20,45 L20,45 L21,45 L21,44 L21,44 L21,44 L21,44 L21,44 L22,44 L22,43 L22,43 L22,43 L22,43 L22,42 L23,42 L23,42 L23,42 L23,41 L23,41 L23,41 L24,41 L24,40 L24,40 L24,35 L24,35 L24,33 L23,33 L23,33 L23,33 Z"/><path d="M29,32 L29,32 L30,32 L30,33 L30,33 L30,33 L30,33 L30,33 L31,33 L31,34 L31,34 L31,34 L32,34 L32,34 L32,34 L32,35 L32,35 L32,35 L33,35 L33,35 L33,35 L33,36 L33,36 L33,36 L34,36 L34,37 L34,37 L34,37 L34,37 L34,38 L35,38 L35,40 L35,40 L35,41 L35,41 L35,42 L34,42 L34,42 L35,42 L35,43 L35,43 L35,43 L36,43 L36,43 L37,43 L37,44 L37,44 L37,44 L38,44 L38,44 L38,44 L38,45 L39,45 L39,45 L39,45 L39,45 L39,45 L39,46 L40,46 L40,46 L40,46 L40,46 L41,46 L41,47 L42,47 L42,46 L43,46 L43,46 L44,46 L44,46 L44,46 L44,45 L45,45 L45,45 L46,45 L46,45 L46,45 L46,44 L47,44 L47,44 L47,44 L47,42 L47,42 L47,41 L46,41 L46,41 L46,40 L46,40 L46,39 L46,39 L46,39 L45,39 L45,38 L45,38 L45,38 L45,38 L45,37 L44,37 L44,37 L44,37 L44,36 L44,36 L44,36 L43,36 L43,36 L43,36 L43,35 L43,35 L43,35 L42,35 L42,35 L42,35 L42,34 L41,34 L41,34 L41,34 L41,34 L40,34 L40,33 L40,33 L40,33 L39,33 L39,33 L39,33 L39,32 L38,32 L38,32 L37,32 L37,32 L37,32 L37,31 L36,31 L36,31 L35,31 L35,31 L33,31 L33,30 L31,30 L31,31 L30,31 L30,31 L30,31 L30,31 L30,31 L30,32 Z"/><path d="M35,42 L35,42 L35,42 L34,42 Z"/><path d="M109,17 L96,17 L96,37 L102,37 L102,28 L102,28 L108,28 L108,25 L102,25 L102,25 L102,21 L102,21 L109,21 Z"/><path d="M76,17 L76,37 L84,37 L84,37 L87,37 L87,36 L88,36 L88,36 L89,36 L89,36 L90,36 L90,35 L90,35 L90,35 L91,35 L91,35 L91,35 L91,34 L91,34 L91,34 L92,34 L92,34 L92,34 L92,33 L92,33 L92,33 L92,33 L92,32 L93,32 L93,32 L93,32 L93,31 L94,31 L94,30 L94,30 L94,24 L94,24 L94,23 L93,23 L93,22 L93,22 L93,21 L93,21 L92,21 L92,21 L92,20 L92,20 L92,20 L92,20 L92,19 L91,19 L91,19 L91,19 L91,19 L90,19 L90,18 L90,18 L90,18 L89,18 L89,18 L89,18 L88,17 L87,17 L87,17 Z"/><path d="M82,21 L85,21 L85,21 L86,21 L86,21 L86,21 L86,22 L87,22 L87,22 L87,22 L87,22 L87,22 L87,23 L88,23 L88,23 L88,23 L88,24 L88,24 L88,26 L89,26 L89,28 L88,28 L88,30 L88,30 L88,31 L88,31 L88,31 L87,31 L87,32 L87,32 L87,32 L86,32 L86,32 L86,32 L86,33 L84,33 L84,33 L82,33 L82,33 L82,21 Z"/><path d="M62,17 L62,17 L61,17 L61,17 L60,17 L60,18 L60,18 L60,18 L59,18 L59,18 L59,18 L59,19 L58,19 L58,19 L58,19 L58,19 L58,19 L58,20 L57,20 L57,20 L57,20 L57,21 L57,21 L57,22 L56,22 L56,23 L56,23 L56,24 L56,24 L56,30 L56,30 L56,31 L56,31 L56,32 L57,32 L57,33 L57,33 L57,33 L57,33 L57,34 L58,34 L58,34 L58,34 L58,35 L58,35 L58,35 L59,35 L59,35 L59,35 L59,36 L60,36 L60,36 L60,36 L60,36 L61,36 L61,37 L62,37 L62,37 L68,37 L68,37 L70,37 L70,36 L71,36 L71,36 L71,36 L71,36 L72,36 L72,35 L73,35 L73,35 L73,35 L73,35 L74,35 L74,34 L73,34 L73,34 L73,34 L73,33 L73,33 L73,33 L72,33 L72,32 L72,32 L72,31 L72,31 L72,31 L71,31 L71,31 L70,31 L70,32 L70,32 L70,32 L69,32 L69,32 L67,32 L67,33 L65,33 L65,32 L64,32 L64,32 L63,32 L63,32 L63,32 L63,32 L63,31 L62,31 L62,31 L62,31 L62,30 L62,30 L62,28 L62,28 L74,28 L74,24 L73,24 L73,22 L73,22 L73,21 L73,21 L73,21 L72,21 L72,20 L72,20 L72,19 L72,19 L72,19 L71,19 L71,19 L71,19 L71,18 L71,18 L71,18 L70,18 L70,18 L70,18 L70,17 L69,17 L69,17 L68,17 L68,17 L66,17 L66,16 L64,16 L64,17 Z"/><path d="M62,23 L62,23 L62,22 L62,22 L62,22 L63,22 L63,21 L63,21 L63,21 L64,21 L64,21 L65,21 L65,21 L66,21 L66,21 L67,21 L67,22 L67,22 L67,22 L68,22 L68,25 L68,25 L62,25 L62,25 Z"/><path d="M30,21 L30,22 L31,22 L31,23 L31,23 L31,23 L31,23 L31,23 L34,23 L34,23 L36,23 L36,23 L40,23 L40,24 L41,24 L41,24 L42,24 L42,24 L42,24 L42,25 L43,25 L43,25 L43,25 L43,25 L43,25 L43,26 L44,26 L44,27 L44,27 L44,27 L48,27 L48,27 L49,27 L49,26 L49,26 L49,26 L50,26 L50,26 L51,26 L51,25 L51,25 L51,25 L52,25 L52,24 L52,24 L52,22 L52,22 L52,21 L51,21 L51,20 L51,20 L51,20 L51,20 L51,19 L50,19 L50,19 L50,19 L50,19 L50,19 L50,18 L49,18 L49,18 L49,18 L49,18 L48,18 L48,17 L47,17 L47,17 L47,17 L47,17 L45,17 L45,16 L43,16 L43,16 L42,16 L42,16 L38,16 L38,17 L37,17 L37,17 L35,17 L35,17 L35,17 L35,18 L34,18 L34,18 L33,18 L33,18 L33,18 L33,19 L32,19 L32,19 L32,19 L32,19 L31,19 L31,20 L31,20 L31,20 L31,20 L31,21 Z"/><path d="M0,21 L0,22 L1,22 L1,22 L1,23 L1,23 L1,23 L2,23 L2,24 L2,24 L2,24 L2,24 L2,25 L2,25 L2,25 L3,25 L3,25 L3,25 L3,26 L4,26 L4,26 L4,26 L4,26 L5,26 L5,27 L5,27 L6,27 L6,27 L6,27 L7,27 L7,28 L8,28 L8,28 L9,28 L9,28 L11,28 L11,29 L11,29 L11,28 L11,28 L14,28 L14,28 L15,28 L16,28 L16,28 L16,27 L17,27 L17,27 L17,27 L17,27 L18,27 L18,26 L18,26 L18,26 L19,26 L19,26 L19,26 L19,25 L19,25 L19,25 L20,25 L20,24 L20,24 L20,23 L20,23 L20,22 L19,22 L19,21 L19,21 L19,21 L19,21 L19,20 L15,20 L15,21 L12,21 L12,20 L12,20 L12,20 L11,20 L11,20 L10,20 L10,19 L10,19 L10,19 L10,19 L10,19 L9,19 L9,18 L9,18 L9,18 L9,18 L9,17 L8,17 L8,17 L8,17 L8,16 L8,16 L8,16 L7,16 L7,16 L7,15 L7,15 L7,15 L7,14 L6,14 L6,13 L6,13 L6,13 L6,13 L6,14 L5,14 L5,16 L5,16 L4,16 L4,17 L4,17 L4,18 L4,18 L4,18 L3,18 L3,18 L2,18 L2,18 L2,18 L2,19 L2,19 L2,19 L1,19 L1,20 L1,20 L1,21 Z"/><path d="M32,0 L29,0 L29,1 L28,1 L28,1 L27,1 L27,2 L26,2 L26,2 L24,2 L24,2 L22,2 L22,2 L22,2 L22,2 L21,2 L21,2 L21,2 L21,3 L20,3 L20,3 L20,3 L20,3 L20,4 L20,4 L19,4 L19,4 L19,4 L19,4 L19,4 L19,5 L18,5 L18,5 L18,5 L18,6 L18,6 L18,7 L18,7 L18,8 L17,8 L17,9 L18,9 L18,11 L18,11 L18,12 L18,12 L18,12 L18,12 L18,13 L19,13 L19,13 L19,13 L19,14 L19,14 L19,14 L20,14 L20,15 L20,15 L20,15 L20,15 L20,15 L21,15 L21,16 L21,16 L21,16 L22,16 L22,16 L22,17 L22,17 L22,17 L22,17 L22,17 L26,17 L26,17 L27,17 L27,17 L27,17 L27,16 L27,16 L27,16 L28,16 L28,16 L28,15 L28,15 L28,15 L28,13 L29,13 L29,12 L29,12 L29,10 L29,10 L29,10 L30,9 L30,9 L29,9 L29,8 L29,8 L29,8 L29,8 L29,8 L28,7 L28,5 L29,5 L29,4 L29,4 L29,3 L29,3 L29,3 L30,3 L30,2 L30,2 L30,2 L30,2 L30,2 L31,2 L31,1 L32,1 L32,1 L32,1 L32,1 L32,1 Z"/></svg>