<svg xmlns="http://www.w3.org/2000/svg" viewBox="0 0 164 60" fill="currentColor"><path d="M119,19 L119,20 L119,20 L120,22 L121,24 L121,24 L121,24 L121,25 L122,25 L122,26 L122,26 L123,28 L123,28 L123,29 L124,30 L124,30 L124,32 L125,32 L125,32 L125,33 L125,33 L126,35 L126,36 L127,36 L127,36 L127,36 L127,37 L127,37 L128,38 L128,38 L128,39 L128,40 L129,40 L129,41 L130,41 L130,41 L131,40 L131,40 L131,39 L131,39 L132,39 L132,38 L132,38 L132,38 L132,37 L132,36 L133,36 L133,36 L133,35 L133,35 L134,35 L134,34 L134,33 L134,33 L135,32 L135,32 L135,32 L135,31 L135,31 L135,30 L136,30 L136,30 L136,29 L136,29 L136,29 L137,28 L137,28 L137,27 L137,27 L137,26 L138,26 L138,24 L139,24 L139,24 L139,23 L139,22 L140,22 L140,22 L140,22 L140,21 L140,21 L140,20 L140,20 L140,20 L140,19 L137,19 L136,20 L136,20 L136,21 L136,21 L135,22 L135,22 L134,23 L134,24 L134,24 L134,24 L134,24 L134,25 L133,26 L133,27 L132,28 L132,28 L132,29 L132,29 L132,30 L132,30 L131,31 L130,32 L130,33 L130,33 L129,32 L129,31 L129,31 L128,30 L128,29 L127,27 L127,27 L126,26 L126,26 L126,26 L126,25 L126,25 L126,25 L125,24 L125,24 L125,23 L125,23 L125,22 L125,22 L124,22 L124,21 L124,21 L124,21 L124,20 L124,20 L123,19 L120,19 Z"/><path d="M149,19 L149,19 L148,19 L148,20 L147,20 L146,20 L146,21 L145,21 L145,21 L143,23 L143,23 L142,24 L142,24 L142,24 L142,25 L141,26 L141,27 L141,27 L141,28 L141,29 L141,32 L141,32 L141,33 L141,34 L141,34 L142,35 L142,35 L142,36 L144,38 L144,38 L144,38 L144,39 L144,39 L145,39 L147,40 L148,40 L148,41 L149,41 L150,41 L152,41 L152,41 L155,41 L155,41 L156,41 L157,40 L157,40 L158,40 L158,40 L158,40 L159,40 L159,39 L159,39 L160,39 L160,39 L160,39 L160,39 L161,38 L162,36 L162,36 L162,36 L163,36 L163,35 L163,35 L163,34 L160,33 L160,33 L158,36 L157,36 L156,37 L156,37 L156,37 L155,37 L155,38 L154,38 L154,38 L150,38 L150,38 L150,38 L149,37 L149,37 L148,37 L148,37 L148,36 L146,35 L146,35 L146,34 L146,34 L146,34 L145,34 L145,33 L145,33 L145,32 L145,31 L145,31 L163,31 L163,31 L163,27 L163,26 L163,25 L163,25 L162,25 L162,24 L162,24 L161,22 L160,21 L160,21 L159,21 L157,20 L157,20 L156,19 L154,19 L151,19 L151,19 Z"/><path d="M145,27 L145,27 L146,26 L147,25 L148,24 L148,24 L148,24 L149,23 L149,23 L150,23 L150,23 L151,23 L152,22 L153,22 L153,23 L154,23 L155,23 L155,23 L156,23 L156,23 L156,24 L157,24 L158,25 L158,26 L159,26 L159,27 L159,27 L145,27 Z"/><path d="M96,22 L96,23 L95,23 L94,24 L94,25 L94,26 L94,27 L93,27 L93,28 L93,28 L93,29 L93,29 L93,31 L93,31 L93,32 L93,32 L93,33 L94,36 L95,36 L95,36 L95,36 L95,37 L97,39 L97,39 L98,39 L98,39 L98,39 L98,40 L99,40 L99,40 L100,40 L100,40 L100,40 L101,41 L102,41 L102,41 L104,41 L104,41 L107,41 L107,41 L108,41 L109,40 L109,40 L110,40 L110,40 L110,40 L110,40 L111,39 L111,39 L112,39 L112,39 L112,40 L113,41 L113,41 L116,41 L116,41 L116,40 L116,20 L116,19 L114,19 L114,19 L113,19 L112,20 L112,21 L112,22 L111,21 L111,21 L111,20 L110,20 L110,20 L110,20 L109,20 L109,20 L109,19 L107,19 L106,19 L106,19 L102,19 L102,19 L102,19 L102,19 L101,19 L100,20 L100,20 L99,20 L99,20 L97,21 L97,21 L96,22 Z"/><path d="M103,23 L104,23 L104,22 L107,23 L107,23 L107,23 L109,24 L109,24 L109,24 L110,24 L110,24 L111,26 L112,28 L112,29 L112,31 L112,31 L112,32 L112,33 L112,33 L112,34 L111,34 L111,35 L110,36 L109,36 L109,37 L109,37 L108,37 L108,37 L108,37 L107,38 L106,38 L103,38 L103,38 L102,38 L102,37 L102,37 L101,37 L101,37 L101,36 L100,36 L99,35 L98,34 L98,34 L98,33 L98,33 L98,32 L98,32 L97,31 L97,31 L97,30 L97,29 L97,28 L98,28 L98,27 L98,27 L98,26 L98,26 L98,26 L99,25 L100,24 L101,24 L101,24 L102,23 L102,23 Z"/><path d="M87,21 L84,20 L83,20 L83,19 L82,19 L82,19 L80,19 L80,19 L78,19 L78,19 L76,19 L76,19 L75,19 L75,20 L74,20 L74,20 L74,20 L74,20 L72,21 L72,21 L72,22 L71,21 L71,20 L71,19 L71,19 L68,19 L68,19 L67,20 L67,46 L68,46 L69,46 L69,46 L71,46 L71,46 L71,39 L72,39 L72,39 L72,39 L75,40 L75,40 L75,41 L76,41 L76,41 L77,41 L79,41 L79,41 L82,41 L82,41 L83,41 L84,40 L84,40 L84,40 L85,40 L85,40 L85,40 L86,39 L86,39 L87,39 L89,36 L89,36 L89,36 L90,35 L90,34 L90,34 L91,33 L91,32 L91,31 L91,28 L90,26 L89,24 L89,24 L89,24 L88,22 L87,22 Z"/><path d="M77,23 L78,23 L78,22 L81,23 L81,23 L82,23 L82,23 L84,24 L84,24 L84,24 L85,25 L85,26 L85,26 L86,27 L86,28 L86,28 L87,29 L86,32 L86,32 L86,33 L86,33 L86,33 L86,34 L86,34 L85,35 L84,36 L83,36 L83,37 L82,37 L82,37 L82,37 L81,38 L81,38 L80,38 L78,38 L77,38 L76,38 L76,37 L75,37 L75,37 L75,37 L74,36 L73,35 L72,34 L72,34 L72,34 L72,33 L72,33 L71,32 L71,31 L71,31 L71,28 L72,26 L73,25 L75,24 L75,23 L76,23 L76,23 Z"/><path d="M25,1 L24,1 L23,1 L22,2 L22,2 L21,2 L20,2 L20,2 L19,3 L19,3 L18,3 L18,3 L18,3 L17,4 L17,4 L17,4 L16,4 L16,4 L15,4 L15,5 L14,6 L10,8 L8,10 L6,14 L6,14 L5,14 L5,14 L5,15 L4,16 L4,16 L4,16 L3,17 L3,18 L3,18 L3,19 L2,19 L2,20 L2,20 L2,20 L2,21 L2,22 L1,22 L1,24 L1,24 L1,24 L1,26 L1,27 L1,29 L1,29 L1,34 L1,34 L1,36 L1,36 L1,38 L2,38 L2,39 L2,40 L2,40 L2,40 L2,41 L3,42 L3,42 L3,42 L3,42 L4,43 L4,44 L5,45 L5,45 L5,46 L5,46 L6,46 L6,46 L6,48 L7,48 L8,50 L10,52 L11,52 L11,53 L12,53 L12,54 L13,54 L13,54 L14,54 L14,55 L14,55 L15,55 L15,56 L15,56 L17,56 L17,56 L18,57 L18,57 L18,57 L18,57 L19,57 L20,58 L20,58 L20,58 L21,58 L24,59 L24,59 L25,59 L26,59 L26,59 L34,59 L34,59 L35,59 L36,59 L36,59 L37,59 L37,58 L38,58 L39,58 L39,58 L41,57 L42,57 L42,57 L42,57 L42,57 L43,56 L43,56 L44,56 L45,55 L45,55 L46,55 L47,54 L47,54 L48,53 L48,53 L52,50 L52,49 L53,48 L53,48 L54,47 L54,47 L55,46 L56,44 L56,44 L57,41 L58,40 L58,41 L58,42 L58,42 L62,42 L62,42 L62,41 L62,41 L62,19 L62,19 L58,19 L58,19 L58,20 L57,19 L57,18 L56,17 L56,17 L56,17 L56,16 L56,15 L54,13 L52,11 L50,8 L48,7 L48,7 L48,7 L46,5 L45,5 L45,5 L45,5 L45,4 L44,4 L44,4 L44,4 L43,4 L43,4 L42,3 L42,3 L42,3 L41,3 L40,2 L40,2 L40,2 L39,2 L39,2 L38,2 L37,1 L36,1 L36,1 L34,1 L33,1 L27,1 L26,1 Z"/><path d="M47,22 L49,21 L49,21 L50,21 L51,22 L52,22 L53,22 L53,22 L53,22 L54,22 L54,23 L54,23 L55,23 L57,25 L57,26 L58,26 L58,27 L58,27 L58,28 L58,28 L58,32 L58,32 L58,33 L58,33 L58,34 L57,35 L56,36 L56,36 L55,37 L55,37 L54,38 L54,38 L53,38 L53,38 L52,38 L52,38 L50,39 L50,39 L48,39 L47,38 L47,38 L46,38 L46,38 L46,38 L45,38 L45,38 L44,37 L43,36 L42,34 L41,33 L41,31 L41,31 L41,29 L41,29 L41,28 L42,26 L42,26 L43,25 L44,23 L46,22 L46,22 L46,22 L47,22 Z"/></svg>