<svg xmlns="http://www.w3.org/2000/svg" viewBox="0 0 149 60" fill="currentColor"><path d="M103,48 L102,48 L102,48 L102,49 L101,50 L102,51 L102,51 L102,52 L102,52 L103,52 L104,52 L104,53 L104,53 L104,53 L105,54 L104,54 L104,54 L103,54 L103,54 L103,54 L102,54 L102,53 L101,53 L101,54 L101,55 L101,55 L102,55 L102,55 L102,56 L103,56 L105,56 L106,55 L106,55 L106,55 L106,54 L106,53 L106,53 L106,52 L106,52 L105,51 L105,51 L105,51 L104,51 L104,51 L104,51 L103,50 L103,50 L104,49 L104,49 L104,50 L105,50 L105,50 L106,50 L106,50 L106,49 L106,48 L105,48 Z"/><path d="M96,48 L95,49 L95,49 L94,49 L94,50 L94,50 L94,51 L94,51 L94,52 L94,52 L94,52 L94,53 L94,53 L94,54 L94,54 L95,54 L95,55 L96,55 L97,56 L98,56 L99,56 L99,55 L100,55 L100,55 L100,55 L101,55 L101,53 L101,53 L100,53 L100,54 L99,54 L99,54 L97,54 L97,54 L97,54 L96,53 L96,53 L96,52 L96,52 L98,52 L98,52 L100,52 L100,52 L101,52 L101,52 L101,50 L100,50 L100,49 L100,49 L99,48 L98,48 L96,48 Z"/><path d="M96,50 L96,50 L97,49 L98,49 L98,50 L98,50 L98,50 L99,50 L99,51 L99,51 L96,51 Z"/><path d="M72,48 L72,48 L72,55 L73,56 L75,56 L75,55 L75,48 L75,48 Z"/><path d="M56,48 L56,48 L56,48 L55,49 L55,50 L55,50 L54,50 L54,51 L55,51 L55,52 L55,52 L55,52 L56,53 L56,53 L55,54 L55,55 L56,55 L55,55 L55,55 L54,56 L54,58 L54,58 L55,59 L55,59 L56,59 L56,59 L57,59 L59,59 L61,59 L61,59 L61,58 L62,58 L62,58 L62,58 L62,56 L62,56 L62,55 L61,55 L61,55 L60,54 L60,54 L59,54 L58,54 L58,54 L58,54 L60,53 L60,53 L60,53 L61,52 L61,52 L61,52 L62,52 L62,51 L62,50 L62,50 L62,50 L62,50 L62,49 L62,48 L62,48 L56,48 Z"/><path d="M57,57 L57,56 L57,56 L58,56 L59,56 L60,57 L60,57 L59,57 L59,57 L59,58 L57,57 L57,57 Z"/><path d="M58,50 L59,50 L59,50 L59,51 L58,52 L58,52 L57,51 L57,51 L57,50 L57,50 L58,50 Z"/><path d="M136,48 L135,49 L134,50 L134,50 L134,50 L134,51 L134,53 L134,53 L134,54 L134,54 L135,54 L136,55 L137,56 L140,56 L140,55 L141,55 L141,55 L141,55 L142,54 L142,53 L142,53 L141,53 L141,53 L141,53 L141,54 L140,54 L140,54 L138,54 L138,54 L137,54 L137,53 L137,52 L141,52 L142,52 L142,51 L142,50 L142,50 L141,49 L141,49 L141,49 L141,49 L140,48 L140,48 L140,48 L139,48 L139,48 L137,48 L137,48 L136,48 L136,48 Z"/><path d="M137,50 L137,50 L138,49 L138,49 L139,50 L139,50 L139,50 L139,50 L139,51 L137,51 Z"/><path d="M131,48 L131,48 L130,48 L129,48 L128,48 L128,48 L128,48 L128,48 L125,48 L125,48 L125,48 L125,59 L125,59 L127,59 L128,59 L128,56 L128,56 L128,56 L128,56 L129,56 L130,56 L131,55 L132,55 L132,55 L132,54 L132,54 L133,54 L133,53 L133,50 L133,50 L133,50 L132,49 L132,49 L132,49 Z"/><path d="M129,50 L130,50 L130,50 L130,51 L130,53 L130,54 L129,54 L128,54 L128,53 L128,50 L128,50 Z"/><path d="M78,48 L76,50 L76,50 L76,51 L76,51 L76,53 L76,53 L76,54 L77,54 L78,55 L78,55 L78,55 L78,55 L79,56 L79,56 L80,56 L82,56 L83,55 L83,55 L84,55 L84,55 L84,54 L84,54 L84,53 L83,53 L83,54 L82,54 L82,54 L80,54 L79,53 L79,53 L79,53 L79,52 L79,52 L84,52 L84,52 L84,51 L84,51 L84,51 L84,50 L84,50 L84,49 L84,49 L83,49 L83,49 L83,48 L82,48 L82,48 L81,48 L81,48 L79,48 L79,48 L78,48 L78,48 Z"/><path d="M79,50 L80,49 L81,49 L81,50 L82,50 L82,51 L79,51 Z"/><path d="M70,48 L69,48 L69,48 L69,48 L67,48 L67,48 L66,48 L66,48 L66,48 L63,48 L63,48 L63,55 L63,56 L63,56 L65,56 L66,56 L66,55 L66,51 L66,50 L67,50 L67,50 L68,50 L68,50 L68,51 L68,51 L68,51 L68,51 L68,52 L68,56 L68,56 L70,56 L71,55 L71,50 L71,50 L71,49 Z"/><path d="M46,49 L46,50 L47,51 L47,51 L47,50 L47,50 L48,50 L48,50 L48,50 L49,50 L49,50 L50,50 L50,50 L50,51 L50,51 L49,51 L49,51 L48,51 L48,51 L48,52 L47,52 L46,52 L46,52 L46,53 L46,54 L46,55 L46,55 L47,55 L48,56 L49,56 L50,55 L50,55 L51,55 L51,56 L53,56 L54,55 L54,55 L54,55 L54,54 L54,54 L54,54 L53,54 L53,54 L53,50 L53,50 L53,49 L53,49 L53,49 L52,48 L52,48 L51,48 L51,48 L49,48 L48,48 L48,48 L47,48 L47,48 Z"/><path d="M50,52 L50,54 L50,54 L49,54 L49,54 L49,53 L49,52 L50,52 L50,52 Z"/><path d="M44,48 L43,48 L43,48 L41,48 L41,48 L40,48 L40,48 L38,48 L37,48 L37,59 L38,59 L38,59 L40,59 L40,59 L40,56 L40,56 L41,56 L43,56 L43,55 L44,55 L44,55 L45,54 L45,54 L45,53 L45,53 L46,52 L46,51 L45,50 L45,50 L45,50 L45,49 L44,49 Z"/><path d="M41,50 L42,50 L42,50 L42,51 L43,51 L43,52 L42,53 L42,54 L41,54 L40,54 L40,53 L40,50 Z"/><path d="M22,48 L22,49 L22,49 L22,50 L22,50 L22,55 L23,56 L25,56 L25,56 L25,55 L25,55 L25,54 L25,54 L25,54 L25,50 L25,50 L26,50 L26,50 L26,50 L27,50 L28,50 L28,50 L28,50 L28,55 L28,56 L30,56 L30,56 L30,56 L30,56 L31,55 L31,51 L31,50 L32,50 L32,50 L33,50 L33,50 L33,51 L33,55 L34,56 L36,56 L36,55 L36,50 L35,48 L34,48 L34,48 L34,48 L32,48 L32,48 L31,48 L31,48 L31,48 L30,49 L30,49 L30,48 L29,48 L29,48 L28,48 L27,48 L26,48 L26,48 L25,48 L25,48 L25,48 L24,48 L24,48 L24,48 L22,48 Z"/><path d="M16,48 L16,48 L15,48 L15,48 L14,48 L14,49 L13,49 L13,49 L13,50 L13,50 L13,51 L13,53 L13,53 L13,54 L13,54 L14,54 L15,55 L15,55 L16,56 L16,56 L18,56 L19,55 L20,55 L20,55 L21,54 L21,53 L21,53 L21,52 L21,50 L21,50 L21,50 L21,50 L21,49 L20,48 L19,48 L19,48 L18,48 L18,48 Z"/><path d="M17,49 L17,49 L18,50 L18,50 L18,51 L18,53 L18,53 L18,53 L18,54 L16,54 L16,54 L16,53 L16,53 L16,52 L16,52 L16,51 L16,50 L16,50 Z"/><path d="M148,48 L148,48 L147,48 L147,48 L146,48 L146,48 L145,48 L145,48 L144,48 L143,49 L143,49 L143,49 L143,51 L143,51 L143,51 L143,52 L144,52 L144,52 L145,52 L145,53 L145,53 L146,53 L146,53 L146,54 L146,54 L145,54 L145,54 L144,54 L144,53 L143,53 L143,55 L143,55 L144,55 L144,56 L144,56 L144,56 L147,56 L148,55 L148,55 L149,54 L149,52 L148,51 L147,51 L147,51 L146,51 L146,50 L146,50 L145,50 L145,50 L145,49 L146,49 L147,50 L147,50 L148,50 L148,50 L148,50 L148,48 Z"/><path d="M112,44 L112,44 L112,45 L111,45 L111,46 L111,46 L111,47 L111,47 L111,48 L110,48 L110,48 L110,50 L110,50 L109,51 L109,51 L109,52 L109,52 L109,52 L109,53 L108,53 L108,54 L108,54 L108,55 L108,55 L108,55 L108,55 L108,56 L111,56 L111,55 L111,55 L111,54 L111,54 L112,53 L112,53 L113,53 L116,53 L116,54 L116,54 L116,54 L117,55 L117,55 L117,56 L119,56 L120,55 L120,55 L120,55 L120,54 L119,53 L119,53 L119,53 L119,52 L118,51 L118,51 L118,50 L118,50 L118,50 L117,49 L117,49 L117,48 L116,48 L116,47 L116,46 L115,45 L115,44 Z"/><path d="M114,48 L114,48 L114,49 L114,49 L114,50 L115,50 L115,50 L115,51 L115,51 L112,51 L112,51 L112,50 L113,50 L113,49 L113,49 Z"/><path d="M121,44 L121,44 L121,55 L121,56 L123,56 L123,55 L123,44 L123,44 Z"/><path d="M93,44 L92,44 L91,44 L91,45 L91,47 L91,47 L91,48 L89,48 L88,48 L88,48 L88,48 L87,49 L87,50 L87,50 L86,50 L86,53 L87,54 L87,54 L87,54 L87,54 L87,55 L88,55 L88,55 L89,56 L89,56 L93,56 L93,55 L93,55 L93,44 Z"/><path d="M89,50 L90,50 L90,49 L90,49 L91,50 L91,54 L91,54 L89,54 L88,54 L88,53 L88,53 L88,51 L88,51 L88,51 L88,50 Z"/><path d="M3,45 L3,46 L2,46 L1,48 L1,48 L1,49 L1,49 L1,50 L1,51 L1,52 L2,53 L3,54 L3,54 L4,55 L4,55 L5,55 L5,55 L6,56 L8,56 L9,55 L10,55 L10,55 L11,55 L11,55 L11,55 L11,54 L11,52 L11,52 L11,52 L11,52 L10,52 L10,53 L10,53 L9,53 L6,53 L5,53 L4,52 L4,52 L4,51 L4,50 L4,49 L4,48 L5,47 L5,47 L6,47 L6,47 L6,47 L8,47 L8,46 L9,47 L11,48 L11,48 L11,47 L11,46 L11,45 L10,45 L10,44 L9,44 L9,44 L9,44 L6,44 L5,44 L5,44 Z"/><path d="M73,44 L73,44 L73,44 L73,44 L72,44 L72,45 L72,46 L73,47 L73,47 L74,47 L75,46 L75,45 L74,44 L74,44 Z"/><path d="M112,20 L111,20 L110,20 L108,22 L107,22 L106,23 L106,23 L106,24 L106,24 L106,24 L105,24 L105,24 L105,25 L104,25 L104,25 L104,25 L103,26 L103,26 L102,26 L102,27 L102,27 L102,27 L102,28 L101,28 L101,28 L101,28 L100,28 L99,29 L99,29 L99,29 L98,29 L98,29 L98,30 L97,30 L97,30 L97,30 L96,31 L95,31 L95,31 L94,31 L94,31 L94,31 L93,32 L91,32 L91,32 L85,32 L85,32 L84,32 L83,32 L83,31 L82,31 L81,31 L81,31 L80,31 L79,31 L79,30 L79,30 L78,30 L78,30 L78,30 L77,30 L77,29 L77,29 L76,30 L76,31 L76,31 L76,32 L76,32 L76,33 L76,33 L77,34 L77,34 L77,34 L78,35 L78,35 L78,35 L78,35 L78,36 L78,36 L78,36 L79,36 L80,38 L80,38 L81,38 L81,39 L81,39 L82,39 L82,39 L82,39 L81,39 L81,40 L82,40 L82,40 L82,40 L82,40 L83,40 L83,40 L84,41 L85,41 L86,41 L87,41 L89,41 L89,42 L92,42 L92,41 L94,42 L94,41 L95,41 L95,41 L95,41 L95,41 L95,41 L96,40 L96,40 L96,40 L97,40 L98,39 L98,39 L98,39 L99,38 L99,38 L99,38 L99,38 L100,37 L100,36 L100,36 L101,36 L101,36 L102,35 L102,35 L102,35 L102,34 L102,34 L103,34 L103,34 L103,34 L104,34 L104,34 L104,33 L104,33 L106,31 L106,31 L107,30 L107,30 L108,30 L108,30 L108,29 L108,29 L108,29 L107,29 L107,29 L107,29 L108,29 L110,26 L110,26 L110,25 L110,25 L109,25 L110,24 L110,24 L111,24 L111,24 L111,23 L111,23 L111,23 L111,23 L111,22 L111,22 L111,22 L111,22 L111,21 L111,21 L112,20 Z"/><path d="M98,27 L96,23 L95,22 L94,22 L94,21 L94,21 L93,20 L93,19 L92,19 L92,18 L92,18 L92,18 L91,17 L90,16 L90,15 L89,14 L88,14 L88,13 L88,12 L86,11 L85,10 L85,9 L81,5 L81,5 L80,4 L79,3 L78,3 L78,2 L76,1 L75,1 L75,1 L74,2 L72,4 L69,8 L68,8 L67,9 L65,11 L65,12 L64,12 L63,13 L63,14 L62,14 L62,15 L62,15 L61,15 L61,16 L59,16 L59,16 L58,16 L58,16 L58,16 L57,15 L57,15 L56,14 L55,14 L54,12 L53,12 L53,12 L51,12 L50,14 L50,14 L49,15 L48,16 L46,18 L46,18 L45,19 L43,21 L43,22 L42,22 L42,22 L41,23 L40,25 L40,25 L38,27 L38,27 L38,27 L38,29 L38,29 L39,29 L40,28 L40,28 L41,28 L42,28 L43,27 L43,27 L44,27 L44,26 L45,26 L46,26 L47,25 L48,25 L49,26 L50,26 L50,26 L52,25 L53,24 L54,24 L54,25 L55,26 L56,27 L57,27 L57,28 L58,28 L58,28 L60,30 L61,30 L61,30 L63,30 L64,30 L64,30 L65,30 L65,29 L65,29 L66,28 L66,28 L67,27 L68,26 L69,26 L72,22 L75,20 L76,20 L76,20 L77,20 L77,20 L77,20 L78,20 L78,21 L78,21 L78,22 L79,22 L80,23 L82,23 L82,22 L83,22 L83,22 L83,22 L83,22 L84,22 L84,21 L85,21 L85,21 L86,21 L86,22 L87,23 L88,23 L88,23 L89,24 L89,24 L91,25 L91,25 L91,25 L92,25 L92,25 L92,26 L93,26 L94,26 L94,26 L95,26 L96,28 L97,28 L97,28 L98,28 L98,28 Z"/><path d="M76,4 L76,5 L76,7 L76,8 L76,8 L75,8 L75,9 L74,10 L72,12 L72,12 L71,12 L71,12 L70,12 L70,12 L69,12 L69,11 L69,11 L70,10 L70,9 L70,8 L71,8 L71,8 L73,5 L74,5 L74,5 L75,4 L76,4 Z"/></svg>