<svg xmlns="http://www.w3.org/2000/svg" viewBox="0 0 60 60" fill="currentColor"><path d="M0,0 L0,0 L0,60 L1,60 L59,60 L60,60 L60,1 L60,1 L60,0 L60,0 Z"/><path d="M46,21 L46,21 L46,21 L46,22 L46,22 L47,22 L47,22 L47,22 L47,22 L47,22 L47,22 L48,23 L48,24 L49,24 L49,24 L49,24 L49,25 L49,25 L50,25 L50,25 L50,25 L50,26 L50,26 L50,26 L50,26 L50,27 L50,27 L50,27 L50,27 L51,28 L51,32 L50,33 L50,33 L50,33 L50,33 L50,33 L50,34 L50,34 L50,34 L50,34 L50,34 L50,35 L49,36 L48,37 L48,37 L48,37 L47,38 L47,38 L47,38 L46,38 L46,38 L46,38 L46,39 L45,39 L45,39 L45,39 L44,39 L44,39 L44,40 L44,40 L43,40 L43,40 L43,40 L42,40 L41,40 L40,40 L40,40 L40,40 L39,40 L39,40 L38,40 L38,40 L38,39 L38,39 L37,39 L37,39 L36,38 L36,38 L36,38 L36,45 L36,45 L35,45 L35,45 L35,45 L35,45 L34,45 L34,45 L34,46 L33,46 L33,46 L33,46 L33,46 L32,46 L32,46 L32,46 L31,46 L31,46 L31,46 L31,20 L31,20 L31,20 L32,20 L32,20 L32,20 L32,20 L33,20 L33,20 L33,20 L34,19 L34,19 L34,19 L35,19 L35,19 L35,19 L36,19 L36,19 L36,19 L36,22 L36,22 L36,22 L36,21 L36,21 L37,21 L37,21 L37,21 L37,21 L38,21 L38,21 L38,20 L39,20 L39,20 L39,20 L40,20 L40,20 L40,20 L40,20 L40,20 L42,20 L42,20 L43,20 L43,20 L43,20 L44,20 L44,20 L44,21 L44,21 L45,21 L45,21 L45,21 Z"/><path d="M39,24 L39,24 L39,24 L38,25 L38,25 L38,25 L38,25 L37,25 L37,25 L37,26 L36,26 L36,26 L36,27 L36,27 L36,27 L36,27 L35,28 L35,28 L35,28 L35,28 L35,28 L35,29 L35,29 L35,29 L35,30 L35,30 L35,30 L35,31 L35,31 L35,31 L35,32 L35,32 L36,33 L36,33 L36,33 L36,34 L37,34 L37,35 L37,35 L38,35 L38,35 L38,35 L39,36 L39,36 L39,36 L40,36 L40,36 L42,36 L42,36 L42,36 L42,36 L43,36 L43,35 L43,35 L43,35 L44,35 L45,34 L45,34 L46,33 L46,32 L46,32 L46,32 L46,32 L46,31 L46,31 L46,31 L46,29 L46,29 L46,29 L46,28 L46,28 L46,28 L46,28 L46,27 L46,27 L46,27 L45,27 L44,26 L44,26 L44,26 L44,25 L44,25 L43,25 L43,25 L43,24 L42,24 L42,24 L41,24 L41,24 L40,24 L40,24 Z"/><path d="M11,14 L11,14 L12,14 L12,14 L12,14 L13,14 L13,14 L13,13 L14,13 L14,13 L14,13 L15,13 L15,13 L15,13 L15,13 L16,13 L16,13 L16,13 L16,14 L16,32 L16,32 L16,32 L16,32 L16,33 L16,33 L16,33 L16,33 L16,34 L17,35 L17,35 L18,35 L18,35 L18,35 L18,35 L18,35 L19,35 L19,35 L21,35 L21,35 L21,35 L21,35 L22,35 L22,35 L22,35 L23,34 L23,34 L24,33 L24,33 L24,33 L24,32 L24,32 L24,32 L24,31 L24,31 L24,14 L24,14 L24,14 L24,14 L25,14 L25,14 L26,14 L27,13 L27,13 L27,13 L28,13 L28,13 L28,13 L28,13 L28,13 L28,13 L29,13 L29,13 L29,13 L29,15 L29,15 L29,16 L29,16 L29,32 L29,33 L29,33 L28,34 L28,34 L28,34 L28,34 L28,35 L28,35 L28,36 L28,36 L27,37 L27,37 L26,38 L26,38 L26,38 L25,38 L25,38 L25,39 L25,39 L25,39 L24,39 L24,39 L24,39 L24,39 L24,39 L23,39 L23,39 L23,40 L23,40 L22,40 L22,40 L22,40 L21,40 L21,40 L19,40 L18,40 L18,40 L18,40 L17,40 L17,40 L16,40 L16,39 L16,39 L16,39 L15,39 L15,39 L15,39 L14,38 L14,38 L14,38 L13,37 L13,37 L12,37 L12,36 L12,36 L12,36 L12,36 L12,35 L11,35 L11,35 L11,34 L11,34 L11,33 L11,33 L11,33 L11,32 L11,32 L11,32 L11,14 Z"/></svg>