<svg xmlns="http://www.w3.org/2000/svg" viewBox="0 0 200 27" fill="currentColor"><path d="M82,1 L82,2 L82,26 L82,26 L86,26 L86,26 L86,26 L86,15 L87,15 L97,15 L98,15 L98,15 L98,26 L98,26 L99,26 L102,26 L103,26 L103,2 L102,1 L99,1 L98,2 L98,2 L98,11 L98,11 L87,11 L86,11 L86,2 L86,1 L83,1 Z"/><path d="M186,1 L185,2 L185,3 L185,4 L185,4 L185,5 L185,6 L184,6 L184,7 L184,8 L184,9 L183,9 L183,10 L183,10 L183,11 L182,12 L182,12 L182,13 L182,14 L182,14 L182,15 L181,15 L181,16 L181,17 L181,18 L180,18 L180,19 L180,20 L180,20 L180,21 L179,22 L179,22 L179,23 L179,23 L178,24 L178,25 L178,25 L178,26 L178,26 L182,26 L182,26 L182,26 L183,25 L183,24 L183,24 L183,23 L183,22 L183,21 L184,21 L193,20 L193,21 L194,21 L194,22 L194,23 L194,24 L194,24 L194,25 L195,25 L195,26 L195,26 L196,26 L199,26 L199,26 L199,25 L199,25 L199,24 L199,23 L199,23 L198,22 L198,22 L198,21 L198,20 L197,20 L197,19 L197,19 L197,18 L196,17 L196,17 L196,16 L196,15 L196,15 L196,14 L195,14 L195,13 L195,12 L195,12 L194,11 L194,11 L194,10 L194,9 L193,9 L193,8 L193,8 L193,7 L193,7 L192,6 L192,5 L192,4 L192,4 L192,3 L191,3 L191,2 L191,1 L187,1 L187,1 Z"/><path d="M188,7 L189,8 L189,8 L189,9 L189,10 L190,10 L190,11 L190,12 L190,12 L191,13 L191,14 L191,14 L191,15 L191,15 L192,17 L192,17 L192,17 L192,17 L185,17 L185,17 L185,17 L185,16 L185,16 L186,15 L186,14 L186,14 L186,13 L186,12 L186,12 L186,12 L187,11 L187,10 L187,10 L187,9 L188,8 L188,7 Z"/><path d="M150,2 L150,26 L150,26 L153,26 L154,26 L154,26 L154,16 L154,16 L157,16 L157,16 L158,17 L158,17 L158,17 L158,18 L159,18 L159,18 L159,19 L160,20 L161,21 L161,21 L161,22 L162,23 L163,24 L163,24 L163,25 L163,25 L164,26 L164,26 L164,26 L169,26 L169,26 L169,26 L169,25 L168,25 L168,24 L168,24 L168,24 L168,23 L167,23 L167,23 L166,22 L166,21 L166,21 L166,21 L165,20 L165,20 L165,19 L164,19 L164,19 L164,18 L164,18 L163,17 L163,16 L162,16 L162,16 L162,16 L162,15 L162,15 L163,15 L164,13 L164,13 L165,13 L165,12 L165,12 L165,11 L166,10 L166,8 L166,7 L165,7 L165,6 L165,5 L165,5 L164,5 L164,4 L164,4 L164,3 L162,2 L162,2 L161,2 L161,2 L160,2 L160,1 L158,1 L158,1 L154,1 L154,1 L150,1 Z"/><path d="M154,5 L154,5 L158,5 L159,5 L160,5 L161,6 L162,7 L162,8 L162,8 L162,10 L161,10 L161,11 L160,12 L160,12 L159,12 L158,12 L157,13 L154,13 L154,12 Z"/><path d="M66,2 L65,1 L64,1 L63,1 L63,1 L56,1 L55,1 L55,2 L55,25 L55,25 L55,26 L55,26 L55,26 L59,26 L59,26 L59,18 L59,17 L60,17 L65,17 L66,16 L67,16 L67,16 L68,16 L68,16 L68,15 L69,15 L69,15 L70,14 L71,12 L71,12 L72,11 L72,10 L72,9 L72,6 L71,5 L71,4 L70,3 L68,2 L68,2 L68,2 L67,2 Z"/><path d="M60,5 L63,5 L64,5 L65,5 L65,5 L66,6 L66,6 L67,6 L67,6 L67,7 L68,7 L68,8 L68,8 L68,10 L67,12 L66,12 L66,12 L66,13 L64,13 L63,13 L60,13 L59,13 L59,5 Z"/><path d="M26,2 L26,21 L26,21 L26,26 L26,26 L27,26 L42,26 L42,26 L42,25 L42,23 L42,23 L42,23 L31,23 L31,22 L31,16 L31,16 L31,15 L31,15 L38,15 L39,14 L39,12 L38,11 L38,11 L32,11 L31,11 L31,5 L31,5 L42,5 L42,4 L42,2 L42,1 L42,1 L27,1 Z"/><path d="M7,1 L6,1 L5,1 L4,1 L4,2 L4,2 L3,2 L3,2 L3,2 L2,3 L2,4 L2,4 L1,4 L1,4 L1,5 L1,6 L1,10 L1,11 L1,11 L1,12 L2,12 L2,12 L2,12 L3,14 L4,14 L4,14 L4,14 L5,15 L6,15 L6,15 L6,15 L7,16 L8,16 L8,16 L8,16 L9,17 L9,17 L9,17 L10,18 L10,18 L11,18 L11,19 L11,19 L11,21 L11,21 L11,22 L10,22 L10,23 L9,23 L8,23 L6,23 L5,23 L4,23 L4,22 L4,22 L3,22 L2,22 L2,22 L2,22 L2,22 L1,22 L1,23 L1,23 L1,24 L1,25 L1,25 L2,26 L2,26 L3,26 L4,26 L4,27 L6,27 L6,27 L10,27 L10,26 L11,26 L11,26 L12,26 L12,25 L12,25 L14,24 L14,23 L15,23 L15,22 L15,22 L15,20 L15,20 L15,19 L15,17 L15,17 L14,16 L14,16 L14,15 L14,15 L14,15 L13,14 L12,14 L12,14 L12,14 L12,13 L12,13 L11,13 L11,13 L10,12 L9,12 L9,12 L8,11 L8,11 L8,11 L7,10 L6,10 L5,9 L5,8 L5,6 L5,6 L6,5 L7,5 L7,4 L10,5 L11,5 L11,5 L12,6 L12,6 L12,6 L13,6 L13,5 L13,4 L14,4 L14,4 L14,3 L14,2 L13,2 L13,2 L12,1 L12,1 L11,1 L9,1 L9,1 Z"/><path d="M122,1 L121,1 L120,2 L120,2 L120,2 L119,2 L119,2 L118,3 L118,3 L116,5 L116,5 L115,6 L115,6 L115,7 L115,7 L114,8 L114,9 L113,9 L113,11 L113,11 L113,12 L113,12 L113,16 L113,16 L113,17 L113,17 L114,18 L114,18 L114,19 L114,20 L114,20 L115,20 L115,21 L115,22 L116,22 L116,22 L116,23 L117,24 L118,24 L118,25 L119,25 L119,25 L120,25 L120,26 L121,26 L121,26 L122,26 L122,27 L124,27 L124,27 L128,27 L129,27 L130,27 L130,26 L131,26 L132,26 L132,26 L132,25 L133,25 L136,23 L137,21 L137,21 L138,20 L138,19 L139,18 L139,17 L139,15 L139,15 L139,13 L139,12 L139,10 L139,10 L138,9 L138,8 L138,8 L138,7 L137,7 L137,6 L136,5 L134,3 L134,3 L134,3 L134,3 L133,2 L133,2 L132,1 L131,1 L130,1 L129,1 L128,1 L124,1 L123,1 L123,1 Z"/><path d="M124,5 L128,5 L129,5 L130,5 L130,6 L130,6 L131,6 L131,6 L133,8 L133,8 L133,8 L133,8 L134,9 L134,9 L134,10 L134,10 L134,11 L134,12 L135,14 L134,15 L134,16 L134,17 L134,17 L134,18 L134,19 L133,19 L133,19 L132,20 L132,20 L131,22 L130,22 L130,22 L129,22 L129,23 L128,23 L127,23 L125,23 L124,23 L123,23 L123,22 L122,22 L122,22 L121,22 L121,21 L120,20 L118,18 L118,18 L118,17 L118,15 L117,15 L117,13 L118,12 L118,11 L118,10 L118,9 L119,9 L119,9 L119,8 L119,8 L121,6 L122,6 L123,5 L123,5 Z"/></svg>