<svg xmlns="http://www.w3.org/2000/svg" viewBox="0 0 142 60" fill="currentColor"><path d="M57,53 L57,54 L57,54 L61,54 L61,54 L62,54 L63,54 L63,53 L62,52 L58,52 L58,52 L58,52 L58,52 Z"/><path d="M130,46 L130,46 L130,59 L130,59 L130,59 L131,60 L132,59 L132,59 L132,59 L132,59 L132,51 L132,50 L133,51 L133,51 L134,52 L134,52 L134,52 L134,52 L134,53 L134,53 L135,54 L135,54 L135,54 L135,54 L135,54 L136,55 L137,57 L137,57 L138,57 L138,58 L138,58 L138,58 L139,59 L139,59 L139,59 L140,60 L140,60 L141,59 L141,59 L141,59 L141,46 L141,46 L141,46 L140,46 L140,45 L139,46 L139,46 L139,46 L139,54 L138,54 L138,54 L138,54 L138,54 L138,53 L137,53 L137,52 L137,52 L137,52 L136,52 L136,51 L136,51 L135,50 L135,50 L135,49 L134,49 L134,48 L134,48 L133,47 L133,47 L132,46 L132,46 L132,45 L131,45 L130,46 Z"/><path d="M124,45 L124,46 L124,46 L124,47 L124,48 L124,58 L124,58 L124,59 L124,59 L125,60 L126,59 L126,59 L126,46 L125,45 Z"/><path d="M114,45 L114,46 L114,46 L114,46 L113,47 L113,47 L113,47 L113,48 L113,48 L112,48 L112,49 L112,49 L112,50 L112,50 L112,50 L112,51 L112,51 L111,51 L111,52 L111,52 L111,52 L111,53 L111,53 L110,53 L110,54 L110,54 L110,54 L110,55 L110,55 L109,56 L109,56 L109,56 L109,57 L109,57 L109,57 L108,58 L108,58 L108,58 L108,59 L109,59 L109,60 L110,60 L110,59 L111,59 L111,58 L111,58 L111,58 L111,57 L111,57 L112,57 L112,56 L112,56 L118,56 L118,56 L118,57 L118,57 L119,57 L119,58 L119,58 L119,59 L119,59 L120,59 L120,60 L121,59 L121,59 L122,59 L122,59 L122,58 L122,58 L122,58 L121,57 L121,57 L121,56 L121,56 L121,56 L121,56 L120,55 L120,55 L120,54 L120,54 L120,54 L120,54 L119,53 L119,53 L119,52 L119,52 L119,52 L119,52 L118,51 L118,51 L118,50 L118,50 L118,50 L118,49 L117,49 L117,48 L117,48 L117,48 L117,48 L117,47 L116,47 L116,47 L116,46 L116,46 L116,46 L115,45 Z"/><path d="M115,49 L115,50 L115,50 L115,50 L116,51 L116,51 L116,52 L116,52 L116,52 L116,53 L117,53 L117,53 L117,53 L116,53 L116,53 L113,53 L113,53 L113,53 L114,52 L114,52 L114,52 L114,52 L114,51 L114,51 L114,50 L114,50 Z"/><path d="M96,46 L96,46 L96,59 L96,59 L97,59 L103,59 L103,59 L104,59 L105,59 L105,59 L105,59 L106,58 L107,57 L107,57 L107,56 L107,56 L107,56 L107,54 L106,53 L106,52 L106,51 L106,51 L106,51 L107,49 L106,48 L106,48 L106,47 L105,46 L104,46 L104,46 L103,46 L103,46 L102,46 L102,45 L97,45 Z"/><path d="M99,54 L99,54 L102,53 L102,54 L103,54 L103,54 L104,54 L105,54 L105,56 L104,56 L104,56 L103,57 L99,57 L99,57 Z"/><path d="M99,48 L99,48 L103,48 L104,48 L104,48 L104,49 L104,50 L104,50 L104,51 L103,51 L103,51 L102,51 L102,51 L99,51 L99,51 Z"/><path d="M86,45 L86,46 L86,46 L85,46 L85,46 L84,46 L84,46 L83,46 L83,47 L83,47 L83,47 L82,47 L82,48 L82,48 L81,48 L81,48 L81,48 L81,48 L81,49 L81,49 L80,49 L80,50 L80,50 L80,51 L80,52 L80,53 L80,54 L80,55 L80,55 L81,56 L81,56 L81,57 L82,58 L83,58 L83,58 L84,58 L84,59 L84,59 L85,59 L86,59 L86,59 L87,60 L87,59 L88,59 L88,59 L89,59 L89,59 L90,59 L90,58 L90,58 L91,58 L92,58 L93,56 L93,56 L93,56 L93,56 L94,55 L94,55 L94,54 L94,54 L94,53 L94,52 L94,51 L94,50 L94,50 L94,50 L93,49 L93,49 L93,49 L93,48 L92,47 L91,47 L91,47 L90,46 L89,46 L89,46 L88,46 L88,45 Z"/><path d="M86,48 L88,48 L88,48 L89,48 L89,49 L90,49 L91,50 L91,50 L91,51 L92,51 L92,53 L92,53 L92,54 L91,54 L91,54 L91,54 L91,55 L91,55 L90,56 L90,56 L90,56 L89,56 L89,56 L89,56 L88,57 L86,57 L85,57 L85,56 L85,56 L85,56 L84,56 L84,56 L83,55 L83,55 L83,54 L83,54 L82,54 L82,52 L82,52 L82,51 L83,51 L83,50 L83,50 L83,49 L84,49 L84,49 L85,48 Z"/><path d="M72,45 L72,46 L71,46 L71,46 L70,46 L70,46 L70,46 L69,46 L69,46 L69,47 L68,47 L68,47 L67,48 L67,48 L66,48 L66,49 L66,49 L66,50 L66,50 L66,50 L65,51 L65,54 L66,55 L66,55 L66,55 L66,56 L66,56 L66,56 L67,56 L67,57 L67,57 L68,58 L68,58 L69,58 L69,58 L70,59 L70,59 L70,59 L71,59 L71,59 L72,59 L72,60 L73,60 L74,59 L74,59 L75,59 L76,59 L76,58 L77,58 L77,58 L77,58 L78,57 L78,57 L78,52 L78,52 L77,52 L74,52 L73,52 L73,54 L74,54 L75,54 L75,54 L75,56 L75,56 L75,56 L74,56 L74,57 L73,57 L73,57 L71,57 L71,56 L70,56 L70,56 L70,56 L69,55 L68,54 L68,54 L68,53 L68,52 L68,52 L68,51 L69,50 L70,49 L70,49 L70,48 L71,48 L71,48 L72,48 L72,48 L74,48 L74,48 L75,48 L75,49 L75,49 L76,49 L76,49 L77,49 L78,48 L78,48 L78,48 L77,47 L77,47 L76,47 L76,46 L76,46 L76,46 L75,46 L74,46 L74,46 L74,46 Z"/><path d="M47,46 L47,46 L46,46 L46,47 L47,47 L47,48 L47,48 L48,48 L48,48 L48,48 L48,48 L50,48 L50,48 L51,48 L51,59 L51,59 L51,59 L52,60 L52,59 L53,59 L53,48 L53,48 L56,48 L56,48 L57,48 L57,47 L57,46 L57,46 L57,46 L56,45 L47,45 Z"/><path d="M34,46 L33,46 L33,59 L34,59 L34,60 L35,59 L36,59 L36,58 L36,58 L36,51 L36,50 L36,51 L36,51 L36,51 L36,51 L37,52 L37,52 L37,52 L37,52 L38,53 L38,53 L38,54 L38,54 L39,54 L39,54 L39,54 L39,55 L40,55 L40,56 L40,57 L40,57 L41,58 L42,58 L42,58 L42,59 L42,59 L42,59 L42,59 L43,59 L43,60 L44,60 L44,59 L44,59 L44,58 L45,58 L44,46 L44,46 L43,45 L42,46 L42,46 L42,46 L42,54 L42,54 L42,54 L42,54 L41,54 L41,53 L41,52 L40,52 L40,52 L40,52 L40,51 L39,51 L39,51 L39,50 L39,50 L38,49 L38,49 L37,48 L36,46 L35,45 L35,46 L34,45 Z"/><path d="M29,45 L28,46 L28,45 L28,46 L27,46 L27,46 L27,46 L27,59 L27,59 L27,59 L28,59 L28,60 L29,59 L29,59 L29,59 L30,59 L30,46 L29,46 Z"/><path d="M18,45 L17,46 L17,47 L17,47 L17,47 L16,48 L16,48 L16,48 L16,49 L16,49 L16,49 L15,50 L15,50 L15,50 L15,51 L15,52 L14,52 L14,53 L14,54 L14,54 L13,55 L13,55 L13,55 L13,56 L12,56 L12,56 L12,57 L12,57 L12,57 L12,58 L12,58 L12,59 L12,59 L14,59 L14,59 L14,59 L14,58 L14,58 L14,58 L15,57 L15,57 L15,57 L15,56 L16,56 L21,56 L22,57 L22,57 L22,57 L22,58 L22,58 L22,58 L23,59 L23,59 L23,59 L24,60 L25,59 L25,59 L25,59 L25,58 L25,58 L25,57 L24,57 L24,56 L24,56 L24,56 L24,55 L24,55 L24,55 L23,54 L23,54 L23,54 L23,53 L23,53 L23,53 L22,52 L22,52 L22,52 L22,51 L22,51 L22,50 L22,50 L21,50 L21,49 L21,49 L21,49 L21,48 L21,48 L20,48 L20,47 L20,47 L20,47 L20,46 L20,46 L19,46 L19,45 Z"/><path d="M18,50 L19,50 L19,50 L19,50 L19,50 L19,51 L19,51 L20,52 L20,52 L20,52 L20,53 L20,53 L20,53 L17,53 L17,53 L17,53 L17,53 L17,52 L17,52 L17,52 L17,52 L17,51 L18,50 L18,50 Z"/><path d="M5,45 L5,46 L5,46 L4,46 L4,46 L3,46 L3,46 L3,46 L3,46 L2,47 L2,47 L2,48 L1,48 L1,49 L1,49 L1,50 L1,50 L2,51 L2,51 L3,52 L3,52 L4,53 L4,53 L4,53 L5,53 L5,53 L6,53 L6,54 L7,54 L7,54 L7,54 L8,54 L8,55 L8,56 L8,56 L8,56 L7,57 L5,57 L4,56 L4,56 L4,56 L3,56 L3,56 L3,56 L3,56 L2,56 L2,55 L2,55 L1,56 L1,56 L1,57 L1,57 L1,58 L2,58 L2,58 L2,58 L2,58 L2,58 L3,59 L3,59 L4,59 L5,59 L5,59 L6,60 L8,59 L8,59 L9,59 L9,59 L9,59 L10,58 L11,57 L11,55 L11,55 L11,54 L10,53 L10,53 L9,52 L9,52 L9,52 L9,52 L8,52 L8,52 L8,52 L7,51 L7,51 L6,51 L6,51 L5,51 L5,50 L4,50 L4,50 L4,50 L4,50 L4,49 L4,49 L4,48 L5,48 L5,48 L8,48 L8,48 L8,48 L8,49 L9,49 L9,49 L10,49 L10,49 L10,48 L10,48 L10,48 L10,47 L9,46 L9,46 L8,46 L8,46 L7,46 L7,46 L7,45 Z"/><path d="M123,39 L123,39 L123,39 L123,38 L114,38 L108,32 L107,32 L107,32 L106,31 L106,31 L105,30 L104,31 L104,31 L104,32 L104,38 L104,38 L102,38 L102,38 L102,21 L102,21 L100,19 L100,19 L99,18 L97,16 L96,15 L96,15 L95,15 L95,15 L95,14 L91,14 L90,15 L90,15 L90,15 L90,16 L90,16 L90,16 L90,16 L90,18 L90,18 L90,20 L90,20 L90,38 L90,38 L90,38 L88,38 L88,38 L88,38 L88,38 L88,37 L88,37 L88,3 L88,3 L88,2 L88,2 L88,2 L88,1 L88,1 L87,0 L87,0 L86,1 L86,1 L81,6 L80,6 L80,7 L80,7 L80,7 L78,8 L78,8 L78,9 L78,9 L77,9 L76,11 L76,11 L76,11 L75,12 L75,12 L75,12 L75,20 L75,20 L75,20 L74,20 L74,20 L74,20 L74,19 L74,19 L73,19 L73,19 L73,19 L73,18 L72,18 L72,18 L72,18 L72,18 L71,17 L70,17 L68,19 L68,19 L67,19 L67,20 L67,20 L66,20 L66,20 L65,20 L65,21 L64,21 L64,22 L64,22 L63,22 L63,22 L63,22 L62,23 L62,23 L62,24 L61,24 L61,24 L61,24 L60,25 L60,25 L59,26 L59,26 L59,38 L59,38 L58,38 L57,38 L57,38 L57,38 L57,31 L57,31 L57,30 L57,30 L57,29 L57,29 L57,29 L56,28 L55,28 L55,27 L55,27 L54,27 L54,27 L54,27 L53,26 L52,26 L52,27 L51,27 L51,27 L51,27 L50,27 L50,27 L50,27 L50,28 L50,28 L49,28 L49,28 L48,28 L48,29 L48,29 L48,30 L48,30 L48,31 L48,38 L48,38 L46,38 L46,38 L46,33 L46,33 L46,32 L45,32 L45,32 L45,32 L45,31 L44,31 L44,31 L44,30 L44,30 L43,30 L43,30 L42,30 L41,30 L41,30 L40,30 L40,30 L39,31 L39,31 L39,31 L39,32 L38,32 L38,32 L38,33 L38,33 L38,33 L38,38 L38,38 L37,38 L36,38 L36,38 L36,38 L36,35 L36,34 L36,34 L35,33 L34,33 L34,33 L34,33 L34,33 L32,33 L31,33 L30,34 L30,34 L29,35 L29,35 L29,35 L29,38 L29,38 L29,38 L19,38 L19,39 L19,39 L19,39 L18,40 L19,41 L31,41 L31,40 L32,40 L32,40 L32,36 L32,35 L33,35 L34,36 L34,40 L34,41 L35,41 L35,41 L39,41 L39,41 L40,41 L40,40 L40,40 L40,33 L40,33 L41,33 L41,32 L42,32 L42,32 L43,33 L43,34 L43,34 L43,40 L43,40 L44,41 L45,41 L49,41 L49,41 L49,41 L50,41 L50,40 L50,40 L50,36 L50,36 L50,31 L50,31 L50,31 L50,30 L50,30 L51,29 L52,29 L52,29 L53,29 L53,29 L54,29 L54,30 L54,30 L55,31 L55,31 L55,40 L55,40 L56,41 L57,41 L57,41 L60,41 L61,41 L61,41 L62,40 L62,39 L62,39 L62,39 L62,38 L62,38 L62,27 L62,26 L62,26 L63,26 L64,25 L64,25 L64,25 L64,25 L65,24 L65,24 L66,24 L66,23 L66,23 L67,23 L67,22 L69,21 L69,21 L69,21 L70,20 L70,20 L70,20 L70,20 L71,20 L71,20 L72,21 L72,21 L72,21 L73,22 L74,22 L74,23 L75,23 L75,23 L75,24 L75,40 L75,40 L76,41 L77,41 L81,41 L81,41 L81,41 L82,40 L82,40 L82,40 L82,26 L82,25 L81,25 L81,25 L81,24 L80,24 L80,24 L80,24 L80,24 L79,23 L78,23 L78,23 L78,22 L78,22 L78,22 L78,13 L78,13 L78,12 L78,12 L79,12 L79,12 L79,11 L80,11 L80,11 L85,5 L86,5 L86,40 L86,40 L86,40 L86,40 L86,41 L87,41 L91,41 L92,41 L92,40 L92,40 L92,40 L92,17 L93,17 L94,17 L95,18 L95,18 L95,18 L96,19 L97,19 L97,20 L98,21 L100,22 L100,38 L99,38 L99,39 L100,39 L100,40 L100,41 L100,41 L101,41 L105,41 L106,41 L106,40 L106,40 L106,40 L106,35 L107,35 L112,40 L113,41 L123,41 L123,40 Z"/><path d="M78,26 L79,26 L79,26 L79,26 L79,27 L79,38 L79,38 L78,38 L78,38 L78,26 Z"/></svg>