<svg xmlns="http://www.w3.org/2000/svg" viewBox="0 0 100 60" fill="currentColor"><path d="M92,48 L91,48 L91,49 L91,49 L91,50 L91,50 L92,50 L92,51 L92,51 L94,51 L94,51 L94,58 L94,59 L94,59 L95,59 L95,60 L96,59 L96,59 L97,58 L97,51 L97,51 L98,51 L99,50 L100,50 L100,50 L100,49 L99,48 L99,48 L99,48 L99,48 Z"/><path d="M63,48 L63,48 L58,48 L58,48 L58,48 L58,48 L57,49 L57,49 L57,49 L57,58 L58,59 L58,59 L58,59 L58,59 L58,60 L60,59 L60,59 L60,58 L60,58 L60,56 L60,56 L63,56 L64,56 L64,55 L64,55 L64,55 L65,55 L65,54 L65,54 L65,54 L66,53 L66,53 L66,52 L66,52 L66,52 L66,51 L66,51 L66,50 L65,50 L65,50 L65,50 L65,50 L65,49 L64,49 L64,49 L64,48 L63,48 Z"/><path d="M60,51 L62,51 L62,51 L63,51 L63,52 L62,53 L62,53 L60,53 L60,53 L60,51 Z"/><path d="M40,48 L40,48 L39,49 L39,49 L39,58 L39,59 L40,59 L40,60 L41,60 L42,59 L42,59 L42,58 L42,49 L42,48 L42,48 L41,48 L41,48 Z"/><path d="M27,48 L27,49 L27,49 L27,58 L27,59 L27,59 L28,60 L32,60 L32,59 L33,59 L33,59 L33,59 L34,59 L34,59 L35,58 L35,57 L36,57 L36,57 L36,56 L36,55 L36,55 L36,53 L36,52 L36,52 L36,52 L36,51 L36,51 L36,50 L36,50 L35,50 L35,50 L34,49 L34,49 L33,48 L33,48 L33,48 L32,48 L28,48 Z"/><path d="M30,51 L31,51 L32,51 L32,51 L33,51 L33,52 L33,52 L33,52 L33,52 L33,53 L33,55 L33,55 L33,55 L33,56 L33,56 L32,57 L30,57 L30,57 L30,51 Z"/><path d="M18,48 L18,48 L17,48 L17,48 L17,49 L17,49 L17,58 L17,59 L18,59 L23,59 L23,59 L23,59 L24,59 L24,58 L24,58 L24,57 L23,57 L23,57 L23,57 L22,57 L20,57 L20,57 L20,55 L20,55 L22,55 L23,55 L23,55 L23,54 L23,54 L23,54 L23,53 L23,53 L22,52 L22,52 L20,52 L20,52 L20,51 L20,51 L22,51 L22,51 L23,50 L23,50 L23,50 L23,50 L24,50 L24,49 L23,48 L22,48 Z"/><path d="M3,48 L2,49 L2,49 L2,50 L2,50 L1,51 L1,52 L1,53 L1,54 L1,55 L1,56 L0,57 L0,57 L0,58 L0,59 L1,59 L1,59 L2,60 L2,59 L2,59 L3,59 L3,59 L3,58 L3,58 L3,56 L4,56 L4,54 L4,54 L4,54 L4,55 L4,55 L5,56 L5,56 L5,56 L5,57 L5,57 L5,58 L5,58 L6,59 L6,59 L6,59 L6,60 L8,59 L8,59 L8,58 L8,58 L9,58 L9,57 L9,57 L9,56 L9,56 L9,55 L10,55 L10,54 L10,54 L10,55 L10,56 L10,57 L10,58 L11,59 L11,59 L12,60 L13,60 L13,59 L14,59 L14,58 L14,58 L14,58 L14,57 L13,57 L13,56 L13,55 L13,54 L13,53 L13,52 L12,51 L12,50 L12,50 L12,49 L12,48 L11,48 L11,48 L10,48 L9,48 L9,48 L9,49 L9,49 L8,50 L8,50 L8,51 L8,51 L8,52 L8,52 L7,53 L7,53 L7,54 L7,53 L6,53 L6,52 L6,52 L6,51 L6,50 L6,50 L6,50 L6,49 L5,49 L5,48 L5,48 L4,48 L3,48 Z"/><path d="M87,48 L87,48 L86,48 L85,48 L85,48 L84,48 L84,48 L84,48 L83,48 L83,48 L82,49 L82,49 L81,50 L81,50 L81,51 L81,52 L81,53 L81,53 L82,53 L82,53 L82,54 L82,54 L83,54 L83,54 L83,54 L83,54 L84,55 L84,55 L85,55 L85,55 L86,55 L86,55 L86,56 L86,56 L86,56 L86,57 L86,57 L85,57 L85,57 L84,57 L83,56 L83,56 L82,56 L81,56 L81,57 L81,57 L81,57 L81,58 L82,59 L83,59 L83,60 L84,60 L86,60 L86,60 L87,59 L88,59 L89,58 L89,58 L89,57 L89,57 L89,57 L89,56 L89,56 L89,55 L89,54 L88,53 L88,53 L87,53 L87,52 L86,52 L86,52 L86,52 L85,52 L84,51 L84,51 L84,51 L85,50 L85,50 L86,51 L87,51 L87,51 L88,51 L88,50 L89,50 L88,49 L88,48 Z"/><path d="M71,48 L71,48 L70,48 L70,48 L70,49 L69,49 L68,50 L68,50 L68,50 L68,51 L68,51 L68,52 L68,52 L67,53 L67,53 L67,54 L67,54 L67,54 L67,55 L68,55 L68,56 L68,56 L68,56 L68,57 L68,57 L68,58 L69,58 L69,58 L70,59 L70,59 L70,59 L70,59 L71,59 L72,60 L72,60 L74,60 L74,60 L75,59 L76,59 L76,59 L76,59 L76,59 L76,59 L77,58 L78,58 L78,57 L78,57 L78,57 L78,57 L78,56 L78,56 L78,55 L79,55 L79,54 L79,54 L79,53 L79,53 L79,52 L78,52 L78,52 L78,51 L78,50 L78,50 L77,50 L76,49 L76,49 L76,48 L76,48 L75,48 L74,48 L74,48 L74,48 L73,48 L72,48 L72,48 L72,48 L72,48 Z"/><path d="M72,50 L74,50 L74,51 L74,51 L75,51 L75,52 L75,52 L75,52 L75,54 L75,54 L75,55 L75,55 L75,56 L74,57 L74,57 L73,57 L73,57 L73,57 L72,57 L71,56 L71,55 L71,55 L70,54 L70,54 L70,54 L70,52 L71,52 L71,52 L71,52 L71,52 L72,51 L72,51 L72,51 L72,51 Z"/><path d="M49,48 L49,48 L48,48 L48,49 L48,49 L48,49 L48,50 L47,50 L47,51 L47,51 L47,51 L47,51 L47,52 L47,52 L46,53 L46,53 L46,54 L46,54 L46,55 L46,55 L46,56 L45,56 L45,56 L45,57 L45,58 L45,58 L45,59 L45,59 L45,59 L46,60 L47,60 L47,59 L47,59 L47,59 L48,58 L48,58 L48,58 L48,57 L52,57 L52,58 L52,58 L52,58 L52,59 L53,59 L53,60 L54,60 L55,59 L55,59 L55,58 L55,58 L55,57 L55,57 L54,56 L54,56 L54,56 L54,55 L54,55 L54,54 L54,54 L53,53 L53,53 L53,53 L53,52 L53,52 L52,51 L52,51 L52,51 L52,50 L52,50 L52,49 L51,49 L51,48 L51,48 L50,48 L50,48 L49,48 Z"/><path d="M50,52 L50,52 L50,53 L51,54 L51,54 L51,54 L51,55 L49,55 L49,54 L49,54 L49,54 L49,54 L49,53 L50,52 Z"/><path d="M62,12 L61,12 L61,13 L61,13 L60,13 L59,14 L59,14 L59,14 L59,14 L59,15 L58,15 L58,15 L58,15 L58,16 L58,16 L58,16 L58,16 L58,17 L56,19 L56,19 L56,19 L55,20 L55,21 L55,21 L54,22 L54,22 L54,22 L54,22 L54,23 L54,23 L53,23 L53,23 L53,24 L52,25 L52,25 L52,26 L51,27 L51,27 L51,28 L51,28 L51,29 L51,29 L51,30 L51,30 L52,31 L53,32 L53,32 L53,32 L54,32 L55,32 L56,32 L56,32 L56,32 L56,31 L57,31 L57,30 L57,30 L58,30 L58,30 L58,29 L58,29 L59,28 L59,28 L59,27 L60,26 L61,25 L61,25 L61,24 L61,24 L62,24 L62,23 L62,23 L62,24 L62,24 L62,25 L63,25 L63,26 L63,26 L63,26 L63,27 L63,28 L63,28 L64,29 L64,29 L64,30 L64,30 L64,30 L64,31 L64,32 L64,32 L65,33 L65,33 L65,35 L65,35 L65,35 L66,36 L66,36 L66,37 L66,37 L66,38 L67,38 L67,39 L68,39 L68,39 L68,39 L69,40 L71,40 L72,40 L72,40 L73,39 L73,39 L74,39 L74,38 L75,37 L75,35 L75,35 L75,35 L75,35 L75,34 L75,34 L75,34 L75,33 L74,32 L74,32 L74,32 L74,31 L74,30 L74,29 L74,29 L73,28 L73,28 L73,27 L73,27 L73,27 L73,26 L73,25 L72,24 L72,24 L72,23 L72,23 L72,22 L72,22 L72,22 L72,21 L71,21 L71,20 L71,20 L71,19 L71,19 L71,18 L71,18 L70,18 L70,17 L70,16 L70,16 L70,16 L70,15 L70,15 L70,15 L69,14 L69,14 L69,14 L68,13 L67,12 L66,12 L66,12 L65,12 L64,12 L64,12 L63,12 L63,12 L63,12 L62,12 L62,12 Z"/><path d="M37,12 L37,12 L36,12 L35,12 L35,12 L34,12 L34,12 L34,12 L33,12 L33,12 L32,13 L31,14 L30,15 L30,15 L30,16 L30,17 L29,17 L29,18 L29,18 L29,19 L29,20 L29,21 L28,21 L28,21 L28,22 L28,23 L28,23 L28,24 L27,24 L27,26 L27,26 L27,26 L27,27 L27,27 L27,27 L27,28 L26,28 L26,29 L26,30 L26,30 L26,31 L26,32 L26,32 L25,33 L25,33 L25,34 L25,35 L25,36 L25,36 L25,37 L25,37 L26,38 L26,38 L26,38 L26,38 L27,39 L27,39 L27,39 L28,40 L29,40 L31,40 L32,39 L33,39 L34,38 L34,38 L34,38 L34,37 L34,37 L34,36 L34,36 L35,35 L35,34 L35,34 L35,33 L35,32 L35,32 L36,32 L36,31 L36,30 L36,30 L36,29 L36,28 L37,28 L37,27 L37,26 L37,26 L37,25 L38,25 L38,24 L38,23 L39,24 L39,25 L40,26 L40,26 L40,26 L40,27 L40,27 L41,28 L41,28 L42,29 L42,30 L42,30 L43,31 L44,32 L44,32 L45,32 L46,32 L47,32 L47,32 L48,31 L48,31 L48,31 L48,30 L48,30 L49,30 L49,29 L49,29 L49,29 L49,27 L49,26 L48,26 L48,26 L48,26 L48,26 L48,25 L48,25 L48,25 L47,24 L47,23 L46,23 L46,23 L46,22 L45,22 L45,21 L45,21 L45,21 L45,20 L45,20 L44,20 L44,20 L44,19 L44,19 L43,18 L43,17 L42,17 L42,17 L42,16 L42,16 L42,15 L41,15 L41,14 L40,14 L40,13 L39,12 L39,12 L38,12 L38,12 Z"/><path d="M61,0 L60,1 L60,1 L59,1 L59,1 L59,1 L58,2 L58,2 L58,2 L58,3 L57,3 L57,3 L57,4 L57,4 L57,4 L57,5 L57,7 L57,8 L58,9 L59,9 L59,9 L59,10 L60,10 L60,10 L60,10 L60,10 L61,10 L61,10 L62,10 L62,10 L63,10 L63,10 L64,10 L65,9 L66,9 L66,9 L66,8 L66,8 L66,8 L67,7 L67,7 L67,6 L67,4 L67,4 L67,4 L66,3 L66,3 L66,3 L66,3 L66,2 L65,2 L64,1 L64,1 L63,1 L63,0 Z"/><path d="M36,1 L36,1 L35,1 L35,2 L34,2 L34,2 L34,3 L34,3 L33,3 L33,4 L33,4 L33,5 L33,5 L33,6 L33,6 L33,7 L33,7 L33,8 L34,8 L34,9 L35,9 L35,9 L36,10 L36,10 L37,10 L38,10 L38,10 L39,10 L40,10 L41,10 L41,9 L41,9 L42,9 L42,8 L43,7 L43,4 L43,4 L43,4 L43,3 L43,3 L42,3 L42,2 L42,2 L41,1 L41,1 L40,1 L40,1 L39,0 L37,0 L37,1 Z"/></svg>