<svg xmlns="http://www.w3.org/2000/svg" viewBox="0 0 200 40" fill="currentColor"><path d="M128,8 L128,9 L128,10 L128,10 L128,17 L128,17 L128,34 L128,34 L128,35 L129,36 L130,37 L130,37 L131,38 L132,38 L132,38 L154,38 L154,38 L155,38 L155,37 L155,37 L156,36 L156,35 L156,34 L156,32 L156,32 L137,32 L137,32 L136,32 L136,32 L135,32 L135,32 L135,31 L135,31 L135,30 L135,30 L135,28 L135,28 L135,26 L135,25 L136,25 L136,25 L136,25 L149,25 L149,25 L150,25 L150,24 L151,24 L151,23 L151,22 L151,21 L151,20 L151,20 L135,20 L135,20 L135,14 L135,14 L135,14 L153,14 L154,14 L154,13 L155,13 L155,12 L155,12 L156,11 L156,10 L156,9 L156,8 L156,8 Z"/><path d="M199,8 L197,8 L195,9 L195,9 L194,9 L193,10 L193,29 L193,30 L191,27 L190,27 L190,26 L188,24 L187,23 L186,22 L183,19 L181,16 L174,10 L173,9 L173,9 L172,9 L171,8 L166,8 L166,8 L165,9 L165,10 L166,10 L165,10 L165,14 L166,14 L166,34 L165,34 L165,35 L166,35 L166,38 L166,38 L168,38 L168,38 L168,38 L170,38 L170,37 L171,37 L172,37 L172,36 L172,17 L172,17 L173,18 L174,18 L174,19 L175,20 L176,20 L176,21 L176,21 L177,22 L178,24 L179,24 L179,24 L181,27 L183,29 L183,29 L189,35 L190,36 L191,37 L192,37 L192,37 L192,38 L194,38 L194,38 L199,38 L199,38 L199,8 Z"/><path d="M50,8 L50,10 L50,12 L50,12 L50,23 L49,23 L50,34 L50,34 L50,35 L50,35 L50,36 L51,36 L52,37 L52,37 L52,38 L53,38 L54,38 L76,38 L76,38 L77,38 L77,37 L77,37 L78,37 L78,36 L78,34 L78,33 L78,33 L78,32 L78,32 L60,32 L60,32 L58,32 L57,32 L57,31 L57,29 L57,28 L57,25 L57,25 L70,25 L71,25 L72,25 L73,24 L73,24 L73,23 L73,22 L73,21 L73,20 L73,20 L73,20 L72,20 L72,20 L57,20 L57,20 L57,14 L57,14 L75,14 L76,14 L76,14 L77,13 L77,13 L77,12 L78,12 L78,10 L78,10 L78,9 L78,8 L50,8 Z"/><path d="M95,8 L95,9 L94,9 L94,9 L94,9 L93,9 L93,10 L92,10 L92,10 L92,10 L91,10 L90,11 L90,11 L90,12 L90,12 L89,13 L88,13 L88,13 L88,14 L87,14 L87,15 L87,15 L87,15 L86,16 L86,16 L86,16 L86,17 L86,17 L86,18 L85,18 L85,19 L85,20 L85,20 L85,21 L84,22 L84,24 L84,24 L85,25 L85,26 L85,27 L85,27 L85,28 L86,28 L86,29 L86,30 L86,30 L86,30 L86,31 L87,31 L87,31 L87,32 L87,32 L88,32 L89,34 L89,34 L90,34 L90,35 L90,35 L91,36 L92,36 L92,36 L92,36 L92,37 L93,37 L93,37 L94,37 L94,38 L95,38 L95,38 L96,38 L97,38 L98,38 L98,39 L99,39 L99,39 L106,39 L106,38 L107,38 L108,38 L108,38 L109,38 L109,38 L110,37 L110,37 L111,37 L111,37 L112,36 L112,36 L113,36 L113,36 L115,33 L116,32 L116,32 L116,32 L117,32 L117,31 L117,30 L118,30 L118,30 L118,29 L118,28 L118,28 L118,28 L119,27 L119,26 L119,25 L119,21 L119,20 L119,19 L118,19 L118,18 L118,18 L118,17 L118,16 L118,16 L117,16 L117,15 L117,15 L117,15 L116,14 L116,14 L114,12 L114,12 L113,11 L113,11 L112,10 L112,10 L112,10 L111,10 L111,10 L110,9 L110,9 L110,9 L109,9 L109,9 L108,8 L108,8 L107,8 L106,8 L105,7 L103,7 L103,7 L101,7 L100,7 L98,7 L98,8 L97,8 L96,8 Z"/><path d="M101,13 L103,13 L103,13 L104,13 L105,13 L105,13 L106,14 L106,14 L108,15 L108,15 L109,15 L109,16 L109,16 L110,16 L110,17 L110,17 L112,19 L112,19 L112,20 L112,20 L112,21 L112,23 L112,23 L112,26 L112,26 L112,27 L112,27 L112,28 L110,29 L110,29 L110,30 L109,31 L108,31 L108,32 L108,32 L107,32 L107,32 L106,33 L106,33 L106,33 L105,33 L104,34 L103,34 L103,34 L100,34 L100,34 L100,34 L99,33 L98,33 L98,33 L97,33 L97,32 L97,32 L95,31 L94,30 L94,30 L93,30 L93,29 L93,29 L93,29 L92,28 L92,28 L92,28 L92,27 L92,27 L92,26 L91,24 L91,22 L92,22 L92,20 L92,19 L92,19 L92,18 L92,18 L94,16 L94,16 L96,15 L96,15 L96,14 L96,14 L98,14 L98,13 L99,13 L100,13 Z"/><path d="M39,1 L38,1 L37,1 L35,1 L34,1 L34,1 L33,2 L32,3 L32,27 L32,28 L32,27 L31,27 L31,26 L31,26 L31,26 L30,26 L30,26 L30,26 L30,25 L30,25 L30,24 L29,24 L29,24 L28,23 L28,23 L28,23 L28,23 L28,22 L27,21 L26,20 L26,20 L25,20 L25,19 L24,18 L24,18 L23,17 L23,16 L21,14 L21,14 L20,14 L20,14 L19,12 L19,12 L18,12 L18,11 L18,11 L17,10 L17,10 L17,10 L16,9 L16,9 L14,6 L14,6 L13,6 L13,6 L13,5 L10,2 L8,1 L8,1 L8,1 L7,1 L1,1 L1,1 L1,38 L1,38 L2,38 L3,38 L4,38 L6,38 L6,37 L7,37 L7,37 L7,37 L8,36 L8,12 L8,12 L9,12 L9,13 L9,13 L10,14 L10,14 L10,15 L12,16 L12,17 L14,18 L14,19 L15,20 L15,20 L15,20 L15,20 L16,21 L16,21 L17,22 L18,23 L18,23 L19,24 L19,24 L20,25 L20,26 L20,26 L21,26 L22,28 L22,28 L23,29 L23,30 L26,32 L26,32 L26,32 L27,33 L27,33 L30,37 L31,37 L31,37 L32,38 L33,38 L33,38 L34,38 L34,38 L39,38 L39,38 L39,38 L39,1 Z"/></svg>