<svg xmlns="http://www.w3.org/2000/svg" viewBox="0 0 200 58" fill="currentColor"><path d="M93,13 L93,13 L93,21 L93,21 L101,29 L93,37 L93,44 L93,45 L101,45 L107,38 L109,37 L109,37 L112,40 L114,42 L116,44 L116,45 L124,45 L124,44 L124,37 L116,29 L116,29 L119,27 L119,26 L119,26 L121,24 L124,21 L124,21 L124,13 L124,13 L117,13 L116,14 L116,14 L116,14 L116,14 L115,14 L115,15 L114,15 L114,15 L114,16 L111,18 L111,19 L111,19 L111,19 L110,19 L110,20 L110,20 L109,21 L108,21 L101,13 L93,13 Z"/><path d="M56,13 L56,14 L56,32 L56,32 L56,34 L56,34 L56,36 L57,37 L57,38 L57,38 L57,39 L58,39 L58,40 L58,40 L58,40 L60,42 L60,42 L61,43 L61,43 L61,43 L62,43 L62,44 L62,44 L63,44 L63,44 L64,45 L65,45 L66,45 L68,45 L69,45 L70,45 L70,45 L72,45 L73,45 L74,45 L74,44 L75,44 L75,44 L76,44 L76,43 L77,43 L78,42 L78,42 L78,44 L78,45 L89,45 L89,44 L89,13 L89,13 L78,13 L78,13 L78,31 L78,31 L78,32 L77,33 L77,33 L76,35 L75,35 L75,35 L74,35 L73,36 L73,36 L72,36 L71,35 L70,35 L70,35 L69,35 L68,34 L68,33 L68,33 L68,32 L67,32 L67,13 L67,13 L56,13 Z"/><path d="M32,16 L31,15 L31,15 L30,15 L30,15 L30,14 L29,14 L28,14 L28,14 L28,14 L27,13 L26,13 L25,13 L22,13 L22,12 L22,13 L22,12 L21,13 L20,13 L19,13 L18,13 L17,13 L16,14 L16,14 L15,14 L15,14 L14,14 L14,15 L14,15 L13,15 L12,16 L12,16 L12,16 L12,14 L12,13 L11,13 L1,13 L1,13 L1,14 L1,56 L1,56 L1,57 L1,57 L11,57 L12,57 L12,42 L12,42 L13,43 L14,43 L14,44 L15,44 L15,44 L16,44 L16,45 L17,45 L18,45 L20,45 L21,45 L22,45 L23,45 L25,45 L26,45 L27,45 L28,44 L29,44 L29,44 L29,44 L30,43 L30,43 L30,43 L31,43 L32,42 L32,42 L32,41 L33,41 L35,39 L35,39 L35,38 L35,38 L36,38 L36,37 L36,36 L36,36 L36,36 L37,35 L37,34 L37,34 L37,32 L37,32 L37,31 L38,31 L38,27 L37,27 L37,26 L37,25 L37,24 L37,23 L36,22 L36,22 L36,21 L36,21 L36,20 L35,20 L35,20 L35,19 L35,19 L34,18 L34,17 L32,16 L32,16 Z"/><path d="M16,23 L17,23 L17,22 L21,22 L21,22 L21,23 L22,23 L22,23 L23,23 L25,25 L25,26 L25,26 L25,27 L26,27 L26,28 L26,28 L26,31 L25,31 L25,32 L25,32 L25,33 L23,34 L23,34 L23,35 L22,35 L22,35 L21,35 L20,36 L18,36 L17,35 L16,35 L16,35 L15,35 L15,34 L15,34 L13,32 L13,32 L12,31 L12,30 L12,29 L12,27 L13,26 L13,26 L13,25 L13,25 L14,24 L15,24 L15,23 L16,23 Z"/><path d="M175,13 L174,14 L174,14 L173,14 L173,14 L172,14 L172,14 L172,15 L171,15 L169,17 L168,18 L167,18 L167,19 L167,19 L166,20 L166,21 L166,21 L166,22 L165,22 L165,23 L165,24 L165,25 L164,26 L164,27 L164,27 L164,31 L164,31 L164,32 L165,33 L165,34 L165,34 L165,35 L165,36 L166,36 L166,37 L166,37 L166,38 L166,38 L167,38 L167,39 L167,39 L168,40 L168,40 L168,41 L169,41 L169,41 L169,41 L169,42 L170,42 L170,42 L170,42 L171,43 L171,43 L171,43 L172,43 L172,44 L173,44 L173,44 L174,44 L174,45 L175,45 L176,45 L177,45 L178,46 L179,46 L179,46 L186,46 L187,45 L187,45 L188,45 L188,45 L189,45 L190,45 L190,44 L191,44 L191,44 L192,44 L192,43 L193,43 L193,43 L193,43 L194,42 L196,40 L196,40 L197,40 L197,39 L197,39 L197,38 L198,38 L198,38 L198,37 L198,37 L199,36 L199,35 L198,35 L188,35 L187,35 L187,36 L185,37 L185,37 L185,37 L183,37 L183,38 L182,38 L181,37 L180,37 L179,37 L179,37 L178,36 L178,36 L177,35 L176,34 L176,34 L176,33 L176,32 L176,32 L199,32 L199,31 L199,30 L199,30 L199,28 L199,28 L199,25 L199,24 L199,24 L199,23 L198,22 L198,22 L198,21 L198,21 L197,20 L197,20 L197,20 L197,19 L196,19 L196,18 L195,18 L195,17 L194,16 L194,16 L193,15 L193,15 L192,15 L192,15 L192,14 L191,14 L191,14 L190,14 L190,14 L189,14 L189,13 L188,13 L187,13 L185,12 L184,12 L183,12 L183,12 L181,12 L180,12 L180,12 L179,12 L177,13 L176,13 Z"/><path d="M176,25 L176,24 L177,23 L177,22 L177,22 L178,22 L178,21 L178,21 L179,21 L180,21 L180,20 L184,20 L185,21 L185,21 L186,21 L186,21 L187,22 L188,24 L188,24 L188,25 L188,25 L188,25 L186,25 L186,25 L178,25 L178,25 L177,25 Z"/><path d="M136,14 L136,14 L135,14 L135,14 L134,14 L134,15 L133,15 L133,15 L132,16 L132,16 L131,16 L131,17 L131,17 L131,17 L130,17 L130,18 L130,18 L129,19 L129,19 L129,20 L128,20 L128,20 L128,21 L128,21 L128,22 L128,22 L127,23 L127,24 L127,25 L127,27 L126,28 L126,30 L127,31 L127,33 L127,33 L127,34 L127,35 L128,35 L128,36 L128,37 L128,37 L128,38 L128,38 L129,38 L129,39 L129,39 L130,39 L130,40 L130,40 L132,42 L132,42 L132,42 L133,42 L134,43 L134,44 L135,44 L135,44 L136,44 L137,45 L137,45 L138,45 L140,45 L140,46 L141,46 L141,46 L149,46 L149,45 L150,45 L151,45 L152,45 L152,44 L153,44 L154,44 L154,44 L154,43 L155,43 L155,43 L156,43 L156,42 L156,42 L156,42 L157,41 L158,40 L159,40 L159,39 L159,39 L159,39 L160,38 L160,38 L160,38 L160,37 L161,37 L161,36 L161,35 L161,35 L160,35 L150,35 L148,37 L147,37 L147,37 L146,37 L145,38 L144,38 L144,37 L142,37 L142,37 L140,36 L139,35 L139,35 L139,35 L139,34 L138,34 L138,32 L138,32 L161,32 L162,31 L162,26 L161,25 L161,23 L161,23 L161,22 L160,22 L160,21 L160,21 L160,20 L159,20 L159,19 L159,19 L159,19 L158,18 L156,16 L156,16 L155,15 L155,15 L155,15 L154,15 L154,14 L154,14 L153,14 L152,14 L152,14 L151,13 L151,13 L150,13 L149,13 L147,12 L146,12 L146,12 L145,12 L143,12 L143,12 L142,12 L141,12 L139,13 L138,13 L137,13 L137,13 Z"/><path d="M138,24 L139,24 L139,23 L139,23 L139,22 L140,21 L141,21 L141,21 L142,21 L142,20 L146,20 L147,21 L148,21 L148,21 L148,21 L148,22 L149,22 L149,22 L149,22 L149,23 L150,23 L150,24 L150,24 L150,25 L150,25 L146,25 L146,25 L140,25 L140,25 L138,25 L138,25 Z"/><path d="M41,1 L41,1 L41,44 L41,45 L52,45 L52,44 L52,4 L52,4 L52,1 L52,1 L51,1 Z"/></svg>