<svg xmlns="http://www.w3.org/2000/svg" viewBox="0 0 65 60" fill="currentColor"><path d="M60,56 L60,57 L60,59 L60,60 L60,60 L61,60 L61,60 L61,60 L61,60 L61,60 L61,60 L62,60 L62,60 L62,60 L62,60 L63,60 L63,60 L63,60 L64,60 L65,59 L65,59 L64,59 L64,59 L64,59 L64,57 L63,56 L63,56 L63,56 L62,57 L62,59 L62,59 L61,59 L61,59 L61,58 L62,58 L62,58 L62,58 L62,58 L62,58 L61,58 L61,57 L61,57 L61,57 L62,57 L62,57 L62,57 L62,57 L62,57 L62,57 L62,56 L62,56 L60,56 Z"/><path d="M59,56 L59,57 L59,59 L59,60 L60,60 L60,59 L60,57 L60,56 Z"/><path d="M51,59 L51,60 L51,60 L52,60 L53,60 L53,60 L53,60 L53,60 L53,60 L53,60 L54,60 L54,59 L54,59 L55,59 L55,59 L55,59 L55,59 L55,59 L55,60 L56,60 L56,59 L56,57 L56,57 L56,57 L57,57 L57,57 L57,59 L57,60 L58,60 L58,59 L58,57 L58,57 L58,57 L59,57 L58,56 L58,56 L55,56 L55,56 L55,57 L55,58 L54,56 L54,56 L54,56 L54,57 L54,59 L54,59 L52,59 L52,59 L52,58 L53,58 L53,58 L53,58 L53,58 L52,58 L52,57 L52,57 L53,57 L53,57 L53,57 L53,57 L53,56 L53,56 L51,56 L51,56 L51,57 Z"/><path d="M44,56 L44,59 L44,60 L44,60 L47,60 L48,60 L48,59 L48,59 L48,59 L48,59 L49,59 L49,59 L49,60 L50,60 L50,59 L50,59 L51,59 L51,59 L51,59 L51,58 L51,58 L51,58 L50,58 L50,58 L50,57 L50,57 L50,57 L50,57 L50,57 L50,57 L51,57 L51,57 L50,56 L49,56 L49,57 L49,57 L48,57 L48,58 L49,58 L49,58 L50,59 L50,59 L50,59 L49,59 L48,59 L48,59 L48,58 L48,58 L48,58 L48,58 L48,58 L47,58 L47,57 L47,57 L48,57 L48,57 L48,57 L48,57 L48,57 L48,56 L48,56 L47,56 L46,57 L46,57 L46,57 L46,58 L46,58 L47,58 L47,58 L47,58 L47,58 L47,59 L47,59 L45,59 L45,59 L45,58 L46,58 L46,58 L46,58 L46,58 L45,58 L45,57 L45,57 L46,57 L46,57 L46,57 L46,57 L46,56 L46,56 L44,56 Z"/><path d="M43,56 L43,56 L43,57 L43,57 L43,57 L43,58 L43,58 L43,57 L43,57 L44,57 L44,57 L43,56 Z"/><path d="M40,56 L40,57 L40,57 L40,59 L41,60 L41,60 L41,60 L42,60 L42,59 L42,59 L42,59 L41,59 L41,59 L41,56 L41,56 Z"/><path d="M38,56 L38,57 L38,57 L37,57 L37,58 L37,58 L37,58 L37,59 L37,59 L37,59 L37,59 L37,60 L37,60 L37,59 L38,59 L39,59 L39,59 L39,60 L39,59 L39,59 L39,59 L39,58 L39,58 L39,58 L38,58 L38,57 L38,57 L38,57 L38,56 Z"/><path d="M38,57 L38,58 L38,58 L38,58 L38,58 L38,58 L38,58 L38,58 L38,58 L38,57 Z"/><path d="M33,56 L33,57 L33,57 L33,58 L33,58 L33,58 L33,59 L33,59 L33,60 L34,59 L34,59 L34,58 L34,58 L34,58 L35,59 L35,59 L35,59 L35,59 L35,60 L35,59 L35,59 L35,59 L35,59 L35,59 L35,58 L35,58 L35,58 L35,58 L36,57 L35,57 L35,57 L35,56 L34,56 Z"/><path d="M34,57 L34,57 L35,57 L35,57 L35,57 L35,58 L34,58 L34,58 Z"/><path d="M31,56 L31,58 L31,58 L31,59 L31,60 L32,60 L33,59 L33,59 L32,59 L31,59 L31,59 L31,58 L31,58 L32,58 L33,58 L33,58 L32,58 L32,58 L31,58 L31,57 L32,57 L32,57 L33,57 L33,57 L33,56 L31,56 Z"/><path d="M28,56 L28,56 L28,59 L28,60 L29,60 L29,60 L29,60 L30,59 L30,59 L30,59 L30,57 L30,57 L30,57 L29,56 Z"/><path d="M29,57 L30,57 L30,57 L30,58 L30,58 L30,58 L30,58 L30,59 L29,59 L29,59 L29,59 L29,57 Z"/><path d="M25,56 L25,58 L25,58 L25,59 L26,60 L26,59 L26,58 L26,58 L26,58 L26,58 L27,59 L27,59 L27,59 L27,60 L27,60 L28,59 L28,59 L27,59 L27,59 L27,59 L27,58 L27,58 L28,58 L28,57 L27,57 L27,56 L26,56 Z"/><path d="M26,57 L26,57 L27,57 L27,57 L27,58 L27,58 L26,58 L26,58 Z"/><path d="M23,56 L23,57 L23,57 L23,57 L22,58 L22,58 L23,59 L23,59 L23,59 L24,60 L24,60 L24,59 L24,59 L25,59 L25,57 L24,57 L24,56 Z"/><path d="M23,57 L24,57 L24,57 L24,57 L24,57 L24,59 L24,59 L24,59 L23,59 L23,59 L23,58 L23,57 L23,57 Z"/><path d="M21,56 L20,57 L20,57 L20,59 L20,59 L20,59 L21,59 L21,60 L21,60 L21,59 L22,59 L22,59 L22,59 L22,58 L21,59 L21,59 L21,59 L20,58 L20,57 L21,57 L21,57 L21,57 L21,57 L22,57 L22,57 L22,57 L22,57 L22,57 L22,57 L21,56 Z"/><path d="M18,56 L18,57 L18,57 L17,57 L17,57 L17,59 L18,59 L18,59 L18,59 L18,60 L19,60 L19,59 L19,59 L19,59 L19,59 L20,59 L19,58 L19,58 L19,59 L19,59 L18,59 L18,59 L18,59 L18,59 L18,57 L18,57 L18,57 L19,57 L19,57 L19,57 L20,57 L19,57 L19,57 L19,56 Z"/><path d="M16,56 L16,56 L16,57 L16,57 L15,57 L15,58 L15,58 L15,58 L15,58 L15,59 L15,59 L14,59 L15,60 L15,60 L15,59 L15,59 L15,59 L16,59 L17,59 L17,59 L17,60 L17,59 L17,59 L17,59 L17,58 L17,58 L17,58 L16,58 L16,57 L16,57 L16,57 L16,56 Z"/><path d="M16,57 L16,58 L16,58 L16,58 L16,58 L16,58 L16,58 L16,58 L16,58 Z"/><path d="M12,56 L12,56 L12,59 L12,60 L12,60 L13,59 L13,58 L13,58 L13,58 L13,58 L13,59 L14,59 L14,59 L14,59 L14,59 L14,60 L14,59 L14,59 L14,59 L14,59 L14,59 L14,58 L14,58 L14,58 L14,57 L14,57 L14,57 L14,56 Z"/><path d="M13,57 L13,57 L14,57 L14,57 L14,58 L14,58 L13,58 L13,58 Z"/><path d="M9,56 L9,56 L9,57 L9,58 L9,58 L9,58 L10,58 L10,58 L10,58 L10,59 L10,59 L9,59 L9,59 L9,59 L9,59 L9,59 L9,59 L9,60 L10,60 L10,59 L10,59 L10,59 L11,59 L11,59 L11,58 L11,58 L11,58 L10,58 L10,58 L10,58 L10,58 L9,57 L9,57 L9,57 L10,57 L10,57 L11,57 L10,56 L10,56 Z"/><path d="M6,56 L6,56 L6,59 L6,59 L7,59 L7,60 L7,60 L8,59 L8,59 L8,59 L8,56 L8,56 L8,56 L8,57 L8,59 L8,59 L7,59 L7,59 L6,59 L6,59 L6,57 L6,56 Z"/><path d="M4,56 L4,57 L3,57 L3,59 L3,59 L4,59 L4,59 L4,60 L4,60 L5,59 L5,59 L5,59 L5,59 L5,57 L5,57 L5,57 L5,57 L5,57 L5,56 Z"/><path d="M4,57 L5,57 L5,57 L5,59 L5,59 L4,59 L4,59 L4,59 L4,59 L4,58 L4,58 L4,58 L4,58 Z"/><path d="M3,56 L3,56 L2,57 L2,57 L2,57 L2,58 L2,58 L2,58 L2,58 L2,58 L2,57 L1,57 L1,56 L1,56 L1,57 L1,57 L1,57 L1,57 L1,58 L1,58 L1,58 L1,59 L2,59 L2,60 L2,59 L2,59 L2,59 L2,58 L3,58 L3,57 L3,57 L3,57 L3,56 Z"/><path d="M37,56 L37,56 L38,56 L38,56 L38,56 L38,56 L38,56 L38,56 L38,56 Z"/><path d="M1,35 L1,36 L0,36 L0,36 L1,37 L1,37 L1,37 L1,38 L1,38 L1,38 L1,38 L1,38 L2,38 L2,38 L2,38 L2,39 L15,39 L16,39 L16,39 L16,40 L16,40 L16,40 L16,40 L16,41 L16,41 L16,41 L16,41 L15,42 L15,42 L2,42 L1,42 L1,42 L1,42 L1,42 L1,43 L1,51 L1,52 L1,52 L1,52 L1,52 L2,52 L2,52 L2,53 L2,53 L2,53 L3,53 L3,53 L3,53 L4,52 L4,52 L4,52 L4,52 L4,52 L4,51 L5,51 L5,51 L5,46 L5,46 L16,46 L16,46 L16,46 L16,46 L17,46 L17,46 L17,46 L17,46 L18,45 L18,45 L18,45 L19,44 L19,44 L19,44 L19,44 L19,44 L19,44 L20,43 L20,43 L20,43 L20,43 L20,42 L20,42 L20,42 L20,42 L20,39 L20,39 L20,38 L20,38 L20,38 L20,38 L20,37 L20,37 L20,37 L19,37 L19,36 L19,36 L19,36 L19,36 L18,35 L18,35 L18,35 L18,35 L18,35 L17,35 L17,34 L17,34 L17,34 L16,34 L15,34 L3,34 L2,34 L2,34 L2,34 L2,34 L1,34 L1,35 L1,35 Z"/><path d="M45,35 L45,35 L45,35 L45,36 L45,36 L45,51 L45,51 L45,51 L45,52 L45,52 L46,52 L46,52 L46,52 L46,52 L46,52 L46,53 L47,53 L47,53 L48,53 L49,52 L49,52 L49,52 L49,52 L49,51 L49,51 L49,43 L49,42 L50,43 L50,43 L50,43 L50,43 L51,44 L51,44 L52,45 L52,45 L52,45 L52,46 L53,46 L53,46 L53,47 L53,47 L54,47 L54,48 L55,48 L55,48 L55,48 L55,48 L56,48 L56,48 L56,47 L56,47 L56,47 L57,46 L57,46 L57,46 L58,45 L59,44 L59,44 L60,43 L60,43 L60,43 L60,43 L60,42 L61,43 L61,43 L61,43 L61,51 L61,51 L61,52 L61,52 L61,52 L61,52 L62,52 L62,53 L62,53 L63,53 L63,53 L63,53 L64,53 L64,52 L64,52 L64,52 L64,52 L65,51 L65,51 L65,51 L65,36 L65,36 L65,35 L64,35 L64,34 L64,34 L63,34 L63,34 L62,34 L62,34 L62,34 L62,34 L61,35 L61,35 L61,35 L61,35 L61,36 L61,36 L60,36 L60,37 L60,37 L60,37 L59,37 L59,37 L59,38 L59,38 L58,38 L58,38 L58,39 L58,39 L58,39 L58,39 L57,40 L57,40 L57,40 L56,41 L56,41 L56,41 L56,41 L55,42 L55,42 L54,41 L54,41 L54,41 L54,41 L54,41 L53,40 L53,40 L53,40 L52,39 L52,39 L52,39 L52,38 L52,38 L51,38 L51,38 L50,37 L50,37 L50,37 L50,36 L49,36 L49,36 L49,35 L49,35 L49,35 L48,34 L48,34 L48,34 L47,34 L47,34 L46,34 L46,34 L46,34 Z"/><path d="M23,35 L23,35 L23,35 L23,36 L23,36 L23,48 L23,48 L23,49 L23,49 L23,49 L23,50 L23,50 L23,50 L24,50 L24,50 L24,51 L24,51 L25,52 L25,52 L25,52 L25,52 L25,52 L26,52 L26,52 L26,52 L26,53 L38,53 L39,52 L39,52 L39,52 L40,52 L40,52 L40,52 L40,52 L40,52 L41,51 L41,51 L41,51 L41,50 L41,50 L42,50 L42,50 L42,50 L42,49 L42,49 L42,48 L42,48 L42,36 L42,35 L42,34 L41,34 L41,34 L41,34 L40,34 L40,34 L40,34 L40,34 L39,34 L39,34 L39,35 L39,35 L38,35 L38,36 L38,36 L38,47 L38,48 L27,48 L27,48 L27,48 L27,48 L27,48 L27,47 L27,47 L27,36 L27,36 L26,35 L26,35 L26,35 L26,34 L26,34 L26,34 L25,34 L25,34 L24,34 L24,34 L24,34 Z"/><path d="M38,3 L37,3 L37,3 L36,3 L36,3 L36,3 L36,4 L35,4 L35,4 L34,4 L34,4 L34,4 L34,4 L33,4 L33,4 L33,4 L32,5 L32,5 L32,5 L32,5 L31,5 L31,5 L31,5 L30,5 L30,6 L30,6 L30,6 L29,6 L29,6 L28,6 L28,6 L28,6 L28,6 L27,6 L27,7 L27,7 L26,7 L26,7 L26,7 L25,7 L25,7 L25,7 L25,8 L24,8 L24,8 L24,8 L23,8 L23,8 L23,8 L22,8 L22,8 L22,8 L22,9 L21,9 L21,9 L21,9 L20,9 L20,9 L20,9 L18,9 L18,9 L18,9 L17,9 L17,9 L17,9 L17,9 L17,10 L17,10 L17,10 L17,11 L17,11 L17,12 L17,12 L17,13 L17,13 L17,14 L17,14 L17,15 L17,16 L17,16 L17,16 L17,17 L17,17 L17,18 L18,18 L18,18 L18,18 L18,19 L18,19 L18,19 L18,20 L18,20 L19,20 L19,21 L19,21 L19,21 L19,21 L20,22 L20,22 L20,22 L20,22 L21,23 L22,24 L22,24 L22,24 L23,25 L23,25 L23,24 L22,24 L22,24 L22,24 L22,23 L22,23 L22,23 L22,22 L22,22 L22,22 L22,21 L21,21 L21,21 L21,21 L21,20 L21,20 L21,20 L21,19 L21,19 L20,19 L20,18 L20,18 L20,18 L20,17 L20,17 L20,17 L20,16 L20,16 L20,15 L20,15 L20,15 L21,14 L21,14 L21,14 L21,14 L22,14 L22,14 L22,13 L22,13 L23,13 L23,13 L23,13 L24,13 L24,13 L24,13 L24,12 L25,12 L25,12 L25,12 L26,12 L26,12 L26,12 L27,12 L27,12 L27,12 L28,11 L28,11 L28,11 L28,11 L29,11 L29,11 L29,11 L30,10 L30,10 L30,10 L30,10 L31,10 L31,10 L32,10 L32,10 L32,10 L32,9 L33,9 L33,9 L33,9 L34,9 L34,9 L34,9 L34,9 L35,8 L35,8 L36,8 L36,8 L36,8 L36,8 L37,8 L37,8 L37,8 L38,8 L38,7 L38,7 L38,7 L38,7 L38,7 L39,6 L39,5 L39,5 L39,4 L38,4 L38,4 L38,4 L38,4 Z"/><path d="M43,0 L43,0 L43,1 L43,1 L43,1 L43,1 L43,2 L44,2 L44,2 L44,3 L44,3 L44,3 L44,4 L44,4 L44,7 L44,7 L44,8 L44,8 L44,9 L44,9 L44,9 L44,9 L44,10 L43,10 L43,10 L43,10 L43,10 L43,11 L43,11 L43,11 L43,11 L42,11 L42,11 L42,12 L42,12 L42,12 L42,12 L42,12 L41,12 L41,12 L41,12 L41,13 L40,13 L40,13 L40,13 L40,13 L39,13 L39,13 L39,13 L38,14 L38,14 L38,14 L37,14 L37,14 L37,14 L37,14 L36,14 L36,14 L36,14 L35,15 L35,15 L35,15 L34,15 L34,15 L34,15 L34,15 L33,15 L33,16 L32,16 L32,16 L32,16 L32,16 L31,16 L31,16 L31,16 L30,16 L30,17 L30,17 L30,17 L29,17 L29,17 L29,17 L28,17 L28,17 L28,17 L28,18 L27,18 L27,18 L26,18 L26,18 L26,18 L26,18 L26,19 L26,19 L26,19 L27,20 L27,20 L27,20 L27,20 L27,21 L27,21 L27,21 L27,22 L28,22 L28,22 L28,22 L28,23 L28,23 L28,23 L28,24 L28,24 L28,24 L28,24 L29,25 L29,25 L29,25 L29,26 L29,26 L29,26 L29,27 L29,27 L30,27 L30,28 L30,28 L30,28 L30,28 L31,28 L32,28 L32,28 L32,29 L34,28 L34,28 L36,28 L36,28 L37,28 L37,28 L37,28 L38,28 L38,28 L38,28 L38,28 L39,27 L39,27 L39,27 L40,27 L40,27 L40,27 L40,27 L40,26 L41,26 L41,26 L41,26 L41,26 L41,26 L42,26 L42,26 L42,26 L42,26 L42,25 L43,25 L45,23 L45,23 L45,23 L45,23 L45,23 L45,22 L46,22 L46,22 L46,22 L46,22 L46,22 L46,21 L46,21 L46,21 L46,21 L47,21 L47,20 L47,20 L47,20 L47,20 L47,20 L47,19 L47,19 L48,19 L48,19 L48,18 L48,18 L48,18 L48,17 L48,17 L48,16 L48,16 L48,16 L48,15 L49,15 L49,13 L49,13 L49,12 L49,12 L49,10 L49,10 L48,10 L48,9 L48,8 L48,8 L48,8 L48,8 L48,7 L48,7 L48,7 L48,6 L48,6 L47,6 L47,6 L47,5 L47,5 L47,5 L47,5 L47,4 L47,4 L46,4 L46,4 L46,3 L46,3 L45,2 L45,2 L45,2 Z"/></svg>