<svg xmlns="http://www.w3.org/2000/svg" viewBox="0 0 175 60" fill="currentColor"><path d="M1,1 L1,59 L1,59 L1,59 L174,59 L174,59 L174,59 L174,59 L174,58 L174,2 L174,1 L174,1 L1,1 Z"/><path d="M106,28 L106,28 L107,28 L108,27 L108,27 L111,27 L112,28 L113,28 L113,28 L114,28 L114,28 L114,28 L116,30 L116,31 L117,31 L117,32 L117,32 L117,35 L117,35 L117,36 L117,36 L116,36 L116,37 L115,38 L115,38 L114,38 L114,38 L114,39 L114,39 L113,39 L112,39 L111,40 L108,40 L108,39 L107,39 L106,39 L106,39 L106,39 L105,38 L105,38 L105,38 L103,36 L103,36 L103,36 L103,35 L103,35 L103,32 L103,31 L104,30 L104,30 L104,29 L105,29 L105,29 L105,28 L106,28 Z"/><path d="M110,30 L109,30 L109,31 L108,31 L108,35 L109,36 L109,36 L109,37 L110,37 L110,37 L111,37 L111,36 L111,35 L112,35 L112,32 L111,32 L111,31 L111,30 L111,30 L111,30 L110,30 Z"/><path d="M89,29 L89,29 L90,28 L90,28 L90,28 L91,28 L92,28 L92,28 L93,27 L96,27 L96,27 L97,28 L98,28 L98,28 L99,29 L100,29 L100,30 L101,30 L101,30 L101,31 L101,31 L101,32 L101,35 L101,36 L101,36 L101,36 L100,37 L100,38 L99,38 L99,38 L98,38 L98,39 L98,39 L97,39 L96,39 L96,40 L93,40 L92,39 L91,39 L91,39 L90,39 L90,38 L89,38 L89,38 L89,38 L88,37 L88,37 L88,37 L88,36 L88,36 L88,36 L87,35 L87,33 L87,33 L87,32 L88,31 L88,31 L88,31 L88,30 L89,29 Z"/><path d="M94,30 L93,31 L93,31 L93,32 L93,34 L93,35 L93,36 L93,37 L95,37 L95,37 L95,37 L96,37 L96,36 L96,35 L96,31 L96,31 L96,30 L95,30 L95,30 Z"/><path d="M47,28 L47,28 L47,28 L48,27 L49,27 L52,27 L53,28 L53,28 L54,28 L54,28 L55,29 L55,29 L55,29 L56,30 L56,31 L56,31 L56,33 L55,34 L50,34 L49,34 L49,34 L49,34 L49,35 L50,36 L50,36 L50,36 L50,36 L51,36 L51,37 L52,37 L53,36 L53,36 L54,36 L54,36 L55,36 L55,36 L55,36 L56,36 L56,37 L55,37 L55,38 L54,38 L54,38 L53,39 L52,39 L52,40 L49,40 L48,39 L47,39 L47,39 L47,39 L46,38 L46,38 L45,37 L45,37 L45,37 L45,37 L44,36 L44,36 L44,35 L44,34 L44,34 L44,32 L44,31 L44,31 L44,30 L45,30 L45,29 L46,29 L46,29 Z"/><path d="M49,30 L49,31 L49,31 L49,31 L49,32 L51,32 L51,31 L52,31 L52,31 L52,30 L51,29 L49,29 Z"/><path d="M158,27 L160,27 L160,27 L161,27 L162,27 L163,27 L163,27 L164,27 L165,28 L165,28 L165,29 L165,29 L166,30 L166,30 L165,31 L164,31 L164,31 L163,30 L162,30 L162,30 L162,29 L161,29 L160,30 L160,31 L161,31 L161,31 L162,32 L162,32 L162,32 L163,32 L165,34 L165,34 L165,35 L166,35 L166,37 L165,37 L165,38 L165,38 L165,38 L164,39 L163,39 L163,39 L162,40 L159,40 L159,39 L159,39 L156,39 L155,38 L155,37 L155,37 L155,36 L155,35 L156,35 L156,36 L157,37 L158,38 L159,38 L160,37 L160,37 L160,36 L160,36 L160,36 L157,34 L156,33 L156,32 L155,32 L155,30 L156,30 L156,29 L157,28 L158,28 Z"/><path d="M146,27 L149,27 L149,27 L150,27 L150,27 L151,28 L151,28 L152,28 L154,30 L154,30 L154,31 L154,33 L154,33 L152,34 L152,34 L151,34 L150,34 L148,34 L148,34 L147,34 L147,34 L146,34 L146,35 L147,35 L147,35 L147,36 L147,36 L148,36 L148,36 L149,36 L149,37 L150,37 L151,36 L151,36 L152,36 L152,36 L153,36 L153,36 L153,36 L154,36 L154,37 L152,38 L152,38 L152,39 L151,39 L151,39 L150,39 L149,40 L147,40 L146,39 L145,39 L145,39 L144,39 L144,39 L144,38 L143,37 L143,37 L142,36 L142,36 L142,35 L142,32 L142,31 L142,31 L142,30 L143,29 L144,29 L145,28 L145,28 L145,28 L146,28 Z"/><path d="M146,30 L146,31 L147,32 L149,32 L150,31 L150,31 L150,30 L149,29 L147,29 Z"/><path d="M132,28 L133,30 L133,30 L133,31 L133,31 L134,32 L134,34 L133,35 L133,36 L133,36 L133,36 L132,37 L132,37 L132,38 L131,38 L131,39 L130,39 L130,39 L129,39 L129,40 L127,40 L126,39 L125,39 L125,39 L125,41 L126,42 L126,42 L126,43 L126,44 L125,44 L125,44 L124,44 L124,44 L124,44 L121,44 L121,44 L120,44 L120,44 L119,43 L119,43 L118,43 L118,43 L117,42 L117,42 L118,41 L118,41 L118,41 L118,41 L119,40 L119,40 L119,39 L119,39 L119,32 L119,32 L119,31 L119,31 L118,31 L118,31 L117,30 L117,30 L118,29 L118,29 L118,29 L119,28 L119,28 L120,28 L120,28 L121,28 L122,27 L122,27 L124,27 L124,27 L124,28 L125,28 L125,28 L126,28 L126,28 L126,28 L127,28 L128,27 L129,27 L129,27 L130,27 L130,27 L131,28 L131,28 Z"/><path d="M125,30 L125,31 L125,32 L124,32 L124,36 L125,37 L126,37 L127,36 L128,36 L128,35 L128,35 L128,32 L128,32 L128,31 L127,31 L127,31 L126,30 Z"/><path d="M140,22 L140,23 L140,29 L140,29 L140,37 L141,38 L141,38 L142,38 L142,39 L141,39 L141,39 L141,39 L140,40 L135,40 L135,39 L134,39 L134,39 L134,39 L134,38 L134,38 L134,38 L135,37 L135,37 L135,36 L135,36 L135,35 L135,28 L135,28 L135,27 L135,27 L135,27 L134,26 L134,26 L133,25 L133,25 L134,24 L134,24 L135,23 L135,23 L136,23 L137,23 L137,23 L138,22 Z"/><path d="M27,24 L28,24 L28,24 L29,23 L29,23 L30,23 L31,23 L31,22 L34,22 L34,23 L34,29 L34,29 L34,29 L35,29 L36,28 L36,28 L37,28 L37,28 L38,27 L39,27 L40,28 L40,28 L41,28 L41,28 L41,28 L42,29 L42,29 L42,30 L42,30 L43,33 L43,34 L43,37 L43,38 L44,38 L44,38 L44,39 L43,39 L42,39 L42,40 L38,40 L37,39 L37,39 L36,39 L36,38 L37,37 L37,34 L37,34 L37,32 L36,31 L36,30 L35,30 L34,30 L34,31 L34,37 L34,37 L34,38 L35,38 L35,39 L34,39 L33,39 L33,40 L29,40 L28,39 L27,39 L27,39 L27,38 L28,37 L28,37 L28,37 L28,36 L28,26 L28,26 L27,25 L27,25 Z"/><path d="M67,23 L67,23 L68,22 L70,22 L70,22 L72,22 L72,22 L74,22 L75,23 L75,24 L75,24 L75,24 L74,25 L74,25 L74,26 L74,28 L74,28 L74,28 L75,28 L75,28 L76,28 L76,27 L76,27 L76,27 L76,27 L76,26 L77,26 L77,26 L77,24 L77,24 L77,23 L78,22 L78,22 L80,22 L83,22 L83,22 L84,22 L85,23 L85,23 L85,24 L85,24 L85,24 L84,25 L83,25 L82,25 L82,25 L82,25 L81,25 L81,26 L81,26 L81,26 L80,26 L79,27 L79,28 L79,28 L79,28 L80,30 L80,30 L81,31 L81,31 L81,31 L81,32 L82,32 L82,32 L82,33 L83,33 L84,34 L84,34 L84,35 L85,36 L85,36 L86,36 L86,37 L87,37 L87,38 L87,38 L87,39 L87,39 L80,39 L80,39 L80,39 L79,38 L79,38 L79,37 L78,37 L77,36 L77,35 L75,34 L75,34 L74,34 L74,34 L74,36 L75,37 L75,37 L76,38 L76,39 L75,39 L74,39 L74,39 L74,40 L68,40 L68,39 L67,39 L67,39 L67,38 L67,38 L68,37 L68,37 L68,37 L68,36 L68,36 L68,36 L68,27 L68,25 L67,24 Z"/><path d="M24,22 L24,22 L25,23 L25,23 L25,24 L26,24 L26,25 L26,25 L26,27 L26,27 L26,27 L26,28 L26,28 L26,28 L24,28 L23,27 L23,27 L22,27 L22,26 L22,26 L22,26 L21,25 L21,25 L20,26 L20,36 L21,36 L21,37 L21,37 L22,37 L22,37 L22,38 L22,39 L21,39 L20,39 L20,40 L15,40 L14,39 L13,39 L12,39 L12,38 L12,37 L13,37 L13,37 L14,37 L14,37 L14,36 L14,33 L14,32 L14,26 L14,25 L13,25 L12,26 L12,26 L12,26 L12,27 L10,28 L9,28 L9,28 L8,28 L8,26 L8,26 L8,25 L9,25 L9,24 L9,24 L9,24 L10,23 L10,22 L10,22 L11,22 L12,22 L12,22 L13,22 L13,22 L22,22 L22,22 L22,22 L23,22 Z"/></svg>